<svg xmlns="http://www.w3.org/2000/svg" viewBox="0 0 252 47.2" enable-background="new 0 0 252 47.2"><path d="M74.7 29.7c-.2-.5-7.6-13.7-7.6-13.7s-.2-.4-.7-.4h-4.8c-.4 0-.6.4-.6.4s-7.4 13.3-7.6 13.7c-.3.9.7.8.7.8h3.5c.4-.1.6-.4.6-.4s.9-1.7 1-1.9c.3-.3.7-.3.7-.3h8.4s.4-.1.7.3c.1.2 1 1.9 1 1.9s.2.3.6.4h3.5c-.2 0 .8 0 .6-.8zm-8.2-5.3h-4.8s-.4 0-.1-.5c.2-.4 2.2-4.3 2.2-4.3s.2-.2.4-.2.4.2.4.2 2 3.9 2.2 4.3c.1.5-.3.5-.3.5zM77.6 30.5c-.4 0-.8-.3-.8-.8V16.3c0-.4.4-.8.8-.8h3c.4 0 .8.4.8.8v9.8c0 .4.4.8.8.8h8.4c.4 0 .8.4.8.8v2.1c0 .4-.4.8-.8.8h-13zM114.6 29.7c-.2-.5-7.6-13.7-7.6-13.7s-.2-.4-.7-.4H101.6c-.4 0-.7.4-.7.4s-7.4 13.3-7.6 13.7c-.3.9.7.8.7.8h3.5c.4-.1.6-.4.6-.4s.9-1.7 1-1.9c.3-.3.7-.3.7-.3h8.4s.4-.1.7.3c.1.2 1 1.9 1 1.9s.2.3.6.4h3.5c-.1 0 .9 0 .6-.8zm-8.1-5.3h-4.9s-.4 0-.1-.5c.2-.4 2.2-4.3 2.2-4.3s.2-.2.4-.2.4.2.4.2 2 3.9 2.2 4.3c.2.5-.2.5-.2.5zM135 23v-4.6c0-1.6-1.3-2.9-2.9-2.9h-14.6c-.4 0-.8.4-.8.8v13.4c0 .4.4.8.8.8h3c.4 0 .8-.3.8-.8v-2.2c0-.4.3-.8.8-.8h7.6c.4 0 .8.3.8.8v2.2c0 .4.4.8.8.8h3c.4 0 .8-.3.8-.8v-2.3c0-1.6-1.3-2.9-2.9-2.9h1.3c.8.1 1.5-.6 1.5-1.5zm-13.6-2.7c0-.4.4-.8.8-.8h7.3c.4 0 .8.3.8.8v1.9c0 .4-.4.8-.8.8h-7.3c-.4 0-.8-.3-.8-.8v-1.9zM161.8 15.6H156s-1.7-.1-2.5 1.9l-2.6 6s-.4 1.1-.7 1.1c-.3 0-.7-1.1-.7-1.1l-2.6-6c-.9-2-2.5-1.9-2.5-1.9h-5.8c-.4 0-.8.3-.8.8v13.3c0 .4.3.8.8.8h3.3c.4 0 .8-.3.8-.8v-9.6c0-.8.6.2.6.2l4.5 8.7c.8 1.6 1.5 1.6 1.5 1.6h2.2s.6 0 1.5-1.6l4.5-8.7s.6-1 .6-.2v9.6c0 .4.3.8.8.8h3.3c.4 0 .8-.3.8-.8V16.3c-.4-.4-.7-.7-1.2-.7zM209.7 15.6h-13.4c-1.9 0-3.4 1.5-3.5 3.4v8.1c0 1.9 1.5 3.4 3.4 3.5h13.6c1.9 0 3.4-1.6 3.4-3.5V19c-.1-1.9-1.6-3.4-3.5-3.4zm-3.6 3.7c1.2 0 2.2 1 2.2 2.2v3.2c0 1.2-1 2.2-2.1 2.2h-6.4c-1.2 0-2.2-1-2.1-2.2v-3.2c0-1.2 1-2.2 2.2-2.2h6.2zM239.3 15.6h-5.8s-1.7-.1-2.5 1.9l-2.6 6s-.4 1.1-.7 1.1c-.3 0-.7-1.1-.7-1.1l-2.6-6c-.9-2-2.5-1.9-2.5-1.9h-5.8c-.4 0-.8.3-.8.8v13.3c0 .4.3.8.8.8h3.3c.4 0 .8-.3.8-.8v-9.6c0-.8.6.2.6.2l4.5 8.7c.8 1.6 1.5 1.6 1.5 1.6h2.2s.6 0 1.5-1.6l4.5-8.7s.6-1 .6-.2v9.6c0 .4.3.8.8.8h3.3c.4 0 .8-.3.8-.8V16.3c-.4-.4-.7-.7-1.2-.7z"/><path fill="#E4701E" d="M164.7 28c0-1.3 1.1-2.4 2.4-2.4 1.3 0 2.4 1.1 2.4 2.4 0 1.3-1.1 2.4-2.4 2.4-1.4 0-2.4-1.1-2.4-2.4z"/><path d="M176 20.5c0-1.3 2.1-1.4 2.1-1.4s5.3 0 6.5 0c1.2 0 1.3.8 1.6 1.4.3.6.7.6.7.6s1.8 0 2.8 0c1 0 .9-1.4.9-1.4s0 0 0-1.7c0-2.5-4.3-2.5-4.3-2.5s-7 0-11 0-4 4.5-4 4.5v6s0 4.5 4 4.5 11 0 11 0 4.3 0 4.3-2.5c0-1.7 0-1.7 0-1.7s.1-1.4-.9-1.4c-.9 0-2.8 0-2.8 0s-.4-.1-.7.6c-.3.6-.4 1.4-1.6 1.4-1.2 0-6.5 0-6.5 0s-2.1 0-2.1-1.4v-5z"/><path fill="#231F20" d="M246.2 17.9c0 1.3-1.1 2.4-2.4 2.4-1.4 0-2.4-1.1-2.4-2.4 0-1.3 1.1-2.4 2.4-2.4 1.4 0 2.4 1.1 2.4 2.4zm-.4 0c0-1.1-.9-1.9-1.9-1.9-1.1 0-1.9.9-1.9 1.9 0 1.1.9 1.9 1.9 1.9 1 0 1.9-.8 1.9-1.9zm-1.8-1.1c.5 0 .9.3.9.7 0 .4-.3.6-.7.7l.8.9h-.5l-.7-.9h-.3v.8h-.5v-2.3h1zm-.6.3v.7h.6c.3 0 .5-.1.5-.4 0-.2-.2-.4-.5-.4h-.6z"/><path fill="#E4701E" d="M28 14.8c-.6-.6-1.6-.6-2.2 0L11.5 30.1l6.1-1.1s6.6-6.8 8-8.3c.5-.5.9-.6 1.3-.6s.9.1 1.3.6c1.4 1.4 8 8.3 8 8.3l6.1 1.1L28 14.8z"/><path d="M48.9 28.5V19c0-.2 0-2-.9-3.6-1.1-1.8-2.9-2.8-2.9-2.9-.1 0-.6-.3-1.3-.7-3.4-1.8-11.4-6.1-13.9-7-1-.3-1.9-.5-2.9-.5h-.1c-.9 0-1.9.2-2.9.5-2.5.9-10.5 5.2-13.9 7-.7.4-1.2.7-1.4.7-.1 0-1.9 1.1-2.9 2.8C5 17 5 18.9 5 18.9v9.5c0 .1-.1 2 .9 3.6 1.1 1.8 2.9 2.8 2.9 2.9.1.1.6.3 1.3.7 3.4 1.8 11.3 6.1 13.9 7 1 .3 1.9.5 2.9.5h.1c.9 0 1.9-.2 2.9-.5 2.5-.9 10.5-5.2 13.9-7 .7-.4 1.2-.7 1.4-.7.1 0 1.9-1.1 2.9-2.8.9-1.7.8-3.6.8-3.6zm-1.5 0c0 .1 0 1.6-.7 2.7-.7 1.2-2.1 2.1-2.3 2.3-.1 0-.2.1-.5.2-9.8 5.3-13.3 7-14.6 7.4-.8.3-1.6.4-2.4.4h-.1c-.8 0-1.6-.1-2.4-.4-1.7-.6-6.9-3.2-14.6-7.4-.2-.1-.4-.2-.4-.2-.1 0-1.5-.9-2.4-2.3-.7-1.1-.7-2.6-.7-2.7V19c0-.1 0-1.6.7-2.7.7-1.2 2.1-2.1 2.3-2.3.1 0 .2-.1.4-.2C17.4 9.6 22.6 7 24.3 6.4c.8-.3 1.6-.4 2.4-.4h.3c.8 0 1.6.1 2.4.4 1.7.6 6.9 3.2 14.6 7.4.2.1.4.2.4.2.1 0 1.5 1 2.4 2.3.7 1.2.7 2.7.7 2.7l-.1 9.5z"/><circle cx="37.7" cy="16.7" r="2.4" fill="#E4701E"/></svg>