<svg xmlns="http://www.w3.org/2000/svg" viewBox="0 0 304 182" enable-background="new 0 0 304 182"><style type="text/css">.st0{fill:#252F3E;} .st1{fill:#FF9900;}</style><path d="M99.6 71.4c0 3 .3 5.3.9 7.1.6 1.8 1.4 3.7 2.6 5.7.4.6.6 1.3.6 1.8 0 .8-.5 1.6-1.5 2.4l-5 3.4c-.7.5-1.4.7-2.1.7-.8 0-1.6-.4-2.4-1.1-1.1-1.2-2.1-2.5-2.9-3.8-.8-1.4-1.6-2.9-2.5-4.7-6.2 7.3-14 11-23.5 11-6.7 0-12-1.9-16-5.7S42 79.3 42 72.9c0-6.8 2.4-12.3 7.3-16.4s11.3-6.2 19.6-6.2c2.7 0 5.5.2 8.5.6s6 1 9.2 1.8v-5.8c0-6.1-1.3-10.3-3.8-12.8-2.6-2.5-6.9-3.7-13-3.7-2.8 0-5.7.3-8.6 1-3 .7-5.8 1.6-8.6 2.7-1.3.6-2.2.9-2.8 1s-1 .2-1.3.2c-1.1 0-1.7-.8-1.7-2.5V29c0-1.3.2-2.2.6-2.8.4-.6 1.1-1.1 2.2-1.7 2.8-1.4 6.1-2.6 10.1-3.6 3.9-1 8.1-1.5 12.4-1.5 9.5 0 16.4 2.2 20.9 6.5 4.4 4.3 6.6 10.9 6.6 19.6v25.9zM67.3 83.5c2.6 0 5.3-.5 8.2-1.4 2.9-1 5.4-2.7 7.6-5.1 1.3-1.5 2.2-3.2 2.7-5.1.5-1.9.8-4.2.8-6.9v-3.4c-2.3-.6-4.8-1-7.3-1.4-2.6-.3-5-.5-7.5-.5-5.3 0-9.3 1-11.9 3.2-2.6 2.2-3.9 5.2-3.9 9.2 0 3.8 1 6.5 3 8.5 1.8 1.9 4.6 2.9 8.3 2.9zm64 8.6c-1.4 0-2.4-.2-3-.8-.6-.5-1.2-1.6-1.7-3.1l-18.8-61.7c-.5-1.6-.7-2.6-.7-3.2 0-1.3.6-2 1.9-2h7.8c1.5 0 2.6.2 3.1.8.6.5 1.1 1.6 1.6 3.1L135 78.1l12.4-52.8c.4-1.6.9-2.6 1.5-3.1s1.8-.8 3.2-.8h6.4c1.5 0 2.6.2 3.2.8.6.5 1.2 1.6 1.5 3.1l12.6 53.5 13.8-53.5c.5-1.6 1-2.6 1.6-3.1.6-.5 1.7-.8 3.1-.8h7.4c1.3 0 2 .6 2 2 0 .4-.1.8-.2 1.3s-.2 1.1-.6 2l-19.2 61.7c-.5 1.6-1 2.6-1.7 3.1-.6.5-1.7.8-3 .8h-6.9c-1.5 0-2.6-.2-3.2-.8-.6-.6-1.2-1.6-1.5-3.2L155 36.8l-12.3 51.4c-.4 1.6-.9 2.6-1.5 3.2-.6.6-1.8.8-3.2.8h-6.7zm102.6 2.2c-4.1 0-8.3-.5-12.3-1.4-4-1-7.1-2-9.2-3.2-1.3-.7-2.2-1.5-2.5-2.2-.3-.7-.5-1.5-.5-2.2v-4.1c0-1.7.6-2.5 1.8-2.5.5 0 1 .1 1.4.2.5.2 1.2.5 2 .8 2.7 1.2 5.7 2.2 8.8 2.8 3.2.6 6.3 1 9.5 1 5 0 8.9-.9 11.7-2.6 2.7-1.8 4.1-4.3 4.1-7.6 0-2.2-.7-4.1-2.2-5.6-1.4-1.5-4.1-2.9-8.1-4.1L227 59.9c-5.8-1.8-10.1-4.5-12.8-8.1-2.6-3.5-4-7.4-4-11.6 0-3.4.7-6.3 2.2-8.9 1.4-2.6 3.4-4.8 5.7-6.5 2.4-1.8 5.1-3.2 8.3-4.1 3.2-1 6.5-1.4 10.1-1.4 1.8 0 3.6.1 5.3.3 1.8.2 3.5.6 5.2.9 1.6.4 3.1.8 4.5 1.3s2.6 1 3.4 1.4c1.1.6 1.9 1.3 2.4 2 .5.6.7 1.5.7 2.6v3.8c0 1.7-.6 2.6-1.8 2.6-.6 0-1.7-.3-3-1-4.5-2.1-9.7-3.1-15.3-3.1-4.5 0-8.1.7-10.6 2.2-2.5 1.5-3.8 3.8-3.8 7.1 0 2.2.8 4.1 2.4 5.7 1.6 1.5 4.5 3 8.8 4.4L246 53c5.7 1.8 9.9 4.4 12.4 7.7s3.7 7 3.7 11.2c0 3.4-.7 6.5-2.1 9.3-1.4 2.7-3.4 5.1-5.8 7-2.5 2-5.4 3.4-8.9 4.5-3.6 1-7.4 1.6-11.4 1.6z" class="st0"/><path d="M249 133.1c-26.3 19.4-64.4 29.7-97.2 29.7-46 0-87.4-17-118.7-45.2-2.5-2.2-.2-5.3 2.7-3.5 33.8 19.6 75.6 31.5 118.7 31.5 29.1 0 61.1-6.1 90.6-18.5 4.4-2.1 8.2 2.8 3.9 6zM259.9 120.6c-3.4-4.3-22.2-2.1-30.7-1-2.6.3-3-1.9-.6-3.6 15-10.5 39.7-7.5 42.5-4 2.9 3.6-.8 28.2-14.8 40.1-2.2 1.8-4.2.9-3.3-1.5 3.1-8 10.2-25.8 6.9-30z" class="st1"/></svg>