<?xml version="1.0" encoding="utf-8"?>
<!-- Generator: Adobe Illustrator 22.0.1, SVG Export Plug-In . SVG Version: 6.00 Build 0)  -->
<svg version="1.1" id="Layer_1" xmlns="http://www.w3.org/2000/svg" xmlns:xlink="http://www.w3.org/1999/xlink" x="0px" y="0px"
	 viewBox="0 0 304 182" style="enable-background:new 0 0 304 182;" xml:space="preserve">
<style type="text/css">
	.st0{fill:#252F3E;}
	.st1{fill:#FF9900;}
</style>
<g>
	<path class="st0" d="M99.6,71.4c0,3,0.3,5.3,0.9,7.1c0.6,1.8,1.4,3.7,2.6,5.7c0.4,0.6,0.6,1.3,0.6,1.8c0,0.8-0.5,1.6-1.5,2.4
		l-5,3.4c-0.7,0.5-1.4,0.7-2.1,0.7c-0.8,0-1.6-0.4-2.4-1.1c-1.1-1.2-2.1-2.5-2.9-3.8c-0.8-1.4-1.6-2.9-2.5-4.7
		c-6.2,7.3-14,11-23.5,11c-6.7,0-12-1.9-16-5.7S42,79.3,42,72.9c0-6.8,2.4-12.3,7.3-16.4s11.3-6.2,19.6-6.2c2.7,0,5.5,0.2,8.5,0.6
		s6,1,9.2,1.8v-5.8c0-6.1-1.3-10.3-3.8-12.8c-2.6-2.5-6.9-3.7-13-3.7c-2.8,0-5.7,0.3-8.6,1c-3,0.7-5.8,1.6-8.6,2.7
		c-1.3,0.6-2.2,0.9-2.8,1s-1,0.2-1.3,0.2c-1.1,0-1.7-0.8-1.7-2.5V29c0-1.3,0.2-2.2,0.6-2.8c0.4-0.6,1.1-1.1,2.2-1.7
		c2.8-1.4,6.1-2.6,10.1-3.6c3.9-1,8.1-1.5,12.4-1.5c9.5,0,16.4,2.2,20.9,6.5c4.4,4.3,6.6,10.9,6.6,19.6v25.9H99.6z M67.3,83.5
		c2.6,0,5.3-0.5,8.2-1.4c2.9-1,5.4-2.7,7.6-5.1c1.3-1.5,2.2-3.2,2.7-5.1c0.5-1.9,0.8-4.2,0.8-6.9v-3.4c-2.3-0.6-4.8-1-7.3-1.4
		c-2.6-0.3-5-0.5-7.5-0.5c-5.3,0-9.3,1-11.9,3.2c-2.6,2.2-3.9,5.2-3.9,9.2c0,3.8,1,6.5,3,8.5C60.8,82.5,63.6,83.5,67.3,83.5z
		 M131.3,92.1c-1.4,0-2.4-0.2-3-0.8c-0.6-0.5-1.2-1.6-1.7-3.1l-18.8-61.7c-0.5-1.6-0.7-2.6-0.7-3.2c0-1.3,0.6-2,1.9-2h7.8
		c1.5,0,2.6,0.2,3.1,0.8c0.6,0.5,1.1,1.6,1.6,3.1L135,78.1l12.4-52.8c0.4-1.6,0.9-2.6,1.5-3.1c0.6-0.5,1.8-0.8,3.2-0.8h6.4
		c1.5,0,2.6,0.2,3.2,0.8c0.6,0.5,1.2,1.6,1.5,3.1l12.6,53.5l13.8-53.5c0.5-1.6,1-2.6,1.6-3.1c0.6-0.5,1.7-0.8,3.1-0.8h7.4
		c1.3,0,2,0.6,2,2c0,0.4-0.1,0.8-0.2,1.3c-0.1,0.5-0.2,1.1-0.6,2l-19.2,61.7c-0.5,1.6-1,2.6-1.7,3.1c-0.6,0.5-1.7,0.8-3,0.8h-6.9
		c-1.5,0-2.6-0.2-3.2-0.8c-0.6-0.6-1.2-1.6-1.5-3.2l-12.4-51.5l-12.3,51.4c-0.4,1.6-0.9,2.6-1.5,3.2c-0.6,0.6-1.8,0.8-3.2,0.8H131.3
		z M233.9,94.3c-4.1,0-8.3-0.5-12.3-1.4c-4-1-7.1-2-9.2-3.2c-1.3-0.7-2.2-1.5-2.5-2.2c-0.3-0.7-0.5-1.5-0.5-2.2v-4.1
		c0-1.7,0.6-2.5,1.8-2.5c0.5,0,1,0.1,1.4,0.2c0.5,0.2,1.2,0.5,2,0.8c2.7,1.2,5.7,2.2,8.8,2.8c3.2,0.6,6.3,1,9.5,1
		c5,0,8.9-0.9,11.7-2.6c2.7-1.8,4.1-4.3,4.1-7.6c0-2.2-0.7-4.1-2.2-5.6c-1.4-1.5-4.1-2.9-8.1-4.1L227,59.9
		c-5.8-1.8-10.1-4.5-12.8-8.1c-2.6-3.5-4-7.4-4-11.6c0-3.4,0.7-6.3,2.2-8.9c1.4-2.6,3.4-4.8,5.7-6.5c2.4-1.8,5.1-3.2,8.3-4.1
		c3.2-1,6.5-1.4,10.1-1.4c1.8,0,3.6,0.1,5.3,0.3c1.8,0.2,3.5,0.6,5.2,0.9c1.6,0.4,3.1,0.8,4.5,1.3c1.4,0.5,2.6,1,3.4,1.4
		c1.1,0.6,1.9,1.3,2.4,2c0.5,0.6,0.7,1.5,0.7,2.6v3.8c0,1.7-0.6,2.6-1.8,2.6c-0.6,0-1.7-0.3-3-1c-4.5-2.1-9.7-3.1-15.3-3.1
		c-4.5,0-8.1,0.7-10.6,2.2c-2.5,1.5-3.8,3.8-3.8,7.1c0,2.2,0.8,4.1,2.4,5.7c1.6,1.5,4.5,3,8.8,4.4L246,53c5.7,1.8,9.9,4.4,12.4,7.7
		c2.5,3.3,3.7,7,3.7,11.2c0,3.4-0.7,6.5-2.1,9.3c-1.4,2.7-3.4,5.1-5.8,7c-2.5,2-5.4,3.4-8.9,4.5C241.7,93.7,237.9,94.3,233.9,94.3z"
		/>
	<g>
		<path class="st1" d="M249,133.1c-26.3,19.4-64.4,29.7-97.2,29.7c-46,0-87.4-17-118.7-45.2c-2.5-2.2-0.2-5.3,2.7-3.5
			c33.8,19.6,75.6,31.5,118.7,31.5c29.1,0,61.1-6.1,90.6-18.5C249.5,125,253.3,129.9,249,133.1z"/>
		<path class="st1" d="M259.9,120.6c-3.4-4.3-22.2-2.1-30.7-1c-2.6,0.3-3-1.9-0.6-3.6c15-10.5,39.7-7.5,42.5-4
			c2.9,3.6-0.8,28.2-14.8,40.1c-2.2,1.8-4.2,0.9-3.3-1.5C256.1,142.6,263.2,124.8,259.9,120.6z"/>
	</g>
</g>
</svg>
