<?xml version="1.0" encoding="utf-8"?>
<!-- Generator: Adobe Illustrator 23.0.3, SVG Export Plug-In . SVG Version: 6.00 Build 0)  -->
<svg version="1.1" id="Logo_Mark" xmlns="http://www.w3.org/2000/svg" xmlns:xlink="http://www.w3.org/1999/xlink" x="0px" y="0px"
	 viewBox="0 0 518.7 518.7" style="enable-background:new 0 0 518.7 518.7;" xml:space="preserve">
<style type="text/css">
	.st0{fill:#101820;}
</style>
<g id="XMLID_43_">
	<path id="XMLID_48_" class="st0" d="M259.4,419.9c-34.6,0-60.3-12.4-62.8-13.6l-18.1,41.8c0,0,34.2,16.4,81.5,16.4
		c47.3,0,80.2-15.9,80.2-15.9l-18.5-42.6C317.5,408,291,419.9,259.4,419.9z"/>
	<path id="XMLID_47_" class="st0" d="M305.2,367.3l-0.1-0.2l-45.7-105.7l-45.9,106l-0.1,0.2c13.9,5.9,30.2,9.1,46,9.1
		S293,372.7,305.2,367.3z"/>
	<path id="XMLID_44_" class="st0" d="M259.4,54.2C146,54.2,54.2,146,54.2,259.4c0,66.4,32.9,126.5,81.9,164.1l97.9-218.6h50
		l98.1,219c49.9-37.4,82.6-97.3,82.6-164.5C464.6,146,372.7,54.2,259.4,54.2z M385.4,356.4l-22.3-46c6.9-14.8,10.5-32.4,10.5-49.8
		c0-52.4-39.5-117.2-114.2-117.2s-114.5,64.9-114.5,117.2c0,16.9,3.8,34.8,10.4,49.3l-22.4,46.3c-19.4-26.3-31.1-60.7-31.1-95.8
		c0-83.8,67-159.1,157.5-159.1s157.5,75.2,157.5,159.1C416.7,295.9,405.1,330,385.4,356.4z"/>
</g>
</svg>
