<?xml version="1.0" encoding="utf-8"?>
<!-- Generator: Adobe Illustrator 23.0.3, SVG Export Plug-In . SVG Version: 6.00 Build 0)  -->
<svg version="1.1" id="Logo_x5F_LockupH" xmlns="http://www.w3.org/2000/svg" xmlns:xlink="http://www.w3.org/1999/xlink" x="0px"
	 y="0px" viewBox="0 0 477.6 205.2" style="enable-background:new 0 0 477.6 205.2;" xml:space="preserve">
<g>
	<g id="XMLID_1_">
		<path id="XMLID_42_" d="M288.8,87.2h9.4v6.1c2-4.4,5.6-6.5,10.6-6.5v8.7c-6.5-0.1-10.6,2-10.6,7.7v15.4h-9.4V87.2z"/>
		<path id="XMLID_6_" d="M402.8,150.1h9.4v6.1c2-4.4,5.6-6.5,10.6-6.5v8.7c-6.5-0.1-10.6,2-10.6,7.7v15.4h-9.4V150.1z"/>
		<path id="XMLID_38_" d="M429.2,87.2h9.3v31.3h-9.3V87.2z M428.6,78.3c0-2.9,2.3-5,5.2-5c3,0,5.3,2.2,5.3,5c0,2.9-2.3,5-5.3,5
			C430.8,83.3,428.6,81.2,428.6,78.3z"/>
		<path id="XMLID_35_" d="M260.7,158.9c4.5,0,6.9-2.1,6.9-6.2v-0.2c0-4.3-2.5-6-6.8-6h-5.4v12.3H260.7z M245.3,138.6h15.8
			c10.9,0,16.6,4.8,16.6,13.9v0.2c0,9-6.2,13.5-16.3,13.5h-6.1v15.2h-10V138.6z"/>
		<polygon id="XMLID_5_" points="315.4,150.1 324.8,150.1 330,170.4 336.3,150.1 344.4,150.1 349.6,170.4 355.3,150.1 363.9,150.1 
			353.9,181.4 345.2,181.4 339.7,162.5 333.7,181.4 324.9,181.4 		"/>
		<path id="XMLID_33_" d="M311.2,103.1c0,10.3,7.1,16,17.1,16c9.4,0,15.8-5.3,16.1-13.2h-8.7c-0.4,3.8-4,6.2-7.3,6.2
			c-4,0-7.9-3.1-7.9-9.1v-0.5c0-5.8,3.9-8.9,7.8-8.9c3.4,0,6.3,2.1,6.9,5.5h9.1c-0.9-8.8-8.4-12.9-15.8-12.9
			c-9.2,0-17.2,6.1-17.2,16.3V103.1z"/>
		<path id="XMLID_30_" d="M373.3,102.5c0-5.6-3.4-9-8.1-9s-7.9,3.7-7.9,9.1v0.5c0,5.2,3.6,8.8,8.1,8.8c4.5,0,7.9-4,7.9-8.9V102.5z
			 M348.6,102.7c0-10.4,7.7-16.4,14.9-16.4c5,0,8.1,2.5,9.8,5.3v-4.5h9.3v31.3h-9.3v-5.1c-1.5,3.6-4.9,5.8-10,5.8
			c-7.1,0-14.8-5.4-14.8-15.9V102.7z"/>
		<path id="XMLID_27_" d="M412.4,102.9v-0.5c0-5.6-3.6-9-8.1-9s-7.9,3.7-7.9,9.1v0.5c0,5.2,3.8,8.8,8.1,8.8
			C408.8,111.9,412.4,107.9,412.4,102.9 M387.8,103.2v-0.5c0-10.4,7.7-16.4,14.9-16.4c4.8,0,8,2.1,9.8,5.3V73.1h9.3v45.4h-9.3v-5.1
			c-1.3,3-4.7,5.8-10,5.8C395.4,119.1,387.8,113.8,387.8,103.2"/>
		<path id="XMLID_24_" d="M305.3,166v-0.4c0-5.8-3.4-9.1-8-9.1c-4.5,0-8,3.3-8,9v0.5c0,5.8,3.3,9.2,8,9.2
			C301.9,175.1,305.3,171.7,305.3,166 M280.2,166.1v-0.5c0-9.9,7.6-16.3,17.1-16.3c9.5,0,17,6.3,17,16.1v0.5
			c0,10-7.6,16.2-17.1,16.2C287.8,182.1,280.2,176,280.2,166.1z"/>
		<path id="XMLID_2_" d="M388.6,162.3c0-4.1-2.9-6.6-7.2-6.6c-4.6,0-7.1,3.8-7.1,6.6H388.6z M364.9,166.1v-0.5
			c0-9.9,6.9-16.3,16.9-16.3c8.2,0,16,5.2,16,16v2.5h-23.6c0,4.6,3.1,7.7,7.9,7.7c4.4,0,6.3-2.2,7-4.2h8.6
			c-1.3,7-7.8,10.7-15.7,10.7C370.9,182.1,364.9,175.8,364.9,166.1z"/>
		<path id="XMLID_18_" d="M468.2,102.5c0-5.6-3.4-9-8.1-9s-7.9,3.7-7.9,9.1v0.5c0,5.2,3.6,8.8,8.1,8.8c4.5,0,7.9-4,7.9-8.9V102.5z
			 M443.6,102.7c0-10.4,7.7-16.4,14.9-16.4c5,0,8.1,2.5,9.8,5.3v-4.5h9.3v31.3h-9.3v-5.1c-1.5,3.6-4.9,5.8-10,5.8
			c-7.1,0-14.8-5.4-14.8-15.9V102.7z"/>
		<g id="XMLID_14_">
			<path id="XMLID_15_" d="M256.5,75.3H270l14.7,43.3h-10.5l-3-9.6h-17.1l-3,9.6h-9.7L256.5,75.3z M256.3,102h12.8l-6.4-18.7
				L256.3,102z"/>
		</g>
	</g>
	<g id="XMLID_43_">
		<path id="XMLID_48_" d="M102.6,182.8c-17.3,0-30.2-6.2-31.4-6.8l-9,20.9c0,0,17.1,8.2,40.8,8.2c23.6,0,40.1-7.9,40.1-7.9
			l-9.2-21.3C131.7,176.9,118.4,182.8,102.6,182.8z"/>
		<path id="XMLID_47_" d="M125.5,156.6L125.5,156.6l-22.9-52.9l-23,53l0,0.1c7,3,15.1,4.6,23,4.6S119.4,159.2,125.5,156.6z"/>
		<path id="XMLID_44_" d="M102.6,0C45.9,0,0,45.9,0,102.6c0,33.2,16.4,63.3,40.9,82L89.8,75.3h25l49,109.5
			c24.9-18.7,41.3-48.7,41.3-82.2C205.2,45.9,159.2,0,102.6,0z M165.6,151.1l-11.2-23c3.4-7.4,5.3-16.2,5.3-24.9
			c0-26.2-19.7-58.6-57.1-58.6s-57.2,32.5-57.2,58.6c0,8.4,1.9,17.4,5.2,24.7L39.3,151c-9.7-13.2-15.6-30.4-15.6-47.9
			c0-41.9,33.5-79.6,78.7-79.6s78.7,37.6,78.7,79.6C181.3,120.8,175.4,137.9,165.6,151.1z"/>
	</g>
</g>
</svg>
