<svg xmlns="http://www.w3.org/2000/svg" viewBox="0 0 150 39" id="logo">
  <g fill="none" fill-rule="evenodd">
    <polygon fill="#222" points="69.32 36.888 78.257 36.888 78.257 1.236 69.32 1.236"></polygon>
    <path fill="#222" d="M100.448364 29.3796282C106.127414 29.3796282 110.299738 24.5137759 110.299738 19.0515466 110.299738 13.5888455 106.104065 8.76923137 100.448364 8.76923137 94.7693149 8.76923137 90.5738803 13.5888455 90.5738803 19.0515466 90.5738803 24.5137759 94.7693149 29.3796282 100.448364 29.3796282M100.517935.0934541482C111.226788.0934541482 119.849956 8.3101531 119.849956 18.9826613 119.849956 29.7009358 111.157456 38.0780526 100.425015 38.0780526 89.6928128 38.0780526 81.0005507 29.8158233 81.0005507 19.120432 81.0005507 8.44768785 89.8090813.0934541482 100.517935.0934541482M120.877813 26.1061595L129.07784 24.1771343C129.666806 28.4609998 132.815348 30.0087966 136.122329 30.0087966 139.407153 30.0087966 140.60772 28.0797714 140.60772 26.5770332 140.60772 25.3658781 139.905344 24.1771343 137.504209 23.7062606L132.497992 22.74163C126.518027 21.5979448 122.282327 17.8745983 122.282327 12.1552285 122.282327 5.33699614 128.556537.537198355 135.646772.537198355 144.775517.537198355 148.53566 6.18933416 149.192768 10.921898L141.15118 13.1646817C140.720892 10.2488505 138.908723 8.14077067 135.601504 8.14077067 132.747207 8.14077067 131.3882 10.0247373 131.3882 11.4600056 131.3882 12.6487494 131.954532 14.0170197 134.083818 14.4206594L139.293743 15.4074654C146.11189 16.7085017 149.849637 20.8352521 149.849637 26.1958048 149.849637 32.0274671 144.775517 37.6345443 136.077299 37.6345443 126.971188 37.6345443 122.07838 32.9019805 120.877813 26.1061595"></path>
    <polygon fill="#0A99E0" points="9.618 36.888 0 36.888 15.904 1.236 25.568 1.236"></polygon>
    <polygon fill="#222" points="55.169 18.658 67.115 1.214 56.185 1.214 49.742 11.774 43.448 1.214 32.37 1.214 44.472 18.658 37.738 28.434 25.606 1.235 15.941 1.235 31.892 36.888 42.207 36.888 49.742 25.586 57.188 36.888 67.616 36.888"></polygon>
  </g>
</svg>