<?xml version="1.0" encoding="utf-8"?>
<!-- Generator: Adobe Illustrator 22.0.1, SVG Export Plug-In . SVG Version: 6.00 Build 0)  -->
<svg version="1.1" xmlns="http://www.w3.org/2000/svg" xmlns:xlink="http://www.w3.org/1999/xlink" x="0px" y="0px"
	 viewBox="0 0 180.8 20" style="enable-background:new 0 0 180.8 20;" xml:space="preserve">
<style type="text/css">
	.st0{fill:#010101;}
</style>
<g>
	<g>
		<g>
			<g>
				<g>
					<path class="st0" d="M1.5,14.5V9.5h3c0.7,0,1.5,0,2.2,0.5c0.6,0.5,0.9,1.3,0.9,2.1c0,0.7-0.3,1.4-0.8,1.8
						c-0.6,0.5-1.4,0.5-2.1,0.5H1.5z M1.5,8.3V4h2.9c0.6,0,1.2,0,1.8,0.3c0.7,0.4,1,1,1,1.8c0,0.6-0.3,1.4-0.8,1.7
						C5.8,8.4,4.9,8.3,4.1,8.3H1.5z M4.8,15.7c1.2,0,2.2-0.1,3.2-0.8c0.9-0.7,1.2-1.6,1.2-2.7c0-1.7-1.1-3-2.7-3.3v0
						c1.4-0.3,2.3-1.4,2.3-2.9c0-1.1-0.5-2-1.4-2.5C6.6,2.8,5.8,2.8,4.8,2.8H0v13H4.8z"/>
					<path class="st0" d="M12.3,10.9c0-0.8,0.1-1.7,0.5-2.4c0.4-0.8,1.3-1.4,2.2-1.4c0.8,0,1.6,0.4,2.1,1.1c0.5,0.8,0.6,1.7,0.6,2.7
						c0,0.8-0.1,1.7-0.5,2.5c-0.5,0.9-1.2,1.4-2.2,1.4c-0.9,0-1.7-0.5-2.1-1.2C12.4,12.7,12.3,11.7,12.3,10.9z M10.6,10.9
						c0,2.5,1.3,5.1,4.2,5.1c2.9,0,4.5-2.4,4.5-5c0-2.5-1.4-5-4.2-5C12.2,5.9,10.6,8.2,10.6,10.9z"/>
					<path class="st0" d="M22.3,10.9c0-0.8,0.1-1.7,0.5-2.4c0.4-0.8,1.3-1.4,2.2-1.4c0.8,0,1.6,0.4,2.1,1.1c0.5,0.8,0.6,1.7,0.6,2.7
						c0,0.8-0.1,1.7-0.5,2.5c-0.5,0.9-1.2,1.4-2.2,1.4c-0.9,0-1.7-0.5-2.1-1.2C22.5,12.7,22.3,11.7,22.3,10.9z M20.7,10.9
						c0,2.5,1.3,5.1,4.2,5.1c2.9,0,4.5-2.4,4.5-5c0-2.5-1.4-5-4.2-5C22.2,5.9,20.7,8.2,20.7,10.9z"/>
					<path class="st0" d="M37.3,6.9L32,14.6h5.3v1.2h-7.1v-1.2l5.1-7.3h-4.7V6.1h6.7V6.9z"/>
					<path class="st0" d="M46.9,20h-1.2V0h1.2V20z"/>
					<path class="st0" d="M61.3,10.7h-4l2-6.2L61.3,10.7z M60.3,2.8h-1.8l-4.2,13h1.4l1.2-3.8h4.8l1.3,3.8h1.5L60.3,2.8z"/>
					<path class="st0" d="M75.6,10C75.6,8.4,76.7,7,78.3,7C80.1,7,81,8.4,81,10H75.6z M81,12.9c-0.4,1.1-1.4,1.9-2.6,1.9
						c-1,0-2.1-0.6-2.5-1.5c-0.4-0.7-0.4-1.4-0.4-2.2h7.1c0.1-2.7-1.2-5.2-4.2-5.2c-2.9,0-4.4,2.4-4.4,5c0,2.7,1.5,5,4.4,5
						c1.8,0,3.5-1.1,4.1-2.8L81,12.9z"/>
					<path class="st0" d="M86.1,7.8L86.1,7.8c0.5-1.1,1.7-1.9,3-1.9c1.2,0,2.1,0.5,2.7,1.5c0.5,0.8,0.5,2.1,0.5,3v5.3h-1.5V9.8
						c0-0.6,0-1.3-0.3-1.8c-0.3-0.5-1-0.9-1.6-0.9c-0.8,0-1.5,0.4-2,1c-0.6,0.8-0.8,1.6-0.8,2.6v5h-1.5V6.1h1.4V7.8z"/>
					<path class="st0" d="M174.6,7.8L174.6,7.8c0.5-1.1,1.7-1.9,3-1.9c1.2,0,2.1,0.5,2.7,1.5c0.5,0.8,0.5,2.1,0.5,3v5.3h-1.5V9.8
						c0-0.6,0-1.3-0.3-1.8c-0.3-0.5-1-0.9-1.6-0.9c-0.8,0-1.5,0.4-2,1c-0.6,0.8-0.8,1.6-0.8,2.6v5h-1.5V6.1h1.4V7.8z"/>
					<path class="st0" d="M102,20h-1.2V0h1.2V20z"/>
					<path class="st0" d="M118.7,15.7V9.5h-6v6.2h-1.5v-13h1.5v5.5h6V2.8h1.5v13H118.7z"/>
					<path class="st0" d="M128.9,11.5c0,1.7-1.2,3.2-3,3.2c-1.2,0-2.1-0.5-2.1-1.7c0-2,2.1-2.2,3.8-2.2h1.2V11.5z M127.7,9.8
						c-1.2,0-2.6,0.1-3.6,0.6c-1.1,0.5-1.8,1.5-1.8,2.7c0,1.9,1.5,2.9,3.3,2.9c1.5,0,2.6-0.6,3.3-2l0.2,1.8h1.4
						c-0.2-0.6-0.2-1.3-0.2-2V10c0-1.1,0-2.3-0.8-3.2c-0.7-0.8-1.9-0.9-2.9-0.9c-1.7,0-3.8,0.6-4,2.6l1.4,0.2
						c0.3-1.3,1.4-1.7,2.6-1.7c1.7,0,2.4,0.6,2.4,2.3v0.4H127.7z"/>
					<path class="st0" d="M134.2,6.1v1.7h0c0.5-1.1,1.6-2,2.9-2c1.4,0,2.4,1,2.7,2.1c0.5-1.2,1.7-2.1,3.1-2.1c1,0,1.9,0.5,2.4,1.4
						c0.5,0.8,0.4,1.8,0.4,2.7v5.7h-1.5V10c0-0.6,0-1.3-0.3-1.9c-0.3-0.6-0.9-1-1.6-1c-0.7,0-1.4,0.5-1.8,1.1
						c-0.6,0.8-0.5,1.5-0.5,2.4v5.2h-1.5V9.6c0-0.5,0-1.1-0.3-1.6c-0.3-0.6-1-0.9-1.6-0.9c-0.7,0-1.3,0.4-1.7,0.9
						c-0.5,0.6-0.6,1.4-0.6,2.2v5.5h-1.5V6.1H134.2z"/>
					<path class="st0" d="M149.9,15.7h-1.5V6.1h1.5V15.7z M150,4.4h-1.6V2.8h1.6V4.4z"/>
					<path class="st0" d="M153,15.7v-13h1.4v13H153z"/>
					<path class="st0" d="M66.1,15.7v-13h1.4v13H66.1z"/>
					<path class="st0" d="M70.5,15.7v-13h1.4v13H70.5z"/>
					<path class="st0" d="M161.9,15.8l-1.4,0.1c-2.1,0-2.7-1.2-2.7-3.1V7.2H156V6.1h1.7V3.7l1.5-0.2v2.5h2.1v1.2h-2.1V13
						c0,1.1,0.3,1.7,1.5,1.7l1.1-0.1V15.8z"/>
					<path class="st0" d="M164.2,10.9c0-0.8,0.1-1.7,0.5-2.4c0.4-0.8,1.3-1.4,2.2-1.4c0.8,0,1.6,0.4,2.1,1.1
						c0.5,0.8,0.6,1.7,0.6,2.7c0,0.8-0.1,1.7-0.5,2.5c-0.5,0.9-1.2,1.4-2.2,1.4c-0.9,0-1.7-0.5-2.1-1.2
						C164.4,12.7,164.2,11.7,164.2,10.9z M162.6,10.9c0,2.5,1.3,5.1,4.2,5.1c2.9,0,4.5-2.4,4.5-5c0-2.5-1.4-5-4.2-5
						C164.1,5.9,162.6,8.2,162.6,10.9z"/>
				</g>
			</g>
		</g>
	</g>
</g>
</svg>
