<svg xmlns="http://www.w3.org/2000/svg" viewBox="0 0 180.8 20" enable-background="new 0 0 180.8 20"><style type="text/css">.st0{fill:#010101;}</style><path d="M1.5 14.5v-5h3c.7 0 1.5 0 2.2.5.6.5.9 1.3.9 2.1 0 .7-.3 1.4-.8 1.8-.6.5-1.4.5-2.1.5H1.5zm0-6.2V4h2.9c.6 0 1.2 0 1.8.3.7.4 1 1 1 1.8 0 .6-.3 1.4-.8 1.7-.6.6-1.5.5-2.3.5H1.5zm3.3 7.4c1.2 0 2.2-.1 3.2-.8.9-.7 1.2-1.6 1.2-2.7 0-1.7-1.1-3-2.7-3.3C7.9 8.6 8.8 7.5 8.8 6c0-1.1-.5-2-1.4-2.5-.8-.7-1.6-.7-2.6-.7H0v13h4.8zM12.3 10.9c0-.8.1-1.7.5-2.4.4-.8 1.3-1.4 2.2-1.4.8 0 1.6.4 2.1 1.1.5.8.6 1.7.6 2.7 0 .8-.1 1.7-.5 2.5-.5.9-1.2 1.4-2.2 1.4-.9 0-1.7-.5-2.1-1.2-.5-.9-.6-1.9-.6-2.7zm-1.7 0c0 2.5 1.3 5.1 4.2 5.1 2.9 0 4.5-2.4 4.5-5 0-2.5-1.4-5-4.2-5-2.9-.1-4.5 2.2-4.5 4.9zM22.3 10.9c0-.8.1-1.7.5-2.4.4-.8 1.3-1.4 2.2-1.4.8 0 1.6.4 2.1 1.1.5.8.6 1.7.6 2.7 0 .8-.1 1.7-.5 2.5-.5.9-1.2 1.4-2.2 1.4-.9 0-1.7-.5-2.1-1.2-.4-.9-.6-1.9-.6-2.7zm-1.6 0c0 2.5 1.3 5.1 4.2 5.1 2.9 0 4.5-2.4 4.5-5 0-2.5-1.4-5-4.2-5-3-.1-4.5 2.2-4.5 4.9zM37.3 6.9L32 14.6h5.3v1.2h-7.1v-1.2l5.1-7.3h-4.7V6.1h6.7v.8zM46.9 20h-1.2V0h1.2v20zM61.3 10.7h-4l2-6.2 2 6.2zm-1-7.9h-1.8l-4.2 13h1.4l1.2-3.8h4.8l1.3 3.8h1.5l-4.2-13zM75.6 10c0-1.6 1.1-3 2.7-3 1.8 0 2.7 1.4 2.7 3h-5.4zm5.4 2.9c-.4 1.1-1.4 1.9-2.6 1.9-1 0-2.1-.6-2.5-1.5-.4-.7-.4-1.4-.4-2.2h7.1c.1-2.7-1.2-5.2-4.2-5.2-2.9 0-4.4 2.4-4.4 5 0 2.7 1.5 5 4.4 5 1.8 0 3.5-1.1 4.1-2.8l-1.5-.2zM86.1 7.8c.5-1.1 1.7-1.9 3-1.9 1.2 0 2.1.5 2.7 1.5.5.8.5 2.1.5 3v5.3h-1.5V9.8c0-.6 0-1.3-.3-1.8s-1-.9-1.6-.9c-.8 0-1.5.4-2 1-.6.8-.8 1.6-.8 2.6v5h-1.5V6.1H86v1.7zM174.6 7.8c.5-1.1 1.7-1.9 3-1.9 1.2 0 2.1.5 2.7 1.5.5.8.5 2.1.5 3v5.3h-1.5V9.8c0-.6 0-1.3-.3-1.8s-1-.9-1.6-.9c-.8 0-1.5.4-2 1-.6.8-.8 1.6-.8 2.6v5h-1.5V6.1h1.4v1.7zM102 20h-1.2V0h1.2v20zM118.7 15.7V9.5h-6v6.2h-1.5v-13h1.5v5.5h6V2.8h1.5v13h-1.5zM128.9 11.5c0 1.7-1.2 3.2-3 3.2-1.2 0-2.1-.5-2.1-1.7 0-2 2.1-2.2 3.8-2.2h1.2v.7zm-1.2-1.7c-1.2 0-2.6.1-3.6.6-1.1.5-1.8 1.5-1.8 2.7 0 1.9 1.5 2.9 3.3 2.9 1.5 0 2.6-.6 3.3-2l.2 1.8h1.4c-.2-.6-.2-1.3-.2-2V10c0-1.1 0-2.3-.8-3.2-.7-.8-1.9-.9-2.9-.9-1.7 0-3.8.6-4 2.6l1.4.2c.3-1.3 1.4-1.7 2.6-1.7 1.7 0 2.4.6 2.4 2.3v.4h-1.3zM134.2 6.1v1.7c.5-1.1 1.6-2 2.9-2 1.4 0 2.4 1 2.7 2.1.5-1.2 1.7-2.1 3.1-2.1 1 0 1.9.5 2.4 1.4.5.8.4 1.8.4 2.7v5.7h-1.5V10c0-.6 0-1.3-.3-1.9-.3-.6-.9-1-1.6-1-.7 0-1.4.5-1.8 1.1-.6.8-.5 1.5-.5 2.4v5.2h-1.5V9.6c0-.5 0-1.1-.3-1.6-.3-.6-1-.9-1.6-.9-.7 0-1.3.4-1.7.9-.5.6-.6 1.4-.6 2.2v5.5h-1.5V6.1h1.4zM149.9 15.7h-1.5V6.1h1.5v9.6zm.1-11.3h-1.6V2.8h1.6v1.6zM153 15.7v-13h1.4v13H153zM66.1 15.7v-13h1.4v13h-1.4zM70.5 15.7v-13h1.4v13h-1.4zM161.9 15.8l-1.4.1c-2.1 0-2.7-1.2-2.7-3.1V7.2H156V6.1h1.7V3.7l1.5-.2V6h2.1v1.2h-2.1V13c0 1.1.3 1.7 1.5 1.7l1.1-.1v1.2zM164.2 10.9c0-.8.1-1.7.5-2.4.4-.8 1.3-1.4 2.2-1.4.8 0 1.6.4 2.1 1.1.5.8.6 1.7.6 2.7 0 .8-.1 1.7-.5 2.5-.5.9-1.2 1.4-2.2 1.4-.9 0-1.7-.5-2.1-1.2-.4-.9-.6-1.9-.6-2.7zm-1.6 0c0 2.5 1.3 5.1 4.2 5.1 2.9 0 4.5-2.4 4.5-5 0-2.5-1.4-5-4.2-5-3-.1-4.5 2.2-4.5 4.9z" class="st0"/></svg>