<?xml version="1.0" encoding="utf-8"?>
<!-- Generator: Adobe Illustrator 18.1.1, SVG Export Plug-In . SVG Version: 6.00 Build 0)  -->
<svg version="1.1" id="Layer_1" xmlns="http://www.w3.org/2000/svg" xmlns:xlink="http://www.w3.org/1999/xlink" x="0px" y="0px"
	 viewBox="0 0 177.2 63.6" enable-background="new 0 0 177.2 63.6" xml:space="preserve">
<g>
	<path d="M121.4,48.9c0,0,0.1,0,0.1-0.1c-0.5-0.8-0.9-1.8-1.2-2.8c0,0,0,0,0,0v0c-7.5,5.3-16.5,11-26.1,16.8l-0.4,0.2
		c-0.1,0.1-0.2,0.3-0.1,0.4c0.1,0.1,0.3,0.2,0.4,0.1l0.3-0.2c1.1-0.6,2.2-1.2,3.4-1.8l0,0c9.4-4.3,17.1-8,24.4-11.9
		c-0.2-0.3-0.4-0.6-0.6-0.9C121.5,48.8,121.5,48.9,121.4,48.9z"/>
	<path d="M48.2,12.4l0.8-0.1c27-4.8,83.1-11.5,95.1,0.5c3.7,3.6,2.8,8.4-1.5,13.9c2.3,1.5,3.9,3.8,4.7,6.7l0,0
		c0.1,0.5,0.2,1.1,0.3,1.6c0,0,0.1,0,0.1-0.1c18.7-11.5,28.9-18.7,23.2-27.4l0,0c-0.2-0.6-0.5-1.2-1-1.7C165.9,1.6,155.2,0,141.3,0
		c-28.6,0-70.5,6.9-92.4,11.7h0l-0.8,0.2c-0.2,0-0.3,0.2-0.2,0.3C47.9,12.4,48,12.5,48.2,12.4z"/>
	<path d="M169.4,50.3c-2.6,0-3.9-1.8-4-3.8c0-0.8,0-1.3,0.2-1.9c4.7-0.1,11.7-1.6,11.6-6.7c-0.1-2.2-2-3.2-4.1-3.2
		c-4.9,0-10.8,5.9-10.6,12.2c0,0.1,0,0.3,0,0.4c-0.5,0.9-1.8,2.7-2.7,2.7c-0.3,0-0.6-0.2-0.6-0.7c0-0.7,0.3-1.7,0.5-2.3l1.8-6.7
		c0.5-1.9,0.7-3,0.7-3.7c0-1.3-0.8-1.8-1.9-1.8c-1.9,0-4.4,1.6-9.8,7.6h-0.1l0.7-3c0.4-1.6,0.7-3.4,1.1-4.6c-1.8,0.7-4.4,1.4-6,1.7
		c-0.2-6.1-4.2-10-10.1-10c-9,0-15.1,8.1-14.9,15.9c0.2,6.1,4.1,10.1,10.1,10.1c9.1,0,14.7-7.1,14.9-15.1c0.5-0.1,1.2-0.1,1.6-0.1
		c0.5,0,1,0.1,1.1,0.6c0,0.3-0.6,2.6-0.7,3.1l-1.1,4.7c-0.5,2-0.9,4.6-1.4,5.6h2.9l1.6-7.6c5-5.2,6.9-6.7,8.1-6.7
		c0.5,0,0.9,0.3,0.9,1c0,0.9-0.5,3-0.7,3.6l-1.7,5.8c-0.4,1.3-0.7,2.5-0.6,3.3c0.1,1.3,0.8,1.8,1.9,1.8c2,0,3.4-1.9,4.7-3.9
		c0.6,2.6,2.7,3.9,5.1,3.9c3.5,0,6.4-2.4,7.9-5.3l-0.6-0.4C174,48.5,171.7,50.3,169.4,50.3z M172.6,35.6c1.2,0,1.8,0.8,1.9,2
		c0.1,3.3-3.7,6.2-8.5,6.2C166.5,41.4,169.6,35.6,172.6,35.6z M132,51c-3.8,0-6.7-3.8-6.9-8.4c-0.2-6.1,3.9-15.1,10.2-15.1
		c3.8,0,6.8,3.8,7,8.4C142.5,41.9,139.4,51,132,51z"/>
	<polygon points="116.6,47.1 120.1,26.6 112.9,26.4 109.2,47.1 	"/>
	<path d="M100.7,45.2l0.1,1.9l7.5,0l0-0.3c-0.6-0.4-0.8-0.9-0.7-1.5l1.3-7.4c0.2-1.1,0.3-1.7,0.4-2.5c0-2-1.7-3.5-7.1-3.5
		c-3.4,0-6.7,0.3-10.1,0.8l-1.4,3.9c2.6-0.7,7.7-1.5,10.4-1c1,0.2,1.2,0.6,1.1,1.4c-0.1,0.4-0.3,0.7-0.8,0.9
		c-0.4,0.1-1.2,0.4-2.5,0.5c-2.5,0.2-4.4,0.4-5.7,0.6c-1.3,0.2-2.2,0.5-3,0.9c-0.8,0.4-1.5,0.8-2,1.4c-0.5,0.6-0.9,1.5-0.9,2.2
		c-0.1,1.2,0.4,1.8,1.4,2.6c1,0.9,2.4,1.1,4.8,1.1c1.5,0,2.4-0.1,3.6-0.4C98.2,46.4,99.6,45.9,100.7,45.2z M94.8,42.7
		c0.1-0.4,0.3-0.7,0.6-1c0.4-0.3,1-0.5,1.9-0.6c1.4-0.2,2.3-0.4,2.8-0.5c0.5-0.1,0.9-0.2,1.3-0.3c-0.2,0.9-0.3,1.5-0.4,1.7
		c-0.2,0.4-0.4,0.7-0.6,1c-0.4,0.3-0.9,0.6-1.5,0.8c-0.6,0.2-1.2,0.3-1.9,0.3c-0.9,0-1.5-0.1-1.8-0.4C94.9,43.4,94.8,43.1,94.8,42.7
		z"/>
	<path d="M90.8,32.3h-3.7l0.8-4.7l-7.6,1.7l-0.5,3H77l-0.6,3h2.7L77,47.1c0,0,7.3,0,7.3,0l2.2-11.9l3.6,0L90.8,32.3z"/>
	<polygon points="65.9,47.3 73.2,47.3 75.8,32.3 68.6,32.3 	"/>
	<path d="M73.2,26.7c-2.1,0-4.1,1-4.3,2.2c-0.2,1.2,1.3,2.2,3.5,2.2c2.2,0,4.1-1,4.3-2.2C77,27.6,75.4,26.7,73.2,26.7z"/>
	<path d="M65.8,35.7c-0.5-1.2-1.3-2.2-2.6-2.8c-1.2-0.6-2.3-0.7-3.9-0.7c-1.5,0-2.9,0.4-4.1,0.9c-1.2,0.5-2.1,1.1-2.6,1.8l0.5-2.6
		h-6.3l-3.5,20h7.1l1.2-6.8c0.5,0.5,0.8,0.8,1.2,1c0.4,0.2,0.8,0.4,1.4,0.6c0.6,0.2,1.3,0.2,2.2,0.2c2.5,0,4.2-0.4,6.2-1.8
		c2-1.4,3.1-3.3,3.6-5.8C66.4,38.2,66.3,36.9,65.8,35.7z M59.1,39.3c-0.1,0.7-0.4,1.4-0.8,1.9c-0.4,0.5-0.8,0.9-1.4,1.2
		c-0.5,0.3-1.2,0.4-1.8,0.4c-1,0-1.7-0.3-2.2-0.9c-0.5-0.6-0.6-1.5-0.4-2.8c0.2-1.1,0.7-2,1.4-2.5c0.8-0.6,1.6-0.9,2.6-0.9h0
		c0.9,0,1.7,0.3,2.2,0.9C59.1,37.2,59.3,38.1,59.1,39.3z"/>
	<path d="M42.4,45.3l1.3-7.4c0.2-1.1,0.3-1.7,0.3-2.5c0.1-2-1.7-3.5-7.1-3.5c-3.4,0-6.7,0.3-10.1,0.8l-1.4,3.9
		c2.6-0.7,7.7-1.5,10.4-1c1,0.2,1.3,0.6,1.1,1.4c-0.1,0.4-0.3,0.6-0.8,0.8c-0.4,0.2-1.2,0.5-2.5,0.6c-2.5,0.2-4.4,0.4-5.7,0.6
		c-1.3,0.2-2.2,0.5-3,0.8c-0.8,0.4-1.5,0.8-2,1.4c-0.5,0.6-0.9,1.5-0.9,2.2c0,1.2,0.4,1.8,1.4,2.7c1,0.8,2.4,1.1,4.8,1.1
		c1.5,0,2.4-0.1,3.6-0.4c1.2-0.3,2.5-0.9,3.6-1.6l0.1,1.9l7.6,0l0-0.3C42.5,46.4,42.3,45.9,42.4,45.3z M35.9,42
		c-0.2,0.4-0.4,0.7-0.7,1c-0.4,0.3-0.9,0.6-1.5,0.8c-0.6,0.2-1.2,0.3-1.9,0.3c-0.8,0-1.4-0.1-1.8-0.4c-0.3-0.3-0.5-0.6-0.4-1
		c0.1-0.4,0.3-0.7,0.6-1c0.4-0.3,1-0.5,2-0.6c1.4-0.2,2.3-0.4,2.8-0.5c0.5-0.1,0.9-0.2,1.2-0.3C36.1,41.1,36,41.7,35.9,42z"/>
	<path d="M9,37.5c0.1-2.1,2.6-6.5,8.9-6.5c2,0,3.5,0.4,5.6,1.5l0.9-5.1c-2.8-1.1-4.7-1.2-7.1-1.2C9,26.3,1.1,30.1,0.1,37.7
		c-1,7.8,8.5,9.7,12.7,9.7c2.4,0,5-0.1,7.3-0.4l1-5.3c-2.4,0.5-3.7,0.6-6,0.6C11.6,42.4,8.8,40.7,9,37.5z"/>
</g>
</svg>
