<svg class="uc-corpNav-svg" version="1.1" xmlns="http://www.w3.org/2000/svg" xmlns:xlink="http://www.w3.org/1999/xlink" viewBox="0 0 863.1929 115.7506">
  <path d="M188.1179,0a57.8753,57.8753,0,1,0,57.875,57.875A57.8751,57.8751,0,0,0,188.1179,0Zm0,99.9829a42.1079,42.1079,0,1,1,42.1079-42.1079A42.1558,42.1558,0,0,1,188.1179,99.9827Z M403.0017,3.4153a1.5726,1.5726,0,0,0-1.3213.7413L342.0535,84.74l-59.628-80.583a1.5737,1.5737,0,0,0-2.9091.811v107.37h15.767V48.9329l45.8453,61.4961a1.1951,1.1951,0,0,0,1.8486,0l45.8452-61.4961v63.4043H404.59V4.9676A1.57,1.57,0,0,0,403.0017,3.4153Z M501.0427,3.4153h-52.54V112.3372H464.27V73.2943h36.7724a34.9395,34.9395,0,1,0,0-69.879Zm0,54.1119H464.27V19.1824h36.7724a19.1724,19.1724,0,1,1,0,38.3448Z M57.8748,99.9837A42.1079,42.1079,0,1,1,91.1682,32.14l11.3223-11.129A57.8747,57.8747,0,1,0,102.491,94.74L91.1687,83.6107A42.0506,42.0506,0,0,1,57.8748,99.9837Z M723.1775,47.9271l-12.085-2.7207c-12.9707-2.7847-13.9775-11.6592-13.9775-14.314,0-8.9038,7.1387-14.0088,19.5869-14.0088,12.8027,0,22.1514,8.625,25.0029,11.6069l11.1143-10.8618c-10.4209-10.87-22.2344-16.1528-36.1172-16.1528-21.1465,0-35.3545,11.8208-35.3545,29.4165,0,5.5947,0,22.6182,28.418,29.5825l13.289,3.0156c12.253,3.3584,18.2071,9.2442,18.2071,17.9961,0,10.2344-9.919,17.3819-24.1221,17.3819-15.1943,0-24.5478-10.3867-27.3379-13.9961L678.6863,95.7171c7.4765,8.4648,20.2168,18.5566,38.4531,18.5566,22.74,0,39.89-14.0957,39.89-32.7871C757.0291,64.7308,745.3191,53.1248,723.1775,47.9271Z M829.3416,47.9271l-12.086-2.7207c-12.9707-2.7847-13.9775-11.6592-13.9775-14.314,0-8.9038,7.14-14.0088,19.5879-14.0088,12.8027,0,22.1513,8.625,25.0029,11.6069l11.1143-10.8618C848.5613,6.7591,836.7488,1.4759,822.866,1.4759c-21.1465,0-35.3545,11.8208-35.3545,29.4165,0,5.5947,0,22.6182,28.4179,29.5825l13.2891,3.0156c12.252,3.3584,18.207,9.2442,18.207,17.9961,0,10.2344-9.9189,17.3819-24.122,17.3819-15.1953,0-24.5479-10.3867-27.3379-13.9961L784.85,95.7171c7.4756,8.4648,20.2159,18.5566,38.4532,18.5566,22.74,0,39.89-14.0957,39.89-32.7871C863.1931,64.7308,851.4832,53.1248,829.3416,47.9271Z M163.2650442962 71.5781329844L201.8221891367 33.022737772 212.9709595002 44.1720140621 174.4138146597 82.7274092745z M600.2224,2.4544a1.5843,1.5843,0,0,0-1.4375.91L541.2976,112.3372h17.833L573.8523,84.42h52.7393l14.7216,27.917h17.833L601.6589,3.3641A1.5828,1.5828,0,0,0,600.2224,2.4544ZM582.1667,68.6526l18.0557-34.2382,18.0547,34.2382Z" fill-rule="evenodd"></path>
</svg>