<?xml version="1.0" encoding="UTF-8"?>
<svg width="2501px" height="336px" viewBox="0 0 2501 336" version="1.1" xmlns="http://www.w3.org/2000/svg" xmlns:xlink="http://www.w3.org/1999/xlink">
    <!-- Generator: Sketch 52.1 (67048) - http://www.bohemiancoding.com/sketch -->
    <title>Artboard Copy 6</title>
    <desc>Created with Sketch.</desc>
    <defs>
        <polygon id="path-1" points="0.276150776 0.698988157 1110.82256 0.698988157 1110.82256 206.722667 0.276150776 206.722667"></polygon>
        <polygon id="path-3" points="0.927120416 0.863040856 209.876742 0.863040856 209.876742 103.255884 0.927120416 103.255884"></polygon>
        <polygon id="path-5" points="0.237797653 0.668230769 637.414087 0.668230769 637.414087 236.600868 0.237797653 236.600868"></polygon>
    </defs>
    <g id="Artboard-Copy-6" stroke="none" stroke-width="1" fill="none" fill-rule="evenodd">
        <g id="social-tables-logo-white">
            <g id="Group-4" transform="translate(0.000000, 129.000000)">
                <mask id="mask-2" fill="white">
                    <use xlink:href="#path-1"></use>
                </mask>
                <g id="Clip-2"></g>
                <path d="M0,45.9155556 C2.34267908,41.7740444 3.1665289,37.0547556 5.42636275,32.7976889 C13.0297141,18.4919111 25.617587,10.6017778 40.207553,6.13208889 C67.6063125,-2.25724444 95.1523524,-0.121777778 122.532702,7.03804444 C125.616386,7.84693333 126.785424,9.4832 126.720989,12.5708444 C126.605926,18.1544889 126.546093,23.7473778 126.739399,29.3310222 C126.863667,33.0241778 125.837306,33.9116444 122.261154,32.5157333 C105.015538,25.7765333 87.1301724,23.4423111 68.7477357,25.5454222 C57.3749262,26.8488889 46.3979329,29.5297778 37.9293091,38.0485333 C27.0719811,48.9847111 28.3975048,65.1301333 40.5619465,74.6657778 C46.7385188,79.5098667 53.6745058,82.1630222 61.2824597,83.5774222 C82.6565298,87.5386667 103.782064,85.9024 124.663665,80.5406222 C129.399651,79.3249778 130.536472,80.3603556 130.251116,84.9779556 C129.92894,90.1733333 130.05781,95.4103111 130.218898,100.619556 C130.306346,103.402133 129.243166,104.386667 126.555298,105.019911 C102.640641,110.691378 78.4912556,112.101156 54.26823,108.038222 C38.5552508,105.398933 24.01131,99.672 12.3025171,87.9962667 C6.05690702,81.7655111 3.26318167,73.8337778 0,66.0545778 C0,59.3384889 0,52.6270222 0,45.9155556" id="Fill-1" fill="#00A0DD" mask="url(#mask-2)"></path>
                <path d="M1071.55246,207 C1070.48007,205.0448 1069.75748,203.052622 1069.78049,200.723022 C1069.86794,191.256711 1069.93237,181.7904 1069.76208,172.328711 C1069.67924,167.507733 1071.75497,165.714311 1076.44033,165.811378 C1085.67757,165.991644 1094.92402,165.977778 1104.16126,165.816 C1108.73616,165.7328 1110.95457,167.198044 1110.8165,172.217778 C1110.54955,181.674844 1110.68763,191.1504 1110.77507,200.616711 C1110.79348,202.890844 1110.33323,204.970844 1109.42194,207 C1096.79724,207 1084.17715,207 1071.55246,207" id="Fill-3" fill="#B5226E" mask="url(#mask-2)"></path>
            </g>
            <path d="M1090.18399,93.8911998 C1050.6946,93.9694957 1017.78755,124.707558 1015.62261,163.537736 C1012.53642,218.805455 1067.46136,257.994873 1118.80263,237.085252 C1121.88421,235.832517 1124.75851,235.680531 1127.97828,236.228603 C1138.75691,238.057043 1149.60924,239.503215 1160.36944,241.437585 C1164.82829,242.234361 1165.37183,240.622386 1164.6901,236.822731 C1163.2161,228.615475 1162.02308,220.357556 1160.68727,212.122666 C1159.44819,204.463482 1159.07969,197.209594 1161.521,189.310916 C1176.16888,141.941875 1139.91308,93.7944813 1090.18399,93.8911998 Z M1090.30836,65 C1158.54076,65.193437 1208.26063,130.962022 1189.43027,196.458874 C1188.25107,200.567107 1188.48599,204.385186 1189.13087,208.484208 C1192.43816,229.564237 1195.35852,250.699534 1198.82242,271.747323 C1199.56863,276.288487 1197.9242,276.297699 1194.62152,275.763444 C1177.40796,272.986241 1160.15294,270.434715 1142.97623,267.450258 C1133.42748,265.792226 1124.38541,265.575761 1114.64779,268.053597 C1053.46296,283.652911 993.130286,240.447372 987.432354,177.538892 C982.383903,121.796792 1022.08979,73.0046079 1078.12943,66.1237769 C1082.17372,65.6263675 1086.25025,65.3684515 1090.30836,65 Z" id="Fill-5" fill="#B5226E"></path>
            <path d="M2139.15564,189.609902 C2138.85054,194.362447 2139.65027,199.271264 2141.7582,203.885921 C2145.04492,211.069892 2151.47506,215.087034 2159.02388,214.719332 C2166.98412,214.333245 2172.26783,210.021943 2174.91662,202.828778 C2178.20796,193.902819 2178.35588,184.714873 2175.30492,175.655623 C2172.72547,167.975253 2166.68826,163.521467 2159.20416,163.319231 C2151.53053,163.112399 2144.62888,167.492645 2141.59179,174.653636 C2139.61791,179.318851 2138.94762,184.246054 2139.15564,189.609902 Z M2139.25734,151.16669 C2145.9371,144.745699 2152.46431,140.04831 2160.85908,138.733776 C2178.00456,136.058746 2193.16692,142.79688 2201.75122,158.415009 C2212.70695,178.35823 2212.72544,199.170146 2201.94999,219.03523 C2190.12058,240.844537 2162.11182,245.404038 2142.9,229.648021 C2141.94311,228.862058 2141.00471,228.062307 2140.0247,227.234978 C2139.64564,227.814109 2139.32668,228.080692 2139.31743,228.356469 C2139.08168,237.521433 2139.0863,237.521433 2129.76237,237.521433 C2118.39061,237.521433 2107.01884,237.374353 2095.65169,237.604166 C2091.91195,237.67311 2090.79789,236.501061 2091.02902,232.879199 C2091.32487,228.076096 2091.19544,223.245415 2091.066,218.428523 C2091.00128,216.043058 2091.84261,215.087034 2094.26951,215.20194 C2097.24651,215.335232 2100.26049,214.972127 2103.20976,215.284673 C2107.30082,215.721319 2108.09592,213.947158 2108.07743,210.228775 C2107.94337,182.058228 2107.90639,153.887682 2108.10979,125.717136 C2108.14214,121.442604 2106.85704,120.481983 2102.7706,120.541734 C2091.10298,120.720989 2091.09836,120.537138 2091.09836,109.179752 C2091.09836,98.130316 2091.09836,98.130316 2102.05409,98.130316 C2112.67236,98.1257197 2123.30913,98.3647258 2133.92278,98.0108129 C2138.52696,97.8499434 2139.42838,99.4724272 2139.34979,103.65963 C2139.10479,117.370307 2139.25734,131.085581 2139.25734,144.800854 C2139.25734,146.575015 2139.25734,148.349175 2139.25734,151.16669 Z" id="Fill-6" fill="#B5226E"></path>
            <path d="M363.512572,168.618415 C375.20918,168.618415 386.915022,168.504621 398.607012,168.682139 C402.361194,168.736761 402.772168,167.348473 401.28989,164.544587 C398.994898,160.18855 395.411571,157.047834 391.181767,154.594433 C375.786391,145.659323 359.509036,146.232845 343.277857,151.257991 C336.27744,153.42463 329.863469,157.516665 325.72602,164.098514 C323.634206,167.421301 323.96668,168.773175 328.413515,168.691243 C340.105505,168.47731 351.811347,168.618415 363.512572,168.618415 Z M377.120903,187.890579 C359.989275,187.890579 342.862265,188.049891 325.730637,187.794992 C320.508031,187.717612 319.976996,189.761353 321.690159,193.680421 C325.024131,201.331935 331.050216,206.366184 338.65555,209.45228 C354.937523,216.056888 371.958326,216.58034 389.168455,214.727773 C402.181104,213.330382 414.925926,210.754084 426.765682,204.991552 C430.72766,203.061605 431.655815,204.490858 431.318724,208.2142 C431.152487,210.034905 431.2864,211.882921 431.2864,213.717281 C431.291018,226.011593 430.469069,226.821807 418.384576,230.932049 C399.027222,237.509346 379.10651,238.565355 358.885648,237.773348 C343.808892,237.181619 329.58179,234.204766 316.181256,226.890083 C291.832179,213.589832 279.863128,175.646337 304.76171,149.8606 C317.381855,136.787937 333.285177,132.418245 350.352157,130.775058 C368.481206,129.031733 386.573313,129.74636 403.30782,137.994154 C421.700077,147.056714 433.198124,161.003315 433.987748,182.191772 C434.163221,186.934709 432.468529,188.040787 427.952428,187.977062 C411.010126,187.749474 394.063206,187.890579 377.120903,187.890579 Z" id="Fill-7" fill="#000000"></path>
            <path d="M458.08931,184.161105 C458.08931,168.563771 458.213868,152.961777 458.001657,137.364444 C457.946298,133.338123 459.270311,132.18242 463.099338,132.336203 C469.599457,132.601828 476.127256,132.639109 482.627375,132.326883 C486.830078,132.126499 488.60158,133.119098 488.329396,137.830453 C487.946493,144.554968 488.320169,144.64817 494.33128,141.409405 C515.80151,129.847713 538.194398,126.594967 561.68986,133.860053 C579.36797,139.331003 589.120455,151.61967 589.683276,170.767995 C590.287617,191.42153 589.817062,212.107686 589.946234,232.779862 C589.964687,236.074548 588.63606,236.983266 585.614358,236.918025 C578.920481,236.773562 572.208151,236.638419 565.528114,236.959966 C561.233145,237.16967 560.162863,235.510677 560.181316,231.419114 C560.268968,213.948423 560.476566,196.463752 559.83532,179.007041 C559.337085,165.52539 550.502643,155.0728 537.294807,152.887216 C520.507061,150.11446 505.615376,153.935737 491.973891,163.777855 C489.20592,165.777035 488.103345,168.321446 488.135638,171.905058 C488.301716,191.635895 488.057212,211.371391 488.329396,231.102228 C488.393982,235.930085 486.866984,237.225591 482.327511,236.969286 C475.836619,236.610459 469.304207,236.703661 462.799474,236.941325 C459.118072,237.076468 457.987817,235.748342 458.02011,232.080848 C458.176962,216.110707 458.08931,200.135906 458.08931,184.161105" id="Fill-8" fill="#000000"></path>
            <path d="M2033.20658,205.343435 C2032.98075,202.783582 2033.62599,200.937357 2031.46445,199.685055 C2026.61596,196.876583 2021.67991,194.14638 2016.02488,193.819492 C2010.35141,193.488001 2005.231,195.40789 2002.39658,200.670322 C1999.86633,205.361852 2000.82958,210.090213 2004.14793,214.146384 C2007.85804,218.685979 2012.6927,219.556145 2018.20485,217.976955 C2022.76759,216.669404 2026.4823,213.966825 2030.20624,211.195186 C2032.51526,209.47327 2033.6352,207.406051 2033.20658,205.343435 Z M2033.46007,229.012869 C2024.29311,234.869223 2015.75756,237.990771 2006.19886,237.999979 C1996.70468,238.009187 1988.33044,235.025761 1980.97014,229.187823 C1968.23595,219.077324 1967.55385,198.653747 1979.76724,186.710836 C1992.69039,174.08192 2008.31431,173.147297 2024.92452,176.973265 C2027.53312,177.576396 2031.128,180.417096 2032.47839,178.464978 C2034.3127,175.817648 2033.44624,171.692417 2032.25256,168.27621 C2028.53323,157.668473 2014.55927,152.557975 2003.8207,160.01654 C1993.24345,167.360004 1984.00736,161.001807 1974.2136,160.490757 C1971.31926,160.338824 1972.84939,158.161107 1973.64211,156.816724 C1978.94226,147.829613 1987.10449,142.62243 1996.91668,139.965892 C2010.20854,136.360919 2023.7124,136.061656 2037.16556,138.962209 C2055.1999,142.843425 2063.6571,153.073629 2064.16407,171.825934 C2064.50512,184.43183 2064.40834,197.060745 2064.19172,209.671245 C2064.13181,213.395923 2065.2748,214.344358 2068.88351,214.33515 C2080,214.316733 2080,214.468667 2080,225.661118 C2080,236.632575 2080,236.632575 2068.96647,236.632575 C2059.31098,236.632575 2049.64166,236.402373 2039.99538,236.72926 C2035.15151,236.895006 2031.80089,236.397769 2033.46007,229.012869 Z" id="Fill-9" fill="#B5226E"></path>
            <g id="Group-13" transform="translate(2291.000000, 137.000000)">
                <mask id="mask-4" fill="white">
                    <use xlink:href="#path-3"></use>
                </mask>
                <g id="Clip-11"></g>
                <path d="M52.6355833,41.1130819 C58.4040352,41.1130819 64.1771093,41.0532651 69.9455613,41.1452909 C72.4507704,41.1913039 73.1995598,40.2894504 72.765077,37.8277586 C71.1704329,28.823028 62.3929567,21.7416379 52.6633162,21.7554418 C42.1617755,21.773847 34.9373441,27.8889655 33.0931034,37.9473922 C32.5985326,40.6805603 33.5553191,41.1682974 35.8802641,41.1406897 C41.4638298,41.0762716 47.0473955,41.1176832 52.6355833,41.1130819 Z M103.539398,79.0323384 C90.0935437,98.7948922 71.1380778,103.87472 49.4740279,102.512737 C41.824358,102.034203 34.3688188,100.405345 27.3801174,97.0924138 C-0.0986060161,84.0523491 -7.78987528,45.8340086 12.0206897,20.7431573 C33.5922964,-6.593125 77.8910492,-5.57163793 96.139325,22.7815302 C102.457814,32.5960884 104.149523,43.768028 104.912179,55.1608297 C105.194131,59.2881897 102.453191,58.4553556 100.165224,58.4599569 C79.476449,58.4783621 58.7876742,58.4645582 38.0988995,58.4737608 C31.8913426,58.4737608 31.5030814,59.0029095 33.0838591,65.1410345 C36.7908291,79.529278 53.4398386,86.7072953 67.5651504,79.9756034 C68.9055759,79.3360237 70.4909758,78.806875 71.3969186,77.7439763 C77.2578136,70.9156573 83.9368305,71.7530927 91.2398386,75.0154095 C94.9421864,76.6672737 98.9819516,77.5737284 103.539398,79.0323384 Z" id="Fill-10" fill="#B5226E" mask="url(#mask-4)"></path>
                <path d="M123.807557,83.8360884 C123.812179,79.3820366 123.890756,74.9233836 123.779824,70.4739332 C123.72898,68.0950647 124.625679,67.1932112 127.047689,67.2484267 C132.635877,67.3680603 138.233309,67.3726616 143.826119,67.2438254 C145.919956,67.1932112 146.7427,67.9892349 147.167938,69.9493858 C149.973588,82.9618427 172.700734,85.0830388 180.946662,78.7930711 C185.878503,75.0292134 184.940205,68.9463039 179.083933,66.5352263 C172.834776,63.9539009 166.141893,63.1808836 159.569186,61.9477371 C152.233822,60.5719504 145.041746,58.7360345 138.228687,55.6393642 C125.577843,49.8831466 119.1438,40.3998815 120.123698,28.9978772 C121.163683,16.9746983 129.927293,7.30738147 142.980264,3.9484375 C153.907043,1.12784483 164.746001,1.82724138 175.501761,5.02053879 C177.72964,5.683125 179.620103,5.25060345 182.083712,4.615625 C188.369846,3.00057112 195.330814,3.92543103 202.019076,3.97604526 C203.451944,3.98524784 203.502788,5.38864224 203.50741,6.51595905 C203.516654,13.9424461 203.451944,21.3643319 203.553632,28.7862177 C203.590609,31.413556 202.213206,31.7954634 200.050037,31.7678556 C194.831621,31.6896336 189.608584,31.6942349 184.394791,31.7678556 C182.388775,31.7908621 181.168525,31.2617134 179.897432,29.4073922 C174.757594,21.9164871 156.92069,18.7784052 149.266398,23.6925862 C147.14945,25.0499677 146.285106,26.9042888 146.409905,29.3153664 C146.543947,32.0163254 148.411299,33.2448707 150.690022,33.7786207 C157.387528,35.3476616 164.126632,36.7326509 170.833382,38.2556789 C176.453925,39.5348384 182.102201,40.7035668 187.653412,42.2542026 C201.270286,46.0686746 208.822891,55.2896659 209.798166,68.9509052 C210.731842,82.0645905 203.701541,94.1475862 191.14314,99.0065517 C177.133382,104.436078 162.892517,105.287317 149.058401,97.865431 C148.425165,97.5249353 147.736464,97.2948707 147.075495,97.0187931 C145.485473,104.003556 139.92964,100.313319 136.375202,100.446756 C123.816801,100.929892 123.807557,100.635409 123.807557,88.2855388 C123.807557,86.8039224 123.807557,85.322306 123.807557,83.8360884" id="Fill-12" fill="#B5226E" mask="url(#mask-4)"></path>
            </g>
            <path d="M273.316138,161.109166 C267.445977,169.907692 261.396959,178.585755 255.462592,187.342582 C246.313395,200.843849 237.182542,214.368282 228.074619,227.901982 C226.932689,229.593115 225.997132,231.432512 224.905649,233.160712 C220.351688,240.342237 212.954367,241.111355 208.047279,234.286589 C199.274139,222.08263 191.005466,209.512645 182.557937,197.07239 C173.807727,184.182711 165.107964,171.255966 156.371513,158.352387 C151.588248,151.286693 146.846258,144.193199 141.93917,137.215537 C140.090986,134.583856 141.132023,134.027867 143.654358,134.027867 C152.899862,134.027867 162.145367,134.060299 171.390871,134.000067 C173.500461,133.990801 174.734112,134.940615 175.848525,136.668815 C188.130004,155.697539 200.48486,174.675298 212.803027,193.676224 C216.182956,198.897887 216.0041,198.819122 219.292307,193.583559 C231.229831,174.545568 243.286593,155.595608 255.279149,136.599316 C256.233051,135.088879 257.356636,134.037133 259.264439,134.037133 C269.39964,134.060299 279.539427,134.0464 291,134.0464 C284.657474,143.771574 279.067062,152.491336 273.316138,161.109166 Z" id="Fill-14" fill="#000000"></path>
            <path d="M699.986119,206.403527 C699.986119,214.016664 699.963009,221.134786 699.999986,228.243742 C700.004608,230.067962 698.862928,230.81965 697.420805,231.433835 C679.911955,238.868217 662.236707,241.274536 644.75559,231.800512 C634.304822,226.130765 628.064868,217.133421 627.787537,205.014736 C627.445495,189.880131 627.353051,174.731776 627.570294,159.592588 C627.635005,154.862451 626.081949,153.501161 621.533716,153.794503 C616.153489,154.142846 610.736284,153.90909 605.337568,153.849505 C603.752157,153.831171 601.769238,154.349102 601.131376,152.144455 C600.581336,150.251484 601.85706,149.142285 603.128162,147.936833 C614.6559,136.986933 626.128171,125.96828 637.632798,114.981712 C641.774279,111.026181 645.971226,107.125651 650.126573,103.179287 C651.203543,102.161758 652.289757,100.621713 653.819702,101.084643 C655.996753,101.749246 655.007604,103.912642 655.030715,105.411435 C655.132403,111.690784 655.405112,117.993049 654.966005,124.240314 C654.623963,129.107955 656.537549,130.075066 660.99796,129.932979 C670.672201,129.616719 680.36493,129.997147 690.043792,129.754223 C693.797009,129.662554 694.910957,130.936758 694.730691,134.498111 C694.476471,139.475755 694.421005,144.485483 694.739936,149.449377 C694.994156,153.331573 693.311679,154.005342 689.877393,153.941174 C679.819512,153.753252 669.76163,154.019093 659.703748,153.80367 C655.99213,153.721168 654.933649,154.935786 654.993738,158.556724 C655.201736,170.556238 654.95676,182.564919 655.113915,194.569017 C655.280313,207.535643 661.330758,213.329144 674.467017,213.558317 C678.969029,213.636236 683.346241,213.022052 687.718831,211.931187 C691.906534,210.881573 695.317709,208.218579 699.986119,206.403527" id="Fill-15" fill="#000000"></path>
            <path d="M2265.94028,156.683397 C2265.94028,174.394232 2266.05605,192.105067 2265.85693,209.815902 C2265.81062,213.72775 2267.0239,215.233011 2270.89994,214.665679 C2271.81221,214.532996 2272.7847,214.775485 2273.69235,214.629077 C2278.48529,213.842132 2280.51824,215.480075 2279.88844,220.540314 C2279.42998,224.173071 2279.55965,227.924785 2279.86065,231.594144 C2280.19408,235.524293 2279.19381,237.070731 2274.73892,236.997527 C2257.75292,236.727587 2240.75302,236.796216 2223.76238,236.9655 C2220.14568,236.997527 2218.77494,236.055024 2219.02964,232.335336 C2219.34454,227.74635 2219.2334,223.11161 2219.05279,218.504323 C2218.95092,215.73629 2219.71964,214.592475 2222.76675,214.560448 C2226.59647,214.523846 2231.81082,216.427154 2233.9086,213.517288 C2235.79336,210.895664 2234.60323,206.059613 2234.60786,202.202668 C2234.63565,176.924351 2234.51988,151.655185 2234.71437,126.381444 C2234.75142,122.034946 2234.01511,120.200266 2229.05083,120.374126 C2219.113,120.726421 2219.10373,120.429029 2219.10373,110.656272 C2219.10373,98.0880303 2219.10373,98.0880303 2231.88028,98.0880303 C2241.5912,98.0880303 2251.30212,98.2481645 2261.00841,98.0056756 C2264.93075,97.9050199 2266.06995,99.1266146 2266.02827,102.997285 C2265.83377,120.891131 2265.94028,138.789552 2265.94028,156.683397" id="Fill-16" fill="#B5226E"></path>
            <path d="M1452.24774,188.278292 C1452.10871,207.081541 1465.61339,221.474094 1483.4466,221.538821 C1500.82564,221.598925 1514.58057,207.210995 1514.73351,188.828473 C1514.88644,170.034471 1501.47446,155.910073 1483.40489,155.836099 C1465.56704,155.757502 1452.38678,169.479666 1452.24774,188.278292 Z M1482.90901,239.999941 C1453.43415,239.95833 1431.99073,218.293215 1432,188.569564 C1432.01391,159.053965 1454.21274,136.880279 1483.62271,137.000486 C1512.77779,137.120694 1534.921,159.26664 1534.99979,188.380006 C1535.07857,218.246981 1513.08366,240.041551 1482.90901,239.999941 Z" id="Fill-17" fill="#B5226E"></path>
            <path d="M1760.73761,191.07852 C1759.8084,191.07852 1758.87458,191.032638 1757.95,191.083108 C1748.20958,191.688748 1741.4278,198.676553 1741.61272,207.875862 C1741.80226,217.029289 1748.9215,223.388513 1759.00865,223.37016 C1768.40235,223.342631 1776.31212,219.557379 1783.22796,213.574387 C1786.97712,210.33054 1786.18198,200.883469 1782.03987,198.158088 C1775.58632,193.914017 1768.6751,190.936286 1760.73761,191.07852 Z M1787.32383,224.755791 C1779.59437,231.335247 1772.1885,235.684846 1763.35878,237.359533 C1745.58378,240.736437 1727.48979,230.408434 1723.80998,214.65261 C1719.57541,196.529282 1732.38081,179.286886 1752.03271,176.72668 C1762.10598,175.405282 1771.65687,177.157969 1780.69924,181.764506 C1781.95204,182.402263 1783.0153,183.696131 1785.20655,183.214372 C1785.33137,176.901031 1785.77517,170.528043 1784.06008,164.237642 C1783.3574,161.659083 1781.73939,159.635694 1779.71456,157.928889 C1770.73691,150.362973 1753.12371,151.546725 1745.7086,160.663447 C1743.2862,163.645766 1741.19203,164.480816 1737.8127,163.177772 C1736.43971,162.645542 1734.95114,162.393192 1733.51342,162.012373 C1723.29684,159.29158 1723.13503,159.094288 1730.56864,151.023672 C1742.21369,138.383224 1757.37677,136.043251 1773.55687,137.300413 C1777.0564,137.571116 1780.56055,138.378636 1783.93988,139.369684 C1797.69297,143.421051 1804.00784,152.253305 1804.24823,168.178892 C1804.47937,183.347429 1804.52098,198.520554 1804.2621,213.684503 C1804.19275,218.153394 1805.14507,219.768435 1809.99448,219.626201 C1820.91836,219.309617 1820.70109,219.584908 1820.99233,230.715843 C1821.1079,235.253557 1819.95218,236.877774 1815.17673,236.607071 C1807.92805,236.198723 1800.62388,236.175782 1793.38444,236.616247 C1788.44257,236.919068 1786.4686,235.460025 1787.29147,230.527727 C1787.52262,229.123743 1787.32383,227.641759 1787.32383,224.755791 Z" id="Fill-18" fill="#B5226E"></path>
            <path d="M1357.18971,231.193237 C1357.91261,235.866044 1355.90046,236.616056 1352.28134,236.584238 C1340.14393,236.475145 1340.14393,236.616056 1340.14393,224.511306 C1340.14393,219.193034 1340.13932,213.879308 1340.14393,208.561036 C1340.14853,207.465563 1339.72952,205.920082 1340.30048,205.338254 C1344.06234,201.501826 1348.89704,204.460967 1353.19763,203.701863 C1354.7079,203.433676 1356.48523,202.901849 1357.24957,205.842808 C1361.25547,221.220341 1384.10289,227.997729 1396.55801,217.706645 C1402.23533,213.020202 1401.05659,204.560968 1394.16829,201.488189 C1388.36204,198.901782 1382.02627,198.265407 1375.84246,197.110842 C1369.64022,195.947186 1363.52087,194.510798 1357.73764,191.928936 C1345.27332,186.378842 1339.54995,177.4196 1340.38797,164.719385 C1341.09706,153.99193 1349.50023,144.332676 1361.30612,140.955346 C1372.1865,137.841657 1382.91954,138.500759 1393.48682,142.546282 C1395.21811,143.20993 1397.7828,146.173616 1398.48268,141.346262 C1398.64844,140.191697 1400.37973,140.546248 1401.44797,140.532612 C1404.79082,140.496247 1408.14749,140.700796 1411.47192,140.468974 C1414.59836,140.250789 1415.14629,141.646267 1415.10025,144.355404 C1414.95291,152.419176 1414.90226,160.49204 1415.12327,168.551268 C1415.21076,171.805868 1413.96755,172.728611 1410.9378,172.492244 C1408.53887,172.310422 1406.1077,172.33315 1403.69956,172.487698 C1400.19555,172.714975 1397.34998,172.528608 1398.04065,167.769436 C1398.28469,166.042134 1396.78823,164.769386 1395.75223,163.510273 C1388.85932,155.146495 1374.58083,152.1919 1364.76408,157.001072 C1360.3668,159.1602 1357.83894,162.428437 1358.18888,167.451249 C1358.53422,172.410424 1362.13032,174.051361 1366.29277,175.196835 C1377.37114,178.242341 1389.01587,178.61962 1399.97453,182.287864 C1414.25763,187.065218 1421.88725,199.174513 1419.59883,213.883853 C1417.86754,225.020405 1408.43296,233.984194 1395.32401,236.597874 C1382.43607,239.170645 1369.87045,238.657 1357.18971,231.193237" id="Fill-19" fill="#B5226E"></path>
            <path d="M1937.04962,103 C1937.04962,114.526971 1937.19042,124.971576 1936.9724,135.407046 C1936.89519,139.069737 1937.67187,140.494624 1941.70514,140.476356 C1954.71336,140.42612 1954.71336,140.604231 1954.71336,153.492151 C1954.71336,162.580373 1954.71336,162.580373 1945.35235,162.580373 C1937.04962,162.580373 1937.04962,162.580373 1937.04962,171.006388 C1937.04962,181.857451 1937.03145,192.713081 1937.05416,203.568711 C1937.07233,212.775673 1939.79297,215.50214 1948.79517,213.27347 C1954.6634,211.821181 1955.19481,213.912843 1954.7497,218.584828 C1954.51352,221.142318 1954.34092,223.80028 1954.78149,226.293832 C1955.81252,232.066452 1953.14184,234.569138 1947.89131,235.665205 C1942.15934,236.861745 1936.47733,238.126789 1930.56367,237.98978 C1915.05737,237.624425 1906.83639,229.787546 1906.47303,214.100087 C1906.11876,199.020033 1906.15509,183.926277 1906.46395,168.846223 C1906.56387,163.913921 1905.36933,161.630449 1900.25052,162.603208 C1895.08176,163.585101 1893.60107,161.237691 1894.08706,156.319091 C1894.48221,152.309312 1894.30962,148.221896 1894.11886,144.184716 C1893.9826,141.385178 1894.79107,140.033362 1897.76606,140.375883 C1899.20587,140.54486 1900.70926,140.243442 1902.14453,140.430687 C1905.62822,140.891948 1906.97719,139.270683 1906.29135,136.046419 C1904.47456,127.510797 1908.63955,122.583063 1915.51156,118.381473 C1922.66064,114.001772 1929.22379,108.653879 1937.04962,103" id="Fill-20" fill="#B5226E"></path>
            <path d="M1622.83791,145.370113 C1621.64592,139.581137 1625.22648,139.613426 1629.48097,139.696455 C1640.10804,139.899415 1640.10804,139.761033 1640.10804,150.591723 C1640.10804,157.842934 1639.95216,165.098758 1640.17681,172.345357 C1640.28684,175.837194 1639.03524,177.110307 1635.70225,176.681323 C1634.7945,176.561392 1633.84091,176.547554 1632.93775,176.685936 C1626.74856,177.590031 1622.94794,176.418398 1620.63731,169.144123 C1617.51979,159.328233 1608.74948,155.4028 1598.85595,154.863111 C1587.21569,154.231167 1578.48664,159.332846 1572.98055,169.614621 C1565.82402,182.968474 1568.01087,202.277362 1577.73018,213.689255 C1589.14121,227.093848 1613.30197,225.359462 1623.42015,209.694631 C1627.06489,204.04865 1629.61392,203.984072 1634.87244,206.857802 C1643.61524,211.631978 1643.7757,211.258347 1638.27879,219.432104 C1625.91416,237.80922 1607.81881,242.214377 1587.62372,239.068495 C1566.86013,235.834972 1554.99982,221.761533 1549.90634,202.115916 C1542.44264,173.295579 1557.53051,145.831386 1584.06149,138.713943 C1596.65076,135.337425 1608.5661,136.855013 1619.60578,144.110837 C1620.47685,144.682816 1621.1737,145.766807 1622.83791,145.370113" id="Fill-21" fill="#B5226E"></path>
            <path d="M1868.90461,158.974015 C1868.90461,177.583318 1869.04248,196.192621 1868.7989,214.797351 C1868.74375,219.045028 1870.04898,220.055508 1874.12092,219.977779 C1883.86416,219.785742 1883.56542,220.005213 1883.97446,229.890548 C1884.19965,235.25844 1883.01852,237.210816 1877.10363,236.982201 C1863.7894,236.46553 1850.43841,236.70329 1837.11039,236.895327 C1833.544,236.945622 1832.33069,236.044877 1832.31231,232.313872 C1832.25256,220.050936 1832.1009,219.854327 1844.73953,219.986924 C1848.98611,220.032647 1849.97882,218.7524 1849.96044,214.673899 C1849.79499,183.170681 1849.7766,151.667463 1849.97423,120.164245 C1849.99721,115.921141 1848.76092,114.974672 1844.68438,115.024968 C1831.36556,115.175854 1831.44369,115.011251 1832.33988,101.577803 C1832.51452,98.93958 1833.39233,98.025118 1835.95683,98.0479795 C1845.7736,98.1165642 1855.59038,98.2125827 1865.39796,98.0022564 C1869.21713,97.9199548 1868.92759,100.100947 1868.92299,102.602001 C1868.89082,121.394196 1868.90461,140.186391 1868.90461,158.974015" id="Fill-22" fill="#B5226E"></path>
            <g id="Group-26" transform="translate(1071.000000, 0.000000)">
                <mask id="mask-6" fill="white">
                    <use xlink:href="#path-5"></use>
                </mask>
                <g id="Clip-24"></g>
                <path d="M622.422369,179.740346 C622.422369,191.361154 622.569437,202.981962 622.339643,214.598192 C622.261513,218.447385 623.40129,219.6145 627.298589,219.573308 C637.276228,219.468038 636.991284,219.669423 637.391124,229.775269 C637.597939,234.915154 636.485738,236.791692 630.851198,236.585731 C618.093057,236.114308 605.298149,236.338577 592.521625,236.503346 C589.258556,236.539962 587.51672,235.839692 588.104992,232.265115 C588.196909,231.729615 588.118779,231.162077 588.118779,230.603692 C588.091204,219.930308 588.086608,219.783846 598.854737,219.559577 C602.320024,219.4955 603.252986,218.287192 603.230007,215.019269 C603.11511,196.945 603.110514,178.870731 603.234603,160.796462 C603.257582,157.652115 602.228107,156.773346 599.121297,156.704692 C588.086608,156.462115 588.357765,156.333962 588.008479,145.376808 C587.852219,140.644269 589.304514,139.458846 593.868215,139.683115 C601.626048,140.067577 609.425243,139.989769 617.192266,139.710577 C621.21825,139.564115 622.652163,140.580192 622.53267,144.887077 C622.210959,156.498731 622.422369,168.124115 622.422369,179.740346" id="Fill-23" fill="#B5226E" mask="url(#mask-6)"></path>
                <path d="M41.0813132,21.0172308 C41.0813132,26.0015 40.9664163,30.9857692 41.122676,35.9654615 C41.2375728,39.7276923 39.5554836,41.4348846 35.87419,41.4303077 C25.8643806,41.4211538 15.859167,41.4028462 5.85395338,41.4440385 C2.25538551,41.4623462 0.237797653,39.9702692 0.237797653,36.2217692 C0.246989397,26.0701538 0.224010036,15.9231154 0.256181141,5.7715 C0.265372885,2.48984615 1.7130726,0.645346154 5.31623634,0.672807692 C15.5052848,0.750615385 25.6989292,0.764346154 35.8879777,0.668230769 C39.7393185,0.631615385 41.2008058,2.39373077 41.1134843,6.069 C40.9985875,11.0532692 41.085909,16.0375385 41.0813132,21.0172308" id="Fill-25" fill="#B5226E" mask="url(#mask-6)"></path>
            </g>
            <path d="M942.534422,148.019764 C947.83142,148.015053 953.128417,148.062163 958.425415,148.00092 C962.202936,147.953809 964.009372,149.715741 963.999963,153.494001 C963.971738,163.91955 963.990555,174.340387 963.981146,184.761225 C963.981146,188.2474 962.249978,189.990488 958.7406,189.985777 C948.334776,189.976354 937.924247,189.962221 927.518422,189.99991 C923.78324,190.014043 921.972099,188.369887 922.000325,184.506828 C922.080297,174.085991 922.06148,163.665153 922.014438,153.244316 C922.000325,149.663919 923.740901,148.024475 927.207941,148.019764 C932.316768,148.019764 937.425595,148.019764 942.534422,148.019764" id="Fill-27" fill="#B5226E"></path>
            <path d="M1238.15063,148.019425 C1243.2583,148.014714 1248.36598,148.057114 1253.47366,148.000581 C1257.25973,147.962892 1259.01403,149.757816 1258.99992,153.536107 C1258.95759,163.95703 1258.98581,174.382663 1258.9811,184.803586 C1258.9764,188.318056 1257.18918,189.995203 1253.70411,189.990491 C1243.29593,189.971647 1232.89245,189.962225 1222.48897,189.999914 C1218.717,190.014047 1216.97212,188.2945 1217.00034,184.464387 C1217.07088,174.043465 1217.04267,163.617832 1217.01915,153.196909 C1217.00974,149.630617 1218.79226,148.010003 1222.25851,148.014714 C1227.55432,148.028848 1232.85482,148.019425 1238.15063,148.019425" id="Fill-28" fill="#B5226E"></path>
            <path d="M1013,64.5520696 C1012.96811,66.706001 1011.76525,67.8675691 1010.59884,69.0382834 C1003.72796,75.920803 996.802409,82.7530185 990.004433,89.7087078 C987.343562,92.4251308 985.010745,92.9739032 982.117504,90.0013864 C975.201064,82.9039309 968.188943,75.9070837 961.131258,68.9513944 C958.56607,66.4270417 958.133223,64.1221979 960.844212,61.4377866 C968.011248,54.3311849 975.141833,47.1879985 982.235968,40.0082271 C984.35464,37.8634419 986.564438,37.0997338 988.901812,39.4091507 C996.4698,46.8861737 1003.98311,54.4272201 1011.46453,62.0002783 C1012.20265,62.745694 1012.58538,63.8432387 1013,64.5520696" id="Fill-29" fill="#B5226E"></path>
            <path d="M986.077022,246 C987.814128,246.301641 988.906676,247.243128 989.967224,248.298873 C996.851648,255.190923 1003.67207,262.137817 1010.68449,268.897327 C1013.74271,271.845186 1013.78385,274.253747 1010.73478,277.210748 C1003.74521,283.993109 996.869933,290.889729 990.044937,297.832053 C987.302139,300.619951 984.938761,300.798193 982.109108,297.905178 C975.178971,290.807464 968.125409,283.828578 961.058132,276.863403 C958.699326,274.541678 958.123338,272.265656 960.628427,269.756548 C968.038554,262.352622 975.457822,254.962407 982.87252,247.567621 C983.818785,246.621564 984.929619,246.063985 986.077022,246" id="Fill-30" fill="#B5226E"></path>
            <path d="M1194.72304,91.997413 C1193.14165,91.8460081 1192.06302,90.8504063 1191.0118,89.7905721 C1184.10122,82.8580636 1177.26834,75.8475586 1170.23892,69.0435148 C1167.08985,65.997065 1167.37779,63.597527 1170.38061,60.6841299 C1177.27291,53.9993749 1184.05552,47.1953311 1190.74671,40.3132909 C1193.68554,37.2897812 1196.14903,37.1842566 1199.13813,40.2674106 C1205.94817,47.2962677 1212.89074,54.19666 1219.87445,61.0557601 C1222.4842,63.6158791 1222.8407,65.8777763 1220.10298,68.5847121 C1212.87703,75.7236819 1205.74249,82.9498241 1198.57596,90.1484382 C1197.5019,91.2220364 1196.32728,92.0524693 1194.72304,91.997413" id="Fill-31" fill="#B5226E"></path>
            <path d="M814,169.583379 C814,214.456328 814,259.329277 814,304.193029 C814,305.494427 813.968058,306.795826 813.995437,308.088027 C814.022815,309.76191 813.648642,310.96214 811.613507,310.998928 C809.687885,311.035717 808.971481,310.125198 809.012548,308.313357 C809.039927,307.016557 809.003422,305.719758 809.003422,304.418359 C808.998859,214.120631 808.998859,123.818305 809.003422,33.520577 C809.003422,32.2237773 809.039927,30.9269776 809.012548,29.6255793 C808.971481,27.7815484 809.774584,26.930811 811.663701,27.0043883 C813.288159,27.0641699 813.986311,27.8321328 813.981748,29.4048474 C813.972621,30.8855903 814,32.3709319 814,33.8516748 C814,79.0971089 814,124.337945 814,169.583379" id="Fill-32" fill="#000000"></path>
            <path d="M1682.83329,118.999387 C1676.32841,118.938644 1671.0578,113.868909 1671.00061,107.598326 C1670.93389,101.061406 1676.33794,95.9169105 1683.16687,96.0010167 C1689.75276,96.0851229 1694.9376,101.070751 1694.99955,107.36937 C1695.05674,113.8876 1689.64316,119.064803 1682.83329,118.999387" id="Fill-33" fill="#B5226E"></path>
        </g>
    </g>
</svg>