<svg xmlns="http://www.w3.org/2000/svg" width="2501" height="336" xmlns:xlink="http://www.w3.org/1999/xlink"><title>Artboard Copy 6</title><desc>Created with Sketch.</desc><defs><path id="a" d="M.28.7h1110.54v206.02H.28z"/><path id="c" d="M.93.86h208.95v102.4H.93z"/><path id="e" d="M.24.67H637.4V236.6H.25z"/></defs><g fill="none"><g><g transform="translate(0 129)"><mask id="b"><use xlink:href="#a"/></mask><path fill="#00A0DD" d="M0 45.92c2.34-4.15 3.17-8.87 5.43-13.12 7.6-14.3 20.2-22.2 34.78-26.67 27.4-8.4 54.95-6.25 82.33.9 3.1.82 4.26 2.45 4.2 5.54-.12 5.58-.18 11.18 0 16.76.13 3.7-.9 4.58-4.47 3.2-17.24-6.75-35.13-9.1-53.5-6.98-11.4 1.3-22.36 3.98-30.83 12.5-10.86 10.93-9.53 27.08 2.63 36.62 6.18 4.84 13.1 7.5 20.72 8.9 21.38 3.97 42.5 2.33 63.38-3.03 4.74-1.22 5.88-.18 5.6 4.44-.33 5.2-.2 10.43-.04 15.64.1 2.78-.98 3.77-3.66 4.4-23.92 5.67-48.07 7.08-72.3 3.02C38.57 105.4 24.02 99.67 12.3 88 6.06 81.77 3.26 73.83 0 66.05c0-6.7 0-13.42 0-20.13" mask="url(#b)"/><path fill="#B5226E" d="M1071.55 207c-1.07-1.96-1.8-3.95-1.77-6.28.1-9.46.15-18.93-.02-28.4-.08-4.8 2-6.6 6.68-6.5 9.24.17 18.48.16 27.72 0 4.58-.1 6.8 1.38 6.66 6.4-.27 9.45-.13 18.93-.04 28.4 0 2.27-.45 4.35-1.36 6.38-12.62 0-25.24 0-37.87 0" mask="url(#b)"/></g><path fill="#B5226E" d="M1090.18 93.9c-39.5.07-72.4 30.8-74.56 69.64-3.08 55.27 51.84 94.45 103.18 73.55 3.08-1.27 5.96-1.42 9.18-.87 10.78 1.83 21.63 3.27 32.4 5.2 4.45.8 5-.8 4.3-4.6-1.46-8.2-2.66-16.47-4-24.7-1.23-7.67-1.6-14.92.84-22.82 14.65-47.36-21.6-95.5-71.34-95.4zm.13-28.9c68.24.2 117.96 65.96 99.13 131.46-1.18 4.1-.94 7.93-.3 12.02 3.3 21.08 6.23 42.22 9.7 63.27.74 4.54-.9 4.55-4.2 4-17.22-2.76-34.48-5.32-51.65-8.3-9.55-1.66-18.6-1.87-28.33.6-61.2 15.6-121.52-27.6-127.22-90.5-5.05-55.75 34.66-104.55 90.7-111.43 4.04-.5 8.12-.75 12.18-1.12z"/><path fill="#B5226E" d="M2139.16 189.6c-.3 4.76.5 9.67 2.6 14.3 3.28 7.17 9.72 11.2 17.26 10.82 7.96-.4 13.25-4.7 15.9-11.9 3.3-8.92 3.44-18.1.38-27.16-2.57-7.68-8.6-12.14-16.1-12.34-7.67-.2-14.57 4.17-17.6 11.33-1.98 4.67-2.65 9.6-2.44 14.96zm.1-38.43c6.68-6.42 13.2-11.12 21.6-12.44 17.14-2.67 32.3 4.07 40.9 19.7 10.95 19.93 10.97 40.74.2 60.6-11.84 21.8-39.85 26.37-59.06 10.62-.96-.8-1.9-1.6-2.88-2.42-.37.58-.7.85-.7 1.13-.24 9.16-.23 9.16-9.56 9.16-11.37 0-22.74-.15-34.1.08-3.75.07-4.86-1.1-4.63-4.72.3-4.8.17-9.63.04-14.45-.07-2.4.77-3.34 3.2-3.23 2.98.14 6-.23 8.94.08 4.1.44 4.9-1.33 4.88-5.05-.14-28.17-.17-56.34.03-84.5.04-4.3-1.24-5.25-5.33-5.2-11.67.2-11.67 0-11.67-11.35 0-11.05 0-11.05 10.95-11.05 10.62 0 21.26.23 31.87-.12 4.6-.15 5.5 1.47 5.43 5.66-.25 13.7-.1 27.43-.1 41.14 0 1.78 0 3.55 0 6.37z"/><path fill="#000" d="M363.5 168.62c11.7 0 23.42-.12 35.1.06 3.76.06 4.17-1.33 2.7-4.14-2.3-4.35-5.9-7.5-10.12-9.95-15.4-8.94-31.67-8.37-47.9-3.34-7 2.16-13.42 6.26-17.55 12.84-2.1 3.32-1.76 4.67 2.68 4.6 11.7-.22 23.4-.08 35.1-.08zm13.62 19.27c-17.13 0-34.26.15-51.4-.1-5.2-.08-5.74 1.96-4.03 5.88 3.32 7.65 9.35 12.7 16.96 15.77 16.28 6.6 33.3 7.13 50.5 5.28 13.02-1.4 25.77-3.98 37.6-9.74 3.97-1.94 4.9-.5 4.56 3.2-.17 1.83-.03 3.68-.03 5.52 0 12.3-.83 13.1-12.92 17.2-19.35 6.6-39.27 7.65-59.5 6.85-15.07-.6-29.3-3.57-42.7-10.88-24.35-13.3-36.32-51.25-11.42-77.04 12.62-13.07 28.53-17.44 45.6-19.08 18.12-1.75 36.2-1.03 52.95 7.2 18.4 9.08 29.9 23.02 30.7 44.2.16 4.75-1.53 5.86-6.05 5.8-16.94-.23-33.9-.1-50.83-.1z"/><path fill="#000" d="M458.1 184.16c0-15.6.1-31.2-.1-46.8-.05-4.02 1.27-5.18 5.1-5.02 6.5.26 13.03.3 19.53 0 4.2-.2 5.97.78 5.7 5.5-.38 6.7 0 6.8 6 3.57 21.47-11.55 43.86-14.8 67.36-7.54 17.67 5.47 27.42 17.76 27.98 36.9.6 20.66.14 41.35.27 62.02 0 3.3-1.3 4.2-4.34 4.14-6.68-.15-13.4-.28-20.07.04-4.3.2-5.37-1.45-5.35-5.54.1-17.47.3-34.96-.34-52.4-.5-13.5-9.34-23.95-22.55-26.13-16.8-2.8-31.68 1.04-45.33 10.88-2.76 2-3.87 4.54-3.83 8.13.16 19.74-.08 39.47.2 59.2.05 4.83-1.47 6.13-6 5.87-6.5-.36-13.04-.27-19.54-.03-3.68.14-4.8-1.2-4.78-4.86.16-15.97.07-31.94.07-47.92"/><path fill="#B5226E" d="M2033.2 205.34c-.22-2.56.43-4.4-1.74-5.65-4.84-2.82-9.78-5.55-15.44-5.88-5.67-.33-10.8 1.6-13.62 6.85-2.53 4.7-1.57 9.42 1.75 13.48 3.7 4.54 8.54 5.4 14.05 3.83 4.57-1.3 8.28-4 12-6.78 2.32-1.73 3.44-3.8 3-5.86zm.26 23.67c-9.17 5.87-17.7 9-27.26 9-9.5 0-17.87-2.97-25.23-8.8-12.73-10.12-13.42-30.55-1.2-42.5 12.92-12.62 28.54-13.55 45.15-9.73 2.6.6 6.2 3.45 7.56 1.5 1.83-2.65.97-6.78-.23-10.2-3.72-10.6-17.7-15.7-28.43-8.25-10.58 7.34-19.8.98-29.6.47-2.9-.16-1.37-2.34-.58-3.68 5.3-9 13.46-14.2 23.28-16.85 13.3-3.6 26.8-3.9 40.25-1 18.03 3.87 26.5 14.1 27 32.86.34 12.6.24 25.23.02 37.84-.07 3.73 1.07 4.67 4.68 4.67 11.12-.02 11.12.13 11.12 11.32 0 10.97 0 10.97-11.03 10.97-9.66 0-19.33-.23-28.97.1-4.85.17-8.2-.33-6.54-7.72z"/><g transform="translate(2291 137)"><mask id="d"><use xlink:href="#c"/></mask><path fill="#B5226E" d="M52.64 41.1c5.76 0 11.54-.05 17.3.05 2.5.04 3.26-.86 2.83-3.32-1.6-9-10.38-16.1-20.1-16.07-10.5 0-17.73 6.13-19.58 16.2-.5 2.72.46 3.2 2.78 3.18 5.58-.06 11.17-.02 16.76-.03zm50.9 37.93C90.1 98.8 71.14 103.87 49.47 102.5c-7.65-.47-15.1-2.1-22.1-5.4C-.1 84.04-7.78 45.82 12.03 20.73 33.6-6.6 77.9-5.56 96.14 22.78c6.32 9.82 8 21 8.77 32.38.3 4.13-2.45 3.3-4.73 3.3-20.7.02-41.38 0-62.07 0-6.2 0-6.6.54-5.02 6.68 3.7 14.4 20.36 21.57 34.5 14.84 1.33-.64 2.9-1.17 3.82-2.24 5.86-6.82 12.54-6 19.84-2.72 3.7 1.65 7.74 2.55 12.3 4z" mask="url(#d)"/><path fill="#B5226E" d="M123.8 83.84c0-4.46.1-8.92-.02-13.37-.05-2.37.85-3.28 3.27-3.22 5.6.12 11.18.12 16.78 0 2.1-.06 2.9.74 3.34 2.7 2.8 13 25.53 15.13 33.78 8.84 4.93-3.77 4-9.85-1.87-12.26-6.25-2.6-12.94-3.36-19.5-4.6-7.35-1.37-14.54-3.2-21.35-6.3-12.65-5.76-19.1-15.24-18.1-26.64 1.03-12.03 9.8-21.7 22.85-25.05 10.93-2.82 21.77-2.12 32.52 1.07 2.23.66 4.12.23 6.58-.4 6.3-1.62 13.25-.7 19.94-.64 1.43 0 1.48 1.4 1.5 2.54 0 7.42-.07 14.84.03 22.27.04 2.6-1.34 3-3.5 2.97-5.22-.08-10.44-.08-15.66 0-2 .02-3.23-.5-4.5-2.36-5.14-7.48-22.98-10.62-30.63-5.7-2.12 1.35-2.98 3.2-2.86 5.62.14 2.7 2 3.92 4.3 4.46 6.7 1.57 13.43 2.95 20.13 4.48 5.62 1.27 11.27 2.44 16.82 4 13.62 3.8 21.17 13.03 22.15 26.7.93 13.1-6.1 25.2-18.66 30.05-14 5.44-28.25 6.3-42.08-1.13-.63-.35-1.32-.58-1.98-.85-1.6 6.98-7.15 3.3-10.7 3.43-12.56.48-12.57.2-12.57-12.16 0-1.5 0-2.98 0-4.46" mask="url(#d)"/></g><path fill="#000" d="M273.32 161.1c-5.87 8.8-11.92 17.5-17.86 26.24-9.15 13.5-18.28 27.03-27.4 40.56-1.13 1.7-2.06 3.53-3.15 5.26-4.55 7.18-11.95 7.95-16.85 1.13-8.78-12.22-17.04-24.8-25.5-37.23-8.74-12.9-17.44-25.8-26.18-38.72-4.78-7.06-9.52-14.16-14.43-21.13-1.85-2.64-.8-3.2 1.7-3.2 9.26 0 18.5.04 27.75-.02 2.1 0 3.33.94 4.45 2.67 12.28 19.03 24.63 38 36.95 57 3.38 5.23 3.2 5.15 6.5-.1 11.93-19.02 24-37.97 35.98-56.97.95-1.5 2.08-2.56 3.98-2.56 10.14.02 20.28 0 31.74 0-6.34 9.73-11.93 18.45-17.68 27.07z"/><path fill="#000" d="M700 206.4c0 7.62-.04 14.73 0 21.84 0 1.83-1.14 2.58-2.58 3.2-17.5 7.43-35.18 9.83-52.66.36-10.46-5.67-16.7-14.67-16.97-26.8-.35-15.12-.45-30.27-.23-45.4.07-4.74-1.5-6.1-6.04-5.8-5.38.34-10.8.1-16.2.05-1.58-.02-3.56.5-4.2-1.7-.55-1.9.73-3 2-4.2 11.53-10.96 23-21.98 34.5-32.97 4.14-3.95 8.34-7.85 12.5-11.8 1.07-1.02 2.16-2.56 3.7-2.1 2.17.67 1.18 2.83 1.2 4.33.1 6.3.38 12.6-.06 18.84-.35 4.87 1.57 5.84 6.03 5.7 9.67-.32 19.36.06 29.04-.2 3.76-.08 4.87 1.2 4.7 4.76-.26 4.98-.32 10 0 14.95.25 3.88-1.43 4.56-4.86 4.5-10.06-.2-20.12.07-30.18-.15-3.7-.08-4.77 1.14-4.7 4.76.2 12-.04 24 .1 36 .18 12.98 6.23 18.77 19.37 19 4.5.08 8.88-.54 13.25-1.63 4.2-1.05 7.6-3.7 12.27-5.53"/><path fill="#B5226E" d="M2265.94 156.68c0 17.7.12 35.43-.08 53.14-.05 3.9 1.16 5.4 5.04 4.85.9-.14 1.88.1 2.8-.04 4.8-.8 6.82.85 6.2 5.9-.47 3.64-.34 7.4-.04 11.06.33 3.92-.67 5.47-5.12 5.4-17-.27-34-.2-50.98-.03-3.6.03-5-.9-4.73-4.63.3-4.6.2-9.23.02-13.84-.1-2.76.67-3.9 3.72-3.94 3.83-.04 9.04 1.87 11.14-1.04 1.9-2.62.7-7.46.7-11.32.04-25.28-.08-50.54.1-75.82.05-4.35-.68-6.18-5.65-6-9.94.35-9.95.05-9.95-9.72 0-12.57 0-12.57 12.78-12.57 9.7 0 19.42.15 29.13-.1 3.93-.1 5.07 1.13 5.03 5-.2 17.9-.1 35.8-.1 53.68"/><path fill="#B5226E" d="M1452.25 188.28c-.14 18.8 13.36 33.2 31.2 33.26 17.38.06 31.13-14.33 31.28-32.7.16-18.8-13.26-32.93-31.33-33-17.83-.08-31 13.64-31.15 32.44zM1482.9 240c-29.47-.04-50.9-21.7-50.9-51.43 0-29.52 22.2-51.7 51.62-51.57 29.16.12 51.3 22.27 51.38 51.38.08 29.87-21.92 51.66-52.1 51.62z"/><path fill="#B5226E" d="M1760.74 191.08c-.93 0-1.87-.05-2.8 0-9.73.6-16.5 7.6-16.33 16.8.2 9.15 7.32 15.5 17.4 15.5 9.4-.04 17.3-3.82 24.23-9.8 3.75-3.25 2.95-12.7-1.2-15.42-6.44-4.25-13.35-7.22-21.3-7.08zm26.58 33.68c-7.73 6.58-15.13 10.92-23.96 12.6-17.78 3.38-35.87-6.95-39.55-22.7-4.22-18.13 8.58-35.37 28.23-37.93 10.08-1.32 19.63.43 28.67 5.03 1.25.64 2.32 1.94 4.5 1.45.13-6.3.58-12.67-1.14-18.96-.7-2.58-2.32-4.6-4.35-6.3-8.96-7.58-26.58-6.4-34 2.72-2.4 3-4.5 3.82-7.9 2.52-1.36-.53-2.85-.8-4.3-1.17-10.2-2.7-10.36-2.9-2.93-10.98 11.64-12.64 26.8-14.98 43-13.72 3.5.27 7 1.08 10.37 2.07 13.75 4.05 20.07 12.88 20.3 28.8.24 15.18.28 30.35.02 45.5-.07 4.48.9 6.1 5.73 5.96 10.92-.32 10.7-.05 11 11.1.1 4.52-1.05 6.15-5.82 5.88-7.25-.4-14.56-.42-21.8.02-4.94.3-6.9-1.16-6.1-6.1.24-1.4.04-2.88.04-5.76z"/><path fill="#B5226E" d="M1357.2 231.2c.7 4.67-1.3 5.42-4.92 5.38-12.14-.1-12.14.04-12.14-12.07 0-5.3 0-10.62 0-15.94 0-1.1-.4-2.64.16-3.22 3.76-3.84 8.6-.88 12.9-1.64 1.5-.27 3.3-.8 4.05 2.14 4 15.38 26.85 22.16 39.3 11.87 5.7-4.68 4.5-13.14-2.38-16.2-5.8-2.6-12.14-3.23-18.33-4.4-6.2-1.15-12.32-2.6-18.1-5.17-12.47-5.55-18.2-14.5-17.35-27.2.7-10.74 9.1-20.4 20.9-23.77 10.9-3.12 21.62-2.46 32.2 1.6 1.72.65 4.28 3.6 4.98-1.2.17-1.17 1.9-.8 2.97-.83 3.34-.03 6.7.17 10.02-.06 3.13-.22 3.68 1.18 3.63 3.9-.15 8.05-.2 16.12.02 24.18.1 3.26-1.15 4.18-4.18 3.94-2.4-.2-4.83-.17-7.24 0-3.5.2-6.35.03-5.66-4.73.24-1.73-1.25-3-2.3-4.26-6.88-8.35-21.16-11.3-30.98-6.5-4.4 2.16-6.92 5.43-6.57 10.45.33 4.96 3.93 6.6 8.1 7.75 11.07 3.04 22.72 3.42 33.67 7.1 14.3 4.77 21.92 16.87 19.63 31.58-1.73 11.14-11.17 20.1-24.28 22.72-12.88 2.57-25.45 2.06-38.13-5.4"/><path fill="#B5226E" d="M1937.05 103c0 11.53.14 21.97-.08 32.4-.07 3.67.7 5.1 4.74 5.08 13-.05 13 .12 13 13 0 9.1 0 9.1-9.35 9.1-8.3 0-8.3 0-8.3 8.43 0 10.86-.02 21.7 0 32.57.02 9.2 2.74 11.93 11.75 9.7 5.86-1.45 6.4.64 5.95 5.3-.24 2.57-.4 5.23.03 7.72 1.03 5.77-1.64 8.27-6.9 9.37-5.72 1.2-11.4 2.46-17.32 2.32-15.5-.38-23.72-8.2-24.1-23.9-.34-15.08-.3-30.17 0-45.25.1-4.94-1.1-7.22-6.2-6.25-5.18 1-6.66-1.36-6.17-6.28.38-4 .2-8.1.02-12.14-.14-2.8.67-4.15 3.65-3.8 1.44.16 2.94-.14 4.37.05 3.5.46 4.84-1.16 4.15-4.38-1.83-8.54 2.34-13.47 9.2-17.67 7.16-4.38 13.72-9.73 21.55-15.38"/><path fill="#B5226E" d="M1622.84 145.37c-1.2-5.8 2.4-5.76 6.64-5.67 10.63.2 10.63.06 10.63 10.9 0 7.24-.15 14.5.08 21.75.1 3.5-1.14 4.76-4.48 4.33-.9-.12-1.86-.13-2.76 0-6.2.9-10-.26-12.3-7.54-3.12-9.8-11.9-13.74-21.78-14.28-11.64-.63-20.37 4.47-25.88 14.75-7.16 13.37-4.97 32.68 4.75 44.1 11.4 13.4 35.57 11.66 45.7-4 3.63-5.65 6.18-5.72 11.44-2.84 8.75 4.77 8.9 4.4 3.4 12.57-12.36 18.38-30.45 22.78-50.65 19.64-20.76-3.24-32.62-17.3-37.7-36.95-7.48-28.82 7.6-56.3 34.14-63.4 12.6-3.38 24.5-1.86 35.55 5.4.88.56 1.57 1.65 3.24 1.25"/><path fill="#B5226E" d="M1868.9 158.97c0 18.6.14 37.22-.1 55.83-.06 4.25 1.25 5.26 5.32 5.18 9.74-.2 9.45.03 9.85 9.9.23 5.38-.95 7.33-6.87 7.1-13.3-.5-26.66-.28-40-.08-3.56.05-4.77-.86-4.8-4.6-.05-12.25-.2-12.45 12.44-12.3 4.25.03 5.24-1.25 5.22-5.33-.17-31.5-.18-63 0-94.5.04-4.25-1.2-5.2-5.28-5.15-13.3.16-13.24 0-12.34-13.44.17-2.64 1.05-3.55 3.62-3.53 9.8.07 19.63.16 29.44-.05 3.82-.08 3.53 2.1 3.52 4.6-.03 18.8-.02 37.6-.02 56.37"/><g transform="translate(1071)"><mask id="f"><use xlink:href="#e"/></mask><path fill="#B5226E" d="M622.42 179.74c0 11.62.15 23.24-.08 34.86-.08 3.85 1.06 5 4.96 4.97 9.98-.1 9.7.1 10.1 10.2.2 5.15-.9 7.02-6.55 6.82-12.76-.5-25.55-.26-38.33-.1-3.26.04-5-.66-4.42-4.23.1-.54.02-1.1.02-1.67-.03-10.67-.03-10.82 10.73-11.04 3.47-.06 4.4-1.27 4.38-4.54-.1-18.08-.12-36.15 0-54.22.03-3.15-1-4.03-4.1-4.1-11.04-.24-10.77-.37-11.12-11.32-.15-4.74 1.3-5.92 5.87-5.7 7.76.4 15.56.3 23.32.03 4.02-.14 5.45.88 5.33 5.2-.32 11.6-.1 23.22-.1 34.84" mask="url(#f)"/><path fill="#B5226E" d="M41.08 21.02c0 4.98-.1 9.97.04 14.95.12 3.76-1.56 5.46-5.25 5.46-10 0-20-.03-30.02 0-3.6.03-5.6-1.46-5.6-5.2 0-10.16-.03-20.3 0-30.46C.28 2.5 1.72.65 5.33.67c10.2.08 20.38.1 30.57 0 3.84-.04 5.3 1.72 5.2 5.4-.1 4.98 0 9.97-.02 14.95" mask="url(#f)"/></g><path fill="#B5226E" d="M942.53 148.02c5.3 0 10.6.04 15.9-.02 3.77-.05 5.58 1.72 5.57 5.5-.03 10.42 0 20.84-.02 31.26 0 3.5-1.73 5.23-5.24 5.23-10.4-.02-20.82-.04-31.22 0-3.74 0-5.55-1.63-5.52-5.5.08-10.4.06-20.83 0-31.26 0-3.58 1.74-5.22 5.2-5.22 5.12 0 10.23 0 15.33 0"/><path fill="#B5226E" d="M1238.15 148.02c5.1 0 10.22.04 15.32-.02 3.8-.04 5.54 1.76 5.53 5.54-.04 10.42 0 20.84-.02 31.26 0 3.52-1.8 5.2-5.28 5.2-10.4-.03-20.8-.04-31.2 0-3.78 0-5.53-1.7-5.5-5.54.07-10.42.04-20.84.02-31.26 0-3.57 1.77-5.2 5.24-5.2 5.3.03 10.6.02 15.9.02"/><path fill="#B5226E" d="M1013 64.55c-.03 2.16-1.23 3.32-2.4 4.5-6.87 6.87-13.8 13.7-20.6 20.66-2.66 2.73-5 3.27-7.88.3-6.92-7.1-13.93-14.1-21-21.05-2.55-2.52-3-4.83-.28-7.5 7.17-7.12 14.3-14.26 21.4-21.44 2.1-2.14 4.32-2.9 6.66-.6 7.57 7.5 15.08 15.03 22.56 22.6.74.75 1.13 1.84 1.54 2.55"/><path fill="#B5226E" d="M986.08 246c1.73.3 2.83 1.24 3.9 2.3 6.87 6.9 13.7 13.84 20.7 20.6 3.06 2.95 3.1 5.35.05 8.3-6.98 6.8-13.86 13.7-20.7 20.63-2.73 2.8-5.1 2.97-7.92.08-6.92-7.1-13.97-14.07-21.04-21.04-2.36-2.32-2.94-4.6-.43-7.1 7.4-7.4 14.83-14.8 22.24-22.2.95-.94 2.06-1.5 3.2-1.56"/><path fill="#B5226E" d="M1194.72 92c-1.58-.15-2.66-1.15-3.7-2.2-6.92-6.94-13.75-13.95-20.78-20.76-3.15-3.04-2.86-5.44.14-8.36 6.9-6.68 13.68-13.48 20.37-20.37 2.94-3 5.4-3.12 8.4-.03 6.8 7.03 13.74 13.93 20.72 20.8 2.6 2.55 2.97 4.8.23 7.5-7.22 7.15-14.36 14.38-21.52 21.58-1.08 1.07-2.25 1.9-3.86 1.85"/><path fill="#000" d="M814 169.58c0 44.88 0 89.75 0 134.6 0 1.3-.03 2.62 0 3.9.02 1.68-.35 2.88-2.4 2.92-1.9.04-2.63-.87-2.6-2.7.04-1.28 0-2.58 0-3.88 0-90.3 0-180.6 0-270.9 0-1.3.04-2.6 0-3.9-.03-1.84.77-2.7 2.66-2.62 1.63.06 2.33.83 2.32 2.4 0 1.5.02 2.97.02 4.45 0 45.25 0 90.5 0 135.73"/><path fill="#B5226E" d="M1682.83 119c-6.5-.06-11.77-5.13-11.83-11.4-.07-6.54 5.34-11.68 12.17-11.6 6.58.1 11.77 5.07 11.83 11.37.06 6.52-5.36 11.7-12.17 11.63"/></g></g></svg>