<svg xmlns="http://www.w3.org/2000/svg" viewBox="0 0 1988 540" enable-background="new 0 0 1988 540"><style type="text/css">.st0{fill:none;stroke:#FFFFFF;stroke-width:10;stroke-miterlimit:10;} .st1{fill:none;stroke:#E65D17;stroke-width:10;stroke-miterlimit:10;} .st2{fill:none;stroke:#DD662E;stroke-width:10;stroke-miterlimit:10;} .st3{fill:none;stroke:#FF5500;stroke-width:10;stroke-miterlimit:10;} .st4{fill:none;stroke:#FE7202;stroke-width:10;stroke-miterlimit:10;} .st5{fill:none;stroke:#FF7101;stroke-width:10;stroke-miterlimit:10;} .st6{fill:none;stroke:#FF7202;stroke-width:10;stroke-miterlimit:10;} .st7{fill:none;stroke:#FF7201;stroke-width:10;stroke-miterlimit:10;} .st8{fill:none;stroke:#E77D2B;stroke-width:10;stroke-miterlimit:10;} .st9{fill:none;stroke:#FFFEFD;stroke-width:10;stroke-miterlimit:10;} .st10{fill:none;stroke:#E75C18;stroke-width:10;stroke-miterlimit:10;} .st11{fill:none;stroke:#FFFDFD;stroke-width:10;stroke-miterlimit:10;} .st12{fill:none;stroke:#E67821;stroke-width:10;stroke-miterlimit:10;} .st13{fill:none;stroke:#E07F33;stroke-width:10;stroke-miterlimit:10;} .st14{fill:none;stroke:#F85707;stroke-width:10;stroke-miterlimit:10;} .st15{fill:none;stroke:#F1590E;stroke-width:10;stroke-miterlimit:10;} .st16{fill:none;stroke:#FD5602;stroke-width:10;stroke-miterlimit:10;} .st17{fill:none;stroke:#FC5603;stroke-width:10;stroke-miterlimit:10;} .st18{fill:none;stroke:#FE5604;stroke-width:10;stroke-miterlimit:10;} .st19{fill:none;stroke:#FE5602;stroke-width:10;stroke-miterlimit:10;} .st20{fill:none;stroke:#FA5606;stroke-width:10;stroke-miterlimit:10;} .st21{fill:none;stroke:#FE5504;stroke-width:10;stroke-miterlimit:10;} .st22{fill:none;stroke:#FE5502;stroke-width:10;stroke-miterlimit:10;} .st23{fill:none;stroke:#FB5605;stroke-width:10;stroke-miterlimit:10;} .st24{fill:none;stroke:#FD5603;stroke-width:10;stroke-miterlimit:10;} .st25{fill:none;stroke:#DB6222;stroke-width:10;stroke-miterlimit:10;} .st26{fill:none;stroke:#DC6024;stroke-width:10;stroke-miterlimit:10;} .st27{fill:none;stroke:#FF5502;stroke-width:10;stroke-miterlimit:10;} .st28{fill:none;stroke:#FD5502;stroke-width:10;stroke-miterlimit:10;} .st29{fill:none;stroke:#F85808;stroke-width:10;stroke-miterlimit:10;} .st30{fill:none;stroke:#FB5604;stroke-width:10;stroke-miterlimit:10;} .st31{fill:none;stroke:#F3580D;stroke-width:10;stroke-miterlimit:10;} .st32{fill:none;stroke:#F95705;stroke-width:10;stroke-miterlimit:10;} .st33{fill:none;stroke:#F95706;stroke-width:10;stroke-miterlimit:10;} .st34{fill:none;stroke:#FC5604;stroke-width:10;stroke-miterlimit:10;} .st35{fill:none;stroke:#FC5602;stroke-width:10;stroke-miterlimit:10;} .st36{fill:none;stroke:#FA5705;stroke-width:10;stroke-miterlimit:10;} .st37{fill:none;stroke:#FB5606;stroke-width:10;stroke-miterlimit:10;} .st38{fill:none;stroke:#F95707;stroke-width:10;stroke-miterlimit:10;} .st39{fill:none;stroke:#F95709;stroke-width:10;stroke-miterlimit:10;} .st40{fill:none;stroke:#F85708;stroke-width:10;stroke-miterlimit:10;} .st41{fill:none;stroke:#FA5605;stroke-width:10;stroke-miterlimit:10;} .st42{fill:none;stroke:#F75809;stroke-width:10;stroke-miterlimit:10;} .st43{fill:none;stroke:#F7570B;stroke-width:10;stroke-miterlimit:10;} .st44{fill:none;stroke:#FD5503;stroke-width:10;stroke-miterlimit:10;} .st45{fill:none;stroke:#FFFEFF;stroke-width:10;stroke-miterlimit:10;} .st46{fill:none;stroke:#FFFEFC;stroke-width:10;stroke-miterlimit:10;} .st47{fill:none;stroke:#E55D1A;stroke-width:10;stroke-miterlimit:10;} .st48{fill:none;stroke:#E5804F;stroke-width:10;stroke-miterlimit:10;} .st49{fill:none;stroke:#DB713B;stroke-width:10;stroke-miterlimit:10;} .st50{fill:none;stroke:#FFFFFD;stroke-width:10;stroke-miterlimit:10;} .st51{fill:#FFFFFF;} .st52{fill:#E65D17;} .st53{fill:#DD662E;} .st54{fill:#FF5500;} .st55{fill:#FE7202;} .st56{fill:#FF7101;} .st57{fill:#FF7202;} .st58{fill:#FF7201;} .st59{fill:#E77D2B;} .st60{fill:#FFFEFD;} .st61{fill:#E75C18;} .st62{fill:#FFFDFD;} .st63{fill:#E67821;} .st64{fill:#E07F33;} .st65{fill:#F85707;} .st66{fill:#F1590E;} .st67{fill:#FD5602;} .st68{fill:#FC5603;} .st69{fill:#FE5604;} .st70{fill:#FE5602;} .st71{fill:#FA5606;} .st72{fill:#FE5504;} .st73{fill:#FE5502;} .st74{fill:#FB5605;} .st75{fill:#FD5603;} .st76{fill:#DB6222;} .st77{fill:#DC6024;} .st78{fill:#FF5502;} .st79{fill:#FD5502;} .st80{fill:#F85808;} .st81{fill:#FB5604;} .st82{fill:#F3580D;} .st83{fill:#F95705;} .st84{fill:#F95706;} .st85{fill:#FC5604;} .st86{fill:#FC5602;} .st87{fill:#FA5705;} .st88{fill:#FB5606;} .st89{fill:#F95707;} .st90{fill:#F95709;} .st91{fill:#F85708;} .st92{fill:#FA5605;} .st93{fill:#F75809;} .st94{fill:#F7570B;} .st95{fill:#FD5503;} .st96{fill:#FFFEFF;} .st97{fill:#FFFEFC;} .st98{fill:#E55D1A;} .st99{fill:#E5804F;} .st100{fill:#DB713B;} .st101{fill:#FFFFFD;}</style><path d="M5 5h1978v530H5V5z" class="st0"/><path d="M467.9 116c5.3-.7 10.7-.3 16.1-.4 42 0 84 0 126 0 2 0 4 .2 6 .5l-1.3.3c-5.5 1.2-11.1.6-16.6.7-36.3 0-72.6 0-109 0-6.4-.1-12.9.5-19.3-.6l-1.9-.5z" class="st1"/><path d="M112.2 115.6c22.9-.1 45.9 0 68.8-.1 7.5-.1 15 .4 22.3 2-29.9-.4-59.9-.3-89.8-.2-.2 49.6 0 99.2-.1 148.7.1 11.2-.1 22.3.1 33.5 21.1.3 42.3 0 63.4.2 10.2.2 20.3-1.5 30.4-1.8-7.2 2.4-14.9 2.5-22.4 2.8-24.3.1-48.5.1-72.8 0 .1-61.7.1-123.4.1-185.1z" class="st2"/><path d="M285.4 300.6c24.4-61.6 48.6-123.4 73-185 11.7 0 23.3 0 35 0 20.4 51.4 40.4 102.8 60.7 154.2 4 10.3 8.2 20.4 12 30.8-9.3 0-18.6.2-27.9 0-6-.2-9.8-5.8-11.3-11.1-4.1-11.4-8.4-22.8-12.5-34.3-25.6 0-51.3-.1-76.9 0-4.2 11.6-8.5 23.1-12.7 34.7-1.4 6.2-7 11.6-13.7 10.8-8.7-.1-17.2.1-25.7-.1zm184.3-184.2c6.4 1.1 12.9.5 19.3.6 36.3 0 72.6 0 109 0 5.5-.1 11.2.5 16.6-.7.4 9.1.1 18.3.2 27.4-18.5 0-37 0-55.5 0-.5 15.1-.1 30.2-.1 45.3-.2 12.3.3 24.6-.3 36.9.6 20 .1 40 .3 60 0 4.9.1 9.9-.5 14.8-11.3 0-22.6-.1-33.9.1 1.9-5.8 1.1-11.9 1.1-17.8.1-28.3 0-56.7 0-85-.1-17.7.3-35.3-.2-53-.3-.1-.9-.4-1.2-.5-3.1-1.1-6.4-.6-9.6-.7-15.4 0-30.9.1-46.4 0 0-9.2-.1-18.3 0-27.5l1.2.1zm147.5 184.2c24.3-61.7 48.6-123.4 73-185 11.7 0 23.3 0 35 0 24.4 61.6 48.6 123.3 72.8 185-9.3.1-18.6.1-27.8 0-5.1-.1-9.1-4.3-10.7-8.8-4.4-12.2-9-24.3-13.3-36.5-25.7-.1-51.4-.1-77.1 0-3.9 11.5-8.4 22.9-12.5 34.4-1.3 3.6-2.9 7.6-6.5 9.5-2.7 1.7-6.1 1.5-9.2 1.6-7.9-.2-15.8 0-23.7-.2zM113.5 117.3c29.9-.1 59.9-.2 89.8.2 17.4 3 34.1 11.1 46.8 23.4 14.5 13.9 23.4 33.2 25.9 53.1 2.5 21.1-.3 43.4-11 62.1-11.7 21.6-33.6 37.2-57.6 41.9-10.2.3-20.2 2-30.4 1.8-21.2-.2-42.3.1-63.4-.2-.3-11.2-.1-22.3-.1-33.5 0-49.6-.2-99.2 0-148.8z" class="st3"/><path d="M908.1 125.3c12.4-7.4 27.6-9.1 41.8-6.8 11.8 1.6 22.9 6.9 31.7 14.9.7.8 1.7 1.5 2.1 2.5-.8 2.7-2.4 5.1-3.7 7.5-3.2.7-5.9-1.1-8.1-3.2-9.1-7.6-20.9-12.1-32.8-11.8-12-.4-24.8 3.4-32.7 12.8-6.1 7-8.8 16.5-7.9 25.7.2 9.1 6.3 17 13.7 21.9 11.6 7.7 25.5 10.4 38.4 15.4 12.8 4.5 26.4 10.5 33.5 22.8 5.5 8.6 5.3 19.1 4.6 28.9-1.8 15-10.1 29.4-23 37.4-14.1 9.2-31.9 10.8-48.2 8.3-14.8-2.1-28.1-10.2-38.3-20.9-2-1.7-.2-4.1.9-5.7 1.1-2 3.1-3.1 5.1-3.9 6.5 5.1 12.5 11 20 14.7 11.3 5.9 24.5 6.9 37 5.1 10-1.8 19.7-6.8 26.1-14.9 7.5-9.5 10.1-22.3 7.9-34.1-1.5-7.3-6.4-13.5-12.5-17.7-7.5-5.4-16.4-8-25-10.9-12.7-4.1-25.9-7.3-36.7-15.3-9-6.4-15.3-17-15.7-28.1-.3-6.8-.4-13.9 2-20.4 3.4-10.1 10.5-18.9 19.8-24.2z" class="st4"/><path d="M1090.4 118.6c14.3-2.2 29.1-1.1 43 3.1 15 4.8 28.9 13.8 38.5 26.3 14 17.7 20.1 40.6 19.6 62.9.2 22.6-6.5 45.8-21.2 63.3-10.3 12.2-24.6 20.9-39.9 25.1-26.1 6.8-55.7 3.3-77.6-13.1-23.5-17.4-35-47.6-33.7-76.2-1.2-26.6 8.7-54.3 28.9-72.1 11.8-10.3 26.8-17.1 42.4-19.3z" class="st5"/><path d="M1285.4 120.3c4.8-1.3 9.7-1.7 14.6-2.6 6-.3 12.1-.3 18.1 0 18.4 1.7 36.4 9.3 49.9 22-1.6 2.3-3.3 4.7-4.9 7-2.2 0-4.4-.3-6-1.9-8.7-6.8-18.9-11.6-29.7-14.2-8.3-2.1-16.9-1.6-25.4-1.5-19.5 1-38.6 10.6-50.5 26.2-10.2 13.3-15.4 30-16.5 46.6-1.5 20.9 2.4 43 14.6 60.4 10.8 15.7 28.6 26.1 47.4 28.3 18.6 2.1 38.8-.3 54.4-11.4 4.1-2.6 7.4-6.3 11.5-8.9 3.8-.7 5.6 3.8 8.3 5.8-10.2 11.8-24.3 19.9-39.3 23.5-15.7 3.8-32.2 3.8-48 .3-16-4.2-30.9-13-41.5-25.7-14.7-17.5-21.3-40.8-21.1-63.5-.5-22.3 6-45.1 20-62.7 11-13.6 26.9-23.3 44.1-27.7z" class="st4"/><path d="M1919.6 120c10.3-2.4 21.5 4.9 23.9 15.1 3.1 10.4-4.4 22-14.7 24.7-11.9 3.7-25.3-6.4-25.6-18.7-.8-9.8 6.8-19.2 16.4-21.1z" class="st1"/><path d="M1406.7 119.6c4.3 0 8.7 0 13 0 .2 60.4.1 120.7.1 181.1-4.4 0-8.7 0-13.1 0 0-60.4 0-120.7 0-181.1z" class="st5"/><path d="M1473.2 119.6c36.1 0 72.3 0 108.4 0 .1 3.7 0 7.3 0 10.9-31.7.1-63.5 0-95.2 0-.1 24.4 0 48.7 0 73 26.4.1 52.8 0 79.2 0 0 3.6 0 7.2 0 10.8-26.4.1-52.8 0-79.2 0 0 25.1-.1 50.3.1 75.4 4.5 2.4 9.7 1.3 14.5 1.4 26.4 0 52.9-.1 79.3.1.4 2 .9 3.9 1.3 5.9.1 1.1.2 2.3.3 3.4-36.2.1-72.4 0-108.6.1-.1-60.3-.2-120.7-.1-181z" class="st6"/><path d="M1599.2 130.7c0-3.6 0-7.2-.1-10.9 2.2.7 4.5 1.4 6.9 1.5 44.2-.3 88.4.1 132.6-.2 0 2.8-.1 5.7-.1 8.5-21.1.5-42.3-.5-63.4.5-.9 10.3-.3 20.6-.4 30.8 0 41 0 82 0 123 0 5.6-.7 11.5 1.4 16.8-4.3-.2-8.6-.1-12.8-.1-.1-51.3 0-102.5 0-153.8-.1-5.4.2-10.9-.4-16.2-21.3.2-42.5.1-63.7.1z" class="st7"/><path d="M1599.1 119.8c10.3-.8 20.6-.1 30.9-.3 36.8.1 73.5-.1 110.3.1 0 3.7 0 7.4 0 11.1-21.3.5-42.6-.4-63.8.5 0 54.6 0 109.2 0 163.8 0 1.9-.2 3.9-.4 5.8-2.1-5.4-1.4-11.2-1.4-16.8 0-41 0-82 0-123 .1-10.3-.4-20.6.4-30.8 21.1-1 42.3 0 63.4-.5 0-2.8 0-5.7.1-8.5-44.2.3-88.4-.1-132.6.2-2.4-.1-4.7-.8-6.9-1.6z" class="st8"/><path d="M1746.7 119.6c3.8 0 7.6-.2 11.5 0 2.5-.1 4 2.2 5.3 4 15.4 24.9 31 49.7 46.5 74.5 3.8 6 7.7 12.1 10.3 18.8 2.8-6.5 6.2-12.7 10.2-18.6 13.1-20.9 26.1-41.9 39.2-62.8 3.2-4.8 5.8-10 9.4-14.6 4.2-2.7 9.8-.9 14.5-1.3-3.9 7.5-8.9 14.4-13.3 21.6-17.3 27.4-34.6 54.9-51.9 82.3-1 1.6-1.9 3.4-1.6 5.4 0 23.9 0 47.8 0 71.8-4.4 0-8.8-.1-13.2.2.3-17 0-33.9.1-50.9-.2-8 .4-16.1-.2-24.1-22.1-35.6-45-70.6-66.8-106.3z" class="st5"/><path d="M1919.3 123.2c10.4-3.2 22.3 5.8 21.6 16.8.6 9.6-8.5 18-17.9 17.4-8.7-.2-16.4-7.7-16.6-16.4-.7-8.1 5-15.9 12.9-17.8z" class="st9"/><path d="M1916.3 128.3c4.3.1 8.7-.5 13 .5 3.5 1.3 4.1 5.6 3.1 8.8-1 2.2-3.4 3.1-5.2 4.3 2.3 3.3 4.6 6.6 6.7 10.1-1.2-.1-2.3-.3-3.4-.5-2.7-3-4.6-6.6-7-9.9-1.4 0-2.8 0-4.1 0 0 3.4-.1 6.8-.1 10.1-1 0-2 .1-2.9.1-.2-7.9-.1-15.7-.1-23.5z" class="st10"/><path d="M1062.5 141.6c12.3-8.7 27.5-12.9 42.5-12.5 18.7-.7 38.1 6.1 51.2 19.7 9.8 9.7 15.9 22.6 19 35.9 3 11.8 2.8 24.2 2.3 36.3-1.4 17-7.1 34.1-18.3 47.1-8.1 9.6-19.1 16.4-31.1 19.9-13.2 3.8-27.3 4.2-40.7 1.3-13.1-2.8-25.5-9.3-34.6-19.2-12.3-12.9-18.6-30.6-20.2-48.2-.8-14-.7-28.4 3.5-41.9 4.4-15.1 13.3-29.2 26.4-38.4z" class="st0"/><path d="M1919.3 130.8c3.3.4 7.7-.8 10 2.3.1 1.4.2 2.8.3 4.2-3.3 1.4-6.8 1.6-10.3 1.5 0-2.7 0-5.4 0-8z" class="st11"/><path d="M146.8 143.2c12.7-.1 25.5 0 38.2 0 15.5 0 31.4 6.2 41.6 18.2 11 12.7 14.9 30.1 14.9 46.6.1 16.5-3.7 33.9-14.7 46.8-7.7 9.3-19 15-30.6 17.5-16.4 2.1-32.9.7-49.3 1.1-.1-43.4-.1-86.8-.1-130.2z" class="st0"/><path d="M524.6 144.5c.3.1.9.4 1.2.5.4 17.7 0 35.3.2 53 0 28.3.1 56.7 0 85 0 5.9.8 12.1-1.1 17.8-.4-2.9-.4-5.9-.4-8.8.1-49.2-.1-98.3.1-147.5z" class="st1"/><path d="M375.9 147.6c2.1 8.4 4.8 16.5 8 24.6 7.1 19.5 14.4 39 21.4 58.6-19.6.1-39.2.1-58.9 0 7.7-20.8 15.2-41.6 22.9-62.4 2.6-6.9 4.5-13.9 6.6-20.8zm331.9 0c2 8.9 5.1 17.5 8.4 26 6.9 19 14 38 20.9 57.1-19.6.1-39.2.1-58.8 0 7.9-21.6 15.8-43.1 23.7-64.7 2.2-6 3.8-12.3 5.8-18.4z" class="st0"/><path d="M1814.5 225.3c1.6 6.8.7 13.8.9 20.7-.1 18 .3 36-.2 54-.2-.1-.7-.2-1-.3-.5-12.9 0-25.9-.2-38.8.3-11.8-.6-23.7.5-35.6z" class="st12"/><path d="M1486.5 289.9c32-.6 64-.2 96-.2-.2 2.5-.5 5-.8 7.5-.4-2-.9-3.9-1.3-5.9-26.4-.2-52.8 0-79.3-.1-4.9-.1-10.2 1-14.6-1.3z" class="st13"/><path d="M80.3 421.9c0-21.7-.1-43.4 0-65.1 2 0 4.1 0 6.1 0 .1 8.4 0 16.8.1 25.2 3.2-2.3 6.5-4.9 10.5-5.4 5.1-.7 11.1-.4 14.8 3.6 3.5 3.7 4.6 9 4.6 13.9 0 9.2 0 18.4 0 27.6-2 .2-4.1.5-6.1.7-.4-9.8.1-19.6-.2-29.3-.2-4.1-1.3-9.1-5.6-10.8-6.6-2.7-13.8 1.2-18 6.3 0 11.1 0 22.1 0 33.2-2.1 0-4.1 0-6.2.1z" class="st14"/><path d="M585.1 356.7c2.1 0 4.2 0 6.3 0 0 21.9.1 43.9 0 65.8-1.9-.3-3.8-.7-5.6-1 0-1.4 0-2.8 0-4.1 1.4 1.4 2.9 2.8 4.4 4.1.5-21.2.2-42.5.1-63.8-1.4 0-2.8.1-4.2.2.1 7.4 0 14.9-.8 22.2-.5-7.8-.7-15.6-.2-23.4z" class="st2"/><path d="M1913.7 356.7c1.8 0 3.7 0 5.6.1 1.4.9.7 2.8 1 4.2-.1 15.7 0 31.3 0 47 0 4.8.3 9.7-.6 14.4-2-.3-4-.5-5.9-.9-.1-21.5-.2-43.2-.1-64.8z" class="st15"/><path d="M391.8 358.4c2.2 0 5-.9 6.6 1.2 2.1 2.2 1.4 6.1-1.3 7.5-2 1.2-4.3.1-6.1-.7-.5-1.2-.9-2.4-1.4-3.6.7-1.5 1.4-2.9 2.2-4.4z" class="st16"/><path d="M586.1 357.8c1.4-.1 2.8-.1 4.2-.2 0 21.2.4 42.5-.1 63.8-1.5-1.4-3-2.7-4.4-4.1 0 1.4 0 2.7 0 4.1-.1-1.8-.3-3.5-.4-5.3-4.2 3.8-9.5 7.1-15.5 6.4-7.3 0-13.8-5.5-15.5-12.5-2-8-2.1-17.1 2-24.5 3.2-5.9 9.8-9.9 16.6-9.4 4.5-.4 8.6 1.6 12.2 3.9 1-7.3 1-14.7.9-22.2z" class="st17"/><path d="M817.4 362.8c1.1-2.3 2.4-5.2 5.5-4.6 4.1-.4 6.2 5.4 3.3 8-1.9 2.3-5 1.3-7.3.2-.5-1.2-1-2.4-1.5-3.6z" class="st18"/><path d="M1145.6 358.6c1.9-.6 4.4-.8 5.9.9 1.6 1.4 1 3.8 1.2 5.8-1.8 1.3-3.9 3-6.3 2.1-4-1-4.4-7.1-.8-8.8z" class="st17"/><path d="M1213.3 358.4c3.1-1.1 7 1 6.5 4.6.4 3.8-4.6 6-7.5 3.8-3-1.9-2.5-7.4 1-8.4z" class="st19"/><path d="M1352.2 363.2c1.9-3.1 5.5-4.4 8.7-5.6 3 0 6 .5 8.9 1.1-.1 1.5-.3 3-.4 4.5-3.8.2-8.3-.9-11.3 2-3.2 3.5-2.6 8.6-2.6 13 4.7 0 9.3 0 14 0 0 1.7-.1 3.4-.1 5-4.6 0-9.2 0-13.9.1 0 12.8 0 25.6 0 38.5-2.1 0-4.2 0-6.2 0 0-12.8 0-25.5 0-38.3-2.3-.3-4.7-.7-7-1-.1-1.4-.2-2.7-.3-4.1 2.4-.2 4.8-.4 7.2-.6.1-5 0-10.4 3-14.6z" class="st20"/><path d="M1612.5 362.5c3.1-4.1 8.6-5.2 13.5-4.9 1.2.4 2.4.9 3.6 1.3-.1 1.4-.2 2.8-.3 4.2-3.9.2-8.8-1.1-11.7 2.3-2.8 3.6-2.2 8.4-2.2 12.7 4.7 0 9.3 0 14 0 0 1.7 0 3.3 0 5-4.6 0-9.3 0-13.9.1 0 12.8 0 25.7 0 38.5-2.1 0-4.1 0-6.2 0-.1-12.8 0-25.6 0-38.3-2.3-.3-4.5-.6-6.8-.9-.3-1.4-.6-2.7-.9-4.1 2.5-.2 5.1-.5 7.6-.8-.1-5.1-.2-10.8 3.3-15.1z" class="st21"/><path d="M1757.4 358.4c3.1-1.1 7 1.1 6.5 4.6.4 3.8-4.6 6-7.4 3.8-3.3-1.8-2.7-7.5.9-8.4z" class="st22"/><path d="M24.2 364.4c0-2-.1-3.9-.2-5.9 16.6-.1 33.1 0 49.7 0 0 2 0 3.9 0 5.9-7.1 0-14.2 0-21.4 0 0 15.5-.1 31 0 46.5.3 3.9.6 7.8-.2 11.7l.1-1.1v-.5c.3-8.7-.6-17.3-.3-26-.3-10.3.8-20.7-.6-31-1.3 8-.6 16-.7 24.1-.1 10.9.2 21.8-.2 32.7-.8-.1-2.3-.3-3.1-.4-.2-10.4 0-20.9-.1-31.3-.1-8.3.5-16.6-.7-24.8-.9 8.2-.4 16.5-.5 24.8-.1 10.8.1 21.5-.1 32.3l-.1 1.6c-.6-19.5-.1-39-.3-58.4-7-.2-14.2-.2-21.3-.2z" class="st3"/><path d="M1045.7 362.8c1.1-1.6 3.2-1.1 4.8-1.4.1 5.5 0 11 0 16.5 4.5.5 9.1.4 13.7.4 0 1.1.1 3.4.1 4.5-4.6.7-9.2.4-13.8.5 0 8.9 0 17.8 0 26.7-.1 2.2.6 4.3 1.1 6.3 1.4.3 2.8.7 4.3.8 2.6-.2 4.5-2.7 7.1-2.7 1 1 1.7 2.2 2.5 3.4-3.3 2.7-7.2 5.1-11.6 4.7-4.8.3-9.5-3.7-9.5-8.7-.3-10.2 0-20.4-.1-30.6-2.3-.1-4.6-.1-6.9-.1-.2-1.5-.3-3.1-.4-4.6 2.4-.1 4.9-.3 7.3-.4.5-5 .5-10.2 1.4-15.3z" class="st23"/><path d="M649.6 362.7c1.2-1.5 3.2-1 4.8-1.4.1 5.5 0 11 0 16.5 4.6.6 9.2.4 13.8.5 0 1.6 0 3.3 0 4.9-4.6 0-9.2 0-13.8 0 0 8.9 0 17.8 0 26.8-.1 2.2.5 4.3 1.2 6.4 2 .2 4.2 1.4 6.1.3 1.8-.6 3.3-2.4 5.3-2.1 1 1 1.7 2.2 2.5 3.4-3.3 2.7-7.1 5.2-11.5 4.7-4.9.3-9.5-3.7-9.5-8.6-.3-10.2 0-20.5-.2-30.7-2.2 0-4.5-.1-6.7-.1-.3-1.5-.7-3-1-4.5 2.6-.2 5.2-.3 7.8-.5.3-5.3.3-10.5 1.2-15.6z" class="st24"/><path d="M46.6 364.2c1.2 8.2.6 16.6.7 24.8.1 10.4-.1 20.9.1 31.3.8.1 2.3.3 3.1.4.4.1 1.3.2 1.8.2v.5c-1.7 1.5-4.3.4-6.3.9v-1.1c.2-10.8 0-21.5.1-32.3.1-8.2-.4-16.5.5-24.7z" class="st25"/><path d="M50.7 388c.1-8-.6-16.1.7-24.1 1.4 10.3.3 20.7.6 31-.3 8.7.6 17.4.3 26-.4-.1-1.3-.2-1.8-.2.4-10.8.1-21.8.2-32.7z" class="st26"/><path d="M202.9 382.2c3.2-2.2 6.3-5 10.3-5.7 5.2-.8 11.1-.5 15.3 3.1 5.2 4.5 6.8 11.8 6.9 18.4.2 7.5-1.9 15.6-7.9 20.5-6.8 5.6-17.4 5.5-24.1-.2 0 6.3 0 12.7 0 19-2 0-4.1 0-6.1.1 0-12.8-.3-25.6-.1-38.3-.3-7.5-.6-15.1.2-22.6 1.7.2 3.5.6 5.2 1 0 1.5.2 3.1.3 4.7z" class="st16"/><path d="M258.8 376.8c3.6-1 7.5-.7 11 .6-.4 1.8-.8 3.5-1.2 5.3-3.8-.1-8.3-1.3-11.6 1.2-3.5 2.9-5.9 7.5-5.7 12.1 0 8.5 0 17.1 0 25.6-2 .3-4 .6-6 .8-.8-15.3-.4-30.6-.1-46 1.8.2 3.6.6 5.3.9.1 1.7.2 3.4.4 5.1 2.4-2 4.7-4.5 7.9-5.6z" class="st27"/><path d="M326.9 381.9c3-2.4 6-5.4 10.1-5.6 2.9-.2 6-.3 8.5 1.2 2.5 1.4 4 3.9 5.5 6.3 4.3-8.1 16-10.1 23-4.7 5.1 4.4 5.7 11.6 5.5 17.8 0 8.3 0 16.5 0 24.8-2 0-4.1.1-6.1.1-.1-9.9.1-19.9-.1-29.8 0-4.8-2.9-10.2-8.1-10.5-6.1-1.1-11.8 4.5-11.7 10.5-.1 10 0 19.9 0 29.9-2.1 0-4.1.1-6.1.2-.5-10.3-.2-20.7-.4-31 .1-4.4-3-9.5-7.8-9.5-4.9-.5-8.7 3.2-11.6 6.6-.1 11.2-.1 22.4 0 33.7-2 .2-4.1.5-6.1.7-.3-15.3-.1-30.6-.1-45.9 1.8.2 3.6.5 5.3.9 0 1.3.1 2.8.2 4.3z" class="st28"/><path d="M471.3 376.3c3.2-1.1 6.4.1 9.4 1.1-.4 1.8-.9 3.5-1.3 5.2-3.8-.1-8.2-1.3-11.5 1.2-3.6 2.9-5.9 7.5-5.7 12.2 0 8.6 0 17.1 0 25.7-2.2 0-6.4 1.9-6.5-1.6-.1-13.8-.1-27.6 0-41.4-.5-2.8 2.5-2.3 4.3-2 2.5 1.1 1.2 4.4 1.7 6.5 2.4-3.1 5.5-6.2 9.6-6.9z" class="st29"/><path d="M674.1 383.4c5.4-5.4 13.1-8.8 20.8-7 6.4 1 10.6 7.5 10.7 13.6.2 10.6.1 21.2.1 31.8-1.6-.1-3.3-.3-4.9-.4-.2-1.5-.4-3.1-.6-4.6-4.5 3.1-9.5 6.2-15.2 5.9-5 .3-10.5-2.5-12.2-7.5-1.1-4.3-.9-9.6 2.9-12.5 6.7-5.4 15.7-6 24-6.4-.1-4 .5-8.4-2.1-11.8-2.5-3.4-7.4-3.6-11.1-2.6-3.8 1.1-6.5 4.7-10.6 5.1-.7-1.2-1.2-2.4-1.8-3.6z" class="st30"/><path d="M746.5 377.6c7.1-2.9 15.8-1.7 21.6 3.5-.6 1.2-1.2 2.4-1.8 3.5-.5 0-1.6 0-2.2-.1-4.2-2.9-9.9-4.6-14.8-2.3-2.4.9-3.7 3.4-4.8 5.5.4 1.2.7 2.4 1.1 3.6 5.6 4.6 13.5 4.5 19.3 8.7 5.7 4.2 4.9 13.4.1 18-4.5 4.6-11.6 5.3-17.6 4.1-3.7-.9-6.8-3.1-9.8-5.3.6-1.2 1.3-2.4 1.9-3.6.6 0 1.8 0 2.4 0 3.2 2.3 6.9 4.5 11 4.2 3.7.2 7.7-1.6 9.4-5 .9-2.7 1-6.4-1.8-8-6.2-4.2-15.3-3.5-20-10-4-5.8-.3-14.2 6-16.8z" class="st23"/><path d="M889.8 382.6c4-4 9.4-6.9 15.2-6.4 5.7-.4 11.2 3 13.4 8.2 2.4 6.2 1.8 13.1 1.8 19.6-.1 6.1.4 12.3-.6 18.4-2-.2-4-.5-6-.7 0-9.9.1-19.8 0-29.7 0-4-1.8-8.5-5.8-9.9-6.4-2.3-13.8 1.1-17.4 6.7-.4 11.1 0 22.3-.2 33.4-2.2 0-4.3 0-6.5 0-.1-14.7-.1-29.4 0-44 .1-2.2 2.8-1.5 4.3-1.4 2.2 1.1 1.4 3.8 1.8 5.8z" class="st31"/><path d="M1085.5 376.7c3.4-.9 6.9-.4 10.3 0 0 1.9-.1 3.9-.3 5.8-4.3 0-9.5-1.4-12.9 2-3.2 3.2-5.1 7.9-4.9 12.4 0 8.3.1 16.5 0 24.8-2.1 0-4.1 0-6.2-.1 0-15-.1-30 0-45 1.7 0 3.3 0 5 0 .5 2.2.8 4.4 1.1 6.7 1.8-2.9 4.4-5.6 7.9-6.6z" class="st30"/><path d="M1101.2 383.4c3.7-4.2 9.1-7.2 14.8-7.2 3.6-.1 7.5 0 10.5 2.2 4.3 3 6.1 8.5 6.1 13.6 0 10 0 19.9 0 29.9-1.7-.1-3.3-.3-5-.4-.2-1.5-.4-3.1-.6-4.6-6.1 4.4-14.1 7.8-21.5 4.6-7.4-2.8-9.3-14-3-18.9 6.8-5.2 15.8-5.9 24-6.3 0-4.2.2-8.8-2.6-12.2-3.7-3.9-10.2-3.3-14.4-.4-2.1 1.1-3.9 3.4-6.5 3.1-1.1-.7-1.9-2-1.8-3.4z" class="st32"/><path d="M1169.8 382.3c3.3-2.6 6.8-5.5 11.2-5.9 4.4-.4 9.4-.5 13 2.5 4 3 5.8 8.2 5.7 13.1 0 10.1.1 20.2-.1 30.4-2.1-.3-4.1-.5-6.1-.8-.1-9.9.1-19.7-.1-29.6 0-4-1.9-8.5-5.9-9.9-6.2-2.3-13.1 1-16.9 6-.6 1.5-.4 3.2-.5 4.9.1 9.6 0 19.1.1 28.7-2.2.1-4.4.1-6.6.1 0-15.1 0-30.2 0-45.2 1.8.4 4.3-.5 5.5 1.4.3 1.4.5 2.9.7 4.3z" class="st33"/><path d="M1236.8 382.2c3.9-2.8 8-6 13.1-6 4.8-.4 10.1.6 13.3 4.6 4.5 5.3 4 12.7 4 19.2-.2 7.4.4 14.8-.5 22.2-1.8 0-3.6 0-5.4.1-1.4-10.7 0-21.6-.8-32.3-.4-3.3-2.4-6.7-5.7-7.8-5.2-1.9-11.1.1-15 3.8-1.1 1.1-2.8 2.2-2.6 4-.3 10.4.2 20.8-.2 31.2-1.3 1.8-3.9.8-5.8 1.2-1-9.4-.3-18.9-.5-28.3.1-5.9-.3-11.8.5-17.6 1.7.3 3.4.7 5.1 1.1.3 1.4.4 3 .5 4.6z" class="st3"/><path d="M1281.5 380.6c3.2-3.5 8.1-4.2 12.5-4.9 3.5.5 6.8 1.6 10.2 2.7 3.8.5 7.6.1 11.4.2 0 1 0 3 0 4-2.1.5-4.3.8-6.5 1.1.9 3.7 2.1 7.6.8 11.3-1.7 6.4-8.4 10.8-14.9 10.6-3 .2-6.1-.8-9.1 0-1.1 1.3-1.8 2.9-1.4 4.6 3.8 3.1 9 2.2 13.5 2.7 5.1.5 11 .4 14.8 4.4 2.6 2.5 2.3 6.5 1.7 9.7-1.5 4.2-5.2 7.4-9.2 9.1-7.3 2.9-15.8 2.8-23-.4-4.2-1.8-7.7-6-7.1-10.7-.4-4 3.1-6.7 5.9-9-1-1.9-2.5-3.7-2.5-6-.1-3.1 2.3-5.4 4-7.6-6.4-5.4-7.1-16-1.1-21.8z" class="st34"/><path d="M1438.7 376.8c3.6-1 7.5-.7 11 .5-.4 1.8-.7 3.6-1.1 5.4-4.1-.1-8.9-1.4-12.2 1.7-3.2 2.9-5.3 7.2-5.1 11.6-.1 8.5.2 17-.1 25.4-1.6 1.3-3.9.7-5.8 1-1.3-13.4-.2-26.9-.6-40.4.1-1.9.4-3.8.6-5.6 1.7.3 3.4.7 5.2 1.1.1 1.9.2 3.8.3 5.7 2.3-2.5 4.5-5.4 7.8-6.4z" class="st35"/><path d="M1485.5 382.4c4.7-4.9 11.7-7.8 18.4-6 7.1 1.1 12 7.8 13.1 14.5 1.1 6.8 1.1 14-1.8 20.4-2.9 6.6-9.8 11.5-17.2 11.3-4.6.3-8.8-1.7-12.5-4.3 0 6.3 0 12.6 0 19-2.1 0-4.1 0-6.2 0-.1-20.2-.1-40.4 0-60.6 1.7 0 3.3.1 5 .1.5 1.9.8 3.7 1.2 5.6z" class="st30"/><path d="M1538.8 377.8c3.8-2.4 8.6-1.6 12.8-1-.1 1.9-.2 3.9-.3 5.8-4.3 0-9.4-1.4-12.9 1.9-3 3-5.1 7.2-5 11.6 0 8.6 0 17.3 0 25.9-2.1-.1-4.1-.1-6.2-.1 0-15.1-.1-30.1 0-45.1 1.7 0 3.3 0 5.1.1.4 2.2.8 4.4 1.1 6.6 1.5-2.3 3.1-4.5 5.4-5.7z" class="st36"/><path d="M1870 383.3c4.6-4.6 10.6-7.3 17.1-7.7 3.8.8 8 1.5 10.6 4.7 4.9 5.3 3.9 13 4 19.6 0 7.3 0 14.6 0 21.9-1.7-.1-3.3-.2-4.9-.3-.3-1.6-.5-3.1-.7-4.7-5.7 4.3-13.1 7.5-20.3 5.1-6.2-1.7-9.7-9.5-7-15.3 1.3-3.4 4.6-5.5 7.8-7 6-2.5 12.6-3.1 19.1-3.4-.1-4.2.3-9-2.6-12.4-2.7-2.9-7.2-3-10.8-2-3.8 1.1-6.4 4.6-10.4 5.1-.8-1.1-1.3-2.3-1.9-3.6z" class="st37"/><path d="M137.4 377.7c4.3-1.9 9.2-1.8 13.7-1 9.3 2.1 14.9 13 12.5 21.9-10.7.3-21.5-.2-32.2.3.5 4.9 1.2 10.2 4.7 14.1 3.8 4.2 10.1 5 15.4 3.7 3.1-.7 5.6-2.8 8.6-4 1.9-.3 3.1 1.7 2.9 3.4-2.6 3.4-6.8 4.9-10.8 5.9-7.4 1.8-16.1.1-21.1-5.9-5.3-6.3-6.4-15.2-5.1-23.1 1.1-6.5 5.1-12.7 11.4-15.3z" class="st38"/><path d="M277.2 384.2c6.7-10.3 24.3-11.2 31.2-.7 3.2 4.3 3.6 9.8 3.2 15-10.8.4-21.6.1-32.4.2.1 6.6 2.2 14.5 8.9 17.3 6.8 3 14.1.1 19.9-3.7.8.5 1.5 1 2.3 1.5.2.6.5 1.7.7 2.2-6.6 6.1-16.7 8.2-25.1 5-6.6-2.5-10.9-8.9-12.2-15.6-1.1-7.1-.9-15.1 3.5-21.2z" class="st20"/><path d="M391.6 376.7c2 0 4.1 0 6.1 0 0 15.2.2 30.5-.1 45.7-2-.2-4-.5-6.1-.7.1-15 0-30 .1-45z" class="st39"/><path d="M412.1 384c6.7-10 23.8-10.9 30.9-.9 3.2 4.4 4.1 10.1 3.6 15.4-10.8.4-21.5.1-32.3.2 0 4.9.7 10.2 4.1 14 3.4 4 9 5.2 14 4.3 4-.6 7.4-3 11-4.8 1 1.2 1.9 2.4 2.8 3.6-7 6.6-18 8.8-26.8 4.7-4.4-2-7.6-6-9.4-10.3-3.3-8.4-3.1-18.6 2.1-26.2z" class="st33"/><path d="M486.3 387.2c2.6-5.8 8.3-10.3 14.7-10.9 5-.5 10.5-.1 14.5 3.1 5.8 4.3 7.9 12 7.1 19-10.8.5-21.6.1-32.4.2.1 4.9.9 10.1 4.2 13.9 3.4 4.1 9.3 5.3 14.4 4.3 3.8-.7 7-2.9 10.3-4.6.5.4 1.6 1.2 2.1 1.6.2.5.5 1.6.7 2.2-6.8 6.2-17.3 8.4-25.8 4.8-6.7-2.9-10.9-9.9-11.6-16.9-.6-5.5-.7-11.5 1.8-16.7z" class="st36"/><path d="M602.1 383.7c4.6-4.9 11-8.3 17.9-7.5 7.6-.5 13.6 6.5 13.6 13.8.3 10.6.1 21.3.1 31.9-1.7-.1-3.3-.3-5-.4-.2-1.6-.4-3.2-.5-4.7-5.9 4.9-14.4 8-21.8 4.6-7.3-3-8.7-14.5-2.2-19.1 6.7-4.9 15.4-5.5 23.5-5.9-.1-4 .5-8.5-2.1-11.8-2.8-3.7-8.4-3.8-12.4-2.1-3.2 1.3-5.6 4.3-9.2 4.6-.7-1.2-1.3-2.3-1.9-3.4z" class="st34"/><path d="M776.1 393.1c1.1-6.8 5.5-13.1 12-15.6 7.7-2.7 16.9-1.4 22.9 4.5-1 1-2 2.2-3.2 3-3.7-.9-6.8-3.9-10.8-3.6-6.2-.6-12.2 3.7-13.9 9.6-1.4 3.5 0 7.2-.7 10.8-.8 6.9 4 14.4 11.2 15.3 5.3 1.1 10.3-1.7 14.3-4.8.8.5 1.6 1 2.4 1.5.1.6.4 1.8.6 2.3-7.1 7.4-20.1 8.9-28.1 2.1-6.9-6.1-8.4-16.4-6.7-25.1z" class="st17"/><path d="M819.6 376.7c2 0 4 0 6.1 0 .1 15 0 30.1 0 45.1-2 0-4.1 0-6.1-.1 0-15-.1-30 0-45z" class="st40"/><path d="M838.2 387.3c2.6-5.8 8.4-10.4 14.9-10.9 5-.5 10.5 0 14.5 3.2 5.7 4.3 7.8 12 7 18.9-10.8.5-21.6.1-32.3.2 0 4.9.8 10.1 4.1 14 3.3 3.9 8.8 5.2 13.7 4.4 4.1-.5 7.6-3 11.2-4.8 1 1.2 1.9 2.4 2.8 3.6-4.9 4.5-11.5 7-18.2 6.7-7.1.1-14-4-17.1-10.4-3.7-7.7-4.1-17.1-.6-24.9z" class="st33"/><path d="M941.4 377.6c7.6-2.8 16.7-1.6 22.8 4-.9 1.3-1.3 3.6-3.3 3.4-3.3-1.1-6.3-3.6-9.9-3.5-5.6-.6-11.5 2.6-13.6 7.9-2.8 6.8-2.7 15 .7 21.6 3.3 6.2 11.7 8.1 17.8 5 2.1-1.1 4-2.6 6.3-3.5 1.1 1 2 2.2 2.9 3.4-7.8 8.3-22.8 9.6-30.5.6-5.4-6.5-6.1-15.5-4.8-23.5 1.1-6.6 5.3-12.9 11.6-15.4z" class="st30"/><path d="M970.7 393c1.1-7.6 6.7-14.5 14.3-16.3 5.8-1.1 12.5-.9 17.2 3.2 5.5 4.4 7.4 11.9 6.5 18.6-10.8.4-21.6 0-32.3.2.2 4.8.9 10 4.2 13.8 3.2 4 8.7 5.2 13.5 4.5 4.3-.5 7.8-3.2 11.8-4.7.8 1.1 1.6 2.1 2.5 3.2-8.2 9.1-24.9 9.9-32.9.2-5.3-6.3-5.9-15-4.8-22.7z" class="st41"/><path d="M1144.8 421.6c.2-15-.5-30 .4-44.9 1.8 0 3.7 0 5.6 0 .9 10.8.2 21.6.4 32.4 0 4.5.1 9-.5 13.4-2-.3-4-.6-5.9-.9z" class="st22"/><path d="M1212.2 376.7c2 0 4.1 0 6.1 0 .1 15 0 30 0 44.9-2 .2-4.1.5-6.1.7-.4-13.4.2-26.9-.4-40.3.1-1.8.3-3.5.4-5.3z" class="st42"/><path d="M1386.3 377.5c4-1.6 8.4-1.5 12.6-1 7.6 1 13.7 7.4 15.4 14.7 1.9 7.9 1.4 17-3.5 23.9-6 8.3-18.3 9.8-27 5-6.2-3.3-9.2-10.3-10-16.9-1.1-9.9 2.6-21.9 12.5-25.7z" class="st34"/><path d="M1567.5 377.7c4.6-1.9 9.8-1.8 14.6-1 8 1.7 13.5 9.3 14.5 17.1.7 6.7.6 13.9-3.1 19.8-6.8 11.8-26.3 12.1-33.9.9-4.5-6.7-5.1-15.5-3.2-23.1 1.4-6 5.4-11.4 11.1-13.7z" class="st24"/><path d="M1634.9 390c2-6.9 8-12.6 15.1-13.6 4.8-.5 10-.4 14.1 2.3 5.8 3.6 8.5 10.8 8.3 17.4.3 1.5-1.1 2.8-2.5 2.5-9.9.1-19.9 0-29.8 0-.2 4.5.4 9.3 3.2 13 3.3 4.9 9.9 6.4 15.4 5.2 3.8-.6 6.8-3.2 10.4-4.4 1 1 3.5 2.7 1.7 4.1-8.4 7.9-23.9 8.5-31.7-.6-5.7-7.1-6.8-17.3-4.2-25.9z" class="st36"/><path d="M1679.4 389.1c-.3-5.4 3.8-10.2 8.7-11.9 7.1-2.1 15.7-1.1 20.9 4.7-1.3 1.3-2.8 4-4.9 2.3-4.6-2.9-11-4.3-15.8-1-2.5 1.5-2.9 4.5-3 7.2 5.5 6.3 15.1 4.9 21 10.5 5.4 4.8 3.6 14.3-1.9 18.4-7.3 5.4-18.4 4.4-25.1-1.7-1.8-1.1.4-3 .6-4.5 5 .6 8.7 5.4 14.1 4.4 6.1.7 12.1-6.3 8.4-11.8-4.1-4-10.3-4.2-15.3-6.6-4.2-1.6-8-5.4-7.7-10zm44.2-11.4c7.2-3 16.4-2 22 3.7-.5.8-1.4 2.5-1.8 3.3-3-.3-5.5-2.2-8.3-3.1-3.9-.8-8.5-.6-11.4 2.5-1.8 1.6-1.6 4.1-1.9 6.2 5.8 6.5 16.2 4.9 21.9 11.5 4.9 6 1.5 15.9-5.3 18.9-7.8 4-17.5 1.7-23.9-4 1.1-1.3 1.8-4.2 4.1-3.4 3.5 1.7 6.8 4.5 11 4.2 4.7.5 9.9-2.5 10.4-7.5.7-3.9-3-6.4-6.2-7.5-5.7-2.2-12.8-2.9-16.4-8.3-3.6-5.8-.2-13.8 5.8-16.5z" class="st23"/><path d="M1756.2 400c-.3-7.8-.9-15.6.1-23.3 2 0 4 .1 6.1.1.1 15 0 29.9 0 44.9-2 .3-4 .5-5.9.8-1.3-7.5-.6-15-.3-22.5z" class="st43"/><path d="M1784.4 377.7c4.2-1.8 9-1.7 13.6-1.1 8.1 1.3 14.1 8.5 15.3 16.4 1 7.1.8 14.9-3.2 21-6.9 11.2-25.4 11.6-33.1 1.1-4.6-5.9-5.1-13.9-4.2-21.1.8-6.9 5-13.6 11.6-16.3z" class="st44"/><path d="M1823.5 376.7c1.6 0 3.3 0 5 .1.4 1.9.8 3.8 1.1 5.7 4.3-4.2 10.2-7 16.4-6.2 7.4-.2 13.1 6.7 13.4 13.8.4 10.6 0 21.2.2 31.8-2.1 0-4.1 0-6.2 0-.1-9.3 0-18.6 0-27.8 0-3.6-.5-7.5-3.2-10.1-3.1-2.9-7.9-3-11.7-1.6-3.6 1.2-6.3 3.9-8.8 6.6.1 10.9 0 21.8 0 32.7-.7.2-2 .6-2.6.8-1.2-.3-2.4-.5-3.6-.8 0-15.1-.1-30.1 0-45z" class="st17"/><path d="M1934.7 379.7c4.4-3.9 10.8-4 16.3-3.1 3.4.6 6.2 2.7 8.7 4.9-.5.8-1.4 2.5-1.8 3.3-3-.4-5.5-2.2-8.3-3.1-3.9-.9-8.5-.5-11.4 2.5-1.7 1.6-1.6 4-1.9 6.1 5.6 6.4 15.7 4.9 21.5 11 5.2 5.4 2.6 15.2-3.6 18.8-7.4 4.3-17.5 3.2-23.8-2.5-2.4-1.4.7-4.6 2.6-4.3 3.1 1.3 5.7 3.8 9.1 4.1 3.6.4 7.9 0 10.5-2.9 2.4-2.6 3.1-7.5-.1-9.7-5.8-4.2-14-3.7-19.2-8.9-4.7-4.4-3.4-12.4 1.4-16.2z" class="st23"/><path d="M138.3 383.3c5.9-3.7 15.2-2.5 18.4 4.2 1.5 2 .5 4.4-.5 6.4-8.1-.2-16.2 0-24.3-.2 1.1-4 2.7-8.3 6.4-10.4z" class="st45"/><path d="M418.3 385.3c4.9-5.4 14.6-5.7 19.4-.1 2 2.3 2.6 5.5 3.2 8.5-8.9.1-17.8.1-26.7 0 1.1-2.9 1.9-6.1 4.1-8.4zm75.2 1.1c4.2-5.9 13.8-7.1 19.3-2.3 2.7 2.4 3.7 6.1 4.2 9.6-8.8.1-17.6.1-26.3 0 .6-2.5 1.2-5.2 2.8-7.3zm352.8-1c4.7-5.2 14-5.8 19-.7 2.4 2.4 3.1 5.8 3.7 9-8.9.1-17.8.2-26.7 0 1-2.9 1.8-6 4-8.3zm134.1.1c4.7-5.3 13.9-5.9 19-.9 2.4 2.4 3.2 5.8 3.7 9.1-2.7.1-5.4.1-8.1.1-6.1 0-12.2 0-18.3 0 .8-3 1.6-6 3.7-8.3z" class="st9"/><path d="M1289.5 381.8c3.9-1 8.7-1.1 12 1.8 5.1 4.4 3.9 14.1-2.7 16.4-4.2 1.4-9.5 1.2-12.8-2-4.6-4.7-3.1-14.1 3.5-16.2z" class="st45"/><path d="M1390.6 381.8c4.9-1.1 10.6-.3 14.1 3.6 4.1 4.4 4.4 10.8 4.1 16.5-.1 5.5-2.6 11.6-7.9 14-5.5 2.4-12.8 1.6-16.8-3.2-4.2-5.3-4.2-12.6-3.4-19 .7-5.3 4.4-10.6 9.9-11.9zm95 7.1c3.1-3.8 7.3-7.5 12.5-7.5 5.3-.5 10.6 3 12 8.1 1.9 6.8 2.1 14.5-1.2 20.9-2.7 5.4-9.2 7.8-14.9 6.5-3.5-.5-6.1-3.1-8.4-5.5 0-7.5 0-15 0-22.5zm87-7.2c4.6-1 10-.2 13.4 3.3 3.6 3.7 4.6 9 4.6 13.9.1 4.4-.6 8.9-3 12.7-5.1 7.9-18.9 7.5-23.3-.9-3.2-6.6-3.3-14.5-.7-21.3 1.6-3.8 4.9-6.8 9-7.7z" class="st0"/><path d="M1643.2 386.3c4.6-6.3 15.4-7.1 20.4-.9 1.9 2.3 2.5 5.4 3.2 8.2-8.9.2-17.8.2-26.7 0 .8-2.5 1.5-5.1 3.1-7.3z" class="st46"/><path d="M1789.4 381.7c4.2-.8 9-.3 12.5 2.5 3.6 2.9 5 7.6 5.4 12 .4 5.2 0 10.8-2.8 15.4-4.9 7.7-18.1 7.7-22.9-.1-3.5-6-3.7-13.5-1.9-20 1.3-4.7 4.9-8.7 9.7-9.8zm-1577.9.5c5-1.9 11.4-.7 14.5 3.9 3.1 4.6 2.9 10.5 2.7 15.8-.2 5.5-2.7 11.5-7.9 14-4.8 2.2-11 1.8-15-1.8-1.2-1.1-2.7-2.3-2.5-4.1-.2-7.1 0-14.2 0-21.2 2.4-2.6 4.8-5.4 8.2-6.6z" class="st0"/><path d="M283 385.9c4.8-6 15.5-6.5 20.3-.3 1.9 2.2 2.3 5.2 2.7 8-8.7.1-17.5.1-26.2 0 .7-2.6 1.3-5.5 3.2-7.7z" class="st45"/><path d="M564.6 384.6c6-5.4 16.4-4 20.7 2.9-.3 7.2.2 14.4-.3 21.6-3.3 6.9-12.8 10.5-19.5 6.4-4.8-3.1-6-9.2-6.1-14.5-.2-5.8.9-12.2 5.2-16.4z" class="st0"/><path d="M652.7 403c.3-6.9-.5-13.8.8-20.6.4 3.8.6 7.6.5 11.5-.2 6.5.4 13-.5 19.5-.7-3.4-1-6.9-.8-10.4z" class="st47"/><path d="M158.1 391.4c2.1-1.2.3 3.2-.3.7l.3-.7z" class="st48"/><path d="M781.3 405c-.7-3.7-.8-7.5.3-11.2.6 3.7.6 7.5-.3 11.2z" class="st49"/><path d="M609.2 405.2c5.5-3.3 12.2-3.7 18.4-4-.1 3.3.3 6.7-.2 10-3.9 4.8-10.5 7.5-16.6 6-5.1-1.3-6.3-9.5-1.6-12zm71.9 0c5.5-3.3 12.2-3.7 18.5-4 0 3.3 0 6.7 0 10-4.4 4.3-10.5 7.6-16.8 6-5.1-1.3-6.4-9.4-1.7-12z" class="st9"/><path d="M1107.4 405.5c5.6-3.7 12.6-4 19.1-4.3 0 3.3 0 6.6 0 9.8-3 2.7-6.2 5.5-10.3 6.2-3.7.7-8.5.6-10.5-3.1-1-2.8-1.1-6.7 1.7-8.6zm769.7-.3c5.5-3.2 12.2-3.7 18.4-3.9 0 3.3 0 6.6 0 9.9-4.3 4.3-10.3 7.6-16.6 6.1-5.4-1.1-6.6-9.6-1.8-12.1z" class="st50"/><path d="M1280.8 425c.1-3.7 3.5-5.7 6.2-7.5 6.3 1.4 13.1.1 19.2 2.3 3.9 1.2 3.4 6.9.7 9.1-4.8 4.4-11.8 4.4-17.8 3.5-3.8-.7-8.2-3-8.3-7.4z" class="st45"/><path d="M5 5h1978v530H5V5z" class="st51"/><path d="M467.9 116c5.3-.7 10.7-.3 16.1-.4 42 0 84 0 126 0 2 0 4 .2 6 .5l-1.3.3c-5.5 1.2-11.1.6-16.6.7-36.3 0-72.6 0-109 0-6.4-.1-12.9.5-19.3-.6l-1.9-.5z" class="st52"/><path d="M112.2 115.6c22.9-.1 45.9 0 68.8-.1 7.5-.1 15 .4 22.3 2-29.9-.4-59.9-.3-89.8-.2-.2 49.6 0 99.2-.1 148.7.1 11.2-.1 22.3.1 33.5 21.1.3 42.3 0 63.4.2 10.2.2 20.3-1.5 30.4-1.8-7.2 2.4-14.9 2.5-22.4 2.8-24.3.1-48.5.1-72.8 0 .1-61.7.1-123.4.1-185.1z" class="st53"/><path d="M285.4 300.6c24.4-61.6 48.6-123.4 73-185 11.7 0 23.3 0 35 0 20.4 51.4 40.4 102.8 60.7 154.2 4 10.3 8.2 20.4 12 30.8-9.3 0-18.6.2-27.9 0-6-.2-9.8-5.8-11.3-11.1-4.1-11.4-8.4-22.8-12.5-34.3-25.6 0-51.3-.1-76.9 0-4.2 11.6-8.5 23.1-12.7 34.7-1.4 6.2-7 11.6-13.7 10.8-8.7-.1-17.2.1-25.7-.1zM469.7 116.4c6.4 1.1 12.9.5 19.3.6 36.3 0 72.6 0 109 0 5.5-.1 11.2.5 16.6-.7.4 9.1.1 18.3.2 27.4-18.5 0-37 0-55.5 0-.5 15.1-.1 30.2-.1 45.3-.2 12.3.3 24.6-.3 36.9.6 20 .1 40 .3 60 0 4.9.1 9.9-.5 14.8-11.3 0-22.6-.1-33.9.1 1.9-5.8 1.1-11.9 1.1-17.8.1-28.3 0-56.7 0-85-.1-17.7.3-35.3-.2-53-.3-.1-.9-.4-1.2-.5-3.1-1.1-6.4-.6-9.6-.7-15.4 0-30.9.1-46.4 0 0-9.2-.1-18.3 0-27.5l1.2.1zM617.2 300.6c24.3-61.7 48.6-123.4 73-185 11.7 0 23.3 0 35 0 24.4 61.6 48.6 123.3 72.8 185-9.3.1-18.6.1-27.8 0-5.1-.1-9.1-4.3-10.7-8.8-4.4-12.2-9-24.3-13.3-36.5-25.7-.1-51.4-.1-77.1 0-3.9 11.5-8.4 22.9-12.5 34.4-1.3 3.6-2.9 7.6-6.5 9.5-2.7 1.7-6.1 1.5-9.2 1.6-7.9-.2-15.8 0-23.7-.2zM113.5 117.3c29.9-.1 59.9-.2 89.8.2 17.4 3 34.1 11.1 46.8 23.4 14.5 13.9 23.4 33.2 25.9 53.1 2.5 21.1-.3 43.4-11 62.1-11.7 21.6-33.6 37.2-57.6 41.9-10.2.3-20.2 2-30.4 1.8-21.2-.2-42.3.1-63.4-.2-.3-11.2-.1-22.3-.1-33.5 0-49.6-.2-99.2 0-148.8z" class="st54"/><path d="M908.1 125.3c12.4-7.4 27.6-9.1 41.8-6.8 11.8 1.6 22.9 6.9 31.7 14.9.7.8 1.7 1.5 2.1 2.5-.8 2.7-2.4 5.1-3.7 7.5-3.2.7-5.9-1.1-8.1-3.2-9.1-7.6-20.9-12.1-32.8-11.8-12-.4-24.8 3.4-32.7 12.8-6.1 7-8.8 16.5-7.9 25.7.2 9.1 6.3 17 13.7 21.9 11.6 7.7 25.5 10.4 38.4 15.4 12.8 4.5 26.4 10.5 33.5 22.8 5.5 8.6 5.3 19.1 4.6 28.9-1.8 15-10.1 29.4-23 37.4-14.1 9.2-31.9 10.8-48.2 8.3-14.8-2.1-28.1-10.2-38.3-20.9-2-1.7-.2-4.1.9-5.7 1.1-2 3.1-3.1 5.1-3.9 6.5 5.1 12.5 11 20 14.7 11.3 5.9 24.5 6.9 37 5.1 10-1.8 19.7-6.8 26.1-14.9 7.5-9.5 10.1-22.3 7.9-34.1-1.5-7.3-6.4-13.5-12.5-17.7-7.5-5.4-16.4-8-25-10.9-12.7-4.1-25.9-7.3-36.7-15.3-9-6.4-15.3-17-15.7-28.1-.3-6.8-.4-13.9 2-20.4 3.4-10.1 10.5-18.9 19.8-24.2z" class="st55"/><path d="M1090.4 118.6c14.3-2.2 29.1-1.1 43 3.1 15 4.8 28.9 13.8 38.5 26.3 14 17.7 20.1 40.6 19.6 62.9.2 22.6-6.5 45.8-21.2 63.3-10.3 12.2-24.6 20.9-39.9 25.1-26.1 6.8-55.7 3.3-77.6-13.1-23.5-17.4-35-47.6-33.7-76.2-1.2-26.6 8.7-54.3 28.9-72.1 11.8-10.3 26.8-17.1 42.4-19.3z" class="st56"/><path d="M1285.4 120.3c4.8-1.3 9.7-1.7 14.6-2.6 6-.3 12.1-.3 18.1 0 18.4 1.7 36.4 9.3 49.9 22-1.6 2.3-3.3 4.7-4.9 7-2.2 0-4.4-.3-6-1.9-8.7-6.8-18.9-11.6-29.7-14.2-8.3-2.1-16.9-1.6-25.4-1.5-19.5 1-38.6 10.6-50.5 26.2-10.2 13.3-15.4 30-16.5 46.6-1.5 20.9 2.4 43 14.6 60.4 10.8 15.7 28.6 26.1 47.4 28.3 18.6 2.1 38.8-.3 54.4-11.4 4.1-2.6 7.4-6.3 11.5-8.9 3.8-.7 5.6 3.8 8.3 5.8-10.2 11.8-24.3 19.9-39.3 23.5-15.7 3.8-32.2 3.8-48 .3-16-4.2-30.9-13-41.5-25.7-14.7-17.5-21.3-40.8-21.1-63.5-.5-22.3 6-45.1 20-62.7 11-13.6 26.9-23.3 44.1-27.7z" class="st55"/><path d="M1919.6 120c10.3-2.4 21.5 4.9 23.9 15.1 3.1 10.4-4.4 22-14.7 24.7-11.9 3.7-25.3-6.4-25.6-18.7-.8-9.8 6.8-19.2 16.4-21.1z" class="st52"/><path d="M1406.7 119.6c4.3 0 8.7 0 13 0 .2 60.4.1 120.7.1 181.1-4.4 0-8.7 0-13.1 0 0-60.4 0-120.7 0-181.1z" class="st56"/><path d="M1473.2 119.6c36.1 0 72.3 0 108.4 0 .1 3.7 0 7.3 0 10.9-31.7.1-63.5 0-95.2 0-.1 24.4 0 48.7 0 73 26.4.1 52.8 0 79.2 0 0 3.6 0 7.2 0 10.8-26.4.1-52.8 0-79.2 0 0 25.1-.1 50.3.1 75.4 4.5 2.4 9.7 1.3 14.5 1.4 26.4 0 52.9-.1 79.3.1.4 2 .9 3.9 1.3 5.9.1 1.1.2 2.3.3 3.4-36.2.1-72.4 0-108.6.1-.1-60.3-.2-120.7-.1-181z" class="st57"/><path d="M1599.2 130.7c0-3.6 0-7.2-.1-10.9 2.2.7 4.5 1.4 6.9 1.5 44.2-.3 88.4.1 132.6-.2 0 2.8-.1 5.7-.1 8.5-21.1.5-42.3-.5-63.4.5-.9 10.3-.3 20.6-.4 30.8 0 41 0 82 0 123 0 5.6-.7 11.5 1.4 16.8-4.3-.2-8.6-.1-12.8-.1-.1-51.3 0-102.5 0-153.8-.1-5.4.2-10.9-.4-16.2-21.3.2-42.5.1-63.7.1z" class="st58"/><path d="M1599.1 119.8c10.3-.8 20.6-.1 30.9-.3 36.8.1 73.5-.1 110.3.1 0 3.7 0 7.4 0 11.1-21.3.5-42.6-.4-63.8.5 0 54.6 0 109.2 0 163.8 0 1.9-.2 3.9-.4 5.8-2.1-5.4-1.4-11.2-1.4-16.8 0-41 0-82 0-123 .1-10.3-.4-20.6.4-30.8 21.1-1 42.3 0 63.4-.5 0-2.8 0-5.7.1-8.5-44.2.3-88.4-.1-132.6.2-2.4-.1-4.7-.8-6.9-1.6z" class="st59"/><path d="M1746.7 119.6c3.8 0 7.6-.2 11.5 0 2.5-.1 4 2.2 5.3 4 15.4 24.9 31 49.7 46.5 74.5 3.8 6 7.7 12.1 10.3 18.8 2.8-6.5 6.2-12.7 10.2-18.6 13.1-20.9 26.1-41.9 39.2-62.8 3.2-4.8 5.8-10 9.4-14.6 4.2-2.7 9.8-.9 14.5-1.3-3.9 7.5-8.9 14.4-13.3 21.6-17.3 27.4-34.6 54.9-51.9 82.3-1 1.6-1.9 3.4-1.6 5.4 0 23.9 0 47.8 0 71.8-4.4 0-8.8-.1-13.2.2.3-17 0-33.9.1-50.9-.2-8 .4-16.1-.2-24.1-22.1-35.6-45-70.6-66.8-106.3z" class="st56"/><path d="M1919.3 123.2c10.4-3.2 22.3 5.8 21.6 16.8.6 9.6-8.5 18-17.9 17.4-8.7-.2-16.4-7.7-16.6-16.4-.7-8.1 5-15.9 12.9-17.8z" class="st60"/><path d="M1916.3 128.3c4.3.1 8.7-.5 13 .5 3.5 1.3 4.1 5.6 3.1 8.8-1 2.2-3.4 3.1-5.2 4.3 2.3 3.3 4.6 6.6 6.7 10.1-1.2-.1-2.3-.3-3.4-.5-2.7-3-4.6-6.6-7-9.9-1.4 0-2.8 0-4.1 0 0 3.4-.1 6.8-.1 10.1-1 0-2 .1-2.9.1-.2-7.9-.1-15.7-.1-23.5z" class="st61"/><path d="M1062.5 141.6c12.3-8.7 27.5-12.9 42.5-12.5 18.7-.7 38.1 6.1 51.2 19.7 9.8 9.7 15.9 22.6 19 35.9 3 11.8 2.8 24.2 2.3 36.3-1.4 17-7.1 34.1-18.3 47.1-8.1 9.6-19.1 16.4-31.1 19.9-13.2 3.8-27.3 4.2-40.7 1.3-13.1-2.8-25.5-9.3-34.6-19.2-12.3-12.9-18.6-30.6-20.2-48.2-.8-14-.7-28.4 3.5-41.9 4.4-15.1 13.3-29.2 26.4-38.4z" class="st51"/><path d="M1919.3 130.8c3.3.4 7.7-.8 10 2.3.1 1.4.2 2.8.3 4.2-3.3 1.4-6.8 1.6-10.3 1.5 0-2.7 0-5.4 0-8z" class="st62"/><path d="M146.8 143.2c12.7-.1 25.5 0 38.2 0 15.5 0 31.4 6.2 41.6 18.2 11 12.7 14.9 30.1 14.9 46.6.1 16.5-3.7 33.9-14.7 46.8-7.7 9.3-19 15-30.6 17.5-16.4 2.1-32.9.7-49.3 1.1-.1-43.4-.1-86.8-.1-130.2z" class="st51"/><path d="M524.6 144.5c.3.1.9.4 1.2.5.4 17.7 0 35.3.2 53 0 28.3.1 56.7 0 85 0 5.9.8 12.1-1.1 17.8-.4-2.9-.4-5.9-.4-8.8.1-49.2-.1-98.3.1-147.5z" class="st52"/><path d="M375.9 147.6c2.1 8.4 4.8 16.5 8 24.6 7.1 19.5 14.4 39 21.4 58.6-19.6.1-39.2.1-58.9 0 7.7-20.8 15.2-41.6 22.9-62.4 2.6-6.9 4.5-13.9 6.6-20.8zM707.8 147.6c2 8.9 5.1 17.5 8.4 26 6.9 19 14 38 20.9 57.1-19.6.1-39.2.1-58.8 0 7.9-21.6 15.8-43.1 23.7-64.7 2.2-6 3.8-12.3 5.8-18.4z" class="st51"/><path d="M1814.5 225.3c1.6 6.8.7 13.8.9 20.7-.1 18 .3 36-.2 54-.2-.1-.7-.2-1-.3-.5-12.9 0-25.9-.2-38.8.3-11.8-.6-23.7.5-35.6z" class="st63"/><path d="M1486.5 289.9c32-.6 64-.2 96-.2-.2 2.5-.5 5-.8 7.5-.4-2-.9-3.9-1.3-5.9-26.4-.2-52.8 0-79.3-.1-4.9-.1-10.2 1-14.6-1.3z" class="st64"/><path d="M80.3 421.9c0-21.7-.1-43.4 0-65.1 2 0 4.1 0 6.1 0 .1 8.4 0 16.8.1 25.2 3.2-2.3 6.5-4.9 10.5-5.4 5.1-.7 11.1-.4 14.8 3.6 3.5 3.7 4.6 9 4.6 13.9 0 9.2 0 18.4 0 27.6-2 .2-4.1.5-6.1.7-.4-9.8.1-19.6-.2-29.3-.2-4.1-1.3-9.1-5.6-10.8-6.6-2.7-13.8 1.2-18 6.3 0 11.1 0 22.1 0 33.2-2.1 0-4.1 0-6.2.1z" class="st65"/><path d="M585.1 356.7c2.1 0 4.2 0 6.3 0 0 21.9.1 43.9 0 65.8-1.9-.3-3.8-.7-5.6-1 0-1.4 0-2.8 0-4.1 1.4 1.4 2.9 2.8 4.4 4.1.5-21.2.2-42.5.1-63.8-1.4 0-2.8.1-4.2.2.1 7.4 0 14.9-.8 22.2-.5-7.8-.7-15.6-.2-23.4z" class="st53"/><path d="M1913.7 356.7c1.8 0 3.7 0 5.6.1 1.4.9.7 2.8 1 4.2-.1 15.7 0 31.3 0 47 0 4.8.3 9.7-.6 14.4-2-.3-4-.5-5.9-.9-.1-21.5-.2-43.2-.1-64.8z" class="st66"/><path d="M391.8 358.4c2.2 0 5-.9 6.6 1.2 2.1 2.2 1.4 6.1-1.3 7.5-2 1.2-4.3.1-6.1-.7-.5-1.2-.9-2.4-1.4-3.6.7-1.5 1.4-2.9 2.2-4.4z" class="st67"/><path d="M586.1 357.8c1.4-.1 2.8-.1 4.2-.2 0 21.2.4 42.5-.1 63.8-1.5-1.4-3-2.7-4.4-4.1 0 1.4 0 2.7 0 4.1-.1-1.8-.3-3.5-.4-5.3-4.2 3.8-9.5 7.1-15.5 6.4-7.3 0-13.8-5.5-15.5-12.5-2-8-2.1-17.1 2-24.5 3.2-5.9 9.8-9.9 16.6-9.4 4.5-.4 8.6 1.6 12.2 3.9 1-7.3 1-14.7.9-22.2z" class="st68"/><path d="M817.4 362.8c1.1-2.3 2.4-5.2 5.5-4.6 4.1-.4 6.2 5.4 3.3 8-1.9 2.3-5 1.3-7.3.2-.5-1.2-1-2.4-1.5-3.6z" class="st69"/><path d="M1145.6 358.6c1.9-.6 4.4-.8 5.9.9 1.6 1.4 1 3.8 1.2 5.8-1.8 1.3-3.9 3-6.3 2.1-4-1-4.4-7.1-.8-8.8z" class="st68"/><path d="M1213.3 358.4c3.1-1.1 7 1 6.5 4.6.4 3.8-4.6 6-7.5 3.8-3-1.9-2.5-7.4 1-8.4z" class="st70"/><path d="M1352.2 363.2c1.9-3.1 5.5-4.4 8.7-5.6 3 0 6 .5 8.9 1.1-.1 1.5-.3 3-.4 4.5-3.8.2-8.3-.9-11.3 2-3.2 3.5-2.6 8.6-2.6 13 4.7 0 9.3 0 14 0 0 1.7-.1 3.4-.1 5-4.6 0-9.2 0-13.9.1 0 12.8 0 25.6 0 38.5-2.1 0-4.2 0-6.2 0 0-12.8 0-25.5 0-38.3-2.3-.3-4.7-.7-7-1-.1-1.4-.2-2.7-.3-4.1 2.4-.2 4.8-.4 7.2-.6.1-5 0-10.4 3-14.6z" class="st71"/><path d="M1612.5 362.5c3.1-4.1 8.6-5.2 13.5-4.9 1.2.4 2.4.9 3.6 1.3-.1 1.4-.2 2.8-.3 4.2-3.9.2-8.8-1.1-11.7 2.3-2.8 3.6-2.2 8.4-2.2 12.7 4.7 0 9.3 0 14 0 0 1.7 0 3.3 0 5-4.6 0-9.3 0-13.9.1 0 12.8 0 25.7 0 38.5-2.1 0-4.1 0-6.2 0-.1-12.8 0-25.6 0-38.3-2.3-.3-4.5-.6-6.8-.9-.3-1.4-.6-2.7-.9-4.1 2.5-.2 5.1-.5 7.6-.8-.1-5.1-.2-10.8 3.3-15.1z" class="st72"/><path d="M1757.4 358.4c3.1-1.1 7 1.1 6.5 4.6.4 3.8-4.6 6-7.4 3.8-3.3-1.8-2.7-7.5.9-8.4z" class="st73"/><path d="M24.2 364.4c0-2-.1-3.9-.2-5.9 16.6-.1 33.1 0 49.7 0 0 2 0 3.9 0 5.9-7.1 0-14.2 0-21.4 0 0 15.5-.1 31 0 46.5.3 3.9.6 7.8-.2 11.7l.1-1.1v-.5c.3-8.7-.6-17.3-.3-26-.3-10.3.8-20.7-.6-31-1.3 8-.6 16-.7 24.1-.1 10.9.2 21.8-.2 32.7-.8-.1-2.3-.3-3.1-.4-.2-10.4 0-20.9-.1-31.3-.1-8.3.5-16.6-.7-24.8-.9 8.2-.4 16.5-.5 24.8-.1 10.8.1 21.5-.1 32.3l-.1 1.6c-.6-19.5-.1-39-.3-58.4-7-.2-14.2-.2-21.3-.2z" class="st54"/><path d="M1045.7 362.8c1.1-1.6 3.2-1.1 4.8-1.4.1 5.5 0 11 0 16.5 4.5.5 9.1.4 13.7.4 0 1.1.1 3.4.1 4.5-4.6.7-9.2.4-13.8.5 0 8.9 0 17.8 0 26.7-.1 2.2.6 4.3 1.1 6.3 1.4.3 2.8.7 4.3.8 2.6-.2 4.5-2.7 7.1-2.7 1 1 1.7 2.2 2.5 3.4-3.3 2.7-7.2 5.1-11.6 4.7-4.8.3-9.5-3.7-9.5-8.7-.3-10.2 0-20.4-.1-30.6-2.3-.1-4.6-.1-6.9-.1-.2-1.5-.3-3.1-.4-4.6 2.4-.1 4.9-.3 7.3-.4.5-5 .5-10.2 1.4-15.3z" class="st74"/><path d="M649.6 362.7c1.2-1.5 3.2-1 4.8-1.4.1 5.5 0 11 0 16.5 4.6.6 9.2.4 13.8.5 0 1.6 0 3.3 0 4.9-4.6 0-9.2 0-13.8 0 0 8.9 0 17.8 0 26.8-.1 2.2.5 4.3 1.2 6.4 2 .2 4.2 1.4 6.1.3 1.8-.6 3.3-2.4 5.3-2.1 1 1 1.7 2.2 2.5 3.4-3.3 2.7-7.1 5.2-11.5 4.7-4.9.3-9.5-3.7-9.5-8.6-.3-10.2 0-20.5-.2-30.7-2.2 0-4.5-.1-6.7-.1-.3-1.5-.7-3-1-4.5 2.6-.2 5.2-.3 7.8-.5.3-5.3.3-10.5 1.2-15.6z" class="st75"/><path d="M46.6 364.2c1.2 8.2.6 16.6.7 24.8.1 10.4-.1 20.9.1 31.3.8.1 2.3.3 3.1.4.4.1 1.3.2 1.8.2v.5c-1.7 1.5-4.3.4-6.3.9v-1.1c.2-10.8 0-21.5.1-32.3.1-8.2-.4-16.5.5-24.7z" class="st76"/><path d="M50.7 388c.1-8-.6-16.1.7-24.1 1.4 10.3.3 20.7.6 31-.3 8.7.6 17.4.3 26-.4-.1-1.3-.2-1.8-.2.4-10.8.1-21.8.2-32.7z" class="st77"/><path d="M202.9 382.2c3.2-2.2 6.3-5 10.3-5.7 5.2-.8 11.1-.5 15.3 3.1 5.2 4.5 6.8 11.8 6.9 18.4.2 7.5-1.9 15.6-7.9 20.5-6.8 5.6-17.4 5.5-24.1-.2 0 6.3 0 12.7 0 19-2 0-4.1 0-6.1.1 0-12.8-.3-25.6-.1-38.3-.3-7.5-.6-15.1.2-22.6 1.7.2 3.5.6 5.2 1 0 1.5.2 3.1.3 4.7z" class="st67"/><path d="M258.8 376.8c3.6-1 7.5-.7 11 .6-.4 1.8-.8 3.5-1.2 5.3-3.8-.1-8.3-1.3-11.6 1.2-3.5 2.9-5.9 7.5-5.7 12.1 0 8.5 0 17.1 0 25.6-2 .3-4 .6-6 .8-.8-15.3-.4-30.6-.1-46 1.8.2 3.6.6 5.3.9.1 1.7.2 3.4.4 5.1 2.4-2 4.7-4.5 7.9-5.6z" class="st78"/><path d="M326.9 381.9c3-2.4 6-5.4 10.1-5.6 2.9-.2 6-.3 8.5 1.2 2.5 1.4 4 3.9 5.5 6.3 4.3-8.1 16-10.1 23-4.7 5.1 4.4 5.7 11.6 5.5 17.8 0 8.3 0 16.5 0 24.8-2 0-4.1.1-6.1.1-.1-9.9.1-19.9-.1-29.8 0-4.8-2.9-10.2-8.1-10.5-6.1-1.1-11.8 4.5-11.7 10.5-.1 10 0 19.9 0 29.9-2.1 0-4.1.1-6.1.2-.5-10.3-.2-20.7-.4-31 .1-4.4-3-9.5-7.8-9.5-4.9-.5-8.7 3.2-11.6 6.6-.1 11.2-.1 22.4 0 33.7-2 .2-4.1.5-6.1.7-.3-15.3-.1-30.6-.1-45.9 1.8.2 3.6.5 5.3.9 0 1.3.1 2.8.2 4.3z" class="st79"/><path d="M471.3 376.3c3.2-1.1 6.4.1 9.4 1.1-.4 1.8-.9 3.5-1.3 5.2-3.8-.1-8.2-1.3-11.5 1.2-3.6 2.9-5.9 7.5-5.7 12.2 0 8.6 0 17.1 0 25.7-2.2 0-6.4 1.9-6.5-1.6-.1-13.8-.1-27.6 0-41.4-.5-2.8 2.5-2.3 4.3-2 2.5 1.1 1.2 4.4 1.7 6.5 2.4-3.1 5.5-6.2 9.6-6.9z" class="st80"/><path d="M674.1 383.4c5.4-5.4 13.1-8.8 20.8-7 6.4 1 10.6 7.5 10.7 13.6.2 10.6.1 21.2.1 31.8-1.6-.1-3.3-.3-4.9-.4-.2-1.5-.4-3.1-.6-4.6-4.5 3.1-9.5 6.2-15.2 5.9-5 .3-10.5-2.5-12.2-7.5-1.1-4.3-.9-9.6 2.9-12.5 6.7-5.4 15.7-6 24-6.4-.1-4 .5-8.4-2.1-11.8-2.5-3.4-7.4-3.6-11.1-2.6-3.8 1.1-6.5 4.7-10.6 5.1-.7-1.2-1.2-2.4-1.8-3.6z" class="st81"/><path d="M746.5 377.6c7.1-2.9 15.8-1.7 21.6 3.5-.6 1.2-1.2 2.4-1.8 3.5-.5 0-1.6 0-2.2-.1-4.2-2.9-9.9-4.6-14.8-2.3-2.4.9-3.7 3.4-4.8 5.5.4 1.2.7 2.4 1.1 3.6 5.6 4.6 13.5 4.5 19.3 8.7 5.7 4.2 4.9 13.4.1 18-4.5 4.6-11.6 5.3-17.6 4.1-3.7-.9-6.8-3.1-9.8-5.3.6-1.2 1.3-2.4 1.9-3.6.6 0 1.8 0 2.4 0 3.2 2.3 6.9 4.5 11 4.2 3.7.2 7.7-1.6 9.4-5 .9-2.7 1-6.4-1.8-8-6.2-4.2-15.3-3.5-20-10-4-5.8-.3-14.2 6-16.8z" class="st74"/><path d="M889.8 382.6c4-4 9.4-6.9 15.2-6.4 5.7-.4 11.2 3 13.4 8.2 2.4 6.2 1.8 13.1 1.8 19.6-.1 6.1.4 12.3-.6 18.4-2-.2-4-.5-6-.7 0-9.9.1-19.8 0-29.7 0-4-1.8-8.5-5.8-9.9-6.4-2.3-13.8 1.1-17.4 6.7-.4 11.1 0 22.3-.2 33.4-2.2 0-4.3 0-6.5 0-.1-14.7-.1-29.4 0-44 .1-2.2 2.8-1.5 4.3-1.4 2.2 1.1 1.4 3.8 1.8 5.8z" class="st82"/><path d="M1085.5 376.7c3.4-.9 6.9-.4 10.3 0 0 1.9-.1 3.9-.3 5.8-4.3 0-9.5-1.4-12.9 2-3.2 3.2-5.1 7.9-4.9 12.4 0 8.3.1 16.5 0 24.8-2.1 0-4.1 0-6.2-.1 0-15-.1-30 0-45 1.7 0 3.3 0 5 0 .5 2.2.8 4.4 1.1 6.7 1.8-2.9 4.4-5.6 7.9-6.6z" class="st81"/><path d="M1101.2 383.4c3.7-4.2 9.1-7.2 14.8-7.2 3.6-.1 7.5 0 10.5 2.2 4.3 3 6.1 8.5 6.1 13.6 0 10 0 19.9 0 29.9-1.7-.1-3.3-.3-5-.4-.2-1.5-.4-3.1-.6-4.6-6.1 4.4-14.1 7.8-21.5 4.6-7.4-2.8-9.3-14-3-18.9 6.8-5.2 15.8-5.9 24-6.3 0-4.2.2-8.8-2.6-12.2-3.7-3.9-10.2-3.3-14.4-.4-2.1 1.1-3.9 3.4-6.5 3.1-1.1-.7-1.9-2-1.8-3.4z" class="st83"/><path d="M1169.8 382.3c3.3-2.6 6.8-5.5 11.2-5.9 4.4-.4 9.4-.5 13 2.5 4 3 5.8 8.2 5.7 13.1 0 10.1.1 20.2-.1 30.4-2.1-.3-4.1-.5-6.1-.8-.1-9.9.1-19.7-.1-29.6 0-4-1.9-8.5-5.9-9.9-6.2-2.3-13.1 1-16.9 6-.6 1.5-.4 3.2-.5 4.9.1 9.6 0 19.1.1 28.7-2.2.1-4.4.1-6.6.1 0-15.1 0-30.2 0-45.2 1.8.4 4.3-.5 5.5 1.4.3 1.4.5 2.9.7 4.3z" class="st84"/><path d="M1236.8 382.2c3.9-2.8 8-6 13.1-6 4.8-.4 10.1.6 13.3 4.6 4.5 5.3 4 12.7 4 19.2-.2 7.4.4 14.8-.5 22.2-1.8 0-3.6 0-5.4.1-1.4-10.7 0-21.6-.8-32.3-.4-3.3-2.4-6.7-5.7-7.8-5.2-1.9-11.1.1-15 3.8-1.1 1.1-2.8 2.2-2.6 4-.3 10.4.2 20.8-.2 31.2-1.3 1.8-3.9.8-5.8 1.2-1-9.4-.3-18.9-.5-28.3.1-5.9-.3-11.8.5-17.6 1.7.3 3.4.7 5.1 1.1.3 1.4.4 3 .5 4.6z" class="st54"/><path d="M1281.5 380.6c3.2-3.5 8.1-4.2 12.5-4.9 3.5.5 6.8 1.6 10.2 2.7 3.8.5 7.6.1 11.4.2 0 1 0 3 0 4-2.1.5-4.3.8-6.5 1.1.9 3.7 2.1 7.6.8 11.3-1.7 6.4-8.4 10.8-14.9 10.6-3 .2-6.1-.8-9.1 0-1.1 1.3-1.8 2.9-1.4 4.6 3.8 3.1 9 2.2 13.5 2.7 5.1.5 11 .4 14.8 4.4 2.6 2.5 2.3 6.5 1.7 9.7-1.5 4.2-5.2 7.4-9.2 9.1-7.3 2.9-15.8 2.8-23-.4-4.2-1.8-7.7-6-7.1-10.7-.4-4 3.1-6.7 5.9-9-1-1.9-2.5-3.7-2.5-6-.1-3.1 2.3-5.4 4-7.6-6.4-5.4-7.1-16-1.1-21.8z" class="st85"/><path d="M1438.7 376.8c3.6-1 7.5-.7 11 .5-.4 1.8-.7 3.6-1.1 5.4-4.1-.1-8.9-1.4-12.2 1.7-3.2 2.9-5.3 7.2-5.1 11.6-.1 8.5.2 17-.1 25.4-1.6 1.3-3.9.7-5.8 1-1.3-13.4-.2-26.9-.6-40.4.1-1.9.4-3.8.6-5.6 1.7.3 3.4.7 5.2 1.1.1 1.9.2 3.8.3 5.7 2.3-2.5 4.5-5.4 7.8-6.4z" class="st86"/><path d="M1485.5 382.4c4.7-4.9 11.7-7.8 18.4-6 7.1 1.1 12 7.8 13.1 14.5 1.1 6.8 1.1 14-1.8 20.4-2.9 6.6-9.8 11.5-17.2 11.3-4.6.3-8.8-1.7-12.5-4.3 0 6.3 0 12.6 0 19-2.1 0-4.1 0-6.2 0-.1-20.2-.1-40.4 0-60.6 1.7 0 3.3.1 5 .1.5 1.9.8 3.7 1.2 5.6z" class="st81"/><path d="M1538.8 377.8c3.8-2.4 8.6-1.6 12.8-1-.1 1.9-.2 3.9-.3 5.8-4.3 0-9.4-1.4-12.9 1.9-3 3-5.1 7.2-5 11.6 0 8.6 0 17.3 0 25.9-2.1-.1-4.1-.1-6.2-.1 0-15.1-.1-30.1 0-45.1 1.7 0 3.3 0 5.1.1.4 2.2.8 4.4 1.1 6.6 1.5-2.3 3.1-4.5 5.4-5.7z" class="st87"/><path d="M1870 383.3c4.6-4.6 10.6-7.3 17.1-7.7 3.8.8 8 1.5 10.6 4.7 4.9 5.3 3.9 13 4 19.6 0 7.3 0 14.6 0 21.9-1.7-.1-3.3-.2-4.9-.3-.3-1.6-.5-3.1-.7-4.7-5.7 4.3-13.1 7.5-20.3 5.1-6.2-1.7-9.7-9.5-7-15.3 1.3-3.4 4.6-5.5 7.8-7 6-2.5 12.6-3.1 19.1-3.4-.1-4.2.3-9-2.6-12.4-2.7-2.9-7.2-3-10.8-2-3.8 1.1-6.4 4.6-10.4 5.1-.8-1.1-1.3-2.3-1.9-3.6z" class="st88"/><path d="M137.4 377.7c4.3-1.9 9.2-1.8 13.7-1 9.3 2.1 14.9 13 12.5 21.9-10.7.3-21.5-.2-32.2.3.5 4.9 1.2 10.2 4.7 14.1 3.8 4.2 10.1 5 15.4 3.7 3.1-.7 5.6-2.8 8.6-4 1.9-.3 3.1 1.7 2.9 3.4-2.6 3.4-6.8 4.9-10.8 5.9-7.4 1.8-16.1.1-21.1-5.9-5.3-6.3-6.4-15.2-5.1-23.1 1.1-6.5 5.1-12.7 11.4-15.3z" class="st89"/><path d="M277.2 384.2c6.7-10.3 24.3-11.2 31.2-.7 3.2 4.3 3.6 9.8 3.2 15-10.8.4-21.6.1-32.4.2.1 6.6 2.2 14.5 8.9 17.3 6.8 3 14.1.1 19.9-3.7.8.5 1.5 1 2.3 1.5.2.6.5 1.7.7 2.2-6.6 6.1-16.7 8.2-25.1 5-6.6-2.5-10.9-8.9-12.2-15.6-1.1-7.1-.9-15.1 3.5-21.2z" class="st71"/><path d="M391.6 376.7c2 0 4.1 0 6.1 0 0 15.2.2 30.5-.1 45.7-2-.2-4-.5-6.1-.7.1-15 0-30 .1-45z" class="st90"/><path d="M412.1 384c6.7-10 23.8-10.9 30.9-.9 3.2 4.4 4.1 10.1 3.6 15.4-10.8.4-21.5.1-32.3.2 0 4.9.7 10.2 4.1 14 3.4 4 9 5.2 14 4.3 4-.6 7.4-3 11-4.8 1 1.2 1.9 2.4 2.8 3.6-7 6.6-18 8.8-26.8 4.7-4.4-2-7.6-6-9.4-10.3-3.3-8.4-3.1-18.6 2.1-26.2z" class="st84"/><path d="M486.3 387.2c2.6-5.8 8.3-10.3 14.7-10.9 5-.5 10.5-.1 14.5 3.1 5.8 4.3 7.9 12 7.1 19-10.8.5-21.6.1-32.4.2.1 4.9.9 10.1 4.2 13.9 3.4 4.1 9.3 5.3 14.4 4.3 3.8-.7 7-2.9 10.3-4.6.5.4 1.6 1.2 2.1 1.6.2.5.5 1.6.7 2.2-6.8 6.2-17.3 8.4-25.8 4.8-6.7-2.9-10.9-9.9-11.6-16.9-.6-5.5-.7-11.5 1.8-16.7z" class="st87"/><path d="M602.1 383.7c4.6-4.9 11-8.3 17.9-7.5 7.6-.5 13.6 6.5 13.6 13.8.3 10.6.1 21.3.1 31.9-1.7-.1-3.3-.3-5-.4-.2-1.6-.4-3.2-.5-4.7-5.9 4.9-14.4 8-21.8 4.6-7.3-3-8.7-14.5-2.2-19.1 6.7-4.9 15.4-5.5 23.5-5.9-.1-4 .5-8.5-2.1-11.8-2.8-3.7-8.4-3.8-12.4-2.1-3.2 1.3-5.6 4.3-9.2 4.6-.7-1.2-1.3-2.3-1.9-3.4z" class="st85"/><path d="M776.1 393.1c1.1-6.8 5.5-13.1 12-15.6 7.7-2.7 16.9-1.4 22.9 4.5-1 1-2 2.2-3.2 3-3.7-.9-6.8-3.9-10.8-3.6-6.2-.6-12.2 3.7-13.9 9.6-1.4 3.5 0 7.2-.7 10.8-.8 6.9 4 14.4 11.2 15.3 5.3 1.1 10.3-1.7 14.3-4.8.8.5 1.6 1 2.4 1.5.1.6.4 1.8.6 2.3-7.1 7.4-20.1 8.9-28.1 2.1-6.9-6.1-8.4-16.4-6.7-25.1z" class="st68"/><path d="M819.6 376.7c2 0 4 0 6.1 0 .1 15 0 30.1 0 45.1-2 0-4.1 0-6.1-.1 0-15-.1-30 0-45z" class="st91"/><path d="M838.2 387.3c2.6-5.8 8.4-10.4 14.9-10.9 5-.5 10.5 0 14.5 3.2 5.7 4.3 7.8 12 7 18.9-10.8.5-21.6.1-32.3.2 0 4.9.8 10.1 4.1 14 3.3 3.9 8.8 5.2 13.7 4.4 4.1-.5 7.6-3 11.2-4.8 1 1.2 1.9 2.4 2.8 3.6-4.9 4.5-11.5 7-18.2 6.7-7.1.1-14-4-17.1-10.4-3.7-7.7-4.1-17.1-.6-24.9z" class="st84"/><path d="M941.4 377.6c7.6-2.8 16.7-1.6 22.8 4-.9 1.3-1.3 3.6-3.3 3.4-3.3-1.1-6.3-3.6-9.9-3.5-5.6-.6-11.5 2.6-13.6 7.9-2.8 6.8-2.7 15 .7 21.6 3.3 6.2 11.7 8.1 17.8 5 2.1-1.1 4-2.6 6.3-3.5 1.1 1 2 2.2 2.9 3.4-7.8 8.3-22.8 9.6-30.5.6-5.4-6.5-6.1-15.5-4.8-23.5 1.1-6.6 5.3-12.9 11.6-15.4z" class="st81"/><path d="M970.7 393c1.1-7.6 6.7-14.5 14.3-16.3 5.8-1.1 12.5-.9 17.2 3.2 5.5 4.4 7.4 11.9 6.5 18.6-10.8.4-21.6 0-32.3.2.2 4.8.9 10 4.2 13.8 3.2 4 8.7 5.2 13.5 4.5 4.3-.5 7.8-3.2 11.8-4.7.8 1.1 1.6 2.1 2.5 3.2-8.2 9.1-24.9 9.9-32.9.2-5.3-6.3-5.9-15-4.8-22.7z" class="st92"/><path d="M1144.8 421.6c.2-15-.5-30 .4-44.9 1.8 0 3.7 0 5.6 0 .9 10.8.2 21.6.4 32.4 0 4.5.1 9-.5 13.4-2-.3-4-.6-5.9-.9z" class="st73"/><path d="M1212.2 376.7c2 0 4.1 0 6.1 0 .1 15 0 30 0 44.9-2 .2-4.1.5-6.1.7-.4-13.4.2-26.9-.4-40.3.1-1.8.3-3.5.4-5.3z" class="st93"/><path d="M1386.3 377.5c4-1.6 8.4-1.5 12.6-1 7.6 1 13.7 7.4 15.4 14.7 1.9 7.9 1.4 17-3.5 23.9-6 8.3-18.3 9.8-27 5-6.2-3.3-9.2-10.3-10-16.9-1.1-9.9 2.6-21.9 12.5-25.7z" class="st85"/><path d="M1567.5 377.7c4.6-1.9 9.8-1.8 14.6-1 8 1.7 13.5 9.3 14.5 17.1.7 6.7.6 13.9-3.1 19.8-6.8 11.8-26.3 12.1-33.9.9-4.5-6.7-5.1-15.5-3.2-23.1 1.4-6 5.4-11.4 11.1-13.7z" class="st75"/><path d="M1634.9 390c2-6.9 8-12.6 15.1-13.6 4.8-.5 10-.4 14.1 2.3 5.8 3.6 8.5 10.8 8.3 17.4.3 1.5-1.1 2.8-2.5 2.5-9.9.1-19.9 0-29.8 0-.2 4.5.4 9.3 3.2 13 3.3 4.9 9.9 6.4 15.4 5.2 3.8-.6 6.8-3.2 10.4-4.4 1 1 3.5 2.7 1.7 4.1-8.4 7.9-23.9 8.5-31.7-.6-5.7-7.1-6.8-17.3-4.2-25.9z" class="st87"/><path d="M1679.4 389.1c-.3-5.4 3.8-10.2 8.7-11.9 7.1-2.1 15.7-1.1 20.9 4.7-1.3 1.3-2.8 4-4.9 2.3-4.6-2.9-11-4.3-15.8-1-2.5 1.5-2.9 4.5-3 7.2 5.5 6.3 15.1 4.9 21 10.5 5.4 4.8 3.6 14.3-1.9 18.4-7.3 5.4-18.4 4.4-25.1-1.7-1.8-1.1.4-3 .6-4.5 5 .6 8.7 5.4 14.1 4.4 6.1.7 12.1-6.3 8.4-11.8-4.1-4-10.3-4.2-15.3-6.6-4.2-1.6-8-5.4-7.7-10zM1723.6 377.7c7.2-3 16.4-2 22 3.7-.5.8-1.4 2.5-1.8 3.3-3-.3-5.5-2.2-8.3-3.1-3.9-.8-8.5-.6-11.4 2.5-1.8 1.6-1.6 4.1-1.9 6.2 5.8 6.5 16.2 4.9 21.9 11.5 4.9 6 1.5 15.9-5.3 18.9-7.8 4-17.5 1.7-23.9-4 1.1-1.3 1.8-4.2 4.1-3.4 3.5 1.7 6.8 4.5 11 4.2 4.7.5 9.9-2.5 10.4-7.5.7-3.9-3-6.4-6.2-7.5-5.7-2.2-12.8-2.9-16.4-8.3-3.6-5.8-.2-13.8 5.8-16.5z" class="st74"/><path d="M1756.2 400c-.3-7.8-.9-15.6.1-23.3 2 0 4 .1 6.1.1.1 15 0 29.9 0 44.9-2 .3-4 .5-5.9.8-1.3-7.5-.6-15-.3-22.5z" class="st94"/><path d="M1784.4 377.7c4.2-1.8 9-1.7 13.6-1.1 8.1 1.3 14.1 8.5 15.3 16.4 1 7.1.8 14.9-3.2 21-6.9 11.2-25.4 11.6-33.1 1.1-4.6-5.9-5.1-13.9-4.2-21.1.8-6.9 5-13.6 11.6-16.3z" class="st95"/><path d="M1823.5 376.7c1.6 0 3.3 0 5 .1.4 1.9.8 3.8 1.1 5.7 4.3-4.2 10.2-7 16.4-6.2 7.4-.2 13.1 6.7 13.4 13.8.4 10.6 0 21.2.2 31.8-2.1 0-4.1 0-6.2 0-.1-9.3 0-18.6 0-27.8 0-3.6-.5-7.5-3.2-10.1-3.1-2.9-7.9-3-11.7-1.6-3.6 1.2-6.3 3.9-8.8 6.6.1 10.9 0 21.8 0 32.7-.7.2-2 .6-2.6.8-1.2-.3-2.4-.5-3.6-.8 0-15.1-.1-30.1 0-45z" class="st68"/><path d="M1934.7 379.7c4.4-3.9 10.8-4 16.3-3.1 3.4.6 6.2 2.7 8.7 4.9-.5.8-1.4 2.5-1.8 3.3-3-.4-5.5-2.2-8.3-3.1-3.9-.9-8.5-.5-11.4 2.5-1.7 1.6-1.6 4-1.9 6.1 5.6 6.4 15.7 4.9 21.5 11 5.2 5.4 2.6 15.2-3.6 18.8-7.4 4.3-17.5 3.2-23.8-2.5-2.4-1.4.7-4.6 2.6-4.3 3.1 1.3 5.7 3.8 9.1 4.1 3.6.4 7.9 0 10.5-2.9 2.4-2.6 3.1-7.5-.1-9.7-5.8-4.2-14-3.7-19.2-8.9-4.7-4.4-3.4-12.4 1.4-16.2z" class="st74"/><path d="M138.3 383.3c5.9-3.7 15.2-2.5 18.4 4.2 1.5 2 .5 4.4-.5 6.4-8.1-.2-16.2 0-24.3-.2 1.1-4 2.7-8.3 6.4-10.4z" class="st96"/><path d="M418.3 385.3c4.9-5.4 14.6-5.7 19.4-.1 2 2.3 2.6 5.5 3.2 8.5-8.9.1-17.8.1-26.7 0 1.1-2.9 1.9-6.1 4.1-8.4zM493.5 386.4c4.2-5.9 13.8-7.1 19.3-2.3 2.7 2.4 3.7 6.1 4.2 9.6-8.8.1-17.6.1-26.3 0 .6-2.5 1.2-5.2 2.8-7.3zM846.3 385.4c4.7-5.2 14-5.8 19-.7 2.4 2.4 3.1 5.8 3.7 9-8.9.1-17.8.2-26.7 0 1-2.9 1.8-6 4-8.3zM980.4 385.5c4.7-5.3 13.9-5.9 19-.9 2.4 2.4 3.2 5.8 3.7 9.1-2.7.1-5.4.1-8.1.1-6.1 0-12.2 0-18.3 0 .8-3 1.6-6 3.7-8.3z" class="st60"/><path d="M1289.5 381.8c3.9-1 8.7-1.1 12 1.8 5.1 4.4 3.9 14.1-2.7 16.4-4.2 1.4-9.5 1.2-12.8-2-4.6-4.7-3.1-14.1 3.5-16.2z" class="st96"/><path d="M1390.6 381.8c4.9-1.1 10.6-.3 14.1 3.6 4.1 4.4 4.4 10.8 4.1 16.5-.1 5.5-2.6 11.6-7.9 14-5.5 2.4-12.8 1.6-16.8-3.2-4.2-5.3-4.2-12.6-3.4-19 .7-5.3 4.4-10.6 9.9-11.9zM1485.6 388.9c3.1-3.8 7.3-7.5 12.5-7.5 5.3-.5 10.6 3 12 8.1 1.9 6.8 2.1 14.5-1.2 20.9-2.7 5.4-9.2 7.8-14.9 6.5-3.5-.5-6.1-3.1-8.4-5.5 0-7.5 0-15 0-22.5zM1572.6 381.7c4.6-1 10-.2 13.4 3.3 3.6 3.7 4.6 9 4.6 13.9.1 4.4-.6 8.9-3 12.7-5.1 7.9-18.9 7.5-23.3-.9-3.2-6.6-3.3-14.5-.7-21.3 1.6-3.8 4.9-6.8 9-7.7z" class="st51"/><path d="M1643.2 386.3c4.6-6.3 15.4-7.1 20.4-.9 1.9 2.3 2.5 5.4 3.2 8.2-8.9.2-17.8.2-26.7 0 .8-2.5 1.5-5.1 3.1-7.3z" class="st97"/><path d="M1789.4 381.7c4.2-.8 9-.3 12.5 2.5 3.6 2.9 5 7.6 5.4 12 .4 5.2 0 10.8-2.8 15.4-4.9 7.7-18.1 7.7-22.9-.1-3.5-6-3.7-13.5-1.9-20 1.3-4.7 4.9-8.7 9.7-9.8zM211.5 382.2c5-1.9 11.4-.7 14.5 3.9 3.1 4.6 2.9 10.5 2.7 15.8-.2 5.5-2.7 11.5-7.9 14-4.8 2.2-11 1.8-15-1.8-1.2-1.1-2.7-2.3-2.5-4.1-.2-7.1 0-14.2 0-21.2 2.4-2.6 4.8-5.4 8.2-6.6z" class="st51"/><path d="M283 385.9c4.8-6 15.5-6.5 20.3-.3 1.9 2.2 2.3 5.2 2.7 8-8.7.1-17.5.1-26.2 0 .7-2.6 1.3-5.5 3.2-7.7z" class="st96"/><path d="M564.6 384.6c6-5.4 16.4-4 20.7 2.9-.3 7.2.2 14.4-.3 21.6-3.3 6.9-12.8 10.5-19.5 6.4-4.8-3.1-6-9.2-6.1-14.5-.2-5.8.9-12.2 5.2-16.4z" class="st51"/><path d="M652.7 403c.3-6.9-.5-13.8.8-20.6.4 3.8.6 7.6.5 11.5-.2 6.5.4 13-.5 19.5-.7-3.4-1-6.9-.8-10.4z" class="st98"/><path d="M158.1 391.4c2.1-1.2.3 3.2-.3.7l.3-.7z" class="st99"/><path d="M781.3 405c-.7-3.7-.8-7.5.3-11.2.6 3.7.6 7.5-.3 11.2z" class="st100"/><path d="M609.2 405.2c5.5-3.3 12.2-3.7 18.4-4-.1 3.3.3 6.7-.2 10-3.9 4.8-10.5 7.5-16.6 6-5.1-1.3-6.3-9.5-1.6-12zM681.1 405.2c5.5-3.3 12.2-3.7 18.5-4 0 3.3 0 6.7 0 10-4.4 4.3-10.5 7.6-16.8 6-5.1-1.3-6.4-9.4-1.7-12z" class="st60"/><path d="M1107.4 405.5c5.6-3.7 12.6-4 19.1-4.3 0 3.3 0 6.6 0 9.8-3 2.7-6.2 5.5-10.3 6.2-3.7.7-8.5.6-10.5-3.1-1-2.8-1.1-6.7 1.7-8.6zM1877.1 405.2c5.5-3.2 12.2-3.7 18.4-3.9 0 3.3 0 6.6 0 9.9-4.3 4.3-10.3 7.6-16.6 6.1-5.4-1.1-6.6-9.6-1.8-12.1z" class="st101"/><path d="M1280.8 425c.1-3.7 3.5-5.7 6.2-7.5 6.3 1.4 13.1.1 19.2 2.3 3.9 1.2 3.4 6.9.7 9.1-4.8 4.4-11.8 4.4-17.8 3.5-3.8-.7-8.2-3-8.3-7.4z" class="st96"/></svg>