<?xml version="1.0" encoding="utf-8"?>
<!-- Generator: Adobe Illustrator 21.1.0, SVG Export Plug-In . SVG Version: 6.00 Build 0)  -->
<svg version="1.1" id="Layer_1" xmlns="http://www.w3.org/2000/svg" xmlns:xlink="http://www.w3.org/1999/xlink" x="0px" y="0px"
	 viewBox="0 0 1988 540" style="enable-background:new 0 0 1988 540;" xml:space="preserve">
<style type="text/css">
	.st0{fill:none;stroke:#FFFFFF;stroke-width:10;stroke-miterlimit:10;}
	.st1{fill:none;stroke:#E65D17;stroke-width:10;stroke-miterlimit:10;}
	.st2{fill:none;stroke:#DD662E;stroke-width:10;stroke-miterlimit:10;}
	.st3{fill:none;stroke:#FF5500;stroke-width:10;stroke-miterlimit:10;}
	.st4{fill:none;stroke:#FE7202;stroke-width:10;stroke-miterlimit:10;}
	.st5{fill:none;stroke:#FF7101;stroke-width:10;stroke-miterlimit:10;}
	.st6{fill:none;stroke:#FF7202;stroke-width:10;stroke-miterlimit:10;}
	.st7{fill:none;stroke:#FF7201;stroke-width:10;stroke-miterlimit:10;}
	.st8{fill:none;stroke:#E77D2B;stroke-width:10;stroke-miterlimit:10;}
	.st9{fill:none;stroke:#FFFEFD;stroke-width:10;stroke-miterlimit:10;}
	.st10{fill:none;stroke:#E75C18;stroke-width:10;stroke-miterlimit:10;}
	.st11{fill:none;stroke:#FFFDFD;stroke-width:10;stroke-miterlimit:10;}
	.st12{fill:none;stroke:#E67821;stroke-width:10;stroke-miterlimit:10;}
	.st13{fill:none;stroke:#E07F33;stroke-width:10;stroke-miterlimit:10;}
	.st14{fill:none;stroke:#F85707;stroke-width:10;stroke-miterlimit:10;}
	.st15{fill:none;stroke:#F1590E;stroke-width:10;stroke-miterlimit:10;}
	.st16{fill:none;stroke:#FD5602;stroke-width:10;stroke-miterlimit:10;}
	.st17{fill:none;stroke:#FC5603;stroke-width:10;stroke-miterlimit:10;}
	.st18{fill:none;stroke:#FE5604;stroke-width:10;stroke-miterlimit:10;}
	.st19{fill:none;stroke:#FE5602;stroke-width:10;stroke-miterlimit:10;}
	.st20{fill:none;stroke:#FA5606;stroke-width:10;stroke-miterlimit:10;}
	.st21{fill:none;stroke:#FE5504;stroke-width:10;stroke-miterlimit:10;}
	.st22{fill:none;stroke:#FE5502;stroke-width:10;stroke-miterlimit:10;}
	.st23{fill:none;stroke:#FB5605;stroke-width:10;stroke-miterlimit:10;}
	.st24{fill:none;stroke:#FD5603;stroke-width:10;stroke-miterlimit:10;}
	.st25{fill:none;stroke:#DB6222;stroke-width:10;stroke-miterlimit:10;}
	.st26{fill:none;stroke:#DC6024;stroke-width:10;stroke-miterlimit:10;}
	.st27{fill:none;stroke:#FF5502;stroke-width:10;stroke-miterlimit:10;}
	.st28{fill:none;stroke:#FD5502;stroke-width:10;stroke-miterlimit:10;}
	.st29{fill:none;stroke:#F85808;stroke-width:10;stroke-miterlimit:10;}
	.st30{fill:none;stroke:#FB5604;stroke-width:10;stroke-miterlimit:10;}
	.st31{fill:none;stroke:#F3580D;stroke-width:10;stroke-miterlimit:10;}
	.st32{fill:none;stroke:#F95705;stroke-width:10;stroke-miterlimit:10;}
	.st33{fill:none;stroke:#F95706;stroke-width:10;stroke-miterlimit:10;}
	.st34{fill:none;stroke:#FC5604;stroke-width:10;stroke-miterlimit:10;}
	.st35{fill:none;stroke:#FC5602;stroke-width:10;stroke-miterlimit:10;}
	.st36{fill:none;stroke:#FA5705;stroke-width:10;stroke-miterlimit:10;}
	.st37{fill:none;stroke:#FB5606;stroke-width:10;stroke-miterlimit:10;}
	.st38{fill:none;stroke:#F95707;stroke-width:10;stroke-miterlimit:10;}
	.st39{fill:none;stroke:#F95709;stroke-width:10;stroke-miterlimit:10;}
	.st40{fill:none;stroke:#F85708;stroke-width:10;stroke-miterlimit:10;}
	.st41{fill:none;stroke:#FA5605;stroke-width:10;stroke-miterlimit:10;}
	.st42{fill:none;stroke:#F75809;stroke-width:10;stroke-miterlimit:10;}
	.st43{fill:none;stroke:#F7570B;stroke-width:10;stroke-miterlimit:10;}
	.st44{fill:none;stroke:#FD5503;stroke-width:10;stroke-miterlimit:10;}
	.st45{fill:none;stroke:#FFFEFF;stroke-width:10;stroke-miterlimit:10;}
	.st46{fill:none;stroke:#FFFEFC;stroke-width:10;stroke-miterlimit:10;}
	.st47{fill:none;stroke:#E55D1A;stroke-width:10;stroke-miterlimit:10;}
	.st48{fill:none;stroke:#E5804F;stroke-width:10;stroke-miterlimit:10;}
	.st49{fill:none;stroke:#DB713B;stroke-width:10;stroke-miterlimit:10;}
	.st50{fill:none;stroke:#FFFFFD;stroke-width:10;stroke-miterlimit:10;}
	.st51{fill:#FFFFFF;}
	.st52{fill:#E65D17;}
	.st53{fill:#DD662E;}
	.st54{fill:#FF5500;}
	.st55{fill:#FE7202;}
	.st56{fill:#FF7101;}
	.st57{fill:#FF7202;}
	.st58{fill:#FF7201;}
	.st59{fill:#E77D2B;}
	.st60{fill:#FFFEFD;}
	.st61{fill:#E75C18;}
	.st62{fill:#FFFDFD;}
	.st63{fill:#E67821;}
	.st64{fill:#E07F33;}
	.st65{fill:#F85707;}
	.st66{fill:#F1590E;}
	.st67{fill:#FD5602;}
	.st68{fill:#FC5603;}
	.st69{fill:#FE5604;}
	.st70{fill:#FE5602;}
	.st71{fill:#FA5606;}
	.st72{fill:#FE5504;}
	.st73{fill:#FE5502;}
	.st74{fill:#FB5605;}
	.st75{fill:#FD5603;}
	.st76{fill:#DB6222;}
	.st77{fill:#DC6024;}
	.st78{fill:#FF5502;}
	.st79{fill:#FD5502;}
	.st80{fill:#F85808;}
	.st81{fill:#FB5604;}
	.st82{fill:#F3580D;}
	.st83{fill:#F95705;}
	.st84{fill:#F95706;}
	.st85{fill:#FC5604;}
	.st86{fill:#FC5602;}
	.st87{fill:#FA5705;}
	.st88{fill:#FB5606;}
	.st89{fill:#F95707;}
	.st90{fill:#F95709;}
	.st91{fill:#F85708;}
	.st92{fill:#FA5605;}
	.st93{fill:#F75809;}
	.st94{fill:#F7570B;}
	.st95{fill:#FD5503;}
	.st96{fill:#FFFEFF;}
	.st97{fill:#FFFEFC;}
	.st98{fill:#E55D1A;}
	.st99{fill:#E5804F;}
	.st100{fill:#DB713B;}
	.st101{fill:#FFFFFD;}
</style>
<g>
	<polygon class="st0" points="5,5 1983,5 1983,535 5,535 5,5 	"/>
	<path class="st1" d="M467.9,116c5.3-0.7,10.7-0.3,16.1-0.4c42,0,84,0,126,0c2,0,4,0.2,6,0.5l-1.3,0.3c-5.5,1.2-11.1,0.6-16.6,0.7
		c-36.3,0-72.6,0-109,0c-6.4-0.1-12.9,0.5-19.3-0.6L467.9,116L467.9,116z"/>
	<path class="st2" d="M112.2,115.6c22.9-0.1,45.9,0,68.8-0.1c7.5-0.1,15,0.4,22.3,2c-29.9-0.4-59.9-0.3-89.8-0.2
		c-0.2,49.6,0,99.2-0.1,148.7c0.1,11.2-0.1,22.3,0.1,33.5c21.1,0.3,42.3,0,63.4,0.2c10.2,0.2,20.3-1.5,30.4-1.8
		c-7.2,2.4-14.9,2.5-22.4,2.8c-24.3,0.1-48.5,0.1-72.8,0C112.2,239,112.2,177.3,112.2,115.6L112.2,115.6z"/>
	<path class="st3" d="M285.4,300.6c24.4-61.6,48.6-123.4,73-185c11.7,0,23.3,0,35,0c20.4,51.4,40.4,102.8,60.7,154.2
		c4,10.3,8.2,20.4,12,30.8c-9.3,0-18.6,0.2-27.9,0c-6-0.2-9.8-5.8-11.3-11.1c-4.1-11.4-8.4-22.8-12.5-34.3c-25.6,0-51.3-0.1-76.9,0
		c-4.2,11.6-8.5,23.1-12.7,34.7c-1.4,6.2-7,11.6-13.7,10.8C302.4,300.6,293.9,300.8,285.4,300.6L285.4,300.6z M469.7,116.4
		c6.4,1.1,12.9,0.5,19.3,0.6c36.3,0,72.6,0,109,0c5.5-0.1,11.2,0.5,16.6-0.7c0.4,9.1,0.1,18.3,0.2,27.4c-18.5,0-37,0-55.5,0
		c-0.5,15.1-0.1,30.2-0.1,45.3c-0.2,12.3,0.3,24.6-0.3,36.9c0.6,20,0.1,40,0.3,60c0,4.9,0.1,9.9-0.5,14.8c-11.3,0-22.6-0.1-33.9,0.1
		c1.9-5.8,1.1-11.9,1.1-17.8c0.1-28.3,0-56.7,0-85c-0.1-17.7,0.3-35.3-0.2-53c-0.3-0.1-0.9-0.4-1.2-0.5c-3.1-1.1-6.4-0.6-9.6-0.7
		c-15.4,0-30.9,0.1-46.4,0c0-9.2-0.1-18.3,0-27.5L469.7,116.4L469.7,116.4z M617.2,300.6c24.3-61.7,48.6-123.4,73-185
		c11.7,0,23.3,0,35,0c24.4,61.6,48.6,123.3,72.8,185c-9.3,0.1-18.6,0.1-27.8,0c-5.1-0.1-9.1-4.3-10.7-8.8
		c-4.4-12.2-9-24.3-13.3-36.5c-25.7-0.1-51.4-0.1-77.1,0c-3.9,11.5-8.4,22.9-12.5,34.4c-1.3,3.6-2.9,7.6-6.5,9.5
		c-2.7,1.7-6.1,1.5-9.2,1.6C633,300.6,625.1,300.8,617.2,300.6L617.2,300.6z M113.5,117.3c29.9-0.1,59.9-0.2,89.8,0.2
		c17.4,3,34.1,11.1,46.8,23.4c14.5,13.9,23.4,33.2,25.9,53.1c2.5,21.1-0.3,43.4-11,62.1c-11.7,21.6-33.6,37.2-57.6,41.9
		c-10.2,0.3-20.2,2-30.4,1.8c-21.2-0.2-42.3,0.1-63.4-0.2c-0.3-11.2-0.1-22.3-0.1-33.5C113.5,216.5,113.3,166.9,113.5,117.3
		L113.5,117.3z"/>
	<path class="st4" d="M908.1,125.3c12.4-7.4,27.6-9.1,41.8-6.8c11.8,1.6,22.9,6.9,31.7,14.9c0.7,0.8,1.7,1.5,2.1,2.5
		c-0.8,2.7-2.4,5.1-3.7,7.5c-3.2,0.7-5.9-1.1-8.1-3.2c-9.1-7.6-20.9-12.1-32.8-11.8c-12-0.4-24.8,3.4-32.7,12.8
		c-6.1,7-8.8,16.5-7.9,25.7c0.2,9.1,6.3,17,13.7,21.9c11.6,7.7,25.5,10.4,38.4,15.4c12.8,4.5,26.4,10.5,33.5,22.8
		c5.5,8.6,5.3,19.1,4.6,28.9c-1.8,15-10.1,29.4-23,37.4c-14.1,9.2-31.9,10.8-48.2,8.3c-14.8-2.1-28.1-10.2-38.3-20.9
		c-2-1.7-0.2-4.1,0.9-5.7c1.1-2,3.1-3.1,5.1-3.9c6.5,5.1,12.5,11,20,14.7c11.3,5.9,24.5,6.9,37,5.1c10-1.8,19.7-6.8,26.1-14.9
		c7.5-9.5,10.1-22.3,7.9-34.1c-1.5-7.3-6.4-13.5-12.5-17.7c-7.5-5.4-16.4-8-25-10.9C926,209.2,912.8,206,902,198
		c-9-6.4-15.3-17-15.7-28.1c-0.3-6.8-0.4-13.9,2-20.4C891.7,139.4,898.8,130.6,908.1,125.3L908.1,125.3z"/>
	<path class="st5" d="M1090.4,118.6c14.3-2.2,29.1-1.1,43,3.1c15,4.8,28.9,13.8,38.5,26.3c14,17.7,20.1,40.6,19.6,62.9
		c0.2,22.6-6.5,45.8-21.2,63.3c-10.3,12.2-24.6,20.9-39.9,25.1c-26.1,6.8-55.7,3.3-77.6-13.1c-23.5-17.4-35-47.6-33.7-76.2
		c-1.2-26.6,8.7-54.3,28.9-72.1C1059.8,127.6,1074.8,120.8,1090.4,118.6L1090.4,118.6z"/>
	<path class="st4" d="M1285.4,120.3c4.8-1.3,9.7-1.7,14.6-2.6c6-0.3,12.1-0.3,18.1,0c18.4,1.7,36.4,9.3,49.9,22
		c-1.6,2.3-3.3,4.7-4.9,7c-2.2,0-4.4-0.3-6-1.9c-8.7-6.8-18.9-11.6-29.7-14.2c-8.3-2.1-16.9-1.6-25.4-1.5
		c-19.5,1-38.6,10.6-50.5,26.2c-10.2,13.3-15.4,30-16.5,46.6c-1.5,20.9,2.4,43,14.6,60.4c10.8,15.7,28.6,26.1,47.4,28.3
		c18.6,2.1,38.8-0.3,54.4-11.4c4.1-2.6,7.4-6.3,11.5-8.9c3.8-0.7,5.6,3.8,8.3,5.8c-10.2,11.8-24.3,19.9-39.3,23.5
		c-15.7,3.8-32.2,3.8-48,0.3c-16-4.2-30.9-13-41.5-25.7c-14.7-17.5-21.3-40.8-21.1-63.5c-0.5-22.3,6-45.1,20-62.7
		C1252.3,134.4,1268.2,124.7,1285.4,120.3L1285.4,120.3z"/>
	<path class="st1" d="M1919.6,120c10.3-2.4,21.5,4.9,23.9,15.1c3.1,10.4-4.4,22-14.7,24.7c-11.9,3.7-25.3-6.4-25.6-18.7
		C1902.4,131.3,1910,121.9,1919.6,120L1919.6,120z"/>
	<path class="st5" d="M1406.7,119.6c4.3,0,8.7,0,13,0c0.2,60.4,0.1,120.7,0.1,181.1c-4.4,0-8.7,0-13.1,0
		C1406.7,240.3,1406.7,180,1406.7,119.6L1406.7,119.6z"/>
	<path class="st6" d="M1473.2,119.6c36.1,0,72.3,0,108.4,0c0.1,3.7,0,7.3,0,10.9c-31.7,0.1-63.5,0-95.2,0c-0.1,24.4,0,48.7,0,73
		c26.4,0.1,52.8,0,79.2,0c0,3.6,0,7.2,0,10.8c-26.4,0.1-52.8,0-79.2,0c0,25.1-0.1,50.3,0.1,75.4c4.5,2.4,9.7,1.3,14.5,1.4
		c26.4,0,52.9-0.1,79.3,0.1c0.4,2,0.9,3.9,1.3,5.9c0.1,1.1,0.2,2.3,0.3,3.4c-36.2,0.1-72.4,0-108.6,0.1
		C1473.2,240.3,1473.1,179.9,1473.2,119.6L1473.2,119.6z"/>
	<path class="st7" d="M1599.2,130.7c0-3.6,0-7.2-0.1-10.9c2.2,0.7,4.5,1.4,6.9,1.5c44.2-0.3,88.4,0.1,132.6-0.2
		c0,2.8-0.1,5.7-0.1,8.5c-21.1,0.5-42.3-0.5-63.4,0.5c-0.9,10.3-0.3,20.6-0.4,30.8c0,41,0,82,0,123c0,5.6-0.7,11.5,1.4,16.8
		c-4.3-0.2-8.6-0.1-12.8-0.1c-0.1-51.3,0-102.5,0-153.8c-0.1-5.4,0.2-10.9-0.4-16.2C1641.6,130.8,1620.4,130.7,1599.2,130.7
		L1599.2,130.7z"/>
	<path class="st8" d="M1599.1,119.8c10.3-0.8,20.6-0.1,30.9-0.3c36.8,0.1,73.5-0.1,110.3,0.1c0,3.7,0,7.4,0,11.1
		c-21.3,0.5-42.6-0.4-63.8,0.5c0,54.6,0,109.2,0,163.8c0,1.9-0.2,3.9-0.4,5.8c-2.1-5.4-1.4-11.2-1.4-16.8c0-41,0-82,0-123
		c0.1-10.3-0.4-20.6,0.4-30.8c21.1-1,42.3,0,63.4-0.5c0-2.8,0-5.7,0.1-8.5c-44.2,0.3-88.4-0.1-132.6,0.2
		C1603.6,121.3,1601.3,120.6,1599.1,119.8L1599.1,119.8z"/>
	<path class="st5" d="M1746.7,119.6c3.8,0,7.6-0.2,11.5,0c2.5-0.1,4,2.2,5.3,4c15.4,24.9,31,49.7,46.5,74.5
		c3.8,6,7.7,12.1,10.3,18.8c2.8-6.5,6.2-12.7,10.2-18.6c13.1-20.9,26.1-41.9,39.2-62.8c3.2-4.8,5.8-10,9.4-14.6
		c4.2-2.7,9.8-0.9,14.5-1.3c-3.9,7.5-8.9,14.4-13.3,21.6c-17.3,27.4-34.6,54.9-51.9,82.3c-1,1.6-1.9,3.4-1.6,5.4
		c0,23.9,0,47.8,0,71.8c-4.4,0-8.8-0.1-13.2,0.2c0.3-17,0-33.9,0.1-50.9c-0.2-8,0.4-16.1-0.2-24.1
		C1791.4,190.3,1768.5,155.3,1746.7,119.6L1746.7,119.6z"/>
	<path class="st9" d="M1919.3,123.2c10.4-3.2,22.3,5.8,21.6,16.8c0.6,9.6-8.5,18-17.9,17.4c-8.7-0.2-16.4-7.7-16.6-16.4
		C1905.7,132.9,1911.4,125.1,1919.3,123.2L1919.3,123.2z"/>
	<path class="st10" d="M1916.3,128.3c4.3,0.1,8.7-0.5,13,0.5c3.5,1.3,4.1,5.6,3.1,8.8c-1,2.2-3.4,3.1-5.2,4.3
		c2.3,3.3,4.6,6.6,6.7,10.1c-1.2-0.1-2.3-0.3-3.4-0.5c-2.7-3-4.6-6.6-7-9.9c-1.4,0-2.8,0-4.1,0c0,3.4-0.1,6.8-0.1,10.1
		c-1,0-2,0.1-2.9,0.1C1916.2,143.9,1916.3,136.1,1916.3,128.3L1916.3,128.3z"/>
	<path class="st0" d="M1062.5,141.6c12.3-8.7,27.5-12.9,42.5-12.5c18.7-0.7,38.1,6.1,51.2,19.7c9.8,9.7,15.9,22.6,19,35.9
		c3,11.8,2.8,24.2,2.3,36.3c-1.4,17-7.1,34.1-18.3,47.1c-8.1,9.6-19.1,16.4-31.1,19.9c-13.2,3.8-27.3,4.2-40.7,1.3
		c-13.1-2.8-25.5-9.3-34.6-19.2c-12.3-12.9-18.6-30.6-20.2-48.2c-0.8-14-0.7-28.4,3.5-41.9C1040.5,164.9,1049.4,150.8,1062.5,141.6
		L1062.5,141.6z"/>
	<path class="st11" d="M1919.3,130.8c3.3,0.4,7.7-0.8,10,2.3c0.1,1.4,0.2,2.8,0.3,4.2c-3.3,1.4-6.8,1.6-10.3,1.5
		C1919.3,136.1,1919.3,133.4,1919.3,130.8L1919.3,130.8z"/>
	<path class="st0" d="M146.8,143.2c12.7-0.1,25.5,0,38.2,0c15.5,0,31.4,6.2,41.6,18.2c11,12.7,14.9,30.1,14.9,46.6
		c0.1,16.5-3.7,33.9-14.7,46.8c-7.7,9.3-19,15-30.6,17.5c-16.4,2.1-32.9,0.7-49.3,1.1C146.8,230,146.8,186.6,146.8,143.2
		L146.8,143.2z"/>
	<path class="st1" d="M524.6,144.5c0.3,0.1,0.9,0.4,1.2,0.5c0.4,17.7,0,35.3,0.2,53c0,28.3,0.1,56.7,0,85c0,5.9,0.8,12.1-1.1,17.8
		c-0.4-2.9-0.4-5.9-0.4-8.8C524.6,242.8,524.4,193.7,524.6,144.5L524.6,144.5z"/>
	<path class="st0" d="M375.9,147.6c2.1,8.4,4.8,16.5,8,24.6c7.1,19.5,14.4,39,21.4,58.6c-19.6,0.1-39.2,0.1-58.9,0
		c7.7-20.8,15.2-41.6,22.9-62.4C371.9,161.5,373.8,154.5,375.9,147.6L375.9,147.6z M707.8,147.6c2,8.9,5.1,17.5,8.4,26
		c6.9,19,14,38,20.9,57.1c-19.6,0.1-39.2,0.1-58.8,0c7.9-21.6,15.8-43.1,23.7-64.7C704.2,160,705.8,153.7,707.8,147.6L707.8,147.6z"
		/>
	<path class="st12" d="M1814.5,225.3c1.6,6.8,0.7,13.8,0.9,20.7c-0.1,18,0.3,36-0.2,54c-0.2-0.1-0.7-0.2-1-0.3
		c-0.5-12.9,0-25.9-0.2-38.8C1814.3,249.1,1813.4,237.2,1814.5,225.3L1814.5,225.3z"/>
	<path class="st13" d="M1486.5,289.9c32-0.6,64-0.2,96-0.2c-0.2,2.5-0.5,5-0.8,7.5c-0.4-2-0.9-3.9-1.3-5.9
		c-26.4-0.2-52.8,0-79.3-0.1C1496.2,291.1,1490.9,292.2,1486.5,289.9L1486.5,289.9z"/>
	<path class="st14" d="M80.3,421.9c0-21.7-0.1-43.4,0-65.1c2,0,4.1,0,6.1,0c0.1,8.4,0,16.8,0.1,25.2c3.2-2.3,6.5-4.9,10.5-5.4
		c5.1-0.7,11.1-0.4,14.8,3.6c3.5,3.7,4.6,9,4.6,13.9c0,9.2,0,18.4,0,27.6c-2,0.2-4.1,0.5-6.1,0.7c-0.4-9.8,0.1-19.6-0.2-29.3
		c-0.2-4.1-1.3-9.1-5.6-10.8c-6.6-2.7-13.8,1.2-18,6.3c0,11.1,0,22.1,0,33.2C84.4,421.8,82.4,421.8,80.3,421.9L80.3,421.9z"/>
	<path class="st2" d="M585.1,356.7c2.1,0,4.2,0,6.3,0c0,21.9,0.1,43.9,0,65.8c-1.9-0.3-3.8-0.7-5.6-1c0-1.4,0-2.8,0-4.1
		c1.4,1.4,2.9,2.8,4.4,4.1c0.5-21.2,0.2-42.5,0.1-63.8c-1.4,0-2.8,0.1-4.2,0.2c0.1,7.4,0,14.9-0.8,22.2
		C584.8,372.3,584.6,364.5,585.1,356.7L585.1,356.7z"/>
	<path class="st15" d="M1913.7,356.7c1.8,0,3.7,0,5.6,0.1c1.4,0.9,0.7,2.8,1,4.2c-0.1,15.7,0,31.3,0,47c0,4.8,0.3,9.7-0.6,14.4
		c-2-0.3-4-0.5-5.9-0.9C1913.7,400,1913.6,378.3,1913.7,356.7L1913.7,356.7z"/>
	<path class="st16" d="M391.8,358.4c2.2,0,5-0.9,6.6,1.2c2.1,2.2,1.4,6.1-1.3,7.5c-2,1.2-4.3,0.1-6.1-0.7c-0.5-1.2-0.9-2.4-1.4-3.6
		C390.3,361.3,391,359.9,391.8,358.4L391.8,358.4z"/>
	<path class="st17" d="M586.1,357.8c1.4-0.1,2.8-0.1,4.2-0.2c0,21.2,0.4,42.5-0.1,63.8c-1.5-1.4-3-2.7-4.4-4.1c0,1.4,0,2.7,0,4.1
		c-0.1-1.8-0.3-3.5-0.4-5.3c-4.2,3.8-9.5,7.1-15.5,6.4c-7.3,0-13.8-5.5-15.5-12.5c-2-8-2.1-17.1,2-24.5c3.2-5.9,9.8-9.9,16.6-9.4
		c4.5-0.4,8.6,1.6,12.2,3.9C586.2,372.7,586.2,365.3,586.1,357.8L586.1,357.8z"/>
	<path class="st18" d="M817.4,362.8c1.1-2.3,2.4-5.2,5.5-4.6c4.1-0.4,6.2,5.4,3.3,8c-1.9,2.3-5,1.3-7.3,0.2
		C818.4,365.2,817.9,364,817.4,362.8L817.4,362.8z"/>
	<path class="st17" d="M1145.6,358.6c1.9-0.6,4.4-0.8,5.9,0.9c1.6,1.4,1,3.8,1.2,5.8c-1.8,1.3-3.9,3-6.3,2.1
		C1142.4,366.4,1142,360.3,1145.6,358.6L1145.6,358.6z"/>
	<path class="st19" d="M1213.3,358.4c3.1-1.1,7,1,6.5,4.6c0.4,3.8-4.6,6-7.5,3.8C1209.3,364.9,1209.8,359.4,1213.3,358.4
		L1213.3,358.4z"/>
	<path class="st20" d="M1352.2,363.2c1.9-3.1,5.5-4.4,8.7-5.6c3,0,6,0.5,8.9,1.1c-0.1,1.5-0.3,3-0.4,4.5c-3.8,0.2-8.3-0.9-11.3,2
		c-3.2,3.5-2.6,8.6-2.6,13c4.7,0,9.3,0,14,0c0,1.7-0.1,3.4-0.1,5c-4.6,0-9.2,0-13.9,0.1c0,12.8,0,25.6,0,38.5c-2.1,0-4.2,0-6.2,0
		c0-12.8,0-25.5,0-38.3c-2.3-0.3-4.7-0.7-7-1c-0.1-1.4-0.2-2.7-0.3-4.1c2.4-0.2,4.8-0.4,7.2-0.6
		C1349.3,372.8,1349.2,367.4,1352.2,363.2L1352.2,363.2z"/>
	<path class="st21" d="M1612.5,362.5c3.1-4.1,8.6-5.2,13.5-4.9c1.2,0.4,2.4,0.9,3.6,1.3c-0.1,1.4-0.2,2.8-0.3,4.2
		c-3.9,0.2-8.8-1.1-11.7,2.3c-2.8,3.6-2.2,8.4-2.2,12.7c4.7,0,9.3,0,14,0c0,1.7,0,3.3,0,5c-4.6,0-9.3,0-13.9,0.1
		c0,12.8,0,25.7,0,38.5c-2.1,0-4.1,0-6.2,0c-0.1-12.8,0-25.6,0-38.3c-2.3-0.3-4.5-0.6-6.8-0.9c-0.3-1.4-0.6-2.7-0.9-4.1
		c2.5-0.2,5.1-0.5,7.6-0.8C1609.1,372.5,1609,366.8,1612.5,362.5L1612.5,362.5z"/>
	<path class="st22" d="M1757.4,358.4c3.1-1.1,7,1.1,6.5,4.6c0.4,3.8-4.6,6-7.4,3.8C1753.2,365,1753.8,359.3,1757.4,358.4
		L1757.4,358.4z"/>
	<path class="st3" d="M24.2,364.4c0-2-0.1-3.9-0.2-5.9c16.6-0.1,33.1,0,49.7,0c0,2,0,3.9,0,5.9c-7.1,0-14.2,0-21.4,0
		c0,15.5-0.1,31,0,46.5c0.3,3.9,0.6,7.8-0.2,11.7l0.1-1.1l0-0.5c0.3-8.7-0.6-17.3-0.3-26c-0.3-10.3,0.8-20.7-0.6-31
		c-1.3,8-0.6,16-0.7,24.1c-0.1,10.9,0.2,21.8-0.2,32.7c-0.8-0.1-2.3-0.3-3.1-0.4c-0.2-10.4,0-20.9-0.1-31.3
		c-0.1-8.3,0.5-16.6-0.7-24.8c-0.9,8.2-0.4,16.5-0.5,24.8c-0.1,10.8,0.1,21.5-0.1,32.3l-0.1,1.6c-0.6-19.5-0.1-39-0.3-58.4
		C38.5,364.4,31.3,364.4,24.2,364.4L24.2,364.4z"/>
	<path class="st23" d="M1045.7,362.8c1.1-1.6,3.2-1.1,4.8-1.4c0.1,5.5,0,11,0,16.5c4.5,0.5,9.1,0.4,13.7,0.4c0,1.1,0.1,3.4,0.1,4.5
		c-4.6,0.7-9.2,0.4-13.8,0.5c0,8.9,0,17.8,0,26.7c-0.1,2.2,0.6,4.3,1.1,6.3c1.4,0.3,2.8,0.7,4.3,0.8c2.6-0.2,4.5-2.7,7.1-2.7
		c1,1,1.7,2.2,2.5,3.4c-3.3,2.7-7.2,5.1-11.6,4.7c-4.8,0.3-9.5-3.7-9.5-8.7c-0.3-10.2,0-20.4-0.1-30.6c-2.3-0.1-4.6-0.1-6.9-0.1
		c-0.2-1.5-0.3-3.1-0.4-4.6c2.4-0.1,4.9-0.3,7.3-0.4C1044.8,373.1,1044.8,367.9,1045.7,362.8L1045.7,362.8z"/>
	<path class="st24" d="M649.6,362.7c1.2-1.5,3.2-1,4.8-1.4c0.1,5.5,0,11,0,16.5c4.6,0.6,9.2,0.4,13.8,0.5c0,1.6,0,3.3,0,4.9
		c-4.6,0-9.2,0-13.8,0c0,8.9,0,17.8,0,26.8c-0.1,2.2,0.5,4.3,1.2,6.4c2,0.2,4.2,1.4,6.1,0.3c1.8-0.6,3.3-2.4,5.3-2.1
		c1,1,1.7,2.2,2.5,3.4c-3.3,2.7-7.1,5.2-11.5,4.7c-4.9,0.3-9.5-3.7-9.5-8.6c-0.3-10.2,0-20.5-0.2-30.7c-2.2,0-4.5-0.1-6.7-0.1
		c-0.3-1.5-0.7-3-1-4.5c2.6-0.2,5.2-0.3,7.8-0.5C648.7,373,648.7,367.8,649.6,362.7L649.6,362.7z"/>
	<path class="st25" d="M46.6,364.2c1.2,8.2,0.6,16.6,0.7,24.8c0.1,10.4-0.1,20.9,0.1,31.3c0.8,0.1,2.3,0.3,3.1,0.4
		c0.4,0.1,1.3,0.2,1.8,0.2l0,0.5c-1.7,1.5-4.3,0.4-6.3,0.9l0-1.1c0.2-10.8,0-21.5,0.1-32.3C46.2,380.7,45.7,372.4,46.6,364.2
		L46.6,364.2z"/>
	<path class="st26" d="M50.7,388c0.1-8-0.6-16.1,0.7-24.1c1.4,10.3,0.3,20.7,0.6,31c-0.3,8.7,0.6,17.4,0.3,26
		c-0.4-0.1-1.3-0.2-1.8-0.2C50.9,409.9,50.6,398.9,50.7,388L50.7,388z"/>
	<path class="st16" d="M202.9,382.2c3.2-2.2,6.3-5,10.3-5.7c5.2-0.8,11.1-0.5,15.3,3.1c5.2,4.5,6.8,11.8,6.9,18.4
		c0.2,7.5-1.9,15.6-7.9,20.5c-6.8,5.6-17.4,5.5-24.1-0.2c0,6.3,0,12.7,0,19c-2,0-4.1,0-6.1,0.1c0-12.8-0.3-25.6-0.1-38.3
		c-0.3-7.5-0.6-15.1,0.2-22.6c1.7,0.2,3.5,0.6,5.2,1C202.6,379,202.8,380.6,202.9,382.2L202.9,382.2z"/>
	<path class="st27" d="M258.8,376.8c3.6-1,7.5-0.7,11,0.6c-0.4,1.8-0.8,3.5-1.2,5.3c-3.8-0.1-8.3-1.3-11.6,1.2
		c-3.5,2.9-5.9,7.5-5.7,12.1c0,8.5,0,17.1,0,25.6c-2,0.3-4,0.6-6,0.8c-0.8-15.3-0.4-30.6-0.1-46c1.8,0.2,3.6,0.6,5.3,0.9
		c0.1,1.7,0.2,3.4,0.4,5.1C253.3,380.4,255.6,377.9,258.8,376.8L258.8,376.8z"/>
	<path class="st28" d="M326.9,381.9c3-2.4,6-5.4,10.1-5.6c2.9-0.2,6-0.3,8.5,1.2c2.5,1.4,4,3.9,5.5,6.3c4.3-8.1,16-10.1,23-4.7
		c5.1,4.4,5.7,11.6,5.5,17.8c0,8.3,0,16.5,0,24.8c-2,0-4.1,0.1-6.1,0.1c-0.1-9.9,0.1-19.9-0.1-29.8c0-4.8-2.9-10.2-8.1-10.5
		c-6.1-1.1-11.8,4.5-11.7,10.5c-0.1,10,0,19.9,0,29.9c-2.1,0-4.1,0.1-6.1,0.2c-0.5-10.3-0.2-20.7-0.4-31c0.1-4.4-3-9.5-7.8-9.5
		c-4.9-0.5-8.7,3.2-11.6,6.6c-0.1,11.2-0.1,22.4,0,33.7c-2,0.2-4.1,0.5-6.1,0.7c-0.3-15.3-0.1-30.6-0.1-45.9
		c1.8,0.2,3.6,0.5,5.3,0.9C326.7,378.9,326.8,380.4,326.9,381.9L326.9,381.9z"/>
	<path class="st29" d="M471.3,376.3c3.2-1.1,6.4,0.1,9.4,1.1c-0.4,1.8-0.9,3.5-1.3,5.2c-3.8-0.1-8.2-1.3-11.5,1.2
		c-3.6,2.9-5.9,7.5-5.7,12.2c0,8.6,0,17.1,0,25.7c-2.2,0-6.4,1.9-6.5-1.6c-0.1-13.8-0.1-27.6,0-41.4c-0.5-2.8,2.5-2.3,4.3-2
		c2.5,1.1,1.2,4.4,1.7,6.5C464.1,380.1,467.2,377,471.3,376.3L471.3,376.3z"/>
	<path class="st30" d="M674.1,383.4c5.4-5.4,13.1-8.8,20.8-7c6.4,1,10.6,7.5,10.7,13.6c0.2,10.6,0.1,21.2,0.1,31.8
		c-1.6-0.1-3.3-0.3-4.9-0.4c-0.2-1.5-0.4-3.1-0.6-4.6c-4.5,3.1-9.5,6.2-15.2,5.9c-5,0.3-10.5-2.5-12.2-7.5
		c-1.1-4.3-0.9-9.6,2.9-12.5c6.7-5.4,15.7-6,24-6.4c-0.1-4,0.5-8.4-2.1-11.8c-2.5-3.4-7.4-3.6-11.1-2.6c-3.8,1.1-6.5,4.7-10.6,5.1
		C675.2,385.8,674.7,384.6,674.1,383.4L674.1,383.4z"/>
	<path class="st23" d="M746.5,377.6c7.1-2.9,15.8-1.7,21.6,3.5c-0.6,1.2-1.2,2.4-1.8,3.5c-0.5,0-1.6,0-2.2-0.1
		c-4.2-2.9-9.9-4.6-14.8-2.3c-2.4,0.9-3.7,3.4-4.8,5.5c0.4,1.2,0.7,2.4,1.1,3.6c5.6,4.6,13.5,4.5,19.3,8.7c5.7,4.2,4.9,13.4,0.1,18
		c-4.5,4.6-11.6,5.3-17.6,4.1c-3.7-0.9-6.8-3.1-9.8-5.3c0.6-1.2,1.3-2.4,1.9-3.6c0.6,0,1.8,0,2.4,0c3.2,2.3,6.9,4.5,11,4.2
		c3.7,0.2,7.7-1.6,9.4-5c0.9-2.7,1-6.4-1.8-8c-6.2-4.2-15.3-3.5-20-10C736.5,388.6,740.2,380.2,746.5,377.6L746.5,377.6z"/>
	<path class="st31" d="M889.8,382.6c4-4,9.4-6.9,15.2-6.4c5.7-0.4,11.2,3,13.4,8.2c2.4,6.2,1.8,13.1,1.8,19.6
		c-0.1,6.1,0.4,12.3-0.6,18.4c-2-0.2-4-0.5-6-0.7c0-9.9,0.1-19.8,0-29.7c0-4-1.8-8.5-5.8-9.9c-6.4-2.3-13.8,1.1-17.4,6.7
		c-0.4,11.1,0,22.3-0.2,33.4c-2.2,0-4.3,0-6.5,0c-0.1-14.7-0.1-29.4,0-44c0.1-2.2,2.8-1.5,4.3-1.4
		C890.2,377.9,889.4,380.6,889.8,382.6L889.8,382.6z"/>
	<path class="st30" d="M1085.5,376.7c3.4-0.9,6.9-0.4,10.3,0c0,1.9-0.1,3.9-0.3,5.8c-4.3,0-9.5-1.4-12.9,2
		c-3.2,3.2-5.1,7.9-4.9,12.4c0,8.3,0.1,16.5,0,24.8c-2.1,0-4.1,0-6.2-0.1c0-15-0.1-30,0-45c1.7,0,3.3,0,5,0c0.5,2.2,0.8,4.4,1.1,6.7
		C1079.4,380.4,1082,377.7,1085.5,376.7L1085.5,376.7z"/>
	<path class="st32" d="M1101.2,383.4c3.7-4.2,9.1-7.2,14.8-7.2c3.6-0.1,7.5,0,10.5,2.2c4.3,3,6.1,8.5,6.1,13.6c0,10,0,19.9,0,29.9
		c-1.7-0.1-3.3-0.3-5-0.4c-0.2-1.5-0.4-3.1-0.6-4.6c-6.1,4.4-14.1,7.8-21.5,4.6c-7.4-2.8-9.3-14-3-18.9c6.8-5.2,15.8-5.9,24-6.3
		c0-4.2,0.2-8.8-2.6-12.2c-3.7-3.9-10.2-3.3-14.4-0.4c-2.1,1.1-3.9,3.4-6.5,3.1C1101.9,386.1,1101.1,384.8,1101.2,383.4
		L1101.2,383.4z"/>
	<path class="st33" d="M1169.8,382.3c3.3-2.6,6.8-5.5,11.2-5.9c4.4-0.4,9.4-0.5,13,2.5c4,3,5.8,8.2,5.7,13.1
		c0,10.1,0.1,20.2-0.1,30.4c-2.1-0.3-4.1-0.5-6.1-0.8c-0.1-9.9,0.1-19.7-0.1-29.6c0-4-1.9-8.5-5.9-9.9c-6.2-2.3-13.1,1-16.9,6
		c-0.6,1.5-0.4,3.2-0.5,4.9c0.1,9.6,0,19.1,0.1,28.7c-2.2,0.1-4.4,0.1-6.6,0.1c0-15.1,0-30.2,0-45.2c1.8,0.4,4.3-0.5,5.5,1.4
		C1169.4,379.4,1169.6,380.9,1169.8,382.3L1169.8,382.3z"/>
	<path class="st3" d="M1236.8,382.2c3.9-2.8,8-6,13.1-6c4.8-0.4,10.1,0.6,13.3,4.6c4.5,5.3,4,12.7,4,19.2
		c-0.2,7.4,0.4,14.8-0.5,22.2c-1.8,0-3.6,0-5.4,0.1c-1.4-10.7,0-21.6-0.8-32.3c-0.4-3.3-2.4-6.7-5.7-7.8c-5.2-1.9-11.1,0.1-15,3.8
		c-1.1,1.1-2.8,2.2-2.6,4c-0.3,10.4,0.2,20.8-0.2,31.2c-1.3,1.8-3.9,0.8-5.8,1.2c-1-9.4-0.3-18.9-0.5-28.3
		c0.1-5.9-0.3-11.8,0.5-17.6c1.7,0.3,3.4,0.7,5.1,1.1C1236.6,379,1236.7,380.6,1236.8,382.2L1236.8,382.2z"/>
	<path class="st34" d="M1281.5,380.6c3.2-3.5,8.1-4.2,12.5-4.9c3.5,0.5,6.8,1.6,10.2,2.7c3.8,0.5,7.6,0.1,11.4,0.2c0,1,0,3,0,4
		c-2.1,0.5-4.3,0.8-6.5,1.1c0.9,3.7,2.1,7.6,0.8,11.3c-1.7,6.4-8.4,10.8-14.9,10.6c-3,0.2-6.1-0.8-9.1,0c-1.1,1.3-1.8,2.9-1.4,4.6
		c3.8,3.1,9,2.2,13.5,2.7c5.1,0.5,11,0.4,14.8,4.4c2.6,2.5,2.3,6.5,1.7,9.7c-1.5,4.2-5.2,7.4-9.2,9.1c-7.3,2.9-15.8,2.8-23-0.4
		c-4.2-1.8-7.7-6-7.1-10.7c-0.4-4,3.1-6.7,5.9-9c-1-1.9-2.5-3.7-2.5-6c-0.1-3.1,2.3-5.4,4-7.6C1276.2,397,1275.5,386.4,1281.5,380.6
		L1281.5,380.6z"/>
	<path class="st35" d="M1438.7,376.8c3.6-1,7.5-0.7,11,0.5c-0.4,1.8-0.7,3.6-1.1,5.4c-4.1-0.1-8.9-1.4-12.2,1.7
		c-3.2,2.9-5.3,7.2-5.1,11.6c-0.1,8.5,0.2,17-0.1,25.4c-1.6,1.3-3.9,0.7-5.8,1c-1.3-13.4-0.2-26.9-0.6-40.4c0.1-1.9,0.4-3.8,0.6-5.6
		c1.7,0.3,3.4,0.7,5.2,1.1c0.1,1.9,0.2,3.8,0.3,5.7C1433.2,380.7,1435.4,377.8,1438.7,376.8L1438.7,376.8z"/>
	<path class="st30" d="M1485.5,382.4c4.7-4.9,11.7-7.8,18.4-6c7.1,1.1,12,7.8,13.1,14.5c1.1,6.8,1.1,14-1.8,20.4
		c-2.9,6.6-9.8,11.5-17.2,11.3c-4.6,0.3-8.8-1.7-12.5-4.3c0,6.3,0,12.6,0,19c-2.1,0-4.1,0-6.2,0c-0.1-20.2-0.1-40.4,0-60.6
		c1.7,0,3.3,0.1,5,0.1C1484.8,378.7,1485.1,380.5,1485.5,382.4L1485.5,382.4z"/>
	<path class="st36" d="M1538.8,377.8c3.8-2.4,8.6-1.6,12.8-1c-0.1,1.9-0.2,3.9-0.3,5.8c-4.3,0-9.4-1.4-12.9,1.9c-3,3-5.1,7.2-5,11.6
		c0,8.6,0,17.3,0,25.9c-2.1-0.1-4.1-0.1-6.2-0.1c0-15.1-0.1-30.1,0-45.1c1.7,0,3.3,0,5.1,0.1c0.4,2.2,0.8,4.4,1.1,6.6
		C1534.9,381.2,1536.5,379,1538.8,377.8L1538.8,377.8z"/>
	<path class="st37" d="M1870,383.3c4.6-4.6,10.6-7.3,17.1-7.7c3.8,0.8,8,1.5,10.6,4.7c4.9,5.3,3.9,13,4,19.6c0,7.3,0,14.6,0,21.9
		c-1.7-0.1-3.3-0.2-4.9-0.3c-0.3-1.6-0.5-3.1-0.7-4.7c-5.7,4.3-13.1,7.5-20.3,5.1c-6.2-1.7-9.7-9.5-7-15.3c1.3-3.4,4.6-5.5,7.8-7
		c6-2.5,12.6-3.1,19.1-3.4c-0.1-4.2,0.3-9-2.6-12.4c-2.7-2.9-7.2-3-10.8-2c-3.8,1.1-6.4,4.6-10.4,5.1
		C1871.1,385.8,1870.6,384.6,1870,383.3L1870,383.3z"/>
	<path class="st38" d="M137.4,377.7c4.3-1.9,9.2-1.8,13.7-1c9.3,2.1,14.9,13,12.5,21.9c-10.7,0.3-21.5-0.2-32.2,0.3
		c0.5,4.9,1.2,10.2,4.7,14.1c3.8,4.2,10.1,5,15.4,3.7c3.1-0.7,5.6-2.8,8.6-4c1.9-0.3,3.1,1.7,2.9,3.4c-2.6,3.4-6.8,4.9-10.8,5.9
		c-7.4,1.8-16.1,0.1-21.1-5.9c-5.3-6.3-6.4-15.2-5.1-23.1C127.1,386.5,131.1,380.3,137.4,377.7L137.4,377.7z"/>
	<path class="st20" d="M277.2,384.2c6.7-10.3,24.3-11.2,31.2-0.7c3.2,4.3,3.6,9.8,3.2,15c-10.8,0.4-21.6,0.1-32.4,0.2
		c0.1,6.6,2.2,14.5,8.9,17.3c6.8,3,14.1,0.1,19.9-3.7c0.8,0.5,1.5,1,2.3,1.5c0.2,0.6,0.5,1.7,0.7,2.2c-6.6,6.1-16.7,8.2-25.1,5
		c-6.6-2.5-10.9-8.9-12.2-15.6C272.6,398.3,272.8,390.3,277.2,384.2L277.2,384.2z"/>
	<path class="st39" d="M391.6,376.7c2,0,4.1,0,6.1,0c0,15.2,0.2,30.5-0.1,45.7c-2-0.2-4-0.5-6.1-0.7
		C391.6,406.7,391.5,391.7,391.6,376.7L391.6,376.7z"/>
	<path class="st33" d="M412.1,384c6.7-10,23.8-10.9,30.9-0.9c3.2,4.4,4.1,10.1,3.6,15.4c-10.8,0.4-21.5,0.1-32.3,0.2
		c0,4.9,0.7,10.2,4.1,14c3.4,4,9,5.2,14,4.3c4-0.6,7.4-3,11-4.8c1,1.2,1.9,2.4,2.8,3.6c-7,6.6-18,8.8-26.8,4.7
		c-4.4-2-7.6-6-9.4-10.3C406.7,401.8,406.9,391.6,412.1,384L412.1,384z"/>
	<path class="st36" d="M486.3,387.2c2.6-5.8,8.3-10.3,14.7-10.9c5-0.5,10.5-0.1,14.5,3.1c5.8,4.3,7.9,12,7.1,19
		c-10.8,0.5-21.6,0.1-32.4,0.2c0.1,4.9,0.9,10.1,4.2,13.9c3.4,4.1,9.3,5.3,14.4,4.3c3.8-0.7,7-2.9,10.3-4.6c0.5,0.4,1.6,1.2,2.1,1.6
		c0.2,0.5,0.5,1.6,0.7,2.2c-6.8,6.2-17.3,8.4-25.8,4.8c-6.7-2.9-10.9-9.9-11.6-16.9C483.9,398.4,483.8,392.4,486.3,387.2
		L486.3,387.2z"/>
	<path class="st34" d="M602.1,383.7c4.6-4.9,11-8.3,17.9-7.5c7.6-0.5,13.6,6.5,13.6,13.8c0.3,10.6,0.1,21.3,0.1,31.9
		c-1.7-0.1-3.3-0.3-5-0.4c-0.2-1.6-0.4-3.2-0.5-4.7c-5.9,4.9-14.4,8-21.8,4.6c-7.3-3-8.7-14.5-2.2-19.1c6.7-4.9,15.4-5.5,23.5-5.9
		c-0.1-4,0.5-8.5-2.1-11.8c-2.8-3.7-8.4-3.8-12.4-2.1c-3.2,1.3-5.6,4.3-9.2,4.6C603.3,385.9,602.7,384.8,602.1,383.7L602.1,383.7z"
		/>
	<path class="st17" d="M776.1,393.1c1.1-6.8,5.5-13.1,12-15.6c7.7-2.7,16.9-1.4,22.9,4.5c-1,1-2,2.2-3.2,3
		c-3.7-0.9-6.8-3.9-10.8-3.6c-6.2-0.6-12.2,3.7-13.9,9.6c-1.4,3.5,0,7.2-0.7,10.8c-0.8,6.9,4,14.4,11.2,15.3
		c5.3,1.1,10.3-1.7,14.3-4.8c0.8,0.5,1.6,1,2.4,1.5c0.1,0.6,0.4,1.8,0.6,2.3c-7.1,7.4-20.1,8.9-28.1,2.1
		C775.9,412.1,774.4,401.8,776.1,393.1L776.1,393.1z"/>
	<path class="st40" d="M819.6,376.7c2,0,4,0,6.1,0c0.1,15,0,30.1,0,45.1c-2,0-4.1,0-6.1-0.1C819.6,406.7,819.5,391.7,819.6,376.7
		L819.6,376.7z"/>
	<path class="st33" d="M838.2,387.3c2.6-5.8,8.4-10.4,14.9-10.9c5-0.5,10.5,0,14.5,3.2c5.7,4.3,7.8,12,7,18.9
		c-10.8,0.5-21.6,0.1-32.3,0.2c0,4.9,0.8,10.1,4.1,14c3.3,3.9,8.8,5.2,13.7,4.4c4.1-0.5,7.6-3,11.2-4.8c1,1.2,1.9,2.4,2.8,3.6
		c-4.9,4.5-11.5,7-18.2,6.7c-7.1,0.1-14-4-17.1-10.4C835.1,404.5,834.7,395.1,838.2,387.3L838.2,387.3z"/>
	<path class="st30" d="M941.4,377.6c7.6-2.8,16.7-1.6,22.8,4c-0.9,1.3-1.3,3.6-3.3,3.4c-3.3-1.1-6.3-3.6-9.9-3.5
		c-5.6-0.6-11.5,2.6-13.6,7.9c-2.8,6.8-2.7,15,0.7,21.6c3.3,6.2,11.7,8.1,17.8,5c2.1-1.1,4-2.6,6.3-3.5c1.1,1,2,2.2,2.9,3.4
		c-7.8,8.3-22.8,9.6-30.5,0.6c-5.4-6.5-6.1-15.5-4.8-23.5C930.9,386.4,935.1,380.1,941.4,377.6L941.4,377.6z"/>
	<path class="st41" d="M970.7,393c1.1-7.6,6.7-14.5,14.3-16.3c5.8-1.1,12.5-0.9,17.2,3.2c5.5,4.4,7.4,11.9,6.5,18.6
		c-10.8,0.4-21.6,0-32.3,0.2c0.2,4.8,0.9,10,4.2,13.8c3.2,4,8.7,5.2,13.5,4.5c4.3-0.5,7.8-3.2,11.8-4.7c0.8,1.1,1.6,2.1,2.5,3.2
		c-8.2,9.1-24.9,9.9-32.9,0.2C970.2,409.4,969.6,400.7,970.7,393L970.7,393z"/>
	<path class="st22" d="M1144.8,421.6c0.2-15-0.5-30,0.4-44.9c1.8,0,3.7,0,5.6,0c0.9,10.8,0.2,21.6,0.4,32.4c0,4.5,0.1,9-0.5,13.4
		C1148.7,422.2,1146.7,421.9,1144.8,421.6L1144.8,421.6z"/>
	<path class="st42" d="M1212.2,376.7c2,0,4.1,0,6.1,0c0.1,15,0,30,0,44.9c-2,0.2-4.1,0.5-6.1,0.7c-0.4-13.4,0.2-26.9-0.4-40.3
		C1211.9,380.2,1212.1,378.5,1212.2,376.7L1212.2,376.7z"/>
	<path class="st34" d="M1386.3,377.5c4-1.6,8.4-1.5,12.6-1c7.6,1,13.7,7.4,15.4,14.7c1.9,7.9,1.4,17-3.5,23.9c-6,8.3-18.3,9.8-27,5
		c-6.2-3.3-9.2-10.3-10-16.9C1372.7,393.3,1376.4,381.3,1386.3,377.5L1386.3,377.5z"/>
	<path class="st24" d="M1567.5,377.7c4.6-1.9,9.8-1.8,14.6-1c8,1.7,13.5,9.3,14.5,17.1c0.7,6.7,0.6,13.9-3.1,19.8
		c-6.8,11.8-26.3,12.1-33.9,0.9c-4.5-6.7-5.1-15.5-3.2-23.1C1557.8,385.4,1561.8,380,1567.5,377.7L1567.5,377.7z"/>
	<path class="st36" d="M1634.9,390c2-6.9,8-12.6,15.1-13.6c4.8-0.5,10-0.4,14.1,2.3c5.8,3.6,8.5,10.8,8.3,17.4
		c0.3,1.5-1.1,2.8-2.5,2.5c-9.9,0.1-19.9,0-29.8,0c-0.2,4.5,0.4,9.3,3.2,13c3.3,4.9,9.9,6.4,15.4,5.2c3.8-0.6,6.8-3.2,10.4-4.4
		c1,1,3.5,2.7,1.7,4.1c-8.4,7.9-23.9,8.5-31.7-0.6C1633.4,408.8,1632.3,398.6,1634.9,390L1634.9,390z"/>
	<path class="st23" d="M1679.4,389.1c-0.3-5.4,3.8-10.2,8.7-11.9c7.1-2.1,15.7-1.1,20.9,4.7c-1.3,1.3-2.8,4-4.9,2.3
		c-4.6-2.9-11-4.3-15.8-1c-2.5,1.5-2.9,4.5-3,7.2c5.5,6.3,15.1,4.9,21,10.5c5.4,4.8,3.6,14.3-1.9,18.4c-7.3,5.4-18.4,4.4-25.1-1.7
		c-1.8-1.1,0.4-3,0.6-4.5c5,0.6,8.7,5.4,14.1,4.4c6.1,0.7,12.1-6.3,8.4-11.8c-4.1-4-10.3-4.2-15.3-6.6
		C1682.9,397.5,1679.1,393.7,1679.4,389.1L1679.4,389.1z M1723.6,377.7c7.2-3,16.4-2,22,3.7c-0.5,0.8-1.4,2.5-1.8,3.3
		c-3-0.3-5.5-2.2-8.3-3.1c-3.9-0.8-8.5-0.6-11.4,2.5c-1.8,1.6-1.6,4.1-1.9,6.2c5.8,6.5,16.2,4.9,21.9,11.5c4.9,6,1.5,15.9-5.3,18.9
		c-7.8,4-17.5,1.7-23.9-4c1.1-1.3,1.8-4.2,4.1-3.4c3.5,1.7,6.8,4.5,11,4.2c4.7,0.5,9.9-2.5,10.4-7.5c0.7-3.9-3-6.4-6.2-7.5
		c-5.7-2.2-12.8-2.9-16.4-8.3C1714.2,388.4,1717.6,380.4,1723.6,377.7L1723.6,377.7z"/>
	<path class="st43" d="M1756.2,400c-0.3-7.8-0.9-15.6,0.1-23.3c2,0,4,0.1,6.1,0.1c0.1,15,0,29.9,0,44.9c-2,0.3-4,0.5-5.9,0.8
		C1755.2,415,1755.9,407.5,1756.2,400L1756.2,400z"/>
	<path class="st44" d="M1784.4,377.7c4.2-1.8,9-1.7,13.6-1.1c8.1,1.3,14.1,8.5,15.3,16.4c1,7.1,0.8,14.9-3.2,21
		c-6.9,11.2-25.4,11.6-33.1,1.1c-4.6-5.9-5.1-13.9-4.2-21.1C1773.6,387.1,1777.8,380.4,1784.4,377.7L1784.4,377.7z"/>
	<path class="st17" d="M1823.5,376.7c1.6,0,3.3,0,5,0.1c0.4,1.9,0.8,3.8,1.1,5.7c4.3-4.2,10.2-7,16.4-6.2
		c7.4-0.2,13.1,6.7,13.4,13.8c0.4,10.6,0,21.2,0.2,31.8c-2.1,0-4.1,0-6.2,0c-0.1-9.3,0-18.6,0-27.8c0-3.6-0.5-7.5-3.2-10.1
		c-3.1-2.9-7.9-3-11.7-1.6c-3.6,1.2-6.3,3.9-8.8,6.6c0.1,10.9,0,21.8,0,32.7c-0.7,0.2-2,0.6-2.6,0.8c-1.2-0.3-2.4-0.5-3.6-0.8
		C1823.5,406.6,1823.4,391.6,1823.5,376.7L1823.5,376.7z"/>
	<path class="st23" d="M1934.7,379.7c4.4-3.9,10.8-4,16.3-3.1c3.4,0.6,6.2,2.7,8.7,4.9c-0.5,0.8-1.4,2.5-1.8,3.3
		c-3-0.4-5.5-2.2-8.3-3.1c-3.9-0.9-8.5-0.5-11.4,2.5c-1.7,1.6-1.6,4-1.9,6.1c5.6,6.4,15.7,4.9,21.5,11c5.2,5.4,2.6,15.2-3.6,18.8
		c-7.4,4.3-17.5,3.2-23.8-2.5c-2.4-1.4,0.7-4.6,2.6-4.3c3.1,1.3,5.7,3.8,9.1,4.1c3.6,0.4,7.9,0,10.5-2.9c2.4-2.6,3.1-7.5-0.1-9.7
		c-5.8-4.2-14-3.7-19.2-8.9C1928.6,391.5,1929.9,383.5,1934.7,379.7L1934.7,379.7z"/>
	<path class="st45" d="M138.3,383.3c5.9-3.7,15.2-2.5,18.4,4.2c1.5,2,0.5,4.4-0.5,6.4c-8.1-0.2-16.2,0-24.3-0.2
		C133,389.7,134.6,385.4,138.3,383.3L138.3,383.3z"/>
	<path class="st9" d="M418.3,385.3c4.9-5.4,14.6-5.7,19.4-0.1c2,2.3,2.6,5.5,3.2,8.5c-8.9,0.1-17.8,0.1-26.7,0
		C415.3,390.8,416.1,387.6,418.3,385.3L418.3,385.3z M493.5,386.4c4.2-5.9,13.8-7.1,19.3-2.3c2.7,2.4,3.7,6.1,4.2,9.6
		c-8.8,0.1-17.6,0.1-26.3,0C491.3,391.2,491.9,388.5,493.5,386.4L493.5,386.4z M846.3,385.4c4.7-5.2,14-5.8,19-0.7
		c2.4,2.4,3.1,5.8,3.7,9c-8.9,0.1-17.8,0.2-26.7,0C843.3,390.8,844.1,387.7,846.3,385.4L846.3,385.4z M980.4,385.5
		c4.7-5.3,13.9-5.9,19-0.9c2.4,2.4,3.2,5.8,3.7,9.1c-2.7,0.1-5.4,0.1-8.1,0.1c-6.1,0-12.2,0-18.3,0
		C977.5,390.8,978.3,387.8,980.4,385.5L980.4,385.5z"/>
	<path class="st45" d="M1289.5,381.8c3.9-1,8.7-1.1,12,1.8c5.1,4.4,3.9,14.1-2.7,16.4c-4.2,1.4-9.5,1.2-12.8-2
		C1281.4,393.3,1282.9,383.9,1289.5,381.8L1289.5,381.8z"/>
	<path class="st0" d="M1390.6,381.8c4.9-1.1,10.6-0.3,14.1,3.6c4.1,4.4,4.4,10.8,4.1,16.5c-0.1,5.5-2.6,11.6-7.9,14
		c-5.5,2.4-12.8,1.6-16.8-3.2c-4.2-5.3-4.2-12.6-3.4-19C1381.4,388.4,1385.1,383.1,1390.6,381.8L1390.6,381.8z M1485.6,388.9
		c3.1-3.8,7.3-7.5,12.5-7.5c5.3-0.5,10.6,3,12,8.1c1.9,6.8,2.1,14.5-1.2,20.9c-2.7,5.4-9.2,7.8-14.9,6.5c-3.5-0.5-6.1-3.1-8.4-5.5
		C1485.6,403.9,1485.6,396.4,1485.6,388.9L1485.6,388.9z M1572.6,381.7c4.6-1,10-0.2,13.4,3.3c3.6,3.7,4.6,9,4.6,13.9
		c0.1,4.4-0.6,8.9-3,12.7c-5.1,7.9-18.9,7.5-23.3-0.9c-3.2-6.6-3.3-14.5-0.7-21.3C1565.2,385.6,1568.5,382.6,1572.6,381.7
		L1572.6,381.7z"/>
	<path class="st46" d="M1643.2,386.3c4.6-6.3,15.4-7.1,20.4-0.9c1.9,2.3,2.5,5.4,3.2,8.2c-8.9,0.2-17.8,0.2-26.7,0
		C1640.9,391.1,1641.6,388.5,1643.2,386.3L1643.2,386.3z"/>
	<path class="st0" d="M1789.4,381.7c4.2-0.8,9-0.3,12.5,2.5c3.6,2.9,5,7.6,5.4,12c0.4,5.2,0,10.8-2.8,15.4
		c-4.9,7.7-18.1,7.7-22.9-0.1c-3.5-6-3.7-13.5-1.9-20C1781,386.8,1784.6,382.8,1789.4,381.7L1789.4,381.7z M211.5,382.2
		c5-1.9,11.4-0.7,14.5,3.9c3.1,4.6,2.9,10.5,2.7,15.8c-0.2,5.5-2.7,11.5-7.9,14c-4.8,2.2-11,1.8-15-1.8c-1.2-1.1-2.7-2.3-2.5-4.1
		c-0.2-7.1,0-14.2,0-21.2C205.7,386.2,208.1,383.4,211.5,382.2L211.5,382.2z"/>
	<path class="st45" d="M283,385.9c4.8-6,15.5-6.5,20.3-0.3c1.9,2.2,2.3,5.2,2.7,8c-8.7,0.1-17.5,0.1-26.2,0
		C280.5,391,281.1,388.1,283,385.9L283,385.9z"/>
	<path class="st0" d="M564.6,384.6c6-5.4,16.4-4,20.7,2.9c-0.3,7.2,0.2,14.4-0.3,21.6c-3.3,6.9-12.8,10.5-19.5,6.4
		c-4.8-3.1-6-9.2-6.1-14.5C559.2,395.2,560.3,388.8,564.6,384.6L564.6,384.6z"/>
	<path class="st47" d="M652.7,403c0.3-6.9-0.5-13.8,0.8-20.6c0.4,3.8,0.6,7.6,0.5,11.5c-0.2,6.5,0.4,13-0.5,19.5
		C652.8,410,652.5,406.5,652.7,403L652.7,403z"/>
	<path class="st48" d="M158.1,391.4c2.1-1.2,0.3,3.2-0.3,0.7L158.1,391.4L158.1,391.4z"/>
	<path class="st49" d="M781.3,405c-0.7-3.7-0.8-7.5,0.3-11.2C782.2,397.5,782.2,401.3,781.3,405L781.3,405z"/>
	<path class="st9" d="M609.2,405.2c5.5-3.3,12.2-3.7,18.4-4c-0.1,3.3,0.3,6.7-0.2,10c-3.9,4.8-10.5,7.5-16.6,6
		C605.7,415.9,604.5,407.7,609.2,405.2L609.2,405.2z M681.1,405.2c5.5-3.3,12.2-3.7,18.5-4c0,3.3,0,6.7,0,10
		c-4.4,4.3-10.5,7.6-16.8,6C677.7,415.9,676.4,407.8,681.1,405.2L681.1,405.2z"/>
	<path class="st50" d="M1107.4,405.5c5.6-3.7,12.6-4,19.1-4.3c0,3.3,0,6.6,0,9.8c-3,2.7-6.2,5.5-10.3,6.2c-3.7,0.7-8.5,0.6-10.5-3.1
		C1104.7,411.3,1104.6,407.4,1107.4,405.5L1107.4,405.5z M1877.1,405.2c5.5-3.2,12.2-3.7,18.4-3.9c0,3.3,0,6.6,0,9.9
		c-4.3,4.3-10.3,7.6-16.6,6.1C1873.5,416.2,1872.3,407.7,1877.1,405.2L1877.1,405.2z"/>
	<path class="st45" d="M1280.8,425c0.1-3.7,3.5-5.7,6.2-7.5c6.3,1.4,13.1,0.1,19.2,2.3c3.9,1.2,3.4,6.9,0.7,9.1
		c-4.8,4.4-11.8,4.4-17.8,3.5C1285.3,431.7,1280.9,429.4,1280.8,425L1280.8,425z"/>
	<polygon class="st51" points="5,5 1983,5 1983,535 5,535 5,5 	"/>
	<path class="st52" d="M467.9,116c5.3-0.7,10.7-0.3,16.1-0.4c42,0,84,0,126,0c2,0,4,0.2,6,0.5l-1.3,0.3c-5.5,1.2-11.1,0.6-16.6,0.7
		c-36.3,0-72.6,0-109,0c-6.4-0.1-12.9,0.5-19.3-0.6L467.9,116L467.9,116z"/>
	<path class="st53" d="M112.2,115.6c22.9-0.1,45.9,0,68.8-0.1c7.5-0.1,15,0.4,22.3,2c-29.9-0.4-59.9-0.3-89.8-0.2
		c-0.2,49.6,0,99.2-0.1,148.7c0.1,11.2-0.1,22.3,0.1,33.5c21.1,0.3,42.3,0,63.4,0.2c10.2,0.2,20.3-1.5,30.4-1.8
		c-7.2,2.4-14.9,2.5-22.4,2.8c-24.3,0.1-48.5,0.1-72.8,0C112.2,239,112.2,177.3,112.2,115.6L112.2,115.6z"/>
	<path class="st54" d="M285.4,300.6c24.4-61.6,48.6-123.4,73-185c11.7,0,23.3,0,35,0c20.4,51.4,40.4,102.8,60.7,154.2
		c4,10.3,8.2,20.4,12,30.8c-9.3,0-18.6,0.2-27.9,0c-6-0.2-9.8-5.8-11.3-11.1c-4.1-11.4-8.4-22.8-12.5-34.3c-25.6,0-51.3-0.1-76.9,0
		c-4.2,11.6-8.5,23.1-12.7,34.7c-1.4,6.2-7,11.6-13.7,10.8C302.4,300.6,293.9,300.8,285.4,300.6L285.4,300.6z"/>
	<path class="st54" d="M469.7,116.4c6.4,1.1,12.9,0.5,19.3,0.6c36.3,0,72.6,0,109,0c5.5-0.1,11.2,0.5,16.6-0.7
		c0.4,9.1,0.1,18.3,0.2,27.4c-18.5,0-37,0-55.5,0c-0.5,15.1-0.1,30.2-0.1,45.3c-0.2,12.3,0.3,24.6-0.3,36.9c0.6,20,0.1,40,0.3,60
		c0,4.9,0.1,9.9-0.5,14.8c-11.3,0-22.6-0.1-33.9,0.1c1.9-5.8,1.1-11.9,1.1-17.8c0.1-28.3,0-56.7,0-85c-0.1-17.7,0.3-35.3-0.2-53
		c-0.3-0.1-0.9-0.4-1.2-0.5c-3.1-1.1-6.4-0.6-9.6-0.7c-15.4,0-30.9,0.1-46.4,0c0-9.2-0.1-18.3,0-27.5L469.7,116.4L469.7,116.4z"/>
	<path class="st54" d="M617.2,300.6c24.3-61.7,48.6-123.4,73-185c11.7,0,23.3,0,35,0c24.4,61.6,48.6,123.3,72.8,185
		c-9.3,0.1-18.6,0.1-27.8,0c-5.1-0.1-9.1-4.3-10.7-8.8c-4.4-12.2-9-24.3-13.3-36.5c-25.7-0.1-51.4-0.1-77.1,0
		c-3.9,11.5-8.4,22.9-12.5,34.4c-1.3,3.6-2.9,7.6-6.5,9.5c-2.7,1.7-6.1,1.5-9.2,1.6C633,300.6,625.1,300.8,617.2,300.6L617.2,300.6z
		"/>
	<path class="st54" d="M113.5,117.3c29.9-0.1,59.9-0.2,89.8,0.2c17.4,3,34.1,11.1,46.8,23.4c14.5,13.9,23.4,33.2,25.9,53.1
		c2.5,21.1-0.3,43.4-11,62.1c-11.7,21.6-33.6,37.2-57.6,41.9c-10.2,0.3-20.2,2-30.4,1.8c-21.2-0.2-42.3,0.1-63.4-0.2
		c-0.3-11.2-0.1-22.3-0.1-33.5C113.5,216.5,113.3,166.9,113.5,117.3L113.5,117.3z"/>
	<path class="st55" d="M908.1,125.3c12.4-7.4,27.6-9.1,41.8-6.8c11.8,1.6,22.9,6.9,31.7,14.9c0.7,0.8,1.7,1.5,2.1,2.5
		c-0.8,2.7-2.4,5.1-3.7,7.5c-3.2,0.7-5.9-1.1-8.1-3.2c-9.1-7.6-20.9-12.1-32.8-11.8c-12-0.4-24.8,3.4-32.7,12.8
		c-6.1,7-8.8,16.5-7.9,25.7c0.2,9.1,6.3,17,13.7,21.9c11.6,7.7,25.5,10.4,38.4,15.4c12.8,4.5,26.4,10.5,33.5,22.8
		c5.5,8.6,5.3,19.1,4.6,28.9c-1.8,15-10.1,29.4-23,37.4c-14.1,9.2-31.9,10.8-48.2,8.3c-14.8-2.1-28.1-10.2-38.3-20.9
		c-2-1.7-0.2-4.1,0.9-5.7c1.1-2,3.1-3.1,5.1-3.9c6.5,5.1,12.5,11,20,14.7c11.3,5.9,24.5,6.9,37,5.1c10-1.8,19.7-6.8,26.1-14.9
		c7.5-9.5,10.1-22.3,7.9-34.1c-1.5-7.3-6.4-13.5-12.5-17.7c-7.5-5.4-16.4-8-25-10.9C926,209.2,912.8,206,902,198
		c-9-6.4-15.3-17-15.7-28.1c-0.3-6.8-0.4-13.9,2-20.4C891.7,139.4,898.8,130.6,908.1,125.3L908.1,125.3z"/>
	<path class="st56" d="M1090.4,118.6c14.3-2.2,29.1-1.1,43,3.1c15,4.8,28.9,13.8,38.5,26.3c14,17.7,20.1,40.6,19.6,62.9
		c0.2,22.6-6.5,45.8-21.2,63.3c-10.3,12.2-24.6,20.9-39.9,25.1c-26.1,6.8-55.7,3.3-77.6-13.1c-23.5-17.4-35-47.6-33.7-76.2
		c-1.2-26.6,8.7-54.3,28.9-72.1C1059.8,127.6,1074.8,120.8,1090.4,118.6L1090.4,118.6z"/>
	<path class="st55" d="M1285.4,120.3c4.8-1.3,9.7-1.7,14.6-2.6c6-0.3,12.1-0.3,18.1,0c18.4,1.7,36.4,9.3,49.9,22
		c-1.6,2.3-3.3,4.7-4.9,7c-2.2,0-4.4-0.3-6-1.9c-8.7-6.8-18.9-11.6-29.7-14.2c-8.3-2.1-16.9-1.6-25.4-1.5
		c-19.5,1-38.6,10.6-50.5,26.2c-10.2,13.3-15.4,30-16.5,46.6c-1.5,20.9,2.4,43,14.6,60.4c10.8,15.7,28.6,26.1,47.4,28.3
		c18.6,2.1,38.8-0.3,54.4-11.4c4.1-2.6,7.4-6.3,11.5-8.9c3.8-0.7,5.6,3.8,8.3,5.8c-10.2,11.8-24.3,19.9-39.3,23.5
		c-15.7,3.8-32.2,3.8-48,0.3c-16-4.2-30.9-13-41.5-25.7c-14.7-17.5-21.3-40.8-21.1-63.5c-0.5-22.3,6-45.1,20-62.7
		C1252.3,134.4,1268.2,124.7,1285.4,120.3L1285.4,120.3z"/>
	<path class="st52" d="M1919.6,120c10.3-2.4,21.5,4.9,23.9,15.1c3.1,10.4-4.4,22-14.7,24.7c-11.9,3.7-25.3-6.4-25.6-18.7
		C1902.4,131.3,1910,121.9,1919.6,120L1919.6,120z"/>
	<path class="st56" d="M1406.7,119.6c4.3,0,8.7,0,13,0c0.2,60.4,0.1,120.7,0.1,181.1c-4.4,0-8.7,0-13.1,0
		C1406.7,240.3,1406.7,180,1406.7,119.6L1406.7,119.6z"/>
	<path class="st57" d="M1473.2,119.6c36.1,0,72.3,0,108.4,0c0.1,3.7,0,7.3,0,10.9c-31.7,0.1-63.5,0-95.2,0c-0.1,24.4,0,48.7,0,73
		c26.4,0.1,52.8,0,79.2,0c0,3.6,0,7.2,0,10.8c-26.4,0.1-52.8,0-79.2,0c0,25.1-0.1,50.3,0.1,75.4c4.5,2.4,9.7,1.3,14.5,1.4
		c26.4,0,52.9-0.1,79.3,0.1c0.4,2,0.9,3.9,1.3,5.9c0.1,1.1,0.2,2.3,0.3,3.4c-36.2,0.1-72.4,0-108.6,0.1
		C1473.2,240.3,1473.1,179.9,1473.2,119.6L1473.2,119.6z"/>
	<path class="st58" d="M1599.2,130.7c0-3.6,0-7.2-0.1-10.9c2.2,0.7,4.5,1.4,6.9,1.5c44.2-0.3,88.4,0.1,132.6-0.2
		c0,2.8-0.1,5.7-0.1,8.5c-21.1,0.5-42.3-0.5-63.4,0.5c-0.9,10.3-0.3,20.6-0.4,30.8c0,41,0,82,0,123c0,5.6-0.7,11.5,1.4,16.8
		c-4.3-0.2-8.6-0.1-12.8-0.1c-0.1-51.3,0-102.5,0-153.8c-0.1-5.4,0.2-10.9-0.4-16.2C1641.6,130.8,1620.4,130.7,1599.2,130.7
		L1599.2,130.7z"/>
	<path class="st59" d="M1599.1,119.8c10.3-0.8,20.6-0.1,30.9-0.3c36.8,0.1,73.5-0.1,110.3,0.1c0,3.7,0,7.4,0,11.1
		c-21.3,0.5-42.6-0.4-63.8,0.5c0,54.6,0,109.2,0,163.8c0,1.9-0.2,3.9-0.4,5.8c-2.1-5.4-1.4-11.2-1.4-16.8c0-41,0-82,0-123
		c0.1-10.3-0.4-20.6,0.4-30.8c21.1-1,42.3,0,63.4-0.5c0-2.8,0-5.7,0.1-8.5c-44.2,0.3-88.4-0.1-132.6,0.2
		C1603.6,121.3,1601.3,120.6,1599.1,119.8L1599.1,119.8z"/>
	<path class="st56" d="M1746.7,119.6c3.8,0,7.6-0.2,11.5,0c2.5-0.1,4,2.2,5.3,4c15.4,24.9,31,49.7,46.5,74.5
		c3.8,6,7.7,12.1,10.3,18.8c2.8-6.5,6.2-12.7,10.2-18.6c13.1-20.9,26.1-41.9,39.2-62.8c3.2-4.8,5.8-10,9.4-14.6
		c4.2-2.7,9.8-0.9,14.5-1.3c-3.9,7.5-8.9,14.4-13.3,21.6c-17.3,27.4-34.6,54.9-51.9,82.3c-1,1.6-1.9,3.4-1.6,5.4
		c0,23.9,0,47.8,0,71.8c-4.4,0-8.8-0.1-13.2,0.2c0.3-17,0-33.9,0.1-50.9c-0.2-8,0.4-16.1-0.2-24.1
		C1791.4,190.3,1768.5,155.3,1746.7,119.6L1746.7,119.6z"/>
	<path class="st60" d="M1919.3,123.2c10.4-3.2,22.3,5.8,21.6,16.8c0.6,9.6-8.5,18-17.9,17.4c-8.7-0.2-16.4-7.7-16.6-16.4
		C1905.7,132.9,1911.4,125.1,1919.3,123.2L1919.3,123.2z"/>
	<path class="st61" d="M1916.3,128.3c4.3,0.1,8.7-0.5,13,0.5c3.5,1.3,4.1,5.6,3.1,8.8c-1,2.2-3.4,3.1-5.2,4.3
		c2.3,3.3,4.6,6.6,6.7,10.1c-1.2-0.1-2.3-0.3-3.4-0.5c-2.7-3-4.6-6.6-7-9.9c-1.4,0-2.8,0-4.1,0c0,3.4-0.1,6.8-0.1,10.1
		c-1,0-2,0.1-2.9,0.1C1916.2,143.9,1916.3,136.1,1916.3,128.3L1916.3,128.3z"/>
	<path class="st51" d="M1062.5,141.6c12.3-8.7,27.5-12.9,42.5-12.5c18.7-0.7,38.1,6.1,51.2,19.7c9.8,9.7,15.9,22.6,19,35.9
		c3,11.8,2.8,24.2,2.3,36.3c-1.4,17-7.1,34.1-18.3,47.1c-8.1,9.6-19.1,16.4-31.1,19.9c-13.2,3.8-27.3,4.2-40.7,1.3
		c-13.1-2.8-25.5-9.3-34.6-19.2c-12.3-12.9-18.6-30.6-20.2-48.2c-0.8-14-0.7-28.4,3.5-41.9C1040.5,164.9,1049.4,150.8,1062.5,141.6
		L1062.5,141.6z"/>
	<path class="st62" d="M1919.3,130.8c3.3,0.4,7.7-0.8,10,2.3c0.1,1.4,0.2,2.8,0.3,4.2c-3.3,1.4-6.8,1.6-10.3,1.5
		C1919.3,136.1,1919.3,133.4,1919.3,130.8L1919.3,130.8z"/>
	<path class="st51" d="M146.8,143.2c12.7-0.1,25.5,0,38.2,0c15.5,0,31.4,6.2,41.6,18.2c11,12.7,14.9,30.1,14.9,46.6
		c0.1,16.5-3.7,33.9-14.7,46.8c-7.7,9.3-19,15-30.6,17.5c-16.4,2.1-32.9,0.7-49.3,1.1C146.8,230,146.8,186.6,146.8,143.2
		L146.8,143.2z"/>
	<path class="st52" d="M524.6,144.5c0.3,0.1,0.9,0.4,1.2,0.5c0.4,17.7,0,35.3,0.2,53c0,28.3,0.1,56.7,0,85c0,5.9,0.8,12.1-1.1,17.8
		c-0.4-2.9-0.4-5.9-0.4-8.8C524.6,242.8,524.4,193.7,524.6,144.5L524.6,144.5z"/>
	<path class="st51" d="M375.9,147.6c2.1,8.4,4.8,16.5,8,24.6c7.1,19.5,14.4,39,21.4,58.6c-19.6,0.1-39.2,0.1-58.9,0
		c7.7-20.8,15.2-41.6,22.9-62.4C371.9,161.5,373.8,154.5,375.9,147.6L375.9,147.6z"/>
	<path class="st51" d="M707.8,147.6c2,8.9,5.1,17.5,8.4,26c6.9,19,14,38,20.9,57.1c-19.6,0.1-39.2,0.1-58.8,0
		c7.9-21.6,15.8-43.1,23.7-64.7C704.2,160,705.8,153.7,707.8,147.6L707.8,147.6z"/>
	<path class="st63" d="M1814.5,225.3c1.6,6.8,0.7,13.8,0.9,20.7c-0.1,18,0.3,36-0.2,54c-0.2-0.1-0.7-0.2-1-0.3
		c-0.5-12.9,0-25.9-0.2-38.8C1814.3,249.1,1813.4,237.2,1814.5,225.3L1814.5,225.3z"/>
	<path class="st64" d="M1486.5,289.9c32-0.6,64-0.2,96-0.2c-0.2,2.5-0.5,5-0.8,7.5c-0.4-2-0.9-3.9-1.3-5.9
		c-26.4-0.2-52.8,0-79.3-0.1C1496.2,291.1,1490.9,292.2,1486.5,289.9L1486.5,289.9z"/>
	<path class="st65" d="M80.3,421.9c0-21.7-0.1-43.4,0-65.1c2,0,4.1,0,6.1,0c0.1,8.4,0,16.8,0.1,25.2c3.2-2.3,6.5-4.9,10.5-5.4
		c5.1-0.7,11.1-0.4,14.8,3.6c3.5,3.7,4.6,9,4.6,13.9c0,9.2,0,18.4,0,27.6c-2,0.2-4.1,0.5-6.1,0.7c-0.4-9.8,0.1-19.6-0.2-29.3
		c-0.2-4.1-1.3-9.1-5.6-10.8c-6.6-2.7-13.8,1.2-18,6.3c0,11.1,0,22.1,0,33.2C84.4,421.8,82.4,421.8,80.3,421.9L80.3,421.9z"/>
	<path class="st53" d="M585.1,356.7c2.1,0,4.2,0,6.3,0c0,21.9,0.1,43.9,0,65.8c-1.9-0.3-3.8-0.7-5.6-1c0-1.4,0-2.8,0-4.1
		c1.4,1.4,2.9,2.8,4.4,4.1c0.5-21.2,0.2-42.5,0.1-63.8c-1.4,0-2.8,0.1-4.2,0.2c0.1,7.4,0,14.9-0.8,22.2
		C584.8,372.3,584.6,364.5,585.1,356.7L585.1,356.7z"/>
	<path class="st66" d="M1913.7,356.7c1.8,0,3.7,0,5.6,0.1c1.4,0.9,0.7,2.8,1,4.2c-0.1,15.7,0,31.3,0,47c0,4.8,0.3,9.7-0.6,14.4
		c-2-0.3-4-0.5-5.9-0.9C1913.7,400,1913.6,378.3,1913.7,356.7L1913.7,356.7z"/>
	<path class="st67" d="M391.8,358.4c2.2,0,5-0.9,6.6,1.2c2.1,2.2,1.4,6.1-1.3,7.5c-2,1.2-4.3,0.1-6.1-0.7c-0.5-1.2-0.9-2.4-1.4-3.6
		C390.3,361.3,391,359.9,391.8,358.4L391.8,358.4z"/>
	<path class="st68" d="M586.1,357.8c1.4-0.1,2.8-0.1,4.2-0.2c0,21.2,0.4,42.5-0.1,63.8c-1.5-1.4-3-2.7-4.4-4.1c0,1.4,0,2.7,0,4.1
		c-0.1-1.8-0.3-3.5-0.4-5.3c-4.2,3.8-9.5,7.1-15.5,6.4c-7.3,0-13.8-5.5-15.5-12.5c-2-8-2.1-17.1,2-24.5c3.2-5.9,9.8-9.9,16.6-9.4
		c4.5-0.4,8.6,1.6,12.2,3.9C586.2,372.7,586.2,365.3,586.1,357.8L586.1,357.8z"/>
	<path class="st69" d="M817.4,362.8c1.1-2.3,2.4-5.2,5.5-4.6c4.1-0.4,6.2,5.4,3.3,8c-1.9,2.3-5,1.3-7.3,0.2
		C818.4,365.2,817.9,364,817.4,362.8L817.4,362.8z"/>
	<path class="st68" d="M1145.6,358.6c1.9-0.6,4.4-0.8,5.9,0.9c1.6,1.4,1,3.8,1.2,5.8c-1.8,1.3-3.9,3-6.3,2.1
		C1142.4,366.4,1142,360.3,1145.6,358.6L1145.6,358.6z"/>
	<path class="st70" d="M1213.3,358.4c3.1-1.1,7,1,6.5,4.6c0.4,3.8-4.6,6-7.5,3.8C1209.3,364.9,1209.8,359.4,1213.3,358.4
		L1213.3,358.4z"/>
	<path class="st71" d="M1352.2,363.2c1.9-3.1,5.5-4.4,8.7-5.6c3,0,6,0.5,8.9,1.1c-0.1,1.5-0.3,3-0.4,4.5c-3.8,0.2-8.3-0.9-11.3,2
		c-3.2,3.5-2.6,8.6-2.6,13c4.7,0,9.3,0,14,0c0,1.7-0.1,3.4-0.1,5c-4.6,0-9.2,0-13.9,0.1c0,12.8,0,25.6,0,38.5c-2.1,0-4.2,0-6.2,0
		c0-12.8,0-25.5,0-38.3c-2.3-0.3-4.7-0.7-7-1c-0.1-1.4-0.2-2.7-0.3-4.1c2.4-0.2,4.8-0.4,7.2-0.6
		C1349.3,372.8,1349.2,367.4,1352.2,363.2L1352.2,363.2z"/>
	<path class="st72" d="M1612.5,362.5c3.1-4.1,8.6-5.2,13.5-4.9c1.2,0.4,2.4,0.9,3.6,1.3c-0.1,1.4-0.2,2.8-0.3,4.2
		c-3.9,0.2-8.8-1.1-11.7,2.3c-2.8,3.6-2.2,8.4-2.2,12.7c4.7,0,9.3,0,14,0c0,1.7,0,3.3,0,5c-4.6,0-9.3,0-13.9,0.1
		c0,12.8,0,25.7,0,38.5c-2.1,0-4.1,0-6.2,0c-0.1-12.8,0-25.6,0-38.3c-2.3-0.3-4.5-0.6-6.8-0.9c-0.3-1.4-0.6-2.7-0.9-4.1
		c2.5-0.2,5.1-0.5,7.6-0.8C1609.1,372.5,1609,366.8,1612.5,362.5L1612.5,362.5z"/>
	<path class="st73" d="M1757.4,358.4c3.1-1.1,7,1.1,6.5,4.6c0.4,3.8-4.6,6-7.4,3.8C1753.2,365,1753.8,359.3,1757.4,358.4
		L1757.4,358.4z"/>
	<path class="st54" d="M24.2,364.4c0-2-0.1-3.9-0.2-5.9c16.6-0.1,33.1,0,49.7,0c0,2,0,3.9,0,5.9c-7.1,0-14.2,0-21.4,0
		c0,15.5-0.1,31,0,46.5c0.3,3.9,0.6,7.8-0.2,11.7l0.1-1.1l0-0.5c0.3-8.7-0.6-17.3-0.3-26c-0.3-10.3,0.8-20.7-0.6-31
		c-1.3,8-0.6,16-0.7,24.1c-0.1,10.9,0.2,21.8-0.2,32.7c-0.8-0.1-2.3-0.3-3.1-0.4c-0.2-10.4,0-20.9-0.1-31.3
		c-0.1-8.3,0.5-16.6-0.7-24.8c-0.9,8.2-0.4,16.5-0.5,24.8c-0.1,10.8,0.1,21.5-0.1,32.3l-0.1,1.6c-0.6-19.5-0.1-39-0.3-58.4
		C38.5,364.4,31.3,364.4,24.2,364.4L24.2,364.4z"/>
	<path class="st74" d="M1045.7,362.8c1.1-1.6,3.2-1.1,4.8-1.4c0.1,5.5,0,11,0,16.5c4.5,0.5,9.1,0.4,13.7,0.4c0,1.1,0.1,3.4,0.1,4.5
		c-4.6,0.7-9.2,0.4-13.8,0.5c0,8.9,0,17.8,0,26.7c-0.1,2.2,0.6,4.3,1.1,6.3c1.4,0.3,2.8,0.7,4.3,0.8c2.6-0.2,4.5-2.7,7.1-2.7
		c1,1,1.7,2.2,2.5,3.4c-3.3,2.7-7.2,5.1-11.6,4.7c-4.8,0.3-9.5-3.7-9.5-8.7c-0.3-10.2,0-20.4-0.1-30.6c-2.3-0.1-4.6-0.1-6.9-0.1
		c-0.2-1.5-0.3-3.1-0.4-4.6c2.4-0.1,4.9-0.3,7.3-0.4C1044.8,373.1,1044.8,367.9,1045.7,362.8L1045.7,362.8z"/>
	<path class="st75" d="M649.6,362.7c1.2-1.5,3.2-1,4.8-1.4c0.1,5.5,0,11,0,16.5c4.6,0.6,9.2,0.4,13.8,0.5c0,1.6,0,3.3,0,4.9
		c-4.6,0-9.2,0-13.8,0c0,8.9,0,17.8,0,26.8c-0.1,2.2,0.5,4.3,1.2,6.4c2,0.2,4.2,1.4,6.1,0.3c1.8-0.6,3.3-2.4,5.3-2.1
		c1,1,1.7,2.2,2.5,3.4c-3.3,2.7-7.1,5.2-11.5,4.7c-4.9,0.3-9.5-3.7-9.5-8.6c-0.3-10.2,0-20.5-0.2-30.7c-2.2,0-4.5-0.1-6.7-0.1
		c-0.3-1.5-0.7-3-1-4.5c2.6-0.2,5.2-0.3,7.8-0.5C648.7,373,648.7,367.8,649.6,362.7L649.6,362.7z"/>
	<path class="st76" d="M46.6,364.2c1.2,8.2,0.6,16.6,0.7,24.8c0.1,10.4-0.1,20.9,0.1,31.3c0.8,0.1,2.3,0.3,3.1,0.4
		c0.4,0.1,1.3,0.2,1.8,0.2l0,0.5c-1.7,1.5-4.3,0.4-6.3,0.9l0-1.1c0.2-10.8,0-21.5,0.1-32.3C46.2,380.7,45.7,372.4,46.6,364.2
		L46.6,364.2z"/>
	<path class="st77" d="M50.7,388c0.1-8-0.6-16.1,0.7-24.1c1.4,10.3,0.3,20.7,0.6,31c-0.3,8.7,0.6,17.4,0.3,26
		c-0.4-0.1-1.3-0.2-1.8-0.2C50.9,409.9,50.6,398.9,50.7,388L50.7,388z"/>
	<path class="st67" d="M202.9,382.2c3.2-2.2,6.3-5,10.3-5.7c5.2-0.8,11.1-0.5,15.3,3.1c5.2,4.5,6.8,11.8,6.9,18.4
		c0.2,7.5-1.9,15.6-7.9,20.5c-6.8,5.6-17.4,5.5-24.1-0.2c0,6.3,0,12.7,0,19c-2,0-4.1,0-6.1,0.1c0-12.8-0.3-25.6-0.1-38.3
		c-0.3-7.5-0.6-15.1,0.2-22.6c1.7,0.2,3.5,0.6,5.2,1C202.6,379,202.8,380.6,202.9,382.2L202.9,382.2z"/>
	<path class="st78" d="M258.8,376.8c3.6-1,7.5-0.7,11,0.6c-0.4,1.8-0.8,3.5-1.2,5.3c-3.8-0.1-8.3-1.3-11.6,1.2
		c-3.5,2.9-5.9,7.5-5.7,12.1c0,8.5,0,17.1,0,25.6c-2,0.3-4,0.6-6,0.8c-0.8-15.3-0.4-30.6-0.1-46c1.8,0.2,3.6,0.6,5.3,0.9
		c0.1,1.7,0.2,3.4,0.4,5.1C253.3,380.4,255.6,377.9,258.8,376.8L258.8,376.8z"/>
	<path class="st79" d="M326.9,381.9c3-2.4,6-5.4,10.1-5.6c2.9-0.2,6-0.3,8.5,1.2c2.5,1.4,4,3.9,5.5,6.3c4.3-8.1,16-10.1,23-4.7
		c5.1,4.4,5.7,11.6,5.5,17.8c0,8.3,0,16.5,0,24.8c-2,0-4.1,0.1-6.1,0.1c-0.1-9.9,0.1-19.9-0.1-29.8c0-4.8-2.9-10.2-8.1-10.5
		c-6.1-1.1-11.8,4.5-11.7,10.5c-0.1,10,0,19.9,0,29.9c-2.1,0-4.1,0.1-6.1,0.2c-0.5-10.3-0.2-20.7-0.4-31c0.1-4.4-3-9.5-7.8-9.5
		c-4.9-0.5-8.7,3.2-11.6,6.6c-0.1,11.2-0.1,22.4,0,33.7c-2,0.2-4.1,0.5-6.1,0.7c-0.3-15.3-0.1-30.6-0.1-45.9
		c1.8,0.2,3.6,0.5,5.3,0.9C326.7,378.9,326.8,380.4,326.9,381.9L326.9,381.9z"/>
	<path class="st80" d="M471.3,376.3c3.2-1.1,6.4,0.1,9.4,1.1c-0.4,1.8-0.9,3.5-1.3,5.2c-3.8-0.1-8.2-1.3-11.5,1.2
		c-3.6,2.9-5.9,7.5-5.7,12.2c0,8.6,0,17.1,0,25.7c-2.2,0-6.4,1.9-6.5-1.6c-0.1-13.8-0.1-27.6,0-41.4c-0.5-2.8,2.5-2.3,4.3-2
		c2.5,1.1,1.2,4.4,1.7,6.5C464.1,380.1,467.2,377,471.3,376.3L471.3,376.3z"/>
	<path class="st81" d="M674.1,383.4c5.4-5.4,13.1-8.8,20.8-7c6.4,1,10.6,7.5,10.7,13.6c0.2,10.6,0.1,21.2,0.1,31.8
		c-1.6-0.1-3.3-0.3-4.9-0.4c-0.2-1.5-0.4-3.1-0.6-4.6c-4.5,3.1-9.5,6.2-15.2,5.9c-5,0.3-10.5-2.5-12.2-7.5
		c-1.1-4.3-0.9-9.6,2.9-12.5c6.7-5.4,15.7-6,24-6.4c-0.1-4,0.5-8.4-2.1-11.8c-2.5-3.4-7.4-3.6-11.1-2.6c-3.8,1.1-6.5,4.7-10.6,5.1
		C675.2,385.8,674.7,384.6,674.1,383.4L674.1,383.4z"/>
	<path class="st74" d="M746.5,377.6c7.1-2.9,15.8-1.7,21.6,3.5c-0.6,1.2-1.2,2.4-1.8,3.5c-0.5,0-1.6,0-2.2-0.1
		c-4.2-2.9-9.9-4.6-14.8-2.3c-2.4,0.9-3.7,3.4-4.8,5.5c0.4,1.2,0.7,2.4,1.1,3.6c5.6,4.6,13.5,4.5,19.3,8.7c5.7,4.2,4.9,13.4,0.1,18
		c-4.5,4.6-11.6,5.3-17.6,4.1c-3.7-0.9-6.8-3.1-9.8-5.3c0.6-1.2,1.3-2.4,1.9-3.6c0.6,0,1.8,0,2.4,0c3.2,2.3,6.9,4.5,11,4.2
		c3.7,0.2,7.7-1.6,9.4-5c0.9-2.7,1-6.4-1.8-8c-6.2-4.2-15.3-3.5-20-10C736.5,388.6,740.2,380.2,746.5,377.6L746.5,377.6z"/>
	<path class="st82" d="M889.8,382.6c4-4,9.4-6.9,15.2-6.4c5.7-0.4,11.2,3,13.4,8.2c2.4,6.2,1.8,13.1,1.8,19.6
		c-0.1,6.1,0.4,12.3-0.6,18.4c-2-0.2-4-0.5-6-0.7c0-9.9,0.1-19.8,0-29.7c0-4-1.8-8.5-5.8-9.9c-6.4-2.3-13.8,1.1-17.4,6.7
		c-0.4,11.1,0,22.3-0.2,33.4c-2.2,0-4.3,0-6.5,0c-0.1-14.7-0.1-29.4,0-44c0.1-2.2,2.8-1.5,4.3-1.4
		C890.2,377.9,889.4,380.6,889.8,382.6L889.8,382.6z"/>
	<path class="st81" d="M1085.5,376.7c3.4-0.9,6.9-0.4,10.3,0c0,1.9-0.1,3.9-0.3,5.8c-4.3,0-9.5-1.4-12.9,2
		c-3.2,3.2-5.1,7.9-4.9,12.4c0,8.3,0.1,16.5,0,24.8c-2.1,0-4.1,0-6.2-0.1c0-15-0.1-30,0-45c1.7,0,3.3,0,5,0c0.5,2.2,0.8,4.4,1.1,6.7
		C1079.4,380.4,1082,377.7,1085.5,376.7L1085.5,376.7z"/>
	<path class="st83" d="M1101.2,383.4c3.7-4.2,9.1-7.2,14.8-7.2c3.6-0.1,7.5,0,10.5,2.2c4.3,3,6.1,8.5,6.1,13.6c0,10,0,19.9,0,29.9
		c-1.7-0.1-3.3-0.3-5-0.4c-0.2-1.5-0.4-3.1-0.6-4.6c-6.1,4.4-14.1,7.8-21.5,4.6c-7.4-2.8-9.3-14-3-18.9c6.8-5.2,15.8-5.9,24-6.3
		c0-4.2,0.2-8.8-2.6-12.2c-3.7-3.9-10.2-3.3-14.4-0.4c-2.1,1.1-3.9,3.4-6.5,3.1C1101.9,386.1,1101.1,384.8,1101.2,383.4
		L1101.2,383.4z"/>
	<path class="st84" d="M1169.8,382.3c3.3-2.6,6.8-5.5,11.2-5.9c4.4-0.4,9.4-0.5,13,2.5c4,3,5.8,8.2,5.7,13.1
		c0,10.1,0.1,20.2-0.1,30.4c-2.1-0.3-4.1-0.5-6.1-0.8c-0.1-9.9,0.1-19.7-0.1-29.6c0-4-1.9-8.5-5.9-9.9c-6.2-2.3-13.1,1-16.9,6
		c-0.6,1.5-0.4,3.2-0.5,4.9c0.1,9.6,0,19.1,0.1,28.7c-2.2,0.1-4.4,0.1-6.6,0.1c0-15.1,0-30.2,0-45.2c1.8,0.4,4.3-0.5,5.5,1.4
		C1169.4,379.4,1169.6,380.9,1169.8,382.3L1169.8,382.3z"/>
	<path class="st54" d="M1236.8,382.2c3.9-2.8,8-6,13.1-6c4.8-0.4,10.1,0.6,13.3,4.6c4.5,5.3,4,12.7,4,19.2
		c-0.2,7.4,0.4,14.8-0.5,22.2c-1.8,0-3.6,0-5.4,0.1c-1.4-10.7,0-21.6-0.8-32.3c-0.4-3.3-2.4-6.7-5.7-7.8c-5.2-1.9-11.1,0.1-15,3.8
		c-1.1,1.1-2.8,2.2-2.6,4c-0.3,10.4,0.2,20.8-0.2,31.2c-1.3,1.8-3.9,0.8-5.8,1.2c-1-9.4-0.3-18.9-0.5-28.3
		c0.1-5.9-0.3-11.8,0.5-17.6c1.7,0.3,3.4,0.7,5.1,1.1C1236.6,379,1236.7,380.6,1236.8,382.2L1236.8,382.2z"/>
	<path class="st85" d="M1281.5,380.6c3.2-3.5,8.1-4.2,12.5-4.9c3.5,0.5,6.8,1.6,10.2,2.7c3.8,0.5,7.6,0.1,11.4,0.2c0,1,0,3,0,4
		c-2.1,0.5-4.3,0.8-6.5,1.1c0.9,3.7,2.1,7.6,0.8,11.3c-1.7,6.4-8.4,10.8-14.9,10.6c-3,0.2-6.1-0.8-9.1,0c-1.1,1.3-1.8,2.9-1.4,4.6
		c3.8,3.1,9,2.2,13.5,2.7c5.1,0.5,11,0.4,14.8,4.4c2.6,2.5,2.3,6.5,1.7,9.7c-1.5,4.2-5.2,7.4-9.2,9.1c-7.3,2.9-15.8,2.8-23-0.4
		c-4.2-1.8-7.7-6-7.1-10.7c-0.4-4,3.1-6.7,5.9-9c-1-1.9-2.5-3.7-2.5-6c-0.1-3.1,2.3-5.4,4-7.6C1276.2,397,1275.5,386.4,1281.5,380.6
		L1281.5,380.6z"/>
	<path class="st86" d="M1438.7,376.8c3.6-1,7.5-0.7,11,0.5c-0.4,1.8-0.7,3.6-1.1,5.4c-4.1-0.1-8.9-1.4-12.2,1.7
		c-3.2,2.9-5.3,7.2-5.1,11.6c-0.1,8.5,0.2,17-0.1,25.4c-1.6,1.3-3.9,0.7-5.8,1c-1.3-13.4-0.2-26.9-0.6-40.4c0.1-1.9,0.4-3.8,0.6-5.6
		c1.7,0.3,3.4,0.7,5.2,1.1c0.1,1.9,0.2,3.8,0.3,5.7C1433.2,380.7,1435.4,377.8,1438.7,376.8L1438.7,376.8z"/>
	<path class="st81" d="M1485.5,382.4c4.7-4.9,11.7-7.8,18.4-6c7.1,1.1,12,7.8,13.1,14.5c1.1,6.8,1.1,14-1.8,20.4
		c-2.9,6.6-9.8,11.5-17.2,11.3c-4.6,0.3-8.8-1.7-12.5-4.3c0,6.3,0,12.6,0,19c-2.1,0-4.1,0-6.2,0c-0.1-20.2-0.1-40.4,0-60.6
		c1.7,0,3.3,0.1,5,0.1C1484.8,378.7,1485.1,380.5,1485.5,382.4L1485.5,382.4z"/>
	<path class="st87" d="M1538.8,377.8c3.8-2.4,8.6-1.6,12.8-1c-0.1,1.9-0.2,3.9-0.3,5.8c-4.3,0-9.4-1.4-12.9,1.9c-3,3-5.1,7.2-5,11.6
		c0,8.6,0,17.3,0,25.9c-2.1-0.1-4.1-0.1-6.2-0.1c0-15.1-0.1-30.1,0-45.1c1.7,0,3.3,0,5.1,0.1c0.4,2.2,0.8,4.4,1.1,6.6
		C1534.9,381.2,1536.5,379,1538.8,377.8L1538.8,377.8z"/>
	<path class="st88" d="M1870,383.3c4.6-4.6,10.6-7.3,17.1-7.7c3.8,0.8,8,1.5,10.6,4.7c4.9,5.3,3.9,13,4,19.6c0,7.3,0,14.6,0,21.9
		c-1.7-0.1-3.3-0.2-4.9-0.3c-0.3-1.6-0.5-3.1-0.7-4.7c-5.7,4.3-13.1,7.5-20.3,5.1c-6.2-1.7-9.7-9.5-7-15.3c1.3-3.4,4.6-5.5,7.8-7
		c6-2.5,12.6-3.1,19.1-3.4c-0.1-4.2,0.3-9-2.6-12.4c-2.7-2.9-7.2-3-10.8-2c-3.8,1.1-6.4,4.6-10.4,5.1
		C1871.1,385.8,1870.6,384.6,1870,383.3L1870,383.3z"/>
	<path class="st89" d="M137.4,377.7c4.3-1.9,9.2-1.8,13.7-1c9.3,2.1,14.9,13,12.5,21.9c-10.7,0.3-21.5-0.2-32.2,0.3
		c0.5,4.9,1.2,10.2,4.7,14.1c3.8,4.2,10.1,5,15.4,3.7c3.1-0.7,5.6-2.8,8.6-4c1.9-0.3,3.1,1.7,2.9,3.4c-2.6,3.4-6.8,4.9-10.8,5.9
		c-7.4,1.8-16.1,0.1-21.1-5.9c-5.3-6.3-6.4-15.2-5.1-23.1C127.1,386.5,131.1,380.3,137.4,377.7L137.4,377.7z"/>
	<path class="st71" d="M277.2,384.2c6.7-10.3,24.3-11.2,31.2-0.7c3.2,4.3,3.6,9.8,3.2,15c-10.8,0.4-21.6,0.1-32.4,0.2
		c0.1,6.6,2.2,14.5,8.9,17.3c6.8,3,14.1,0.1,19.9-3.7c0.8,0.5,1.5,1,2.3,1.5c0.2,0.6,0.5,1.7,0.7,2.2c-6.6,6.1-16.7,8.2-25.1,5
		c-6.6-2.5-10.9-8.9-12.2-15.6C272.6,398.3,272.8,390.3,277.2,384.2L277.2,384.2z"/>
	<path class="st90" d="M391.6,376.7c2,0,4.1,0,6.1,0c0,15.2,0.2,30.5-0.1,45.7c-2-0.2-4-0.5-6.1-0.7
		C391.6,406.7,391.5,391.7,391.6,376.7L391.6,376.7z"/>
	<path class="st84" d="M412.1,384c6.7-10,23.8-10.9,30.9-0.9c3.2,4.4,4.1,10.1,3.6,15.4c-10.8,0.4-21.5,0.1-32.3,0.2
		c0,4.9,0.7,10.2,4.1,14c3.4,4,9,5.2,14,4.3c4-0.6,7.4-3,11-4.8c1,1.2,1.9,2.4,2.8,3.6c-7,6.6-18,8.8-26.8,4.7
		c-4.4-2-7.6-6-9.4-10.3C406.7,401.8,406.9,391.6,412.1,384L412.1,384z"/>
	<path class="st87" d="M486.3,387.2c2.6-5.8,8.3-10.3,14.7-10.9c5-0.5,10.5-0.1,14.5,3.1c5.8,4.3,7.9,12,7.1,19
		c-10.8,0.5-21.6,0.1-32.4,0.2c0.1,4.9,0.9,10.1,4.2,13.9c3.4,4.1,9.3,5.3,14.4,4.3c3.8-0.7,7-2.9,10.3-4.6c0.5,0.4,1.6,1.2,2.1,1.6
		c0.2,0.5,0.5,1.6,0.7,2.2c-6.8,6.2-17.3,8.4-25.8,4.8c-6.7-2.9-10.9-9.9-11.6-16.9C483.9,398.4,483.8,392.4,486.3,387.2
		L486.3,387.2z"/>
	<path class="st85" d="M602.1,383.7c4.6-4.9,11-8.3,17.9-7.5c7.6-0.5,13.6,6.5,13.6,13.8c0.3,10.6,0.1,21.3,0.1,31.9
		c-1.7-0.1-3.3-0.3-5-0.4c-0.2-1.6-0.4-3.2-0.5-4.7c-5.9,4.9-14.4,8-21.8,4.6c-7.3-3-8.7-14.5-2.2-19.1c6.7-4.9,15.4-5.5,23.5-5.9
		c-0.1-4,0.5-8.5-2.1-11.8c-2.8-3.7-8.4-3.8-12.4-2.1c-3.2,1.3-5.6,4.3-9.2,4.6C603.3,385.9,602.7,384.8,602.1,383.7L602.1,383.7z"
		/>
	<path class="st68" d="M776.1,393.1c1.1-6.8,5.5-13.1,12-15.6c7.7-2.7,16.9-1.4,22.9,4.5c-1,1-2,2.2-3.2,3
		c-3.7-0.9-6.8-3.9-10.8-3.6c-6.2-0.6-12.2,3.7-13.9,9.6c-1.4,3.5,0,7.2-0.7,10.8c-0.8,6.9,4,14.4,11.2,15.3
		c5.3,1.1,10.3-1.7,14.3-4.8c0.8,0.5,1.6,1,2.4,1.5c0.1,0.6,0.4,1.8,0.6,2.3c-7.1,7.4-20.1,8.9-28.1,2.1
		C775.9,412.1,774.4,401.8,776.1,393.1L776.1,393.1z"/>
	<path class="st91" d="M819.6,376.7c2,0,4,0,6.1,0c0.1,15,0,30.1,0,45.1c-2,0-4.1,0-6.1-0.1C819.6,406.7,819.5,391.7,819.6,376.7
		L819.6,376.7z"/>
	<path class="st84" d="M838.2,387.3c2.6-5.8,8.4-10.4,14.9-10.9c5-0.5,10.5,0,14.5,3.2c5.7,4.3,7.8,12,7,18.9
		c-10.8,0.5-21.6,0.1-32.3,0.2c0,4.9,0.8,10.1,4.1,14c3.3,3.9,8.8,5.2,13.7,4.4c4.1-0.5,7.6-3,11.2-4.8c1,1.2,1.9,2.4,2.8,3.6
		c-4.9,4.5-11.5,7-18.2,6.7c-7.1,0.1-14-4-17.1-10.4C835.1,404.5,834.7,395.1,838.2,387.3L838.2,387.3z"/>
	<path class="st81" d="M941.4,377.6c7.6-2.8,16.7-1.6,22.8,4c-0.9,1.3-1.3,3.6-3.3,3.4c-3.3-1.1-6.3-3.6-9.9-3.5
		c-5.6-0.6-11.5,2.6-13.6,7.9c-2.8,6.8-2.7,15,0.7,21.6c3.3,6.2,11.7,8.1,17.8,5c2.1-1.1,4-2.6,6.3-3.5c1.1,1,2,2.2,2.9,3.4
		c-7.8,8.3-22.8,9.6-30.5,0.6c-5.4-6.5-6.1-15.5-4.8-23.5C930.9,386.4,935.1,380.1,941.4,377.6L941.4,377.6z"/>
	<path class="st92" d="M970.7,393c1.1-7.6,6.7-14.5,14.3-16.3c5.8-1.1,12.5-0.9,17.2,3.2c5.5,4.4,7.4,11.9,6.5,18.6
		c-10.8,0.4-21.6,0-32.3,0.2c0.2,4.8,0.9,10,4.2,13.8c3.2,4,8.7,5.2,13.5,4.5c4.3-0.5,7.8-3.2,11.8-4.7c0.8,1.1,1.6,2.1,2.5,3.2
		c-8.2,9.1-24.9,9.9-32.9,0.2C970.2,409.4,969.6,400.7,970.7,393L970.7,393z"/>
	<path class="st73" d="M1144.8,421.6c0.2-15-0.5-30,0.4-44.9c1.8,0,3.7,0,5.6,0c0.9,10.8,0.2,21.6,0.4,32.4c0,4.5,0.1,9-0.5,13.4
		C1148.7,422.2,1146.7,421.9,1144.8,421.6L1144.8,421.6z"/>
	<path class="st93" d="M1212.2,376.7c2,0,4.1,0,6.1,0c0.1,15,0,30,0,44.9c-2,0.2-4.1,0.5-6.1,0.7c-0.4-13.4,0.2-26.9-0.4-40.3
		C1211.9,380.2,1212.1,378.5,1212.2,376.7L1212.2,376.7z"/>
	<path class="st85" d="M1386.3,377.5c4-1.6,8.4-1.5,12.6-1c7.6,1,13.7,7.4,15.4,14.7c1.9,7.9,1.4,17-3.5,23.9c-6,8.3-18.3,9.8-27,5
		c-6.2-3.3-9.2-10.3-10-16.9C1372.7,393.3,1376.4,381.3,1386.3,377.5L1386.3,377.5z"/>
	<path class="st75" d="M1567.5,377.7c4.6-1.9,9.8-1.8,14.6-1c8,1.7,13.5,9.3,14.5,17.1c0.7,6.7,0.6,13.9-3.1,19.8
		c-6.8,11.8-26.3,12.1-33.9,0.9c-4.5-6.7-5.1-15.5-3.2-23.1C1557.8,385.4,1561.8,380,1567.5,377.7L1567.5,377.7z"/>
	<path class="st87" d="M1634.9,390c2-6.9,8-12.6,15.1-13.6c4.8-0.5,10-0.4,14.1,2.3c5.8,3.6,8.5,10.8,8.3,17.4
		c0.3,1.5-1.1,2.8-2.5,2.5c-9.9,0.1-19.9,0-29.8,0c-0.2,4.5,0.4,9.3,3.2,13c3.3,4.9,9.9,6.4,15.4,5.2c3.8-0.6,6.8-3.2,10.4-4.4
		c1,1,3.5,2.7,1.7,4.1c-8.4,7.9-23.9,8.5-31.7-0.6C1633.4,408.8,1632.3,398.6,1634.9,390L1634.9,390z"/>
	<path class="st74" d="M1679.4,389.1c-0.3-5.4,3.8-10.2,8.7-11.9c7.1-2.1,15.7-1.1,20.9,4.7c-1.3,1.3-2.8,4-4.9,2.3
		c-4.6-2.9-11-4.3-15.8-1c-2.5,1.5-2.9,4.5-3,7.2c5.5,6.3,15.1,4.9,21,10.5c5.4,4.8,3.6,14.3-1.9,18.4c-7.3,5.4-18.4,4.4-25.1-1.7
		c-1.8-1.1,0.4-3,0.6-4.5c5,0.6,8.7,5.4,14.1,4.4c6.1,0.7,12.1-6.3,8.4-11.8c-4.1-4-10.3-4.2-15.3-6.6
		C1682.9,397.5,1679.1,393.7,1679.4,389.1L1679.4,389.1z"/>
	<path class="st74" d="M1723.6,377.7c7.2-3,16.4-2,22,3.7c-0.5,0.8-1.4,2.5-1.8,3.3c-3-0.3-5.5-2.2-8.3-3.1
		c-3.9-0.8-8.5-0.6-11.4,2.5c-1.8,1.6-1.6,4.1-1.9,6.2c5.8,6.5,16.2,4.9,21.9,11.5c4.9,6,1.5,15.9-5.3,18.9c-7.8,4-17.5,1.7-23.9-4
		c1.1-1.3,1.8-4.2,4.1-3.4c3.5,1.7,6.8,4.5,11,4.2c4.7,0.5,9.9-2.5,10.4-7.5c0.7-3.9-3-6.4-6.2-7.5c-5.7-2.2-12.8-2.9-16.4-8.3
		C1714.2,388.4,1717.6,380.4,1723.6,377.7L1723.6,377.7z"/>
	<path class="st94" d="M1756.2,400c-0.3-7.8-0.9-15.6,0.1-23.3c2,0,4,0.1,6.1,0.1c0.1,15,0,29.9,0,44.9c-2,0.3-4,0.5-5.9,0.8
		C1755.2,415,1755.9,407.5,1756.2,400L1756.2,400z"/>
	<path class="st95" d="M1784.4,377.7c4.2-1.8,9-1.7,13.6-1.1c8.1,1.3,14.1,8.5,15.3,16.4c1,7.1,0.8,14.9-3.2,21
		c-6.9,11.2-25.4,11.6-33.1,1.1c-4.6-5.9-5.1-13.9-4.2-21.1C1773.6,387.1,1777.8,380.4,1784.4,377.7L1784.4,377.7z"/>
	<path class="st68" d="M1823.5,376.7c1.6,0,3.3,0,5,0.1c0.4,1.9,0.8,3.8,1.1,5.7c4.3-4.2,10.2-7,16.4-6.2
		c7.4-0.2,13.1,6.7,13.4,13.8c0.4,10.6,0,21.2,0.2,31.8c-2.1,0-4.1,0-6.2,0c-0.1-9.3,0-18.6,0-27.8c0-3.6-0.5-7.5-3.2-10.1
		c-3.1-2.9-7.9-3-11.7-1.6c-3.6,1.2-6.3,3.9-8.8,6.6c0.1,10.9,0,21.8,0,32.7c-0.7,0.2-2,0.6-2.6,0.8c-1.2-0.3-2.4-0.5-3.6-0.8
		C1823.5,406.6,1823.4,391.6,1823.5,376.7L1823.5,376.7z"/>
	<path class="st74" d="M1934.7,379.7c4.4-3.9,10.8-4,16.3-3.1c3.4,0.6,6.2,2.7,8.7,4.9c-0.5,0.8-1.4,2.5-1.8,3.3
		c-3-0.4-5.5-2.2-8.3-3.1c-3.9-0.9-8.5-0.5-11.4,2.5c-1.7,1.6-1.6,4-1.9,6.1c5.6,6.4,15.7,4.9,21.5,11c5.2,5.4,2.6,15.2-3.6,18.8
		c-7.4,4.3-17.5,3.2-23.8-2.5c-2.4-1.4,0.7-4.6,2.6-4.3c3.1,1.3,5.7,3.8,9.1,4.1c3.6,0.4,7.9,0,10.5-2.9c2.4-2.6,3.1-7.5-0.1-9.7
		c-5.8-4.2-14-3.7-19.2-8.9C1928.6,391.5,1929.9,383.5,1934.7,379.7L1934.7,379.7z"/>
	<path class="st96" d="M138.3,383.3c5.9-3.7,15.2-2.5,18.4,4.2c1.5,2,0.5,4.4-0.5,6.4c-8.1-0.2-16.2,0-24.3-0.2
		C133,389.7,134.6,385.4,138.3,383.3L138.3,383.3z"/>
	<path class="st60" d="M418.3,385.3c4.9-5.4,14.6-5.7,19.4-0.1c2,2.3,2.6,5.5,3.2,8.5c-8.9,0.1-17.8,0.1-26.7,0
		C415.3,390.8,416.1,387.6,418.3,385.3L418.3,385.3z"/>
	<path class="st60" d="M493.5,386.4c4.2-5.9,13.8-7.1,19.3-2.3c2.7,2.4,3.7,6.1,4.2,9.6c-8.8,0.1-17.6,0.1-26.3,0
		C491.3,391.2,491.9,388.5,493.5,386.4L493.5,386.4z"/>
	<path class="st60" d="M846.3,385.4c4.7-5.2,14-5.8,19-0.7c2.4,2.4,3.1,5.8,3.7,9c-8.9,0.1-17.8,0.2-26.7,0
		C843.3,390.8,844.1,387.7,846.3,385.4L846.3,385.4z"/>
	<path class="st60" d="M980.4,385.5c4.7-5.3,13.9-5.9,19-0.9c2.4,2.4,3.2,5.8,3.7,9.1c-2.7,0.1-5.4,0.1-8.1,0.1
		c-6.1,0-12.2,0-18.3,0C977.5,390.8,978.3,387.8,980.4,385.5L980.4,385.5z"/>
	<path class="st96" d="M1289.5,381.8c3.9-1,8.7-1.1,12,1.8c5.1,4.4,3.9,14.1-2.7,16.4c-4.2,1.4-9.5,1.2-12.8-2
		C1281.4,393.3,1282.9,383.9,1289.5,381.8L1289.5,381.8z"/>
	<path class="st51" d="M1390.6,381.8c4.9-1.1,10.6-0.3,14.1,3.6c4.1,4.4,4.4,10.8,4.1,16.5c-0.1,5.5-2.6,11.6-7.9,14
		c-5.5,2.4-12.8,1.6-16.8-3.2c-4.2-5.3-4.2-12.6-3.4-19C1381.4,388.4,1385.1,383.1,1390.6,381.8L1390.6,381.8z"/>
	<path class="st51" d="M1485.6,388.9c3.1-3.8,7.3-7.5,12.5-7.5c5.3-0.5,10.6,3,12,8.1c1.9,6.8,2.1,14.5-1.2,20.9
		c-2.7,5.4-9.2,7.8-14.9,6.5c-3.5-0.5-6.1-3.1-8.4-5.5C1485.6,403.9,1485.6,396.4,1485.6,388.9L1485.6,388.9z"/>
	<path class="st51" d="M1572.6,381.7c4.6-1,10-0.2,13.4,3.3c3.6,3.7,4.6,9,4.6,13.9c0.1,4.4-0.6,8.9-3,12.7
		c-5.1,7.9-18.9,7.5-23.3-0.9c-3.2-6.6-3.3-14.5-0.7-21.3C1565.2,385.6,1568.5,382.6,1572.6,381.7L1572.6,381.7z"/>
	<path class="st97" d="M1643.2,386.3c4.6-6.3,15.4-7.1,20.4-0.9c1.9,2.3,2.5,5.4,3.2,8.2c-8.9,0.2-17.8,0.2-26.7,0
		C1640.9,391.1,1641.6,388.5,1643.2,386.3L1643.2,386.3z"/>
	<path class="st51" d="M1789.4,381.7c4.2-0.8,9-0.3,12.5,2.5c3.6,2.9,5,7.6,5.4,12c0.4,5.2,0,10.8-2.8,15.4
		c-4.9,7.7-18.1,7.7-22.9-0.1c-3.5-6-3.7-13.5-1.9-20C1781,386.8,1784.6,382.8,1789.4,381.7L1789.4,381.7z"/>
	<path class="st51" d="M211.5,382.2c5-1.9,11.4-0.7,14.5,3.9c3.1,4.6,2.9,10.5,2.7,15.8c-0.2,5.5-2.7,11.5-7.9,14
		c-4.8,2.2-11,1.8-15-1.8c-1.2-1.1-2.7-2.3-2.5-4.1c-0.2-7.1,0-14.2,0-21.2C205.7,386.2,208.1,383.4,211.5,382.2L211.5,382.2z"/>
	<path class="st96" d="M283,385.9c4.8-6,15.5-6.5,20.3-0.3c1.9,2.2,2.3,5.2,2.7,8c-8.7,0.1-17.5,0.1-26.2,0
		C280.5,391,281.1,388.1,283,385.9L283,385.9z"/>
	<path class="st51" d="M564.6,384.6c6-5.4,16.4-4,20.7,2.9c-0.3,7.2,0.2,14.4-0.3,21.6c-3.3,6.9-12.8,10.5-19.5,6.4
		c-4.8-3.1-6-9.2-6.1-14.5C559.2,395.2,560.3,388.8,564.6,384.6L564.6,384.6z"/>
	<path class="st98" d="M652.7,403c0.3-6.9-0.5-13.8,0.8-20.6c0.4,3.8,0.6,7.6,0.5,11.5c-0.2,6.5,0.4,13-0.5,19.5
		C652.8,410,652.5,406.5,652.7,403L652.7,403z"/>
	<path class="st99" d="M158.1,391.4c2.1-1.2,0.3,3.2-0.3,0.7L158.1,391.4L158.1,391.4z"/>
	<path class="st100" d="M781.3,405c-0.7-3.7-0.8-7.5,0.3-11.2C782.2,397.5,782.2,401.3,781.3,405L781.3,405z"/>
	<path class="st60" d="M609.2,405.2c5.5-3.3,12.2-3.7,18.4-4c-0.1,3.3,0.3,6.7-0.2,10c-3.9,4.8-10.5,7.5-16.6,6
		C605.7,415.9,604.5,407.7,609.2,405.2L609.2,405.2z"/>
	<path class="st60" d="M681.1,405.2c5.5-3.3,12.2-3.7,18.5-4c0,3.3,0,6.7,0,10c-4.4,4.3-10.5,7.6-16.8,6
		C677.7,415.9,676.4,407.8,681.1,405.2L681.1,405.2z"/>
	<path class="st101" d="M1107.4,405.5c5.6-3.7,12.6-4,19.1-4.3c0,3.3,0,6.6,0,9.8c-3,2.7-6.2,5.5-10.3,6.2
		c-3.7,0.7-8.5,0.6-10.5-3.1C1104.7,411.3,1104.6,407.4,1107.4,405.5L1107.4,405.5z"/>
	<path class="st101" d="M1877.1,405.2c5.5-3.2,12.2-3.7,18.4-3.9c0,3.3,0,6.6,0,9.9c-4.3,4.3-10.3,7.6-16.6,6.1
		C1873.5,416.2,1872.3,407.7,1877.1,405.2L1877.1,405.2z"/>
	<path class="st96" d="M1280.8,425c0.1-3.7,3.5-5.7,6.2-7.5c6.3,1.4,13.1,0.1,19.2,2.3c3.9,1.2,3.4,6.9,0.7,9.1
		c-4.8,4.4-11.8,4.4-17.8,3.5C1285.3,431.7,1280.9,429.4,1280.8,425L1280.8,425z"/>
</g>
</svg>
