<svg xmlns="http://www.w3.org/2000/svg" fill-rule="evenodd" viewBox="0 0 55 58" clip-rule="evenodd"><path fill="#d14" stroke="#fff" stroke-width="1.12" d="M51.2 13L28.67 1.5c-1-.5-2.17-.5-3.16 0L3.02 13c-1.16.6-1.9 1.8-1.9 3.1v24.88c0 1.3.74 2.5 1.9 3.1l22.5 11.5c1 .5 2.17.5 3.16 0l22.5-11.5c1.17-.6 1.9-1.8 1.9-3.1V16.1c0-1.3-.73-2.5-1.9-3.1"/><clipPath id="a"><path d="M3.87 1.93l1.8 38.87L27.1 51.32 48 40.8l6-17.4L50.9.1 3.88 1.92z"/></clipPath><g clip-path="url(#a)"><path fill="#ffa5bc" d="M43.3 18.94l-.73 1.9-15.5-5.82-15.47 5.25-.65-1.9 16.17-5.5c5.4 2.02 10.78 4.05 16.17 6.07z"/><path fill="#fff" d="M11.28 27.53c-2.8 0-5.1 2.28-5.1 5.1v27.96h10.18V32.6c0-2.8-2.28-5.1-5.1-5.1M42.93 27.53c-2.8 0-5.1 2.28-5.1 5.1l.02 27.96H48l.02-27.98c0-2.8-2.28-5.1-5.1-5.1M27.1 23.94c-3.64 0-6.6 2.95-6.6 6.6v38.05h13.2V30.52c0-3.64-2.96-6.6-6.6-6.6M16.36 19.82c0 2.8-2.28 5.1-5.1 5.1-2.8-.02-5.07-2.3-5.07-5.1s2.27-5.1 5.07-5.1c2.8 0 5.1 2.3 5.1 5.1M48.02 19.82c0 2.8-2.28 5.1-5.1 5.1-2.8-.02-5.08-2.3-5.08-5.1s2.28-5.1 5.1-5.1c2.8 0 5.08 2.3 5.08 5.1M33.7 13.94c0 3.64-2.96 6.6-6.6 6.6-3.64 0-6.6-2.96-6.6-6.6 0-3.64 2.96-6.6 6.6-6.6 3.64 0 6.6 2.96 6.6 6.6"/></g></svg>