<?xml version="1.0" encoding="UTF-8" standalone="no"?><!DOCTYPE svg PUBLIC "-//W3C//DTD SVG 1.1//EN" "http://www.w3.org/Graphics/SVG/1.1/DTD/svg11.dtd"><svg width="100%" height="100%" viewBox="0 0 55 58" version="1.1" xmlns="http://www.w3.org/2000/svg" xmlns:xlink="http://www.w3.org/1999/xlink" xml:space="preserve" style="fill-rule:evenodd;clip-rule:evenodd;stroke-linejoin:round;stroke-miterlimit:1.41421;"><g><path d="M51.19,13.013l-22.508,-11.508c-0.992,-0.507 -2.167,-0.507 -3.159,0l-22.508,11.508c-1.16,0.593 -1.89,1.786 -1.89,3.089l0,24.875c0,1.302 0.73,2.496 1.89,3.089l22.508,11.507c0.992,0.507 2.167,0.507 3.159,0l22.508,-11.507c1.16,-0.593 1.89,-1.787 1.89,-3.089l0,-24.875c0,-1.303 -0.73,-2.496 -1.89,-3.089" style="fill:#dd1144;fill-rule:nonzero;stroke:#fff;stroke-width:1.12px;"/><g><clipPath id="_clip1"><path d="M3.868,1.928l1.815,38.874l21.419,10.514l20.913,-10.514l5.976,-17.406l-3.077,-23.302l-47.046,1.834Z"/></clipPath><g clip-path="url(#_clip1)"><path d="M43.287,18.94l-0.713,1.896l-15.489,-5.82l-15.484,5.257l-0.651,-1.918l16.17,-5.49c5.389,2.025 10.778,4.05 16.167,6.075Z" style="fill:#ffa5bc;fill-rule:nonzero;"/><path d="M11.275,27.533c-2.808,0 -5.085,2.277 -5.085,5.085l0,27.969l10.17,0l0,-27.969c0,-2.808 -2.277,-5.085 -5.085,-5.085" style="fill:#fff;fill-rule:nonzero;"/><path d="M42.93,27.533c-2.808,0 -5.085,2.277 -5.085,5.085l0,27.969l10.17,0l0,-27.969c0,-2.808 -2.276,-5.085 -5.085,-5.085" style="fill:#fff;fill-rule:nonzero;"/><path d="M27.103,23.938c-3.641,0 -6.592,2.951 -6.592,6.591l0,38.059l13.183,0l0,-38.059c0,-3.64 -2.951,-6.591 -6.591,-6.591" style="fill:#fff;fill-rule:nonzero;"/><path d="M16.36,19.82c0,2.809 -2.277,5.085 -5.085,5.085c-2.809,0 -5.085,-2.276 -5.085,-5.085c0,-2.808 2.276,-5.085 5.085,-5.085c2.808,0 5.085,2.277 5.085,5.085" style="fill:#fff;fill-rule:nonzero;"/><path d="M48.015,19.82c0,2.809 -2.276,5.085 -5.085,5.085c-2.808,0 -5.085,-2.276 -5.085,-5.085c0,-2.808 2.277,-5.085 5.085,-5.085c2.809,0 5.085,2.277 5.085,5.085" style="fill:#fff;fill-rule:nonzero;"/><path d="M33.694,13.94c0,3.641 -2.951,6.592 -6.591,6.592c-3.641,0 -6.592,-2.951 -6.592,-6.592c0,-3.64 2.951,-6.591 6.592,-6.591c3.64,0 6.591,2.951 6.591,6.591" style="fill:#fff;fill-rule:nonzero;"/></g></g></g></svg>
