<?xml version="1.0" encoding="utf-8"?>
<!-- Generator: Adobe Illustrator 23.0.4, SVG Export Plug-In . SVG Version: 6.00 Build 0)  -->
<svg version="1.1" id="Layer_1" xmlns="http://www.w3.org/2000/svg" xmlns:xlink="http://www.w3.org/1999/xlink" x="0px" y="0px"
	 viewBox="0 0 241.6 67" style="enable-background:new 0 0 241.6 67;" xml:space="preserve">
<style type="text/css">
	.st0{fill:#012C3B;}
	.st1{fill-rule:evenodd;clip-rule:evenodd;fill:#BF0000;}
	.st2{fill:#BF0000;}
</style>
<g>
	<g>
		<g>
			<path class="st0" d="M17.4,0.6h11.5c15.8,0,25.7,9.4,25.7,23.7S44.8,48,28.9,48H17.4V0.6z M28.5,43.5c14,0,20.7-7.9,20.7-19.2
				c0-11.3-6.7-19.2-20.7-19.2h-6.1v38.4H28.5z"/>
			<path class="st0" d="M64.8,0h0.7l22,27.6L109.5,0h0.8v48h-4.9V16.7c0-2.2,0.2-5.4,0.2-5.4s-1.8,3.1-3.3,5L87.8,34.3H87L72.8,16.2
				c-1.5-1.9-3.4-5-3.4-5s0.3,3.3,0.3,5.4V48h-4.9V0z"/>
			<path class="st0" d="M123.2,0.6H134c13,0,19.6,7.2,19.6,17.9c0,10.5-6.6,17.8-19.6,17.8h-5.7V48h-5V0.6z M133.7,31.8
				c10.7,0,14.7-5.6,14.7-13.4c0-7.8-4-13.4-14.7-13.4h-5.4v26.8H133.7z"/>
			<path class="st0" d="M164,0.6h28.9V5H169v22.3h21.3v4.4H169v11.9h24.8V48H164V0.6z"/>
			<path class="st0" d="M204.4,0.6h11.5c15.8,0,25.7,9.4,25.7,23.7S231.9,48,215.9,48h-11.5V0.6z M215.6,43.5
				c14,0,20.7-7.9,20.7-19.2c0-11.3-6.7-19.2-20.7-19.2h-6.1v38.4H215.6z"/>
		</g>
		<g>
			<path class="st1" d="M4.4,39.6c0.4,1.1,0.7,2.1,1.1,3.2c1.1,0.1,2.4,0,3.4,0c-0.9,0.7-1.9,1.3-2.7,2c0.3,1.1,0.7,2.1,1,3.2
				c-0.9-0.6-1.8-1.3-2.7-2c-0.9,0.6-1.9,1.4-2.7,2c0.3-1.1,0.7-2.1,1-3.2c-0.8-0.6-1.6-1.2-2.4-1.8C0.2,43,0,43,0,42.8
				c1.1,0,2.3,0,3.4,0C3.7,41.8,4.1,40.7,4.4,39.6z"/>
			<path class="st1" d="M4.4,20.5c0.4,1.1,0.7,2.1,1.1,3.2c1.1,0,2.3,0,3.4,0c0,0.1-0.2,0.2-0.3,0.3c-0.8,0.6-1.6,1.2-2.4,1.8
				c0.3,1.1,0.7,2.2,1,3.2c-0.1,0-0.2-0.1-0.3-0.2c-0.8-0.6-1.6-1.2-2.4-1.7c-1,0.6-1.8,1.3-2.8,2c0.3-1.1,0.7-2.1,1-3.2
				c-0.6-0.5-1.4-1-2.1-1.5c-0.1-0.1-0.2-0.2-0.3-0.3c-0.1-0.1-0.3-0.1-0.3-0.3c1.1,0,2.3,0,3.4,0C3.8,22.7,4.1,21.6,4.4,20.5z"/>
			<path class="st1" d="M4.5,0.7C4.8,1.8,5.2,2.9,5.5,4c1.1,0,2.3,0,3.4,0C8.8,4,8.7,4.1,8.6,4.2C7.8,4.8,7,5.4,6.2,6
				c0.3,1.1,0.7,2.1,1,3.2C7.1,9.2,7,9.1,6.9,9C6.1,8.4,5.3,7.8,4.5,7.2c-1,0.6-1.8,1.3-2.8,2C2,8.1,2.4,7.1,2.7,6
				C1.9,5.3,0.9,4.6,0,4c1-0.1,2.3,0,3.4,0c0.2-0.5,0.4-1,0.6-1.6C4.1,1.8,4.3,1.3,4.5,0.7C4.4,0.7,4.5,0.7,4.5,0.7z"/>
		</g>
		<g>
			<path class="st2" d="M10.4,53.1c0-2.4,2-4.1,4.3-4.1c2.3,0,4.3,1.7,4.3,4.1s-2,4.1-4.3,4.1C12.4,57.2,10.4,55.5,10.4,53.1z
				 M16.8,53.1c0-1.3-0.8-2.2-2.1-2.2c-1.3,0-2.1,1-2.1,2.2s0.8,2.2,2.1,2.2C16,55.3,16.8,54.4,16.8,53.1z"/>
			<path class="st2" d="M21,49.1h5.4v1.8h-3.3v1.9H26v1.8h-2.9v2.5H21V49.1z"/>
			<path class="st2" d="M28.5,49.1h5.4v1.8h-3.3v1.9h2.9v1.8h-2.9v2.5h-2.1V49.1z"/>
			<path class="st2" d="M36.1,49.1h2.1v8h-2.1V49.1z"/>
			<path class="st2" d="M44.5,57.2c-2.2,0-4.2-1.7-4.2-4.1s1.9-4.1,4-4.1c1.7,0,2.8,0.7,3.4,1.7l-1.6,1.1c-0.3-0.5-0.8-0.9-1.8-0.9
				c-1.2,0-1.9,1-1.9,2.2s0.7,2.2,2,2.2c1,0,1.5-0.5,1.9-1.1l1.6,1.1C47.2,56.6,46.1,57.2,44.5,57.2z"/>
			<path class="st2" d="M49.8,49.1h5.6v1.8H52v1.9h2.9v1.7H52v0.8h3.6v1.8h-5.8V49.1z"/>
			<path class="st2" d="M61.2,53.1c0-2.4,2-4.1,4.3-4.1c2.3,0,4.3,1.7,4.3,4.1s-2,4.1-4.3,4.1C63.1,57.2,61.2,55.5,61.2,53.1z
				 M67.5,53.1c0-1.3-0.8-2.2-2.1-2.2c-1.3,0-2.1,1-2.1,2.2s0.8,2.2,2.1,2.2C66.8,55.3,67.5,54.4,67.5,53.1z"/>
			<path class="st2" d="M71.8,49.1h5.4v1.8h-3.3v1.9h2.9v1.8h-2.9v2.5h-2.1V49.1z"/>
			<path class="st2" d="M84.9,50.9h-2.1v-1.8h6.4v1.8H87v6.2h-2.1V50.9z"/>
			<path class="st2" d="M96,49.1h2.1v8H96v-2.5h-2.8v2.5h-2.1v-8h2.1v3.6H96V49.1z"/>
			<path class="st2" d="M100.6,49.1h5.6v1.8h-3.5v1.9h2.9v1.7h-2.9v0.8h3.6v1.8h-5.8V49.1z"/>
			<path class="st2" d="M112.3,49.1h3.1c2.3,0,4,1.5,4,4c0,2.5-1.7,4-4,4h-3.1V49.1z M115.1,55.3c1.3,0,2.1-0.9,2.1-2.2
				c0-1.3-0.8-2.2-2.1-2.2h-0.7v4.4H115.1z"/>
			<path class="st2" d="M121.4,49.1h5.6v1.8h-3.5v1.9h2.9v1.7h-2.9v0.8h3.6v1.8h-5.8V49.1z"/>
			<path class="st2" d="M131.4,57.1h-2.1v-8h3c2.1,0,3.4,1.4,3.4,3.1s-1.2,3.1-3.4,3.1h-0.9V57.1z M132.1,53.6c1,0,1.3-0.5,1.3-1.3
				c0-0.8-0.4-1.3-1.3-1.3h-0.8v2.6H132.1z"/>
			<path class="st2" d="M137.6,54v-4.9h2.1V54c0,0.9,0.4,1.4,1.3,1.4c0.9,0,1.3-0.5,1.3-1.4v-4.9h2.1V54c0,2.1-1.5,3.2-3.5,3.2
				C139,57.2,137.6,56.1,137.6,54z"/>
			<path class="st2" d="M148.5,50.9h-2.1v-1.8h6.4v1.8h-2.1v6.2h-2.1V50.9z"/>
			<path class="st2" d="M154.2,49.1h2.3l1.8,3.2l1.8-3.2h2.2l-3,5.2v2.8h-2.1v-2.8L154.2,49.1z"/>
			<path class="st2" d="M168.3,49c0-0.1,0.1-0.1,0.1,0l3.8,4.3L176,49c0-0.1,0.1-0.1,0.1,0l0.5,8.1h-2.1l-0.2-3.4l-2,2.3
				c0,0-0.1,0-0.1,0l-2.1-2.3l-0.2,3.4h-2.1L168.3,49z"/>
			<path class="st2" d="M180.3,57.1h-2.1l3.9-8.1c0-0.1,0.1-0.1,0.1,0l3.9,8.1h-2.2l-0.3-0.7c0,0-3,0-3,0L180.3,57.1z M182,53
				l-0.8,1.9h1.6L182,53z"/>
			<path class="st2" d="M185.4,49.1h2.3l1.8,3.2l1.8-3.2h2.2l-3,5.2v2.8h-2.1v-2.8L185.4,49.1z"/>
			<path class="st2" d="M194.1,53.1c0-2.4,2-4.1,4.3-4.1c2.3,0,4.3,1.7,4.3,4.1s-2,4.1-4.3,4.1C196.1,57.2,194.1,55.5,194.1,53.1z
				 M200.5,53.1c0-1.3-0.8-2.2-2.1-2.2c-1.3,0-2.1,1-2.1,2.2s0.8,2.2,2.1,2.2C199.8,55.3,200.5,54.4,200.5,53.1z"/>
			<path class="st2" d="M211.1,57.1h-2.3l-1.1-1.8h-0.8v1.8h-2.1v-8h3c2.1,0,3.4,1.4,3.4,3.1c0,1.1-0.5,2.1-1.4,2.6L211.1,57.1z
				 M207.7,53.6c1,0,1.3-0.5,1.3-1.3c0-0.8-0.4-1.3-1.3-1.3h-0.8v2.6H207.7z"/>
			<path class="st2" d="M217.1,49.1h5.4v1.8h-3.3v1.9h2.9v1.8h-2.9v2.5h-2.1V49.1z"/>
			<path class="st2" d="M224.1,53.1c0-2.4,2-4.1,4.3-4.1c2.3,0,4.3,1.7,4.3,4.1s-2,4.1-4.3,4.1C226,57.2,224.1,55.5,224.1,53.1z
				 M230.4,53.1c0-1.3-0.8-2.2-2.1-2.2c-1.3,0-2.1,1-2.1,2.2s0.8,2.2,2.1,2.2C229.7,55.3,230.4,54.4,230.4,53.1z"/>
			<path class="st2" d="M241,57.1h-2.3l-1.1-1.8h-0.8v1.8h-2.1v-8h3c2.1,0,3.4,1.4,3.4,3.1c0,1.1-0.5,2.1-1.4,2.6L241,57.1z
				 M237.6,53.6c1,0,1.3-0.5,1.3-1.3c0-0.8-0.4-1.3-1.3-1.3h-0.8v2.6H237.6z"/>
			<path class="st2" d="M12.9,66.8h-2.1v-8h3c2.1,0,3.4,1.4,3.4,3.1S16,65,13.8,65h-0.9V66.8z M13.7,63.2c1,0,1.3-0.5,1.3-1.3
				s-0.4-1.3-1.3-1.3h-0.8v2.6H13.7z"/>
			<path class="st2" d="M18.4,58.8h2.1V65H24v1.8h-5.5V58.8z"/>
			<path class="st2" d="M26.8,66.8h-2.1l3.9-8.1c0-0.1,0.1-0.1,0.1,0l3.9,8.1h-2.2l-0.3-0.7c0,0-3,0-3,0L26.8,66.8z M28.5,62.6
				l-0.8,1.9h1.6L28.5,62.6z"/>
			<path class="st2" d="M35.6,62.8v4h-2v-8.1c0-0.1,0-0.1,0.2,0l5,4.1v-4h2v8.1c0,0.1,0,0.1-0.2,0L35.6,62.8z"/>
			<path class="st2" d="M44.4,62.8v4h-2v-8.1c0-0.1,0-0.1,0.2,0l5,4.1v-4h2v8.1c0,0.1,0,0.1-0.2,0L44.4,62.8z"/>
			<path class="st2" d="M51.3,58.8h2.1v8h-2.1V58.8z"/>
			<path class="st2" d="M57.1,62.8v4h-2v-8.1c0-0.1,0-0.1,0.2,0l5,4.1v-4h2v8.1c0,0.1,0,0.1-0.2,0L57.1,62.8z"/>
			<path class="st2" d="M67.9,64.1v-1.6h3.8c0,0,0,0.2,0,0.3c0,2.7-1.6,4.1-3.9,4.1c-2.3,0-4.2-1.7-4.2-4.1s1.9-4.1,4.1-4.1
				c1.5,0,2.8,0.7,3.4,1.8l-1.7,1c-0.3-0.5-0.8-1-1.7-1c-1.3,0-1.9,1-1.9,2.2s0.7,2.3,2,2.3c1,0,1.4-0.4,1.7-0.9H67.9z"/>
			<path class="st2" d="M80.9,63.7c0.2-0.3,0.3-0.7,0.3-1.1H83c0,1-0.4,1.9-0.9,2.5l1.3,1.6h-2.5l-0.3-0.4c-0.6,0.3-1.2,0.5-2,0.5
				c-1.8,0-3.1-0.9-3.1-2.3c0-1.2,0.7-1.8,1.8-2.3c-0.3-0.5-0.5-1.1-0.5-1.6c0-1.2,1-1.9,2.3-1.9c1.3,0,2.2,0.7,2.2,1.8
				c0,0.9-0.5,1.5-1.4,2L80.9,63.7z M78.2,63.4c-0.4,0.3-0.5,0.6-0.5,0.9c0,0.5,0.3,0.9,1,0.9c0.2,0,0.5,0,0.7-0.1L78.2,63.4z
				 M79.6,60.6c0-0.3-0.2-0.5-0.4-0.5s-0.5,0.1-0.5,0.5c0,0.3,0.1,0.5,0.3,0.8C79.4,61.2,79.6,60.9,79.6,60.6z"/>
			<path class="st2" d="M87.5,58.8h5.6v1.8h-3.5v1.9h2.9v1.7h-2.9V65h3.6v1.8h-5.8V58.8z"/>
			<path class="st2" d="M98.2,66.9c-2.2,0-4.2-1.7-4.2-4.1s1.9-4.1,4-4.1c1.7,0,2.8,0.7,3.4,1.7l-1.6,1.1c-0.3-0.5-0.8-0.9-1.8-0.9
				c-1.2,0-1.9,1-1.9,2.2s0.7,2.2,2,2.2c1,0,1.5-0.5,1.9-1.1l1.6,1.1C100.9,66.3,99.8,66.9,98.2,66.9z"/>
			<path class="st2" d="M102.2,62.8c0-2.4,2-4.1,4.3-4.1c2.3,0,4.3,1.7,4.3,4.1s-2,4.1-4.3,4.1C104.2,66.9,102.2,65.2,102.2,62.8z
				 M108.6,62.8c0-1.3-0.8-2.2-2.1-2.2c-1.3,0-2.1,1-2.1,2.2s0.8,2.2,2.1,2.2C107.8,65,108.6,64,108.6,62.8z"/>
			<path class="st2" d="M114.1,62.8v4h-2v-8.1c0-0.1,0-0.1,0.2,0l5,4.1v-4h2v8.1c0,0.1,0,0.1-0.2,0L114.1,62.8z"/>
			<path class="st2" d="M120.5,62.8c0-2.4,2-4.1,4.3-4.1c2.3,0,4.3,1.7,4.3,4.1s-2,4.1-4.3,4.1C122.5,66.9,120.5,65.2,120.5,62.8z
				 M126.9,62.8c0-1.3-0.8-2.2-2.1-2.2c-1.3,0-2.1,1-2.1,2.2s0.8,2.2,2.1,2.2C126.1,65,126.9,64,126.9,62.8z"/>
			<path class="st2" d="M130.3,58.6c0-0.1,0-0.1,0.1,0l4.1,4l4-4c0,0,0.1,0,0.1,0v8.1h-2.1v-3.7l-2,2c0,0-0.1,0-0.1,0l-2-2v3.7h-2.1
				V58.6z"/>
			<path class="st2" d="M140.4,58.8h2.1v8h-2.1V58.8z"/>
			<path class="st2" d="M148,66.9c-2.2,0-4.2-1.7-4.2-4.1s1.9-4.1,4-4.1c1.7,0,2.8,0.7,3.4,1.7l-1.6,1.1c-0.3-0.5-0.8-0.9-1.8-0.9
				c-1.2,0-1.9,1-1.9,2.2s0.7,2.2,2,2.2c1,0,1.5-0.5,1.9-1.1l1.6,1.1C150.7,66.3,149.6,66.9,148,66.9z"/>
			<path class="st2" d="M155.7,58.8h3.1c2.3,0,4,1.5,4,4c0,2.5-1.7,4-4,4h-3.1V58.8z M158.5,65c1.3,0,2.1-0.9,2.1-2.2
				c0-1.3-0.8-2.2-2.1-2.2h-0.7V65H158.5z"/>
			<path class="st2" d="M164,58.8h5.6v1.8h-3.5v1.9h2.9v1.7h-2.9V65h3.6v1.8H164V58.8z"/>
			<path class="st2" d="M174.2,66.8c0,0.1-0.1,0.1-0.1,0l-3.8-8.1h2.3l1.6,3.7l1.6-3.7h2.2L174.2,66.8z"/>
			<path class="st2" d="M179,58.8h5.6v1.8h-3.5v1.9h2.9v1.7h-2.9V65h3.6v1.8H179V58.8z"/>
			<path class="st2" d="M186,58.8h2.1V65h3.4v1.8H186V58.8z"/>
			<path class="st2" d="M192.2,62.8c0-2.4,2-4.1,4.3-4.1c2.3,0,4.3,1.7,4.3,4.1s-2,4.1-4.3,4.1C194.2,66.9,192.2,65.2,192.2,62.8z
				 M198.6,62.8c0-1.3-0.8-2.2-2.1-2.2c-1.3,0-2.1,1-2.1,2.2s0.8,2.2,2.1,2.2C197.9,65,198.6,64,198.6,62.8z"/>
			<path class="st2" d="M204.2,66.8h-2.1v-8h3c2.1,0,3.4,1.4,3.4,3.1s-1.2,3.1-3.4,3.1h-0.9V66.8z M205,63.2c1,0,1.3-0.5,1.3-1.3
				s-0.4-1.3-1.3-1.3h-0.8v2.6H205z"/>
			<path class="st2" d="M209.7,58.6c0-0.1,0-0.1,0.1,0l4.1,4l4-4c0,0,0.1,0,0.1,0v8.1h-2.1v-3.7l-2,2c0,0-0.1,0-0.1,0l-2-2v3.7h-2.1
				V58.6z"/>
			<path class="st2" d="M219.7,58.8h5.6v1.8h-3.5v1.9h2.9v1.7h-2.9V65h3.6v1.8h-5.8V58.8z"/>
			<path class="st2" d="M228.8,62.8v4h-2v-8.1c0-0.1,0-0.1,0.2,0l5,4.1v-4h2v8.1c0,0.1,0,0.1-0.2,0L228.8,62.8z"/>
			<path class="st2" d="M237.3,60.6h-2.1v-1.8h6.4v1.8h-2.1v6.2h-2.1V60.6z"/>
		</g>
	</g>
	<rect x="10.6" y="0.6" class="st1" width="5.1" height="47.4"/>
	<rect x="17.3" y="0.6" class="st1" width="5.1" height="47.4"/>
</g>
</svg>
