<?xml version="1.0" encoding="utf-8"?>
<!-- Generator: Adobe Illustrator 22.0.1, SVG Export Plug-In . SVG Version: 6.00 Build 0)  -->
<svg version="1.1" id="Layer_1" xmlns="http://www.w3.org/2000/svg" xmlns:xlink="http://www.w3.org/1999/xlink" x="0px" y="0px"
	 viewBox="0 0 233.2 113.2" style="enable-background:new 0 0 233.2 113.2;" xml:space="preserve">
<style type="text/css">
	.st0{fill:#01B2E5;}
	.st1{fill:#47474A;}
</style>
<g>
	<path class="st0" d="M18.4,0h8.1L8.1,61.4H0L18.4,0z"/>
	<path class="st0" d="M35,0h8.1L24.7,61.4h-8.1L35,0z"/>
</g>
<g>
	<path class="st1" d="M51.7,61.5V19.7h20.1v6.2H58.9v10.8h9.6V43h-9.6v18.6L51.7,61.5L51.7,61.5z"/>
	<path class="st1" d="M75.6,61.5V19.7h7.2v35.6h11.3v6.3L75.6,61.5L75.6,61.5z"/>
	<path class="st1" d="M105.1,61.5h-7l7.7-41.9h8.9l7.7,41.9h-7l-1.3-9.3h-7.9L105.1,61.5z M107.4,46h5.8l-2.8-18h-0.1L107.4,46z"/>
	<path class="st1" d="M128,25.9h-7v-6.3h21.1v6.3h-7v35.6h-7.2L128,25.9L128,25.9z"/>
	<path class="st1" d="M145.3,61.5V19.7h7.2v41.9L145.3,61.5L145.3,61.5z"/>
	<path class="st1" d="M164.7,61.5h-7.2V19.7h10.1c8.1,0,12.2,3.4,12.2,12.4c0,6.7-2.6,9.5-5,10.6l6.1,19h-7.3l-5.1-17.3
		c-0.9,0.1-2.4,0.2-3.7,0.2L164.7,61.5L164.7,61.5z M164.7,38.4h2.6c3.9,0,5.3-1.4,5.3-6.4s-1.5-6.4-5.3-6.4h-2.6V38.4z"/>
	<path class="st1" d="M184.3,29.8c0-5.9,3.5-10.7,11-10.7s11,4.8,11,10.7v21.6c0,5.9-3.5,10.7-11,10.7s-11-4.8-11-10.7V29.8z
		 M191.4,51.2c0,3.1,0.9,4.6,3.8,4.6c2.9,0,3.8-1.5,3.8-4.6V30c0-3.1-0.9-4.6-3.8-4.6s-3.8,1.5-3.8,4.6V51.2z"/>
	<path class="st1" d="M211.1,61.5V19.7h6.7l8.8,24h0.1v-24h6.5v41.9h-6.3l-9.2-26.2h-0.1v26.2L211.1,61.5L211.1,61.5z"/>
	<path class="st1" d="M64.8,81.1c-0.3-3.6-2.2-4.6-3.8-4.6c-2.3,0-3.6,1.5-3.6,4.1c0,7.1,14.6,10.6,14.6,21.9
		c0,6.9-4.6,10.7-11.4,10.7c-6.7,0-10.5-5.3-10.8-11.6l6.8-1c0.3,4.2,2,6.3,4.3,6.3c2.5,0,4.2-1.3,4.2-3.8
		c0-8.3-14.6-10.5-14.6-22.5c0-6.7,4.1-10.4,11.1-10.4c5.9,0,9.3,4.2,10,10.2L64.8,81.1z"/>
	<path class="st1" d="M90.5,84.7v-3.2c0-3.5-1.6-5-3.5-5c-2.9,0-3.8,1.5-3.8,4.6v21.2c0,3.1,0.9,4.6,3.8,4.6c2.6,0,3.5-1.5,3.5-4.2
		v-5h7.2v4.8c0,5.9-3.5,10.7-10.7,10.7c-7.5,0-11-4.8-11-10.7V80.9c0-5.9,3.5-10.7,11-10.7c7.2,0,10.7,5.2,10.7,11.5v3.1L90.5,84.7
		L90.5,84.7z"/>
	<path class="st1" d="M102,112.6V70.7h7.2v17.1h7.7V70.7h7.2v41.9h-7.2V94h-7.7v18.6H102z"/>
	<path class="st1" d="M128.8,80.9c0-5.9,3.5-10.7,11-10.7s11,4.8,11,10.7v21.6c0,5.9-3.5,10.7-11,10.7s-11-4.8-11-10.7V80.9z
		 M136,102.3c0,3.1,0.9,4.6,3.8,4.6s3.8-1.5,3.8-4.6V81.1c0-3.1-0.9-4.6-3.8-4.6c-2.9,0-3.8,1.5-3.8,4.6V102.3z"/>
	<path class="st1" d="M155.6,80.9c0-5.9,3.5-10.7,11-10.7s11,4.8,11,10.7v21.6c0,5.9-3.5,10.7-11,10.7s-11-4.8-11-10.7V80.9z
		 M162.8,102.3c0,3.1,0.9,4.6,3.8,4.6c2.9,0,3.8-1.5,3.8-4.6V81.1c0-3.1-0.9-4.6-3.8-4.6s-3.8,1.5-3.8,4.6V102.3z"/>
	<path class="st1" d="M182,112.6V70.7h7.2v35.6h11.3v6.3H182z"/>
</g>
</svg>
