<?xml version="1.0" encoding="utf-8"?>
<!-- Generator: Adobe Illustrator 18.1.1, SVG Export Plug-In . SVG Version: 6.00 Build 0)  -->
<svg version="1.1" id="Layer_1" xmlns="http://www.w3.org/2000/svg" xmlns:xlink="http://www.w3.org/1999/xlink" x="0px" y="0px"
	 viewBox="0 0 153.8 41.6" enable-background="new 0 0 153.8 41.6" xml:space="preserve">
<g>
	<path d="M29.6,17.8H16.7c-0.3,0-0.6,0.3-0.6,0.6v6.3c0,0.3,0.3,0.6,0.6,0.6h5v7.8c0,0-1.1,0.4-4.3,0.4c-3.7,0-8.8-1.3-8.8-12.7
		C8.6,9.5,14,8,19,8c4.4,0,6.2,0.8,7.4,1.1c0.4,0.1,0.7-0.3,0.7-0.6l1.4-6.1c0-0.2-0.1-0.3-0.2-0.5C27.9,1.7,25,0,17.5,0
		C8.8,0,0,3.7,0,21.3C0,39,10.1,41.6,18.7,41.6c7.1,0,11.4-3,11.4-3c0.2-0.1,0.2-0.3,0.2-0.5V18.4C30.2,18.1,30,17.8,29.6,17.8z"/>
	<path d="M96.2,2.1c0-0.3-0.3-0.6-0.6-0.6h-7.3c-0.3,0-0.6,0.3-0.6,0.6l0,14.1H76.4V2.1c0-0.3-0.3-0.6-0.6-0.6h-7.3
		c-0.3,0-0.6,0.3-0.6,0.6v38.1c0,0.3,0.3,0.6,0.6,0.6h7.3c0.3,0,0.6-0.3,0.6-0.6V23.9h11.3l0,16.3c0,0.3,0.3,0.6,0.6,0.6h7.3
		c0.3,0,0.6-0.3,0.6-0.6V2.1z"/>
	<g>
		<g>
			<path d="M43.3,7.1c0-2.6-2.1-4.7-4.7-4.7c-2.6,0-4.7,2.1-4.7,4.7c0,2.6,2.1,4.7,4.7,4.7C41.2,11.9,43.3,9.7,43.3,7.1z"/>
			<path d="M42.8,32.2c0-1,0-17.6,0-17.6c0-0.3-0.3-0.6-0.6-0.6H35c-0.3,0-0.6,0.3-0.6,0.7c0,0,0,21.1,0,25.2c0,0.7,0.5,1,1.1,1
				c0,0,3.1,0,6.5,0c0.7,0,0.9-0.4,0.9-1C42.8,38.5,42.8,33.2,42.8,32.2z"/>
		</g>
	</g>
	<path d="M123.9,14h-7.2c-0.3,0-0.6,0.3-0.6,0.6v18.7c0,0-1.8,1.3-4.4,1.3c-2.6,0-3.3-1.2-3.3-3.7c0-2.6,0-16.3,0-16.3
		c0-0.3-0.3-0.6-0.6-0.6h-7.3c-0.3,0-0.6,0.3-0.6,0.6c0,0,0,9.9,0,17.5c0,7.6,4.2,9.4,10,9.4c4.8,0,8.6-2.6,8.6-2.6s0.2,1.4,0.3,1.6
		c0.1,0.2,0.3,0.3,0.5,0.3l4.7,0c0.3,0,0.6-0.3,0.6-0.6l0-25.6C124.5,14.3,124.2,14,123.9,14z"/>
	<path d="M143.6,13.2c-4.1,0-6.9,1.8-6.9,1.8V2.1c0-0.3-0.3-0.6-0.6-0.6h-7.3c-0.3,0-0.6,0.3-0.6,0.6v38.1c0,0.3,0.3,0.6,0.6,0.6
		c0,0,5.1,0,5.1,0c0.2,0,0.4-0.1,0.5-0.3c0.1-0.2,0.3-1.8,0.3-1.8s3,2.8,8.6,2.8c6.6,0,10.4-3.4,10.4-15.1
		C153.8,14.7,147.7,13.2,143.6,13.2z M140.8,34.6c-2.5-0.1-4.2-1.2-4.2-1.2V21.4c0,0,1.7-1,3.7-1.2c2.6-0.2,5.1,0.6,5.1,6.8
		C145.4,33.4,144.3,34.7,140.8,34.6z"/>
	<path d="M63.7,14h-5.5l0-7.2c0-0.3-0.1-0.4-0.5-0.4h-7.4c-0.3,0-0.4,0.1-0.4,0.4v7.5c0,0-3.7,0.9-4,1c-0.3,0.1-0.4,0.3-0.4,0.6v4.7
		c0,0.3,0.3,0.6,0.6,0.6h3.8c0,0,0,4.9,0,11.3c0,8.4,5.9,9.2,9.8,9.2c1.8,0,4-0.6,4.3-0.7c0.2-0.1,0.3-0.3,0.3-0.5l0-5.2
		c0-0.3-0.3-0.6-0.6-0.6c-0.3,0-1.1,0.1-2,0.1c-2.7,0-3.6-1.2-3.6-2.9c0-1.6,0-10.7,0-10.7h5.5c0.3,0,0.6-0.3,0.6-0.6v-5.9
		C64.3,14.2,64.1,14,63.7,14z"/>
</g>
</svg>
