<?xml version="1.0" encoding="utf-8"?>
<!-- Generator: Adobe Illustrator 23.0.0, SVG Export Plug-In . SVG Version: 6.00 Build 0)  -->
<svg version="1.1" id="Layer_1" xmlns="http://www.w3.org/2000/svg" xmlns:xlink="http://www.w3.org/1999/xlink" x="0px" y="0px"
	 viewBox="0 0 360.2 97.4" style="enable-background:new 0 0 360.2 97.4;" xml:space="preserve">
<style type="text/css">
	.st0{fill:#100E0F;}
</style>
<g>
	<path class="st0" d="M69.4,41.7H39.1c-0.8,0-1.4,0.6-1.4,1.4v14.8c0,0.8,0.6,1.4,1.4,1.4h11.8v18.4c0,0-2.7,0.9-10,0.9
		c-8.6,0-20.7-3.2-20.7-29.7c0-26.6,12.6-30.1,24.4-30.1c10.2,0,14.6,1.8,17.4,2.7c0.9,0.3,1.7-0.6,1.7-1.4l3.4-14.3
		c0-0.4-0.1-0.8-0.5-1.1C65.4,3.9,58.5,0,40.9,0C20.7,0,0,8.6,0,49.9c0,41.3,23.7,47.5,43.7,47.5c16.6,0,26.6-7.1,26.6-7.1
		c0.4-0.2,0.5-0.8,0.5-1.1V43.1C70.8,42.3,70.2,41.7,69.4,41.7z"/>
	<path class="st0" d="M225.4,5c0-0.8-0.6-1.4-1.4-1.4h-17c-0.8,0-1.4,0.6-1.4,1.4c0,0,0,32.9,0,32.9h-26.6V5c0-0.8-0.6-1.4-1.4-1.4
		h-17c-0.8,0-1.4,0.6-1.4,1.4v89.2c0,0.8,0.6,1.4,1.4,1.4h17c0.8,0,1.4-0.6,1.4-1.4V56h26.6c0,0,0,38.1,0,38.1
		c0,0.8,0.6,1.4,1.4,1.4h17.1c0.8,0,1.4-0.6,1.4-1.4V5z"/>
	<g>
		<g>
			<path class="st0" d="M101.5,16.7c0-6.1-4.9-11.1-11-11.1c-6.1,0-11,5-11,11.1c0,6.1,4.9,11.1,11,11.1
				C96.6,27.8,101.5,22.8,101.5,16.7z"/>
			<path class="st0" d="M100.3,75.3c0-2.3,0-41.2,0-41.2c0-0.8-0.6-1.4-1.4-1.4h-17c-0.8,0-1.5,0.8-1.5,1.6c0,0,0,49.5,0,59
				c0,1.7,1.1,2.2,2.5,2.2c0,0,7.3,0,15.3,0c1.7,0,2.1-0.8,2.1-2.3C100.3,90.1,100.3,77.7,100.3,75.3z"/>
		</g>
	</g>
	<path class="st0" d="M290.1,32.9h-16.9c-0.8,0-1.4,0.6-1.4,1.4V78c0,0-4.3,3.1-10.4,3.1c-6.1,0-7.7-2.8-7.7-8.7c0-6,0-38.1,0-38.1
		c0-0.8-0.6-1.4-1.4-1.4h-17.2c-0.8,0-1.4,0.6-1.4,1.4c0,0,0,23.3,0,41c0,17.7,9.9,22.1,23.5,22.1c11.2,0,20.1-6.2,20.1-6.2
		s0.4,3.2,0.6,3.6c0.2,0.4,0.7,0.8,1.2,0.8l10.9,0c0.8,0,1.4-0.6,1.4-1.4l0-59.9C291.5,33.5,290.9,32.9,290.1,32.9z"/>
	<path class="st0" d="M336.3,30.9c-9.6,0-16.1,4.3-16.1,4.3V5c0-0.8-0.6-1.4-1.4-1.4h-17.1c-0.8,0-1.4,0.6-1.4,1.4v89.2
		c0,0.8,0.6,1.4,1.4,1.4c0,0,11.9,0,11.9,0c0.5,0,0.9-0.3,1.2-0.8c0.3-0.5,0.7-4.1,0.7-4.1s7,6.6,20.2,6.6
		c15.5,0,24.4-7.9,24.4-35.4C360.2,34.5,346,30.9,336.3,30.9z M329.7,81.1c-5.9-0.2-9.8-2.8-9.8-2.8V50c0,0,3.9-2.4,8.7-2.8
		c6.1-0.5,12,1.3,12,15.8C340.5,78.3,337.9,81.4,329.7,81.1z"/>
	<path class="st0" d="M149.3,32.7h-12.8c0,0,0-16.9,0-16.9c0-0.6-0.3-1-1.1-1H118c-0.7,0-1,0.3-1,0.9v17.5c0,0-8.7,2.1-9.3,2.3
		c-0.6,0.2-1,0.7-1,1.4v11c0,0.8,0.6,1.4,1.4,1.4h8.9c0,0,0,11.5,0,26.4c0,19.6,13.7,21.5,23,21.5c4.2,0,9.3-1.4,10.1-1.7
		c0.5-0.2,0.8-0.7,0.8-1.3l0-12.1c0-0.8-0.7-1.4-1.4-1.4c-0.7,0-2.7,0.3-4.6,0.3c-6.3,0-8.4-2.9-8.4-6.7c0-3.8,0-25.1,0-25.1h12.8
		c0.8,0,1.4-0.6,1.4-1.4V34.1C150.7,33.4,150.1,32.7,149.3,32.7z"/>
</g>
</svg>
