<svg xmlns="http://www.w3.org/2000/svg" viewBox="0 0 74.8 30.5" enable-background="new 0 0 74.8 30.5"><style type="text/css">.st0{fill:#1B1F21;} .st1{fill:#BED135;}</style><title>GoKart Labs</title><path d="M32.6 10.5l-3.3 1.6-.1.1-3.8 6.1c-.1.2 0 .5.3.5h1.8c.1 0 .2-.1.3-.2l4.9-7.9c.2-.1 0-.2-.1-.2m42-4.3h-4.5c-.1 0-.1 0-.1-.1l2.8-4.5c0-.1 0-.1-.1-.1h-2.3c-.1 0-.1 0-.2.1l-2.9 4.7h-2.5c-.1 0-.1 0-.1.1L64 7.5c-.1.1 0 .2.1.2h2.4l-5.2 8.6c-.5.8-1.1 1.1-1.8 1.1h-1.2c-.1 0-.2 0-.2-.1 0 0 0-.1 0-.2l.1-.2 3.5-5.7c.1-.2.2-.4.2-.6.1-.7-.3-1.4-1-1.6 0 0-2-.6-2.5-1.8 0-.1 0-.1 0-.2l.5-.8h-2.5c-.1 0-.1 0-.2.1l-6.1 9.9c-.4.7-1.3 1.1-2.1 1.1h-1c-.1 0-.2 0-.2-.1 0 0-.1-.1 0-.2l.1-.2s4.5-7.3 6.4-10.4c.1-.1 0-.3-.2-.3H51c-.1 0-.1 0-.2.1l-.5.7c0 .1-.1.1-.2.1h-3.8c-1.3 0-2.7.7-3.4 1.8 0 0-4.5 7.2-4.5 7.3-.4.7-1.3 1.1-2.1 1.1h-1.6c-.1 0-.2-.1-.2-.2l-.1-2.6c0-.1 0-.1.1-.2l4.3-2.7c.3-.2.4-.6.2-1l-2.3-4.1c-.2-.3-.6-.4-1-.3l-.5.2L39.1 0c.1-.1 0-.3-.2-.3h-2.1c-.1 0-.1 0-.2.1l-5.2 8.3-.1.1-4 2c-.1 0-.1 0-.1-.1L28.5 8c.1-.2.2-.5 0-.7-.1-.2-.4-.3-.6-.4h-5.3c-1.3 0-2.6.7-3.4 1.8l-4.8 7.7-.1.1-3.4 1.6c-.1 0-.1 0-.1-.1l5.4-8.7c.1-.2.3-.5.3-.7.1-.5-.1-1-.4-1.3.1-.1-.4-.3-.9-.3H11c-1.3 0-2.6.7-3.3 1.8 0 0-4.6 7.4-4.6 7.4-.1.2-.2.5-.3.7-.1.5 0 1 .3 1.3.3.3.8.5 1.3.5h3.7v.1l-.8 1.3-.1.1-5 2.4c-.1.1-.3.2-.3.3 0 0-1.7 3.9-1.7 3.9l-.2.5c-.1.4 0 .9.3 1.2.2.3.5.4.9.5h.7c1.4 0 3-.7 3.7-1.8L9.5 21l.1-.1 4-1.9h6.3c1.3 0 2.7-.7 3.4-1.8l2.5-4 .1-.1 3-1.5 1-.5 4.1-2 .5-.3.3-.1c.1 0 .2 0 .3.1l1.5 2.7c.1.1 0 .2-.1.3l-4.2 2.7c-.2.1-.3.4-.3.6l.1 3.4c0 .3.3.6.6.7 0 0 3.6 0 3.6 0 .8 0 1.5-.2 2.1-.6h.1c.3.3.6.5 1.1.6H43.4c.8 0 1.5-.2 2.2-.6l.1.1c.3.3.6.5 1.1.5H49c1.3 0 2.7-.7 3.4-1.9l4.8-7.7c.1-.1.2-.1.3 0 .5.6 1 .9 1.7 1.4.1.1.1.2.1.3L56 16.6c-.1.2-.3.5-.3.7-.1.5 0 1 .3 1.3.3.4.8.6 1.3.6h2.1c.7 0 1.3-.2 1.8-.5 0 0 .1-.1.3 0 .3.2.6.4 1 .4h4.8c.1 0 .1 0 .2-.1l.6-1c.1-.1 0-.3-.2-.3h-4.3c-.1 0-.2 0-.2-.1 0 0 0-.1 0-.2l.1-.2L69 7.7h5c.1 0 .1 0 .2-.1l.6-1c.1-.2 0-.4-.2-.4zM3.5 26.3c-.4.7-1.1 1.2-1.9 1.2l1.6-3.6 2.5-1.2-2.2 3.6zm4.2-8.9c-.1 0-2.3 0-2.3 0-.1 0-.2 0-.2-.1 0 0-.1-.2 0-.3 0-.1 4.6-7.4 4.6-7.4.4-.7 1.3-1.1 2.1-1.1h2.2c.1 0 .2 0 .2.1 0 0 0 .1 0 .2l-.1.2s-4.6 7.4-4.6 7.4c-.3.6-1.1 1-1.9 1zm18-8.5l-4.5 7.3c-.5.7-1.3 1.1-2.1 1.1h-1.7c-.2 0-.3-.2-.2-.3l4.5-7.3c.4-.7 1.3-1.1 2.1-1.1h1.7c.2 0 .3.2.2.3zm18.9 7.4c-.4.7-1.3 1.1-2.1 1.1 0 0-1.6 0-1.6 0-.2 0-.3-.1-.3-.3l.1-.2 4.4-7.2c.5-.7 1.3-1.1 2.1-1.1h1.7c.2 0 .3.2.2.3-.8 1.5-4.5 7.4-4.5 7.4z" class="st0"/><path d="M21.9 30.4V26H23v3.6h2.4v.9h-3.5m12-.1l-.4-1h-2l-.4 1H30l2.1-4.5h1l2.1 4.5h-1.3zm-1.5-3.3l-.6 1.4H33l-.6-1.4zm9.7 3.3h-2.3V26H42c1 0 1.6.5 1.6 1.2 0 .5-.3.8-.6 1 .6.2.9.5.9 1.1 0 .7-.7 1.1-1.8 1.1zm.5-3.1c0-.3-.2-.5-.7-.5h-1v.9h1c.4.1.7-.1.7-.4zm.3 1.8c0-.3-.2-.5-.8-.5h-1.2v1h1.3c.4-.1.7-.2.7-.5zm7.8 1.4c-.7 0-1.5-.2-2-.7l.6-.7c.4.3.9.5 1.4.5.4 0 .7-.2.7-.4s-.2-.4-1-.6c-1-.2-1.6-.5-1.6-1.4 0-.8.7-1.3 1.7-1.3.7 0 1.3.2 1.8.6l-.5.7c-.4-.3-.8-.4-1.3-.4-.4 0-.6.2-.6.4 0 .3.2.4 1 .6 1 .2 1.5.6 1.5 1.3 0 .9-.7 1.4-1.7 1.4" class="st1"/></svg>