<?xml version="1.0" encoding="utf-8"?>
<!-- Generator: Adobe Illustrator 22.1.0, SVG Export Plug-In . SVG Version: 6.00 Build 0)  -->
<svg version="1.1" id="Layer_1" xmlns="http://www.w3.org/2000/svg" xmlns:xlink="http://www.w3.org/1999/xlink" x="0px" y="0px"
	 viewBox="0 0 288 191.2" style="enable-background:new 0 0 288 191.2;" xml:space="preserve">
<path d="M175.8,38.7H58.4v87.2l28,26.6h143.2V90.9L175.8,38.7z M99.6,132.7L78.8,112V58.8h20.8L99.6,132.7L99.6,132.7z M161.9,112.5
	c0,13.3-6.1,20.2-19.3,20.2c-10.2,0-40.6,0-40.6,0V112H162C161.9,111.9,161.9,112.3,161.9,112.5z M161.9,109.5h-19.7v-4.1
	c0,0-17.5,0-19.7,0c-13.4,0-20.5-6.4-20.5-19.8c0-1.2,0-2.4,0-3.7h19.7V85c0,0,17.9,0,20.8,0c13.4,0,19.3,7.4,19.3,20.8
	C161.9,106.4,161.9,107.5,161.9,109.5z M161.9,79.6h-5.5h-34.7H102c0-0.4,0-0.4,0-0.6c0-13.4,7-20.2,20.4-20.2c3.6,0,39.5,0,39.5,0
	L161.9,79.6L161.9,79.6z M209.2,132.7h-45.3V58.8l20.8,20.5v32.6h24.5L209.2,132.7L209.2,132.7z"/>
</svg>
