<svg xmlns="http://www.w3.org/2000/svg" width="155" height="14"><title>Justworks Logo</title><desc>Created with Sketch.</desc><g fill="none"><g fill="#223D68"><g><g><path d="M0 11.85L1.85 9.8c.75.83 1.5 1.33 2.4 1.33 1.1 0 1.8-.67 1.8-2.2V.32H9v8.72c0 1.58-.44 2.76-1.23 3.56-.8.83-2 1.25-3.44 1.25-2.06 0-3.42-.9-4.32-2"/><path d="M14.8 7.95V.35h2.9v7.53c0 2.16 1.1 3.3 2.86 3.3 1.78 0 2.86-1.1 2.86-3.2V.33h2.9v7.52c0 4.03-2.24 6-5.8 6-3.54 0-5.72-2-5.72-5.9"/><path d="M31.4 11.72l1.73-2.08c1.2 1 2.44 1.62 3.95 1.62 1.2 0 1.9-.47 1.9-1.25v-.03c0-.74-.45-1.12-2.66-1.7-2.66-.68-4.38-1.42-4.38-4.07v-.03c0-2.42 1.93-4.02 4.63-4.02 1.93 0 3.57.6 4.9 1.7l-1.5 2.2c-1.17-.82-2.32-1.3-3.44-1.3-1.1 0-1.7.5-1.7 1.15v.04c0 .87.57 1.16 2.85 1.75 2.7.7 4.2 1.66 4.2 3.98v.04c0 2.65-2 4.13-4.86 4.13-2 0-4.02-.7-5.6-2.13"/><path d="M50.84 3.04h-4.02V.34h10.95v2.7h-4.02v10.62h-2.9V3.04"/><path d="M62 .34h3.13l2.74 9.02L70.83.3h2.5l2.96 9.06L79.02.34h3.04l-4.5 13.4h-2.54l-3-8.7-2.97 8.7h-2.53L62 .35"/><path d="M85.9 7.04V7c0-3.8 2.98-6.9 7.06-6.9s7 3.08 7 6.86V7c0 3.8-2.96 6.9-7.04 6.9s-7-3.08-7-6.86zm11.02 0V7c0-2.28-1.66-4.2-4-4.2s-3.97 1.88-3.97 4.16V7c0 2.28 1.67 4.2 4 4.2 2.35 0 3.97-1.88 3.97-4.16z"/><path d="M104.97.34h6.05c1.68 0 2.98.48 3.85 1.35.74.73 1.13 1.78 1.13 3.04v.03c0 2.15-1.15 3.5-2.83 4.13l3.23 4.76H113l-2.83-4.26h-2.3v4.26h-2.9V.34zm5.86 6.47c1.4 0 2.23-.75 2.23-1.87V4.9c0-1.27-.87-1.9-2.3-1.9h-2.88v3.8h2.95z"/><path d="M122.27.34h2.9v5.82l5.37-5.82h3.5L128.68 6l5.63 7.66h-3.5L126.7 8l-1.52 1.6v4.06h-2.9V.34"/><path d="M138 11.72l1.7-2.08c1.2 1 2.45 1.62 3.96 1.62 1.2 0 1.9-.47 1.9-1.25v-.03c0-.74-.45-1.12-2.66-1.7-2.66-.68-4.38-1.42-4.38-4.07v-.03c0-2.42 1.93-4.02 4.63-4.02 1.92 0 3.57.6 4.9 1.7l-1.5 2.2c-1.18-.82-2.33-1.3-3.44-1.3-1.1 0-1.7.5-1.7 1.15v.04c0 .87.58 1.16 2.86 1.75 2.68.7 4.2 1.66 4.2 3.98v.04c0 2.65-2 4.13-4.86 4.13-2 0-4.02-.7-5.6-2.13"/><path d="M151.77 10.6h3.06v3.06h-3.06V10.6z"/></g></g></g></g></svg>