<svg xmlns="http://www.w3.org/2000/svg" viewBox="0 0 166.5 75.8" enable-background="new 0 0 166.5 75.8"><style type="text/css">.st0{fill:#00AFA8;}</style><path d="M20.6 52.9V9.1h9.2l11.6 26h.1v-26h7.6v43.8h-8L28.3 24.6h-.1v28.3h-7.6zM54.2 52.9L65.1 9.1h10.7l10.6 43.8h-8l-2.1-9.2H64.6l-2.4 9.2h-8zm11.9-16.6h8.3l-4.1-17.7h-.1l-4.1 17.7zM84.4 9.1h8.3l7.7 31.3h.1l7.6-31.3h8.2l-11.2 43.8h-9.5L84.4 9.1zM114.4 52.9l10.9-43.8H136l10.6 43.8h-8l-2.1-9.2h-11.6l-2.4 9.2h-8.1zm11.9-16.6h8.3l-4.1-17.7h-.1l-4.1 17.7zM20 59.8h126.4v6.8H20z" class="st0"/></svg>