<?xml version="1.0" encoding="utf-8"?>
<!-- Generator: Adobe Illustrator 22.0.1, SVG Export Plug-In . SVG Version: 6.00 Build 0)  -->
<svg version="1.1" id="Layer_1" xmlns="http://www.w3.org/2000/svg" xmlns:xlink="http://www.w3.org/1999/xlink" x="0px" y="0px"
	 viewBox="0 0 166.5 75.8" style="enable-background:new 0 0 166.5 75.8;" xml:space="preserve">
<style type="text/css">
	.st0{fill:#00AFA8;}
</style>
<g>
	<g>
		<g>
			<path class="st0" d="M20.6,52.9V9.1h9.2l11.6,26h0.1v-26h7.6v43.8h-8L28.3,24.6h-0.1v28.3H20.6z"/>
			<path class="st0" d="M54.2,52.9L65.1,9.1h10.7l10.6,43.8h-8l-2.1-9.2H64.6l-2.4,9.2H54.2z M66.1,36.3h8.3l-4.1-17.7h-0.1
				L66.1,36.3z"/>
			<path class="st0" d="M84.4,9.1h8.3l7.7,31.3h0.1l7.6-31.3h8.2l-11.2,43.8h-9.5L84.4,9.1z"/>
			<path class="st0" d="M114.4,52.9l10.9-43.8H136l10.6,43.8h-8l-2.1-9.2h-11.6l-2.4,9.2H114.4z M126.3,36.3h8.3l-4.1-17.7h-0.1
				L126.3,36.3z"/>
		</g>
	</g>
	<rect x="20" y="59.8" class="st0" width="126.4" height="6.8"/>
</g>
</svg>
