<svg xmlns="http://www.w3.org/2000/svg" viewBox="-113.3 213 404.3 115.4" enable-background="new -113.3 213 404.3 115.4"><style type="text/css">.st0{fill:#000;} .st1{fill:#FAA818;} .st2{fill:none;}</style><title>optoro-wm-final-wg</title><path d="M150 312c-.6 0-1-.4-1-1v-38.7c0-7.1 2.2-12.6 6.5-16.5s10.5-5.8 18.2-5.8c4.1-.2 8.2.5 12 2 2.8 1.2 4.2 3.1 4.2 5.7 0 1.2-.4 2.5-1 3.5-.5.8-1.3 1.3-2.2 1.3-.3 0-.6-.1-.9-.2-.9-.3-1.8-.6-2.8-.9-2.3-.6-4.7-.9-7.1-.9-9.9 0-14.9 5.3-14.9 15.7V311c0 .6-.4 1-1 1h-10zm-88.8-.6c1.9-.4 3.7-.9 5.5-1.6 1.4-.5 2.8-1.2 4.1-2 1.1-.7 1.5-2.2.8-3.3l-2.2-3.7c-.4-.7-1.1-1.2-1.9-1.3h-.3c-.3 0-.7.1-1 .2-.6.2-1.2.5-1.9.7-2.2.8-4.5 1.1-6.8 1.1-1.5 0-2.9-.2-4.3-.5s-2.7-.9-3.8-1.8c-1.1-.9-2-2.1-2.6-3.5-.7-1.7-1-3.6-.9-5.4v-25.6c0-1.1.9-2 2-2h11.5c3.1 0 5.5-2.5 5.5-5.6 0-1-.3-2-.8-2.8-.9-1.6-2.5-2.5-4.4-2.5H48c-1.1 0-2-.9-2-2V239c0-2.8-2.2-5-5-5h-2c-2.8 0-5 2.2-5 5v54c0 5.7 1.7 10.3 5.2 13.8s8.6 5.2 15.4 5.2c2.2 0 4.4-.2 6.6-.6zM254 281c0 17.1-13.9 31-31 31s-31-13.9-31-31 13.9-31 31-31 31 13.9 31 31zm-11.5 0c0-10.8-8.7-19.5-19.5-19.5s-19.5 8.7-19.5 19.5 8.7 19.5 19.5 19.5 19.5-8.7 19.5-19.5zM138 281c0 17.1-13.9 31-31 31s-31-13.9-31-31 13.9-31 31-31 31 13.9 31 31zm-11.5 0c0-10.8-8.7-19.5-19.5-19.5s-19.5 8.7-19.5 19.5 8.7 19.5 19.5 19.5 19.5-8.7 19.5-19.5zM-49 281c0 17.1-13.9 31-31 31s-31-13.9-31-31 13.9-31 31-31 31 13.9 31 31zm-11.5 0c0-10.8-8.7-19.5-19.5-19.5s-19.5 8.7-19.5 19.5 8.7 19.5 19.5 19.5 19.5-8.7 19.5-19.5zm83.3 3.2c-1.8 17-17 29.4-34 27.6-5.8-.6-11.2-2.8-15.8-6.3V327c0 .6-.4 1-1 1h-10c-.6 0-1-.4-1-1v-47.5c-.1-11 6.2-21.2 16.1-26 24.3-11.6 48.1 7.3 45.7 30.7zM11.5 281c0-10.8-8.7-19.5-19.5-19.5s-19.5 8.7-19.5 19.5 8.7 19.5 19.5 19.5 19.5-8.7 19.5-19.5z" class="st0"/><path d="M228 213.6c0-.3.3-.6.6-.6H291v62.4c0 .3-.3.6-.6.6s-.6-.2-.6-.6c-2.7-32.6-28.6-58.5-61.2-61.2-.4 0-.6-.2-.6-.6z" class="st1"/><path d="M-204 157h551v248h-551z" class="st2"/></svg>