<svg xmlns="http://www.w3.org/2000/svg" viewBox="0 0 418.4 107.3" enable-background="new 0 0 418.4 107.3"><style type="text/css">.st0{fill:#003767;} .st1{fill:#ADB8BF;}</style><path d="M25.6 58.4C9.6 58.4 0 46.4 0 29.3 0 11.9 9.3 0 25.6 0c16.2 0 25.5 12 25.5 29.3 0 17.1-9.6 29.1-25.5 29.1zm0-51.4C13.9 7 8.4 16.6 8.4 29.3c0 10.8 4.6 22.1 17.2 22.1s17.1-11.3 17.1-22.1C42.7 16.6 37.2 7 25.6 7zM70.4 58.4c-5.1 0-10.3-.9-15-2.7l2-6.8c4.5 1.6 8.6 2.5 13.1 2.5 5.5 0 11.4-2.2 11.4-8.6 0-12.3-26.1-9.7-26.1-27.8C55.8 4.5 65 0 74.4 0c4.7 0 9.1 1.1 13.6 2.6l-2.4 6.5C82.3 8 78.2 7 74.4 7c-5.1 0-10.2 1.9-10.2 7.8 0 10.8 26.2 8.9 26.2 27.3 0 11.2-10 16.3-20 16.3zM133 .9v23.5h-27.4V.9h-8v42.7h8V31.4H133v26.1h7.9V.9zM191.1 57.5l-6-15.5h-23.9l-6 15.5h-8.4L170 .9h7.7L200 57.5h-8.9zm-17.8-46.4h-.2c-.2.4-9.1 24.1-9.1 24.1h18.5l-9.2-24.1z" class="st0"/><path d="M205.8 57.5V.9h7.9v49.6h23.4v7h-31.3zM303 57.5L297 42h-23.9l-6 15.5h-8.4L281.8.9h7.7l22.3 56.6H303zm-17.8-46.4h-.2c-.2.4-9.1 24.1-9.1 24.1h18.5l-9.2-24.1zM360 57.9c-4.3 0-7.9-2.6-10.1-6.2l-23.4-39.9c-.4-.7-1.1-2.5-1.1-2.5h-.2v48.2h-7.9V.9h11.8l26.1 45.3c.5.8 1.3 2.6 1.3 2.6h.2V.9h7.9V57c-1.4.6-3 .9-4.6.9zM400.6 58.4c-17.1 0-29.1-11.9-29.1-29.1C371.5 11.8 382.3 0 400 0c5.8 0 11.5 1.3 16.8 3.6l-2.7 6.5c-4.5-1.9-9.3-3.1-14.2-3.1-13.2 0-20 9-20 21.7 0 13.7 8.5 22.7 20.9 22.7 3.5 0 6.8-.7 10-2-.2-1.1-.4-2.2-.4-3.3V27.6h7.9V54c-5.2 2.9-11.6 4.4-17.7 4.4zM244.8 14.8h7.9v42.7h-7.9z" class="st1"/><path d="M244.8.9h7.9v7.9h-7.9z" class="st0"/><path d="M97.6 49.6h7.9v7.9h-7.9z" class="st1"/><path d="M60.9 100.8V82h2.6v18.8h-2.6zM76.6 100.8V92c0-2-1.2-3-3.1-3-1.1 0-2.2.3-3.3.7 0 0 .1.4.1.7v10.5h-2.5V90c0-.6-.2-1.8-.2-1.8 1.9-.7 3.9-1.4 5.9-1.4 3.2 0 5.5 1.2 5.5 4.7v9.3h-2.4zM87.2 101.2c-2.4 0-3.8-1.1-3.8-3.5v-8.4l-1.6-.1v-1.9l1.6-.1v-3.8h2.5v3.8h4v2.1h-4v8.3c0 1.1.7 1.5 1.6 1.5.9 0 1.8-.3 2.4-.5l.7 2c-1 .2-2.2.6-3.4.6zM103.7 94.8h-9.1c.1 2.4 1.6 4.2 4.3 4.2 1.1 0 2.2-.2 3.3-.6l.8 1.9c-1.3.6-2.8.9-4.2.9-4.2 0-6.7-3.1-6.7-7.2 0-3.8 1.9-7.1 6-7.1 3.8 0 5.9 2.9 5.9 6.5-.2.3-.2.9-.3 1.4zm-5.8-5.9c-2.1 0-3.3 1.8-3.4 3.9h6.7c0-2-1-3.9-3.3-3.9zM109.7 101.1c-1.8 0-2.7-.8-2.7-2.6V80.7h2.5V98c0 .5.2 1 .8 1 .3 0 .7-.1 1-.2l.6 1.9c-.7.2-1.5.4-2.2.4zM117.2 101.1c-1.8 0-2.7-.8-2.7-2.6V80.7h2.5V98c0 .5.2 1 .8 1 .3 0 .7-.1 1-.2l.6 1.9c-.7.2-1.5.4-2.2.4zM132.9 94.8h-9.1c.1 2.4 1.6 4.2 4.3 4.2 1.1 0 2.2-.2 3.3-.6l.8 1.9c-1.3.6-2.8.9-4.2.9-4.2 0-6.7-3.1-6.7-7.2 0-3.8 1.9-7.1 6-7.1 3.8 0 5.9 2.9 5.9 6.5-.2.3-.3.9-.3 1.4zm-5.8-5.9c-2.1 0-3.3 1.8-3.4 3.9h6.7c0-2-1-3.9-3.3-3.9zM142.4 101.1c-3.9 0-7.2-2.7-7.2-7.1 0-4.2 2.7-7.2 6.9-7.2 1.4 0 2.9.3 4.2.9l-.7 2c-.8-.3-2.1-.7-3.3-.7-2.9 0-4.3 2.4-4.3 5 0 3.1 2.1 5.1 4.6 5.1 1.2 0 2.3-.4 3.1-.7l.7 1.9c-1.3.5-2.6.8-4 .8zM153.9 101.2c-2.4 0-3.8-1.1-3.8-3.5v-8.4l-1.6-.1v-1.9l1.6-.1v-3.8h2.5v3.8h4v2.1h-4v8.3c0 1.1.7 1.5 1.6 1.5.9 0 1.8-.3 2.4-.5l.7 2c-1.1.2-2.3.6-3.4.6zM164.8 101.1c-3.2 0-5.5-1.2-5.5-4.7v-9.3h2.5v8.8c0 2 1.2 3 3.1 3 1.1 0 2.2-.3 3.3-.7 0 0-.1-.4-.1-.7V87.1h2.5v10.8c0 .6.2 1.8.2 1.8-1.9.7-4 1.4-6 1.4zM179.5 101.1c-3.3 0-5.7-1.3-5.7-4 0-3 2.5-3.8 4.7-4.3 2-.4 3.8-.6 3.8-2 0-1.6-1.5-1.9-2.7-1.9-1.4 0-3 .6-3.6.9l-.9-1.9c1.3-.6 3.2-1.1 4.6-1.1 3.3 0 5 1.5 5 4.4v7.2c0 .6.2 1.8.2 1.8-1.6.4-3.5.9-5.4.9zm2.8-3.2v-4.3c-.6.5-1.7.7-2.7.9-1.6.4-3 .8-3 2.3 0 1.4 1.2 2.1 3 2.1 1 0 2-.2 2.9-.5-.2.1-.2-.3-.2-.5zM191.4 101.1c-1.8 0-2.7-.8-2.7-2.6V80.7h2.5V98c0 .5.2 1 .8 1 .3 0 .7-.1 1-.2l.6 1.9c-.7.2-1.5.4-2.2.4zM207.8 93.3c-.7 0-1.3-.1-1.9-.2v7.6h-2.6V82.2c1.5-.4 3.1-.5 4.6-.5 3.6 0 6.7 1.7 6.7 5.7-.1 3.9-3.1 5.9-6.8 5.9zm0-9.2c-.6 0-1.3.1-1.9.2v6.6c.5.1 1.2.2 1.9.2 2.4 0 4-1.2 4-3.6-.1-2.6-1.7-3.4-4-3.4zM224.6 89.2c-.5-.1-1.1-.2-1.6-.2-.9 0-1.8.2-2.7.5 0 0 0 .4 0 .6v10.7h-2.5V90.1c0-.6-.2-1.9-.2-1.9 1.8-.8 3.7-1.4 5.6-1.4.7 0 1.3.1 2 .2l-.6 2.2zM233.1 101.1c-4 0-6.6-3-6.6-7.2s2.7-7.2 6.6-7.2c4 0 6.7 3 6.7 7.2s-2.7 7.2-6.7 7.2zm0-12.2c-2.6 0-3.9 2.3-3.9 5s1.3 5 3.9 5c2.6 0 3.9-2.3 3.9-5s-1.2-5-3.9-5zM248 101.1c-.8 0-1.7-.2-2.5-.5v6.3H243V89.5c0-.6-.2-1.7-.2-1.7 1.3-.5 3.4-1 5-1 4.4 0 7 3 7 7.1s-2.8 7.2-6.8 7.2zm-.2-12.2c-.9 0-1.7.2-2.4.5 0 .1.1.4.1.6v8.5c.6.3 1.4.4 2.1.4 3.1 0 4.4-2 4.4-5 .1-2.6-1.1-5-4.2-5zM268.8 94.8h-9.1c.1 2.4 1.6 4.2 4.3 4.2 1.1 0 2.2-.2 3.3-.6l.8 1.9c-1.3.6-2.8.9-4.2.9-4.2 0-6.7-3.1-6.7-7.2 0-3.8 1.9-7.1 6-7.1 3.8 0 5.9 2.9 5.9 6.5-.2.3-.2.9-.3 1.4zm-5.8-5.9c-2.1 0-3.3 1.8-3.4 3.9h6.7c0-2-1-3.9-3.3-3.9zM278.9 89.2c-.5-.1-1.1-.2-1.6-.2-.9 0-1.8.2-2.7.5 0 0 0 .4 0 .6v10.7h-2.5V90.1c0-.6-.2-1.9-.2-1.9 1.8-.8 3.7-1.4 5.6-1.4.7 0 1.3.1 2 .2l-.6 2.2zM286.1 101.2c-2.4 0-3.8-1.1-3.8-3.5v-8.4l-1.6-.1v-1.9l1.6-.1v-3.8h2.5v3.8h4v2.1h-4v8.3c0 1.1.7 1.5 1.6 1.5.8 0 1.8-.3 2.4-.5l.7 2c-1.1.2-2.3.6-3.4.6zM298.5 101.4c-.9 2.6-2.7 5.2-5.2 5.9l-1.2-1.8c2.1-.7 3.5-2.6 4.2-4.5-.4-.1-1-.5-1.3-1.4l-5.1-12.5h2.8l4.3 11.4 3.8-11.4h2.6l-4.9 14.3zM312.5 100.8V82h2.6v16.4h7.8v2.3h-10.4zM330.2 101.1c-3.3 0-5.7-1.3-5.7-4 0-3 2.5-3.8 4.7-4.3 2-.4 3.8-.6 3.8-2 0-1.6-1.5-1.9-2.7-1.9-1.4 0-3 .6-3.6.9l-.8-1.9c1.3-.6 3.2-1.1 4.6-1.1 3.3 0 5 1.5 5 4.4v7.2c0 .6.2 1.8.2 1.8-1.7.4-3.6.9-5.5.9zm2.8-3.2v-4.3c-.6.5-1.7.7-2.7.9-1.6.4-3 .8-3 2.3 0 1.4 1.2 2.1 3 2.1 1 0 2-.2 2.9-.5-.1.1-.2-.3-.2-.5zM354.5 101c-1.6 0-2.6-.7-3.1-2.2l-2.9-8.5L345 101c-1.7 0-2.6-.7-3.2-2.2l-4.2-11.7h2.8l3.2 10 .2.7h.1s.1-.5.2-.7l3.3-9.9h2.4l3.3 10c0 .1.2.7.2.7h.1s.1-.4.2-.7l3.2-10h2.6l-4.9 13.8z" class="st0"/></svg>