<?xml version="1.0" encoding="utf-8"?>
<!-- Generator: Adobe Illustrator 21.0.2, SVG Export Plug-In . SVG Version: 6.00 Build 0)  -->
<svg version="1.1" id="Layer_1" xmlns="http://www.w3.org/2000/svg" xmlns:xlink="http://www.w3.org/1999/xlink" x="0px" y="0px"
	 viewBox="0 0 418.4 107.3" style="enable-background:new 0 0 418.4 107.3;" xml:space="preserve">
<style type="text/css">
	.st0{fill:#003767;}
	.st1{fill:#ADB8BF;}
</style>
<g>
	<g>
		<path class="st0" d="M25.6,58.4C9.6,58.4,0,46.4,0,29.3C0,11.9,9.3,0,25.6,0c16.2,0,25.5,12,25.5,29.3
			C51.1,46.4,41.5,58.4,25.6,58.4z M25.6,7C13.9,7,8.4,16.6,8.4,29.3c0,10.8,4.6,22.1,17.2,22.1c12.6,0,17.1-11.3,17.1-22.1
			C42.7,16.6,37.2,7,25.6,7z"/>
		<path class="st0" d="M70.4,58.4c-5.1,0-10.3-0.9-15-2.7l2-6.8c4.5,1.6,8.6,2.5,13.1,2.5c5.5,0,11.4-2.2,11.4-8.6
			c0-12.3-26.1-9.7-26.1-27.8C55.8,4.5,65,0,74.4,0c4.7,0,9.1,1.1,13.6,2.6l-2.4,6.5C82.3,8,78.2,7,74.4,7c-5.1,0-10.2,1.9-10.2,7.8
			c0,10.8,26.2,8.9,26.2,27.3C90.4,53.3,80.4,58.4,70.4,58.4z"/>
		<polygon class="st0" points="133,0.9 133,24.4 105.6,24.4 105.6,0.9 97.6,0.9 97.6,43.6 105.6,43.6 105.6,31.4 133,31.4 133,57.5 
			140.9,57.5 140.9,0.9 		"/>
		<path class="st0" d="M191.1,57.5l-6-15.5h-23.9l-6,15.5h-8.4L170,0.9h7.7l22.3,56.6H191.1z M173.3,11.1h-0.2
			c-0.2,0.4-9.1,24.1-9.1,24.1h18.5L173.3,11.1z"/>
		<path class="st1" d="M205.8,57.5V0.9h7.9v49.6h23.4v7H205.8z"/>
		<path class="st1" d="M303,57.5L297,42h-23.9l-6,15.5h-8.4l23.1-56.6h7.7l22.3,56.6H303z M285.2,11.1H285
			c-0.2,0.4-9.1,24.1-9.1,24.1h18.5L285.2,11.1z"/>
		<path class="st1" d="M360,57.9c-4.3,0-7.9-2.6-10.1-6.2l-23.4-39.9c-0.4-0.7-1.1-2.5-1.1-2.5h-0.2v48.2h-7.9V0.9h11.8l26.1,45.3
			c0.5,0.8,1.3,2.6,1.3,2.6h0.2V0.9h7.9V57C363.2,57.6,361.6,57.9,360,57.9z"/>
		<path class="st1" d="M400.6,58.4c-17.1,0-29.1-11.9-29.1-29.1C371.5,11.8,382.3,0,400,0c5.8,0,11.5,1.3,16.8,3.6l-2.7,6.5
			c-4.5-1.9-9.3-3.1-14.2-3.1c-13.2,0-20,9-20,21.7c0,13.7,8.5,22.7,20.9,22.7c3.5,0,6.8-0.7,10-2c-0.2-1.1-0.4-2.2-0.4-3.3V27.6
			h7.9V54C413.1,56.9,406.7,58.4,400.6,58.4z"/>
		<rect x="244.8" y="14.8" class="st1" width="7.9" height="42.7"/>
		<rect x="244.8" y="0.9" class="st0" width="7.9" height="7.9"/>
		<rect x="97.6" y="49.6" class="st1" width="7.9" height="7.9"/>
	</g>
	<g>
		<path class="st0" d="M60.9,100.8V82h2.6v18.8H60.9z"/>
		<path class="st0" d="M76.6,100.8V92c0-2-1.2-3-3.1-3c-1.1,0-2.2,0.3-3.3,0.7c0,0,0.1,0.4,0.1,0.7v10.5h-2.5V90
			c0-0.6-0.2-1.8-0.2-1.8c1.9-0.7,3.9-1.4,5.9-1.4c3.2,0,5.5,1.2,5.5,4.7v9.3H76.6z"/>
		<path class="st0" d="M87.2,101.2c-2.4,0-3.8-1.1-3.8-3.5v-8.4l-1.6-0.1v-1.9l1.6-0.1v-3.8h2.5v3.8h4v2.1h-4v8.3
			c0,1.1,0.7,1.5,1.6,1.5c0.9,0,1.8-0.3,2.4-0.5l0.7,2C89.6,100.8,88.4,101.2,87.2,101.2z"/>
		<path class="st0" d="M103.7,94.8h-9.1c0.1,2.4,1.6,4.2,4.3,4.2c1.1,0,2.2-0.2,3.3-0.6l0.8,1.9c-1.3,0.6-2.8,0.9-4.2,0.9
			c-4.2,0-6.7-3.1-6.7-7.2c0-3.8,1.9-7.1,6-7.1c3.8,0,5.9,2.9,5.9,6.5C103.8,93.7,103.8,94.3,103.7,94.8z M97.9,88.9
			c-2.1,0-3.3,1.8-3.4,3.9h6.7C101.2,90.8,100.2,88.9,97.9,88.9z"/>
		<path class="st0" d="M109.7,101.1c-1.8,0-2.7-0.8-2.7-2.6V80.7h2.5V98c0,0.5,0.2,1,0.8,1c0.3,0,0.7-0.1,1-0.2l0.6,1.9
			C111.2,100.9,110.4,101.1,109.7,101.1z"/>
		<path class="st0" d="M117.2,101.1c-1.8,0-2.7-0.8-2.7-2.6V80.7h2.5V98c0,0.5,0.2,1,0.8,1c0.3,0,0.7-0.1,1-0.2l0.6,1.9
			C118.7,100.9,117.9,101.1,117.2,101.1z"/>
		<path class="st0" d="M132.9,94.8h-9.1c0.1,2.4,1.6,4.2,4.3,4.2c1.1,0,2.2-0.2,3.3-0.6l0.8,1.9c-1.3,0.6-2.8,0.9-4.2,0.9
			c-4.2,0-6.7-3.1-6.7-7.2c0-3.8,1.9-7.1,6-7.1c3.8,0,5.9,2.9,5.9,6.5C133,93.7,132.9,94.3,132.9,94.8z M127.1,88.9
			c-2.1,0-3.3,1.8-3.4,3.9h6.7C130.4,90.8,129.4,88.9,127.1,88.9z"/>
		<path class="st0" d="M142.4,101.1c-3.9,0-7.2-2.7-7.2-7.1c0-4.2,2.7-7.2,6.9-7.2c1.4,0,2.9,0.3,4.2,0.9l-0.7,2
			c-0.8-0.3-2.1-0.7-3.3-0.7c-2.9,0-4.3,2.4-4.3,5c0,3.1,2.1,5.1,4.6,5.1c1.2,0,2.3-0.4,3.1-0.7l0.7,1.9
			C145.1,100.8,143.8,101.1,142.4,101.1z"/>
		<path class="st0" d="M153.9,101.2c-2.4,0-3.8-1.1-3.8-3.5v-8.4l-1.6-0.1v-1.9l1.6-0.1v-3.8h2.5v3.8h4v2.1h-4v8.3
			c0,1.1,0.7,1.5,1.6,1.5c0.9,0,1.8-0.3,2.4-0.5l0.7,2C156.2,100.8,155,101.2,153.9,101.2z"/>
		<path class="st0" d="M164.8,101.1c-3.2,0-5.5-1.2-5.5-4.7v-9.3h2.5v8.8c0,2,1.2,3,3.1,3c1.1,0,2.2-0.3,3.3-0.7
			c0,0-0.1-0.4-0.1-0.7V87.1h2.5v10.8c0,0.6,0.2,1.8,0.2,1.8C168.9,100.4,166.8,101.1,164.8,101.1z"/>
		<path class="st0" d="M179.5,101.1c-3.3,0-5.7-1.3-5.7-4c0-3,2.5-3.8,4.7-4.3c2-0.4,3.8-0.6,3.8-2c0-1.6-1.5-1.9-2.7-1.9
			c-1.4,0-3,0.6-3.6,0.9l-0.9-1.9c1.3-0.6,3.2-1.1,4.6-1.1c3.3,0,5,1.5,5,4.4v7.2c0,0.6,0.2,1.8,0.2,1.8
			C183.3,100.6,181.4,101.1,179.5,101.1z M182.3,97.9v-4.3c-0.6,0.5-1.7,0.7-2.7,0.9c-1.6,0.4-3,0.8-3,2.3c0,1.4,1.2,2.1,3,2.1
			c1,0,2-0.2,2.9-0.5C182.3,98.5,182.3,98.1,182.3,97.9z"/>
		<path class="st0" d="M191.4,101.1c-1.8,0-2.7-0.8-2.7-2.6V80.7h2.5V98c0,0.5,0.2,1,0.8,1c0.3,0,0.7-0.1,1-0.2l0.6,1.9
			C192.9,100.9,192.1,101.1,191.4,101.1z"/>
		<path class="st0" d="M207.8,93.3c-0.7,0-1.3-0.1-1.9-0.2v7.6h-2.6V82.2c1.5-0.4,3.1-0.5,4.6-0.5c3.6,0,6.7,1.7,6.7,5.7
			C214.5,91.3,211.5,93.3,207.8,93.3z M207.8,84.1c-0.6,0-1.3,0.1-1.9,0.2v6.6c0.5,0.1,1.2,0.2,1.9,0.2c2.4,0,4-1.2,4-3.6
			C211.7,84.9,210.1,84.1,207.8,84.1z"/>
		<path class="st0" d="M224.6,89.2c-0.5-0.1-1.1-0.2-1.6-0.2c-0.9,0-1.8,0.2-2.7,0.5c0,0,0,0.4,0,0.6v10.7h-2.5V90.1
			c0-0.6-0.2-1.9-0.2-1.9c1.8-0.8,3.7-1.4,5.6-1.4c0.7,0,1.3,0.1,2,0.2L224.6,89.2z"/>
		<path class="st0" d="M233.1,101.1c-4,0-6.6-3-6.6-7.2c0-4.2,2.7-7.2,6.6-7.2c4,0,6.7,3,6.7,7.2
			C239.8,98.1,237.1,101.1,233.1,101.1z M233.1,88.9c-2.6,0-3.9,2.3-3.9,5c0,2.7,1.3,5,3.9,5c2.6,0,3.9-2.3,3.9-5
			C237,91.2,235.8,88.9,233.1,88.9z"/>
		<path class="st0" d="M248,101.1c-0.8,0-1.7-0.2-2.5-0.5v6.3H243V89.5c0-0.6-0.2-1.7-0.2-1.7c1.3-0.5,3.4-1,5-1c4.4,0,7,3,7,7.1
			C254.8,98,252,101.1,248,101.1z M247.8,88.9c-0.9,0-1.7,0.2-2.4,0.5c0,0.1,0.1,0.4,0.1,0.6v8.5c0.6,0.3,1.4,0.4,2.1,0.4
			c3.1,0,4.4-2,4.4-5C252.1,91.3,250.9,88.9,247.8,88.9z"/>
		<path class="st0" d="M268.8,94.8h-9.1c0.1,2.4,1.6,4.2,4.3,4.2c1.1,0,2.2-0.2,3.3-0.6l0.8,1.9c-1.3,0.6-2.8,0.9-4.2,0.9
			c-4.2,0-6.7-3.1-6.7-7.2c0-3.8,1.9-7.1,6-7.1c3.8,0,5.9,2.9,5.9,6.5C268.9,93.7,268.9,94.3,268.8,94.8z M263,88.9
			c-2.1,0-3.3,1.8-3.4,3.9h6.7C266.3,90.8,265.3,88.9,263,88.9z"/>
		<path class="st0" d="M278.9,89.2c-0.5-0.1-1.1-0.2-1.6-0.2c-0.9,0-1.8,0.2-2.7,0.5c0,0,0,0.4,0,0.6v10.7h-2.5V90.1
			c0-0.6-0.2-1.9-0.2-1.9c1.8-0.8,3.7-1.4,5.6-1.4c0.7,0,1.3,0.1,2,0.2L278.9,89.2z"/>
		<path class="st0" d="M286.1,101.2c-2.4,0-3.8-1.1-3.8-3.5v-8.4l-1.6-0.1v-1.9l1.6-0.1v-3.8h2.5v3.8h4v2.1h-4v8.3
			c0,1.1,0.7,1.5,1.6,1.5c0.8,0,1.8-0.3,2.4-0.5l0.7,2C288.4,100.8,287.2,101.2,286.1,101.2z"/>
		<path class="st0" d="M298.5,101.4c-0.9,2.6-2.7,5.2-5.2,5.9l-1.2-1.8c2.1-0.7,3.5-2.6,4.2-4.5c-0.4-0.1-1-0.5-1.3-1.4l-5.1-12.5
			h2.8l4.3,11.4h0l3.8-11.4h2.6L298.5,101.4z"/>
		<path class="st0" d="M312.5,100.8V82h2.6v16.4h7.8v2.3H312.5z"/>
		<path class="st0" d="M330.2,101.1c-3.3,0-5.7-1.3-5.7-4c0-3,2.5-3.8,4.7-4.3c2-0.4,3.8-0.6,3.8-2c0-1.6-1.5-1.9-2.7-1.9
			c-1.4,0-3,0.6-3.6,0.9l-0.8-1.9c1.3-0.6,3.2-1.1,4.6-1.1c3.3,0,5,1.5,5,4.4v7.2c0,0.6,0.2,1.8,0.2,1.8
			C334,100.6,332.1,101.1,330.2,101.1z M333,97.9v-4.3c-0.6,0.5-1.7,0.7-2.7,0.9c-1.6,0.4-3,0.8-3,2.3c0,1.4,1.2,2.1,3,2.1
			c1,0,2-0.2,2.9-0.5C333.1,98.5,333,98.1,333,97.9z"/>
		<path class="st0" d="M354.5,101c-1.6,0-2.6-0.7-3.1-2.2l-2.9-8.5L345,101c-1.7,0-2.6-0.7-3.2-2.2l-4.2-11.7h2.8l3.2,10l0.2,0.7
			h0.1c0,0,0.1-0.5,0.2-0.7l3.3-9.9h2.4l3.3,10c0,0.1,0.2,0.7,0.2,0.7h0.1c0,0,0.1-0.4,0.2-0.7l3.2-10h2.6L354.5,101z"/>
	</g>
</g>
</svg>
