<?xml version="1.0" encoding="UTF-8" standalone="no"?>
<!DOCTYPE svg PUBLIC "-//W3C//DTD SVG 1.1//EN" "http://www.w3.org/Graphics/SVG/1.1/DTD/svg11.dtd">
<svg width="100%" height="100%" viewBox="0 0 1567 580" version="1.1" xmlns="http://www.w3.org/2000/svg" xmlns:xlink="http://www.w3.org/1999/xlink" xml:space="preserve" xmlns:serif="http://www.serif.com/" style="fill-rule:evenodd;clip-rule:evenodd;stroke-linejoin:round;stroke-miterlimit:1.41421;">
    <g transform="matrix(1,0,0,1,-485.276,-2296.04)">
        <g id="Blue" transform="matrix(0.918123,0,0,0.543021,485.276,2296.04)">
            <rect x="0" y="0" width="1706.67" height="1066.67" style="fill:none;"/>
            <g>
                <g transform="matrix(4.53824,0,0,7.67312,-99.6356,9.80255)">
                    <path d="M167.303,48.183L174.458,48.183L180.879,64.788L191.765,64.788L183.998,46.222C188.524,44.568 191.276,40.156 191.276,35.377C191.276,31.271 189.38,27.166 185.955,24.899C182.714,22.815 178.922,22.754 175.192,22.754L157.518,22.754L157.518,64.788L167.303,64.788L167.303,48.183ZM167.303,30.23L172.44,30.23C174.275,30.23 177.088,29.984 178.739,31.026C180.146,31.884 181.124,33.661 181.124,35.315C181.124,37.154 180.268,39.114 178.678,40.095C176.904,41.136 174.703,40.952 172.684,40.952L167.303,40.952L167.303,30.23Z" style="fill:rgb(32,165,222);fill-rule:nonzero;"/>
                </g>
                <g transform="matrix(4.53824,0,0,7.67312,-99.6356,9.80255)">
                    <path d="M221.424,50.756C221.485,46.528 220.813,42.117 218.244,38.563C215.676,35.009 211.211,33.048 206.869,33.048C197.206,33.048 191.763,40.462 191.763,49.653C191.763,58.906 197.818,65.401 207.114,65.401C217.633,65.401 221.241,56.21 221.241,54.678L212.924,54.065C212.924,56.945 210.172,58.967 207.419,58.967C203.505,58.967 201.426,55.965 201.426,52.288L201.487,50.756L221.424,50.756ZM201.426,45.425C201.732,41.872 203.261,38.93 207.236,38.93C211.15,38.93 212.251,42.055 212.434,45.425L201.426,45.425Z" style="fill:rgb(32,165,222);fill-rule:nonzero;"/>
                </g>
                <g transform="matrix(4.53824,0,0,7.67312,-99.6356,9.80255)">
                    <path d="M248.027,41.198C245.887,35.377 241.912,33.048 235.796,33.048C229.191,33.048 222.525,35.805 222.525,43.465C222.525,47.386 224.971,50.573 228.641,51.859C230.598,52.533 235.735,53.452 237.875,53.697C239.527,53.881 241.361,54.249 241.361,56.332C241.361,58.661 237.631,59.273 235.918,59.273C233.044,59.273 229.681,58.293 229.069,55.107L221.302,56.21C222.953,63.195 229.008,65.401 235.49,65.401C238.915,65.401 242.34,64.788 245.153,62.827C247.783,60.928 249.312,58.048 249.312,54.8C249.312,40.769 230.659,47.386 230.659,41.565C230.659,39.298 233.472,38.808 235.307,38.808C238.242,38.808 240.566,40.033 241.361,42.975L248.027,41.198Z" style="fill:rgb(32,165,222);fill-rule:nonzero;"/>
                </g>
                <g transform="matrix(4.53824,0,0,7.67312,-99.6356,9.80255)">
                    <path d="M280.012,50.756C280.073,46.528 279.401,42.117 276.832,38.563C274.264,35.009 269.799,33.048 265.457,33.048C255.794,33.048 250.351,40.462 250.351,49.653C250.351,58.906 256.406,65.401 265.702,65.401C276.221,65.401 279.829,56.21 279.829,54.678L271.512,54.065C271.512,56.945 268.76,58.967 266.007,58.967C262.093,58.967 260.014,55.965 260.014,52.288L260.075,50.756L280.012,50.756ZM260.014,45.425C260.32,41.872 261.849,38.93 265.824,38.93C269.738,38.93 270.839,42.055 271.022,45.425L260.014,45.425Z" style="fill:rgb(32,165,222);fill-rule:nonzero;"/>
                </g>
                <g transform="matrix(4.53824,0,0,7.67312,-99.6356,9.80255)">
                    <path d="M310.163,64.788C309.673,63.256 309.551,61.724 309.551,60.131L309.551,45.609C309.551,41.872 309.857,38.44 306.677,35.867C304.169,33.783 300.011,33.048 296.83,33.048C290.287,33.048 282.948,35.254 282.031,42.791L290.531,43.587C290.531,40.524 293.039,39.053 295.913,39.053C297.259,39.053 298.787,39.482 299.582,40.524C300.5,41.688 300.377,43.281 300.377,44.629L300.377,45.364C296.586,45.732 291.632,45.977 288.085,47.325C283.988,48.857 281.113,51.982 281.113,56.577C281.113,62.46 285.394,65.401 290.898,65.401C295.546,65.401 298.237,63.624 300.806,59.947C300.744,61.541 300.867,63.195 301.234,64.788L310.163,64.788ZM300.377,51.124C300.377,53.33 300.439,55.168 299.154,57.129C298.115,58.722 296.463,59.702 294.629,59.702C292.121,59.702 290.654,58.048 290.654,55.597C290.654,51.063 296.953,50.266 300.377,49.898L300.377,51.124Z" style="fill:rgb(32,165,222);fill-rule:nonzero;"/>
                </g>
                <g transform="matrix(4.53824,0,0,7.67312,-99.6356,9.80255)">
                    <path d="M312.976,33.661L312.976,64.788L321.966,64.788L321.966,52.901C321.966,47.386 322.822,41.81 329.671,42.178L329.671,33.171L328.143,33.048C324.229,32.742 322.394,36.173 321.476,39.482L321.354,39.482L321.354,33.661L312.976,33.661Z" style="fill:rgb(32,165,222);fill-rule:nonzero;"/>
                </g>
                <g transform="matrix(4.53824,0,0,7.67312,-99.6356,9.80255)">
                    <path d="M358.048,44.997C357.437,37.705 351.688,33.048 344.472,33.048C334.687,33.048 328.938,39.972 328.938,49.531C328.938,58.722 334.503,65.401 343.921,65.401C351.505,65.401 357.314,60.805 358.048,53.085L349.486,52.595C349.181,55.474 347.591,57.987 344.41,57.987C339.273,57.987 339.212,52.595 339.212,48.796C339.212,44.813 339.824,39.911 344.777,39.911C348.019,39.911 349.486,42.668 349.486,45.487L358.048,44.997Z" style="fill:rgb(32,165,222);fill-rule:nonzero;"/>
                </g>
                <g transform="matrix(4.53824,0,0,7.67312,-99.6356,9.80255)">
                    <path d="M388.015,44.997C388.015,41.994 388.198,38.869 386.302,36.418C384.468,34.029 381.41,33.048 378.536,33.048C375.172,33.048 371.625,34.825 370.463,37.95L370.341,37.95L370.341,22.754L361.351,22.754L361.351,64.788L370.341,64.788L370.341,47.999C370.341,46.161 370.341,44.2 371.136,42.546C371.87,41.014 373.765,40.217 375.417,40.217C379.331,40.217 379.025,45.303 379.025,47.999L379.025,64.788L388.015,64.788L388.015,44.997Z" style="fill:rgb(32,165,222);fill-rule:nonzero;"/>
                </g>
                <g transform="matrix(4.53824,0,0,7.67312,-93.1006,9.80255)">
                    <rect x="156.109" y="72.329" width="5.642" height="31.418" style="fill:rgb(32,165,222);fill-rule:nonzero;"/>
                </g>
                <g transform="matrix(4.53824,0,0,7.67312,-94.1898,9.80255)">
                    <path d="M187.543,88.816C187.543,85.565 186.838,83.304 185.38,82.033C183.923,80.714 182.184,80.101 180.162,80.101C177.153,80.101 174.802,82.033 173.11,85.942L173.11,80.572L168.362,80.572L168.362,103.794L173.58,103.794L173.58,91.877C173.58,89.428 174.097,87.638 175.132,86.46C176.166,85.236 177.341,84.67 178.705,84.67C179.692,84.67 180.538,85.047 181.243,85.801C181.948,86.602 182.325,87.732 182.325,89.287L182.325,103.794L187.543,103.794L187.543,88.816Z" style="fill:rgb(32,165,222);fill-rule:nonzero;"/>
                </g>
                <g transform="matrix(4.53824,0,0,7.67312,-94.1898,9.80255)">
                    <path d="M213.001,88.816C213.001,85.565 212.296,83.304 210.838,82.033C209.381,80.714 207.642,80.101 205.62,80.101C202.611,80.101 200.26,82.033 198.568,85.942L198.568,80.572L193.82,80.572L193.82,103.794L199.038,103.794L199.038,91.877C199.038,89.428 199.555,87.638 200.59,86.46C201.624,85.236 202.799,84.67 204.163,84.67C205.15,84.67 205.996,85.047 206.701,85.801C207.406,86.602 207.783,87.732 207.783,89.287L207.783,103.794L213.001,103.794L213.001,88.816Z" style="fill:rgb(32,165,222);fill-rule:nonzero;"/>
                </g>
                <g transform="matrix(4.53824,0,0,7.67312,-94.1898,9.80255)">
                    <path d="M236.202,100.921C238.318,98.707 239.352,95.74 239.352,92.066C239.352,88.533 238.318,85.66 236.343,83.399C234.322,81.185 231.783,80.101 228.68,80.101C225.389,80.101 222.757,81.232 220.782,83.493C218.76,85.801 217.773,88.674 217.773,92.066C217.773,95.269 218.666,98.095 220.5,100.591C222.286,103.041 224.919,104.266 228.351,104.266C231.501,104.266 234.134,103.182 236.202,100.921ZM224.731,97.954C223.791,96.635 223.321,94.703 223.321,92.16C223.321,89.805 223.791,87.921 224.637,86.507C225.53,85.094 226.847,84.388 228.68,84.388C230.42,84.388 231.689,85.047 232.535,86.46C233.382,87.826 233.805,89.71 233.805,92.066C233.805,97.341 232.065,99.932 228.539,99.932C226.894,99.932 225.671,99.273 224.731,97.954Z" style="fill:rgb(32,165,222);fill-rule:nonzero;"/>
                </g>
                <g transform="matrix(4.53824,0,0,7.67312,-92.0114,9.80255)">
                    <path d="M257.491,80.572L252.178,96.305L246.772,80.572L241.318,80.572L249.357,103.794L253.73,103.794L261.581,80.572L257.491,80.572Z" style="fill:rgb(32,165,222);fill-rule:nonzero;"/>
                </g>
                <g transform="matrix(4.53824,0,0,7.67312,-90.9222,9.80255)">
                    <path d="M284.163,99.084L284.163,88.627C284.163,86.602 284.022,85.189 283.74,84.388C283.411,83.54 282.894,82.739 282.094,82.033C281.342,81.326 280.355,80.808 279.227,80.525C278.098,80.243 276.641,80.101 274.854,80.101C271.563,80.101 269.025,80.714 267.285,81.938C265.546,83.21 264.511,84.812 264.276,86.743L268.743,87.402C269.166,85 270.999,83.775 274.149,83.775C277.44,83.775 279.086,85 279.086,87.402L279.086,89.145C278.427,89.145 277.957,89.098 277.581,89.098C268.225,89.098 263.571,91.783 263.571,97.106C263.571,99.178 264.276,100.874 265.64,102.24C267.05,103.606 268.931,104.266 271.234,104.266C275.042,104.266 277.675,102.57 279.086,99.084C279.18,100.827 279.415,102.381 279.885,103.794L284.868,103.794C284.398,102.193 284.163,100.639 284.163,99.084ZM279.086,94.091C279.086,95.74 278.568,97.153 277.534,98.425C276.547,99.696 275.042,100.309 273.021,100.309C271.657,100.309 270.623,99.979 269.965,99.32C269.26,98.613 268.931,97.812 268.931,96.823C268.931,93.573 272.316,91.971 279.086,91.971L279.086,94.091Z" style="fill:rgb(32,165,222);fill-rule:nonzero;"/>
                </g>
                <g transform="matrix(4.53824,0,0,7.67312,-88.7439,9.80255)">
                    <path d="M299.89,99.744C298.386,99.744 297.399,99.461 296.881,98.943C296.364,98.425 296.082,97.435 296.082,95.975L296.082,84.623L300.737,84.623L300.737,80.572L296.082,80.572L296.082,74.119L291.804,74.496L291.287,80.572L288.137,80.572L288.137,84.623L291.005,84.623L291.005,96.682C291.005,98.707 291.24,100.168 291.71,101.157C292.18,102.146 292.932,102.9 293.92,103.465C294.954,104.03 296.129,104.313 297.54,104.313C298.386,104.313 299.608,104.124 301.16,103.794L301.16,99.696C300.737,99.744 300.266,99.744 299.89,99.744Z" style="fill:rgb(32,165,222);fill-rule:nonzero;"/>
                </g>
                <g transform="matrix(4.53824,0,0,7.67312,-83.298,9.80255)">
                    <path d="M310.81,72.329L305.544,72.329L305.544,77.793L310.81,77.793L310.81,72.329ZM310.81,80.525L305.544,80.525L305.544,103.747L310.81,103.747L310.81,80.525Z" style="fill:rgb(32,165,222);fill-rule:nonzero;"/>
                </g>
                <g transform="matrix(4.53824,0,0,7.67312,-83.298,9.80255)">
                    <path d="M334.017,100.921C336.132,98.707 337.167,95.74 337.167,92.066C337.167,88.533 336.132,85.66 334.158,83.399C332.136,81.185 329.598,80.101 326.495,80.101C323.204,80.101 320.571,81.232 318.597,83.493C316.575,85.801 315.588,88.674 315.588,92.066C315.588,95.269 316.481,98.095 318.314,100.591C320.101,103.041 322.734,104.266 326.166,104.266C329.316,104.266 331.948,103.182 334.017,100.921ZM322.546,97.954C321.605,96.635 321.135,94.703 321.135,92.16C321.135,89.805 321.605,87.921 322.452,86.507C323.345,85.094 324.661,84.388 326.495,84.388C328.234,84.388 329.504,85.047 330.35,86.46C331.196,87.826 331.619,89.71 331.619,92.066C331.619,97.341 329.88,99.932 326.354,99.932C324.708,99.932 323.486,99.273 322.546,97.954Z" style="fill:rgb(32,165,222);fill-rule:nonzero;"/>
                </g>
                <g transform="matrix(4.53824,0,0,7.67312,-83.298,9.80255)">
                    <path d="M361.135,88.816C361.135,85.565 360.43,83.304 358.972,82.033C357.515,80.714 355.775,80.101 353.754,80.101C350.745,80.101 348.394,82.033 346.702,85.942L346.702,80.572L341.953,80.572L341.953,103.794L347.172,103.794L347.172,91.877C347.172,89.428 347.689,87.638 348.723,86.46C349.758,85.236 350.933,84.67 352.296,84.67C353.284,84.67 354.13,85.047 354.835,85.801C355.54,86.602 355.916,87.732 355.916,89.287L355.916,103.794L361.135,103.794L361.135,88.816Z" style="fill:rgb(32,165,222);fill-rule:nonzero;"/>
                </g>
                <g transform="matrix(4.53824,0,0,7.67312,-83.1043,9.80255)">
                    <path d="M368.164,102.852C369.95,103.794 372.066,104.266 374.416,104.266C377.19,104.266 379.541,103.653 381.515,102.381C383.537,101.11 384.524,99.225 384.524,96.635C384.524,93.008 382.55,90.747 378.695,89.993L373.711,88.957C371.455,88.486 370.326,87.638 370.326,86.413C370.326,84.67 371.737,83.823 374.51,83.823C376.814,83.823 378.224,84.67 378.695,86.413L383.349,85.471C382.268,81.891 379.259,80.101 374.369,80.101C371.455,80.101 369.245,80.808 367.741,82.221C366.283,83.681 365.531,85.424 365.531,87.45C365.531,91.124 367.882,93.432 372.536,94.327L376.767,95.127C377.472,95.269 378.036,95.551 378.554,95.928C379.071,96.352 379.306,96.87 379.306,97.483C379.306,99.367 377.707,100.356 374.463,100.356C371.878,100.356 370.232,99.414 369.48,97.53L364.591,98.472C365.155,100.403 366.33,101.863 368.164,102.852Z" style="fill:rgb(32,165,222);fill-rule:nonzero;"/>
                </g>
                <g transform="matrix(4.53824,0,0,7.67312,-94.1898,9.80255)">
                    <path d="M56.088,36.584L71.965,34.596C60.059,54.479 56.088,98.224 56.088,136C50.135,110.155 44.18,62.435 56.088,36.584Z" style="fill:rgb(32,165,222);"/>
                </g>
                <g transform="matrix(4.53824,0,0,7.67312,-94.1898,9.80255)">
                    <path d="M115.624,40.56C105.702,62.435 75.933,76.352 66.01,82.317C131.505,26.64 73.952,28.631 58.074,30.619C46.164,32.606 36.244,36.584 24.335,42.549C38.229,30.619 129.517,2.781 115.624,40.56Z" style="fill:rgb(32,165,222);"/>
                </g>
                <g transform="matrix(4.53824,0,0,7.67312,-94.1898,9.80255)">
                    <path d="M66.01,0.793C73.952,0.793 77.921,4.77 77.921,10.735C77.921,16.7 73.952,20.677 66.01,20.677C60.059,20.677 54.106,16.7 54.106,10.735C54.106,4.77 60.059,0.793 66.01,0.793Z" style="fill:rgb(32,165,222);"/>
                </g>
                <g transform="matrix(4.53824,0,0,7.67312,-94.1898,9.80255)">
                    <path d="M87.843,78.337C79.904,78.337 73.952,80.328 66.01,82.317C67.996,86.297 67.996,88.282 69.981,92.262C89.826,82.317 111.66,86.297 131.505,94.246C119.597,82.317 99.751,78.337 87.843,78.337Z" style="fill:rgb(32,165,222);"/>
                </g>
            </g>
        </g>
    </g>
</svg>
