<?xml version="1.0" encoding="utf-8"?>
<!-- Generator: Adobe Illustrator 18.1.1, SVG Export Plug-In . SVG Version: 6.00 Build 0)  -->
<svg version="1.1" id="Layer_1" xmlns="http://www.w3.org/2000/svg" xmlns:xlink="http://www.w3.org/1999/xlink" x="0px" y="0px"
	 viewBox="0 0 306.8 32.7" enable-background="new 0 0 306.8 32.7" xml:space="preserve">
<g>
	<g>
		<path d="M47.4,31.1c-0.6,0.7-1.3,1.1-2.2,1.1c-0.8,0-1.6-0.3-2.2-1c-0.6-0.7-0.9-1.5-0.9-2.5v-25c0-0.9,0.3-1.8,0.9-2.4
			c0.6-0.7,1.4-1.1,2.2-1.1c0.8,0,1.5,0.3,2.1,1c0.6,0.7,0.9,1.5,0.9,2.5v25C48.3,29.6,48,30.5,47.4,31.1z"/>
		<path d="M90.7,5.1c-0.5,0.6-1,0.8-1.8,0.8H75c-0.7,0-1,0.4-1,1.1v21.6c0,0.9-0.3,1.8-0.9,2.5c-0.6,0.7-1.3,1.1-2.1,1.1
			c-0.8,0-1.6-0.3-2.2-1c-0.6-0.7-0.9-1.5-0.9-2.5V7c0-0.8-0.3-1.1-1-1.1H52.9c-0.7,0-1.3-0.2-1.8-0.8c-0.5-0.6-0.7-1.2-0.7-2
			c0-0.8,0.2-1.5,0.7-2c0.5-0.6,1-0.8,1.8-0.8h36c0.7,0,1.3,0.3,1.8,0.8c0.5,0.6,0.7,1.2,0.7,2C91.4,3.9,91.2,4.5,90.7,5.1z"/>
		<path d="M169.8,30.3c-0.6,1.4-1.5,2.1-2.9,2.1c-1.2,0-2.1-0.6-2.6-2L157,13c-0.2-0.4-0.5-0.7-0.9-0.7c-0.5,0-0.8,0.2-1,0.7
			l-7,17.3c-0.5,1.4-1.5,2.1-2.9,2.1c-1.3,0-2.1-0.6-2.7-2l-10.2-25c-0.2-0.5-0.3-1-0.3-1.6c0-0.9,0.3-1.8,1-2.4
			c0.7-0.7,1.4-1,2.3-1c1.2,0,2.1,0.7,2.6,2l7.2,17.5c0.2,0.4,0.5,0.7,0.9,0.7c0.5,0,0.8-0.2,1-0.7c0.4-0.9,2.8-7,7.4-18.1
			c0.4-1,1.2-1.5,2.3-1.5c1.4,0,2.4,0.7,3,2.1l7.2,17.4c0.2,0.4,0.5,0.7,0.9,0.7c0.5,0,0.8-0.3,1-0.8l7.2-17.7
			c0.4-1.1,1.2-1.6,2.1-1.6c0.7,0,1.3,0.3,1.8,0.8c0.5,0.6,0.8,1.2,0.8,2c0,0.4-0.1,0.8-0.3,1.3L169.8,30.3z"/>
		<path d="M222,29.4c-1.6,1.8-3.6,2.8-5.8,2.8h-26.5c-2.3,0-4.2-0.9-5.8-2.8c-1.6-1.8-2.4-4-2.4-6.6V9.4c0-2.6,0.8-4.8,2.4-6.6
			c1.6-1.8,3.5-2.8,5.8-2.8h26.6c2.3,0,4.2,0.9,5.8,2.7c1.6,1.8,2.4,4.1,2.4,6.7v13.5C224.4,25.4,223.5,27.6,222,29.4z M218.2,10.9
			c0-1.4-0.4-2.6-1.3-3.7c-0.9-1-1.9-1.5-3.2-1.5h-21.6c-1.3,0-2.3,0.5-3.2,1.5c-0.9,1-1.4,2.2-1.4,3.7v10.5c0,1.4,0.4,2.6,1.4,3.6
			c0.9,1.1,2,1.6,3.3,1.6h21.3c1.3,0,2.4-0.5,3.3-1.5c0.9-1.1,1.4-2.3,1.4-3.7V10.9z"/>
		<path d="M264,15.9c-0.9,1.6-2.1,2.9-3.6,3.8c-0.4,0.2-0.6,0.6-0.6,1.1c0,0.2,0.1,0.5,0.4,0.8l4.2,4.6c0.7,0.8,1,1.5,1,2.4
			c0,1-0.3,1.8-0.9,2.5c-0.7,0.8-1.4,1.1-2.3,1.1c-0.8,0-1.4-0.4-2-1l-8.5-9.3c-0.8-0.8-1.6-1.3-2.7-1.3h-13.2
			c-0.9,0-1.7,0.4-2.2,1.1c-0.6,0.7-0.9,1.6-0.9,2.6v4.3c0,0.9-0.3,1.8-0.9,2.5c-0.6,0.7-1.4,1.1-2.2,1.1c-0.8,0-1.5-0.3-2.1-1
			c-0.6-0.7-0.9-1.6-0.9-2.5V3.8c0-0.9,0.3-1.8,0.9-2.4c0.6-0.7,1.4-1.1,2.2-1.1h26.8c2.5,0,4.6,1,6.3,3c1.7,1.9,2.6,4.4,2.6,7.2
			C265.3,12.4,264.8,14.2,264,15.9z M258,7.3c-0.8-0.9-1.7-1.4-2.8-1.4h-19.5c-0.9,0-1.7,0.4-2.2,1.1c-0.6,0.7-0.9,1.6-0.9,2.6v1.9
			c0,1,0.3,1.9,0.9,2.6c0.6,0.7,1.4,1.1,2.3,1.1l19.4-0.1c1.1,0,2-0.4,2.8-1.3c0.8-0.9,1.2-2,1.2-3.2C259.2,9.3,258.8,8.2,258,7.3z"
			/>
	</g>
	<path d="M305.5,26.8c0,0-7.4-5.6-11.9-9.1c-0.5-0.5-0.5-1.5,0.2-2.2c4.6-3.6,11.8-9.4,11.8-9.4c0.8-0.6,1.2-1.6,1.2-2.5
		c0-0.7-0.2-1.4-0.7-2c-1.1-1.4-3.2-1.6-4.6-0.5l-13.3,10.7l1.9,1.5c1.1,0.9,1.7,2.2,1.7,3.6c0,1.4-0.7,2.7-1.8,3.6
		c0,0-0.7,0.5-1.8,1.4L301.6,32c1.4,1.1,3.5,0.8,4.6-0.6c0.5-0.6,0.7-1.3,0.7-2C306.8,28.4,306.4,27.5,305.5,26.8z"/>
	<path d="M280.6,17.7c0.5-0.5,0.5-1.5-0.2-2.2c-4.6-3.6-11.8-9.4-11.8-9.4c-0.8-0.6-1.2-1.6-1.2-2.5c0-0.7,0.2-1.4,0.7-2
		c1.1-1.4,3.2-1.6,4.6-0.5l16.5,13.3c0.8,0.6,1.2,1.6,1.2,2.6c0,1-0.5,1.9-1.3,2.6L272.6,32c-1.4,1.1-3.5,0.8-4.6-0.6
		c-0.5-0.6-0.7-1.3-0.7-2c0-1,0.4-2,1.3-2.6C268.7,26.8,276.1,21.2,280.6,17.7z"/>
	<path d="M126.3,26.6c0,0-0.1,0-0.1,0v0h-23.2c-0.9,0-1.7-0.4-2.3-1.1c-0.6-0.7-0.9-1.6-0.9-2.6c0-1,0.3-1.9,0.9-2.6
		c0.6-0.7,1.4-1.1,2.3-1.1h21.2c0.6,0,1.2-0.2,1.7-0.5c0.2-0.1,0.3-0.2,0.5-0.3c0.1,0,0.1-0.1,0.1-0.1c0.6-0.5,0.9-1.2,0.9-2.1
		c0-0.8-0.3-1.5-0.8-2.1c-0.1-0.1-0.1-0.1-0.2-0.2c0,0-0.1-0.1-0.1-0.1c-0.6-0.4-1.3-0.7-2-0.7h-21.1c-0.9,0-1.7-0.4-2.3-1.1
		c-0.6-0.7-0.9-1.6-0.9-2.6c0-1,0.3-1.9,0.9-2.6c0.6-0.7,1.4-1.1,2.3-1.1h23.3v0c0,0,0.1,0,0.1,0c1.6,0,2.8-1.3,2.8-2.8
		c0-1.6-1.3-2.8-2.8-2.8c0,0-0.1,0-0.1,0H96.7c-0.8,0-1.6,0.4-2.2,1.1c-0.6,0.7-0.9,1.5-0.9,2.4v25c0,0.9,0.3,1.8,0.9,2.5
		c0.6,0.7,1.3,1,2.1,1h29.5c0,0,0.1,0,0.1,0c1.5,0,2.8-1.3,2.8-2.8C129.1,27.9,127.9,26.6,126.3,26.6z"/>
	<path d="M30.6,13.2H10.8c-3.1,0-4.7-1.2-4.7-3.6c0-2.5,1.5-3.7,4.6-3.7h25.5l0,0c0,0,0,0,0,0c1.6,0,2.8-1.3,2.8-2.8
		c0-1.6-1.3-2.8-2.8-2.8c-0.1,0-0.1,0-0.1,0H8.1C5.9,0.3,4,1.1,2.4,3C0.8,4.8,0,7,0,9.6c0,2.6,0.8,4.8,2.4,6.6
		C4,18,5.9,18.9,8.2,18.9H28c3.1,0,4.7,1.3,4.7,3.8c0,2.6-1.5,3.8-4.5,3.8H2.9v0.1c-1.5,0-2.8,1.3-2.8,2.8c0,1.6,1.3,2.8,2.8,2.8
		c0.1,0,0.1,0,0.1,0h27.6c2.3,0,4.2-0.9,5.8-2.8c1.5-1.8,2.4-4.1,2.4-6.7c0-2.6-0.8-4.8-2.4-6.7C34.8,14.2,32.9,13.2,30.6,13.2z"/>
</g>
</svg>
