<?xml version="1.0" encoding="utf-8"?>
<!-- Generator: Adobe Illustrator 23.0.3, SVG Export Plug-In . SVG Version: 6.00 Build 0)  -->
<svg version="1.1" id="Layer_1" xmlns="http://www.w3.org/2000/svg" xmlns:xlink="http://www.w3.org/1999/xlink" x="0px" y="0px"
	 viewBox="0 0 778 418" style="enable-background:new 0 0 778 418;" xml:space="preserve">
<style type="text/css">
	.st0{fill:#003A70;}
	.st1{fill:#BBBBBB;}
</style>
<path class="st0" d="M165.9,375.7h4.6l9.2,29.7h-4l-2-7.1h-10.9l-2.1,7.1H157L165.9,375.7z M168.1,379.2L168.1,379.2l-4.5,15.8h9
	L168.1,379.2z"/>
<polygon class="st0" points="227.5,375.7 227.5,379 220.1,379 220.1,405.4 216.5,405.4 216.5,379 209.1,379 209.1,375.7 "/>
<polygon class="st0" points="278.2,375.7 278.2,379 270.8,379 270.8,405.4 267.2,405.4 267.2,379 259.8,379 259.8,375.7 "/>
<path class="st0" d="M313,394.5v-9.7c0-5.9,2.9-9.7,8.9-9.7c6,0,8.8,3.8,8.8,9.7v9.7c0,8.2-2.9,11.5-8.8,11.5
	C315.9,406,313,402.8,313,394.5 M327.1,394.7v-10c0-6.2-4-6.4-5.2-6.4c-1.1,0-5.2,0.2-5.2,6.4v10c0,6.5,1.8,8.1,5.2,8.1
	C325.3,402.8,327.1,401.2,327.1,394.7"/>
<path class="st0" d="M371.7,391.7v13.6h-3.6v-29.7h9.7c5,0,6.7,3.7,6.7,7.4c0,3.5-1.8,6.2-5.1,6.8v0.1c3.2,0.5,4.4,1.7,4.6,7.6
	c0,1.3,0.4,5.9,1,7.8h-3.8c-1-2.1-0.8-5.9-1.1-9.9c-0.3-3.6-3-3.8-4.3-3.8H371.7z M371.7,388.5h5.4c2.6,0,3.8-2.3,3.8-4.9
	c0-2.1-1-4.5-3.8-4.5h-5.4V388.5z"/>
<polygon class="st0" points="440.6,375.7 440.6,405.4 435.7,405.4 424.6,379.7 424.5,379.7 424.5,405.4 421.3,405.4 421.3,375.7 
	426.4,375.7 437.3,401.1 437.4,401.1 437.4,375.7 "/>
<polygon class="st0" points="478.3,405.4 478.3,375.7 492.8,375.7 492.8,379 481.9,379 481.9,388.5 492.1,388.5 492.1,391.8 
	481.9,391.8 481.9,402.1 493.1,402.1 493.1,405.4 "/>
<polygon class="st0" points="541.4,375.7 545,375.7 537.4,394.1 537.4,405.4 533.8,405.4 533.8,394.1 526.2,375.7 530.2,375.7 
	535.7,390.1 "/>
<path class="st0" d="M582.5,396.5v0.9c0,4,2.4,5.3,4.7,5.3c2.8,0,5-1.3,5-4.8c0-6.6-12.6-5.8-12.6-14.7c0-5.3,3.6-8,8.3-8
	c5.1,0,8,2.6,7.8,8.7h-3.7c0-3.2-0.9-5.4-4.3-5.4c-2.1,0-4.3,1.2-4.3,4.4c0,6.5,12.6,5.6,12.6,15c0,6.2-4.1,8.3-8.7,8.3
	c-8.3,0.1-8.3-6.6-8.2-9.5H582.5z"/>
<rect x="508.7" y="321.3" class="st1" width="245.3" height="24.1"/>
<rect x="13.8" y="321.3" class="st1" width="247.4" height="24.2"/>
<path class="st0" d="M214.9,47.3h-6.5c-0.4-16.6-12.5-28.9-29.1-28.9c-15.9,0-28.9,8.4-28.9,25.6c0,30.2,71.1,19.4,71.1,67.7
	c0,25.7-21.1,40.1-45.5,40.1c-7.8,0-14.4-1.3-19.2-2.4c-5-1.1-8.4-2.2-10.1-2.2c-3.2,0-4.8,1.7-5.4,3.5h-6.5v-37.1h6.5
	c3.9,19.6,13.4,32.8,34.9,32.8c17.2,0,29.5-9.5,29.5-27.6c0-33-71.1-24.8-71.1-65.7c0-25.6,19.4-40.1,44.2-40.1
	c9.9,0,20.2,5.4,26.3,5.4c2.8,0,3.5-1.5,4.3-4.3h5.6V47.3z"/>
<path class="st0" d="M245,147.1h7.3c6.4,0,6.4-3,6.4-16.3V45.4h-8.4c-13.8,0-23.8,7.9-24.1,22.5h-5.5V40.9H314V68h-5.4
	c-0.3-14.6-10.3-22.5-24.1-22.5h-8.4v85.4c0,13.4,0,16.3,6.4,16.3h7.3v4.5H245V147.1z"/>
<path class="st0" d="M320.2,147.1h4.8c6.4,0,7.9-2.3,7.9-7.8V54.6c0-8.1-2.2-9.2-8.6-9.2h-4.2v-4.5h42.9v4.5h-4.2
	c-6.4,0-8.6,1.1-8.6,9.2v84.8c0,5.4,1.6,7.8,7.9,7.8h4.8v4.5h-42.9V147.1z"/>
<path class="st0" d="M395,147.1h7.3c6.4,0,6.4-3,6.4-16.3V45.4h-8.4c-13.8,0-23.8,7.9-24.1,22.5h-5.4V40.9H464V68h-5.4
	c-0.3-14.6-10.3-22.5-24.1-22.5h-8.4v85.4c0,13.4,0,16.3,6.4,16.3h7.3v4.5H395V147.1z"/>
<path class="st0" d="M469.7,147.1h6.2c3.9,0,6.4-0.9,6.4-10V55.8c0-9-0.8-10.4-7.2-10.4h-5.4v-4.5h85.1v25.8h-5.4
	c0-15.2-7.8-21.3-22.7-21.3h-26.9v47.7h23.2c10.4,0,14.6-7.3,14.6-16.8h5.4v38.4h-5.4c0-10.1-3.7-17.1-14.6-17.1h-23.2v49.5h28.5
	c14.6,0,23-6.7,23-21.8h5.4v26.3h-86.9V147.1z"/>
<path class="st0" d="M629.5,67h-5.4c-0.3-13.8-10.4-24.1-24.3-24.1c-13.2,0-24.1,7-24.1,21.3c0,25.2,59.2,16.2,59.2,56.4
	c0,21.5-17.6,33.4-37.9,33.4c-6.5,0-12-1.1-16-2c-4.2-0.9-7-1.9-8.4-1.9c-2.6,0-4,1.4-4.5,3h-5.4v-30.9h5.4
	c3.3,16.3,11.2,27.4,29.1,27.4c14.3,0,24.6-7.9,24.6-23c0-27.5-59.2-20.7-59.2-54.7c0-21.3,16.2-33.4,36.9-33.4
	c8.2,0,16.8,4.5,21.9,4.5c2.3,0,3-1.2,3.6-3.6h4.7V67z"/>
<path class="st0" d="M14.3,274.2h5.8c7.7,0,9.5-2.8,9.5-9.3V163.2c0-9.7-2.6-11-10.3-11h-5v-5.4h51.3v5.4h-6c-8.4,0-9.1,3-9.1,11
	V208h55.1v-45.2c0-8.6-1.3-10.6-8-10.6h-6.9v-5.4h51.1v5.4H135c-6.9,0-8.6,2.4-8.6,9.5v101c0,7.5,0.7,11.6,8.6,11.6h6.7v5.4H90.6
	v-5.4h6.9c7.8,0,8-3.7,8-11.4v-49.5H50.5V263c0,8.2,0.7,11.2,9.1,11.2h6v5.4H14.3V274.2z"/>
<path class="st0" d="M196.7,166.7c1.7,6.1,3.9,11.7,6.1,17.3l27.7,71.1c7.3,19,10.4,19.4,15.4,19.4h1.9v4.5h-42.6v-4.5h3.4
	c7,0,8.4-0.9,8.4-3.9c0-1.7-0.5-3.9-1.7-7.2l-8.1-20.8h-42.9l-5.4,13.1c-3.3,7.8-4.2,11.4-4.2,13.8c0,5,4.7,5,10.3,5h2v4.5h-32v-4.5
	h1.7c4.7,0,8.6-1.6,12.3-10.7l33.9-81.3c2.2-5.1,4.2-10.4,5.6-15.7H196.7z M205.2,238.1l-19-48.2L166,238.1H205.2z"/>
<path class="st0" d="M245.9,274.4h4.8c6.4,0,7.9-2.3,7.9-7.8v-84.8c0-8.1-2.2-9.2-8.6-9.2h-4.2v-4.5h50.7c18.3,0,35,6.5,35,24.6
	c0,13.7-13.5,25.2-27.2,27.7v0.3c19,3.7,22.2,7.8,23,28.6l0.8,19.3c0.2,2.5,0.8,5.4,3.7,5.4c3.9,0,6.1-3.7,7.5-7.9l4.5,2
	c-3.9,8.1-9,13.2-17.6,13.2c-13.5,0-16.3-10.7-16.8-21l-1.1-20.8c-0.6-12.3-7.2-16.6-22.1-16.6h-10.3v42.1c0,6.8,0.6,9.3,7.6,9.3h5
	v4.5h-42.8V274.4z M276.1,218.5h12.1c13.1,0,24.1-6.1,24.1-22.9c0-17.1-9.2-22.9-24.6-22.9h-11.7V218.5z"/>
<path class="st0" d="M347.5,274.4h6.7c5.6,0,5.9-2.8,5.9-16v-69.8c0-15.1-0.6-15.9-5.9-15.9h-6.7v-4.5h49.8
	c18.4,0,35.6,7.3,35.6,26.4c0,14.8-15.2,23.2-28,25.7v0.3c14.6,0.8,32,10.9,32,27.2c0,18.4-20.7,31.1-35.9,31.1h-53.5V274.4z
	 M377.5,274.4H389c18.2,0,28.6-9.2,28.6-26.7c0-19.1-14.6-24.3-31.3-24.7h-8.9V274.4z M377.5,218.5h8.2c19,0,27.8-6.4,27.8-25
	c0-14-11.4-20.7-22.5-20.7h-13.5V218.5z"/>
<path class="st0" d="M436.7,274.4h4.8c6.4,0,7.9-2.3,7.9-7.8v-84.8c0-8.1-2.2-9.2-8.5-9.2h-4.2v-4.5h42.9v4.5h-4.2
	c-6.4,0-8.6,1.1-8.6,9.2v84.8c0,5.4,1.6,7.8,7.9,7.8h4.8v4.5h-42.9V274.4z"/>
<path class="st0" d="M554.1,194.4h-5.4c-0.3-13.8-10.4-24.1-24.3-24.1c-13.2,0-24.1,7-24.1,21.3c0,25.2,59.3,16.2,59.3,56.5
	c0,21.5-17.6,33.4-37.9,33.4c-6.5,0-12-1.1-16-2c-4.2-0.9-7-1.9-8.4-1.9c-2.6,0-4,1.4-4.5,3h-5.4v-30.9h5.4
	c3.3,16.3,11.2,27.4,29.1,27.4c14.3,0,24.6-7.9,24.6-23c0-27.5-59.3-20.7-59.3-54.7c0-21.3,16.2-33.4,36.9-33.4
	c8.2,0,16.8,4.5,21.9,4.5c2.3,0,3-1.2,3.6-3.6h4.7V194.4z"/>
<path class="st0" d="M612.7,165.7c32.2,0,47,28.8,47,57.8c0,29.1-14.8,57.9-47,57.9c-32.2,0-47-28.8-47-57.9
	C565.7,194.5,580.5,165.7,612.7,165.7 M612.7,276.9c25.8,0,27.7-35,27.7-53.3c0-18.3-1.9-53.3-27.7-53.3c-25.8,0-27.7,35-27.7,53.3
	C585,241.9,586.8,276.9,612.7,276.9"/>
<path class="st0" d="M659.3,274.4h5.4c6.7,0,6.8-6.7,6.8-18.2v-62.4c0-19.8-1.1-21.1-6.7-21.1h-5.6v-4.5h30.3l55.8,85.8h0.3v-64.4
	c0-14-0.5-17-8.9-17h-5.1v-4.5h32.8v4.5h-3.7c-7.9,0-8.7,3.9-8.7,17v90.5h-10L678.2,183h-0.3v73.2c0,11.5,0.2,18.2,6.4,18.2h6.4v4.5
	h-31.4V274.4z"/>
<path class="st1" d="M762.4,96.3h-4.5c-4.7,0-6.5,1.2-6.7,6.1c-0.3,11.7-9.7,22.5-15.1,28.5l3.2,3c6.3,5.8,13.7,13.4,20.6,13.4h3.8
	v4.5h-22.1c-4.5,0-11.5-2.6-17.3-8.2l-1.7-1.7c-10.7,9.2-23.1,12.4-37.6,12.4c-19,0-42.3-8.6-42.3-30.5c0-14.9,15.3-24.9,29.5-30.8
	c-8.2-8.2-16.1-16-16.1-28c0-18.3,16.3-26.4,36-26.4c12.8,0,31.6,5.3,31.6,19.9c0,14-14.7,21.8-26.1,27.5l-5,2.5l36,35
	c3.8-4.7,6-12.6,6.2-18.4c0.2-5.6-0.7-8.7-5.2-8.7h-5.5v-4.5h38.5V96.3z M689.1,85.1l4-2.3c8.7-5.1,16.3-12.6,16.3-23
	c0-10-6.5-16.8-17.3-16.8c-10.5,0-19.5,6.4-19.5,16.8c0,6.4,4.5,13.4,12.2,21.2L689.1,85.1z M675.5,95.9
	c-9.5,6.4-14.1,12.4-14.1,23.6c0,15.6,10.5,30,28.5,30c10.7,0,20-5.6,27.6-12.9L675.5,95.9z"/>
<rect x="259.7" y="321.3" class="st0" width="249" height="24.1"/>
</svg>
