
<svg width="463px" height="72px" viewBox="5 0 463 72" version="1.1" xmlns="http://www.w3.org/2000/svg" xmlns:xlink="http://www.w3.org/1999/xlink">
    <path d="M31.536,22.732 L31.536,47.771 C34.919,45.944 37.288,42.763 38.438,39.176 L38.709,39.312 C37.964,48.245 31.874,57.177 22.4,57.177 C12.858,57.177 5.82,50.072 5.82,38.702 C5.82,30.176 11.369,24.829 18.475,20.024 C17.46,19.753 16.377,19.618 15.294,19.618 C10.421,19.618 7.579,22.934 7.579,26.318 L7.173,26.318 C7.105,25.844 7.105,25.371 7.105,24.897 C7.105,18.874 10.286,11.565 18.001,11.565 C22.941,11.565 26.731,16.099 32.483,16.099 C34.784,16.099 37.626,15.016 38.776,12.512 L38.979,12.512 C38.912,16.912 37.559,21.446 31.536,22.732 Z M35.19,48.38 C31.806,51.966 28.152,55.012 23.415,55.012 C14.618,55.012 7.851,48.109 7.851,38.093 C7.851,32.206 10.287,29.026 12.994,25.303 L12.723,25.303 C11.031,26.995 6.565,31.258 6.565,38.499 C6.565,49.598 13.535,56.433 22.671,56.433 C29.032,56.433 33.363,52.035 35.326,48.448 L35.19,48.38 Z M37.896,15.559 C36.746,17.724 34.31,20.498 29.37,20.498 C24.43,20.498 19.896,17.114 15.903,17.114 C12.248,17.114 9.745,19.551 8.797,21.378 L8.865,21.514 C10.151,20.228 12.113,18.942 15.294,18.942 C20.572,18.942 23.956,22.191 29.302,22.191 C34.987,22.191 37.558,18.468 38.032,15.627 L37.896,15.559 Z M19.083,20.228 C15.632,23.815 12.451,27.74 12.451,35.387 C12.451,39.582 13.872,43.913 17.053,46.62 L19.015,45.604 L19.015,27.469 L17.188,28.416 L16.85,27.739 L26.324,22.595 C23.753,22.055 21.452,20.905 19.083,20.228 Z M30.791,22.867 C30.317,22.934 29.844,22.934 29.302,22.934 C28.355,22.934 27.475,22.867 26.595,22.663 L26.595,42.423 L17.73,47.23 C19.557,48.583 21.79,49.395 24.632,49.395 C26.933,49.395 28.963,48.921 30.79,48.109 L30.79,22.867 L30.791,22.867 Z M21.046,26.319 L19.76,27.063 L19.76,45.2 L21.046,44.523 L21.046,26.319 Z M59.958,28.89 L59.958,52.305 C59.958,58.801 54.206,63.201 47.777,64.486 L47.642,64.215 C50.823,62.658 52.65,59.478 52.65,56.094 L52.65,31.867 L48.996,28.552 L47.575,30.108 L47.575,48.989 L49.605,50.816 L49.605,50.952 L44.124,56.907 L37.831,51.155 L37.831,50.884 L40.267,48.312 L40.267,18.401 L47.44,10.755 L47.575,10.822 L47.575,28.958 L53.463,22.597 L59.621,28.147 L60.771,26.928 L61.313,27.403 L59.958,28.89 Z M41.01,51.019 L41.01,50.884 L42.431,49.462 L42.431,17.25 L41.01,18.74 L41.01,48.786 L38.844,50.952 L38.844,51.087 L44.122,55.824 L45.069,54.741 L41.01,51.019 Z M54.815,30.784 L50.416,26.995 L49.469,28.01 L53.394,31.53 L53.394,55.892 C53.394,57.516 53.056,59.207 52.447,60.155 L52.515,60.223 C54.207,59.004 54.816,57.177 54.816,54.809 L54.816,30.784 L54.815,30.784 Z M70.718,42.492 L70.718,45.943 L77.282,51.086 L81.072,47.026 L81.614,47.567 L72.817,56.973 L63.884,49.8 L62.531,51.221 L61.989,50.68 L63.546,49.056 L63.546,31.935 L76.336,22.596 L83.036,33.424 L70.718,42.492 Z M65.71,48.448 L65.71,31.258 L64.289,32.274 L64.289,49.125 L72.681,55.96 L73.764,54.81 L65.71,48.448 Z M70.854,27.604 L70.718,27.672 L70.718,41.545 L76.741,37.146 L70.854,27.604 Z M72.613,26.251 L71.395,27.13 L77.351,36.672 L78.569,35.792 L72.613,26.251 Z" id="Shape" stroke="none" fill="#231F20" fill-rule="nonzero"></path>
    <path d="M127.147,56.906 L117.74,48.785 L110.567,56.906 L100.822,48.514 L100.822,35.251 L98.927,35.251 C97.235,35.251 96.356,36.334 95.949,37.619 L95.746,37.619 C95.611,37.078 95.408,36.131 95.408,35.048 C95.408,33.288 95.882,28.687 100.822,28.687 L100.822,17.047 C100.822,14.814 98.183,13.934 98.183,10.956 C98.183,7.1 101.837,3.31 108.537,0.94 L108.808,1.143 C106.372,2.565 105.086,3.918 105.086,6.828 C105.086,11.295 109.417,10.144 109.417,17.182 L109.417,19.889 L117.335,11.565 L125.659,19.753 L133.509,11.565 L141.088,19.009 L141.088,44.048 L127.147,56.906 Z M102.988,47.432 L102.988,33.154 L99.198,33.154 C97.235,33.154 96.356,34.439 96.22,35.59 L96.287,35.658 C96.964,34.914 97.641,34.508 99.197,34.508 L101.565,34.508 L101.565,48.178 L110.498,55.893 L111.513,54.674 L102.988,47.432 Z M102.988,16.37 C102.988,13.596 100.552,12.648 100.552,10.889 C100.552,8.452 101.499,6.423 102.988,4.528 L102.853,4.461 C100.823,6.018 98.928,8.522 98.928,10.957 C98.928,13.394 101.567,14.544 101.567,16.71 L101.567,28.688 L102.988,28.688 L102.988,16.37 Z M117.267,23.138 L112.124,18.13 L109.417,20.904 L109.417,44.86 L115.575,50.071 L117.267,48.176 L117.267,23.138 Z M119.432,47.297 L119.432,22.191 L113.68,16.506 L112.597,17.589 L118.011,22.799 L118.011,48.041 L127.147,55.959 L128.23,54.943 L119.432,47.297 Z M132.561,22.258 L128.298,18.197 L125.862,20.701 L125.862,44.793 L132.494,50.612 L132.561,50.545 L132.561,22.258 Z M134.726,21.311 L129.786,16.506 L128.771,17.589 L133.305,21.92 L133.305,50.207 L134.726,48.853 L134.726,21.311 Z" id="Shape" stroke="none" fill="#231F20" fill-rule="nonzero"></path>
    <path d="M163.481,56.906 L157.052,51.086 L151.3,56.906 L144.262,50.68 L143.314,51.695 L142.773,51.154 L143.991,49.868 L143.991,31.733 L156.714,22.529 L164.023,28.214 L165.309,26.86 L165.851,27.402 L164.362,28.958 L164.362,47.704 L167.948,51.019 L169.099,49.801 L169.64,50.275 L163.481,56.906 Z M146.157,49.395 L146.157,31.123 L144.736,32.138 L144.736,50.072 L151.233,55.892 L152.316,54.809 L146.157,49.395 Z M157.052,31.597 L151.503,27.266 L151.3,27.402 L151.3,47.094 L155.902,51.086 L157.052,49.936 L157.052,31.597 Z M159.218,50.004 L159.218,30.582 L153.466,25.912 L152.113,26.859 L157.797,31.326 L157.797,50.68 L163.482,55.823 L164.497,54.74 L159.218,50.004 Z M183.174,34.845 L190.144,34.845 L190.144,49.327 L179.384,56.906 C177.963,55.282 175.932,54.132 173.429,54.132 C171.399,54.132 169.774,54.809 167.609,56.636 L167.271,56.5 L176.475,43.101 L170.79,43.101 L170.79,30.514 L182.092,22.664 C183.445,23.747 184.46,24.355 186.22,24.355 C187.574,24.355 189.536,24.084 191.025,22.867 L191.296,23.002 L183.174,34.845 Z M175.595,52.169 C173.632,52.169 172.076,52.846 170.722,53.793 L170.722,53.929 C171.805,53.455 172.888,53.32 173.903,53.32 C175.459,53.32 177.896,54.065 179.52,55.96 L181.077,54.81 C179.79,53.32 178.234,52.169 175.595,52.169 Z M182.835,40.8 L179.045,40.8 L171.127,52.238 L171.195,52.373 C173.157,50.952 175.052,50.005 177.353,50.005 C179.383,50.005 181.481,50.952 182.767,52.576 L182.835,52.509 L182.835,40.8 Z M172.955,40.8 L172.955,29.906 L171.534,30.921 L171.534,42.29 L177.015,42.29 L178.098,40.801 L172.955,40.801 L172.955,40.8 Z M187.099,27.536 C185.678,28.552 184.866,29.093 182.497,29.093 C181.143,29.093 179.519,28.484 178.234,27.13 L178.099,27.198 L178.099,37.078 L180.67,37.078 L187.167,27.603 L187.099,27.536 Z M183.851,26.927 C182.633,26.927 181.077,26.319 180.061,24.965 L178.369,26.115 C179.655,27.672 180.873,28.348 182.767,28.348 C183.985,28.348 185.745,28.009 187.572,26.452 L187.639,26.25 C186.49,26.725 185.069,26.927 183.851,26.927 Z M185.001,38.568 L180.602,38.568 L179.587,39.989 L183.58,39.989 L183.58,53.117 L185.001,52.102 L185.001,38.568 Z M213.491,28.89 L213.491,52.305 C213.491,58.801 207.739,63.201 201.31,64.486 L201.175,64.215 C204.356,62.658 206.183,59.478 206.183,56.094 L206.183,31.867 L202.529,28.552 L201.108,30.108 L201.108,48.989 L203.138,50.816 L203.138,50.952 L197.657,56.907 L191.364,51.155 L191.364,50.884 L193.8,48.312 L193.8,18.401 L200.973,10.755 L201.108,10.822 L201.108,28.958 L206.996,22.597 L213.154,28.147 L214.304,26.928 L214.846,27.403 L213.491,28.89 Z M194.543,51.019 L194.543,50.884 L195.964,49.462 L195.964,17.25 L194.543,18.739 L194.543,48.785 L192.377,50.951 L192.377,51.086 L197.655,55.823 L198.602,54.74 L194.543,51.019 Z M208.348,30.784 L203.949,26.995 L203.002,28.01 L206.927,31.53 L206.927,55.892 C206.927,57.516 206.589,59.207 205.98,60.155 L206.048,60.223 C207.74,59.004 208.349,57.177 208.349,54.809 L208.349,30.784 L208.348,30.784 Z M225.808,56.906 L219.988,51.56 L218.634,52.981 L218.092,52.439 L219.649,50.748 L219.649,31.191 L216.807,28.484 L215.724,29.703 L215.182,29.161 L221.272,22.529 L226.686,27.402 L228.04,25.913 L228.649,26.387 L226.957,28.214 L226.957,47.975 L230.206,51.02 L231.695,49.463 L232.236,50.005 L225.808,56.906 Z M221.815,50.275 L221.815,30.108 L218.296,26.86 L217.349,27.943 L220.394,30.853 L220.394,50.952 L225.808,55.824 L226.823,54.741 L221.815,50.275 Z M223.845,21.988 L218.296,16.913 L223.372,11.499 L228.921,16.574 L223.845,21.988 Z M220.394,15.829 L219.379,16.844 L223.777,20.972 L224.792,19.822 L220.394,15.829 Z" id="Shape" stroke="none" fill="#231F20" fill-rule="nonzero"></path>
    <path d="M254.423,56.906 L248.535,51.56 L248.535,31.8 L244.948,28.552 L243.053,30.582 L243.053,48.853 L245.151,50.815 L245.151,51.086 L239.602,56.906 L233.308,51.154 L233.308,50.951 L235.745,48.38 L235.745,31.326 L232.564,28.416 L231.278,29.837 L230.737,29.296 L236.895,22.596 L243.053,28.078 L243.053,29.431 L249.482,22.596 L255.504,28.01 L256.858,26.589 L257.467,27.13 L255.843,28.822 L255.843,48.176 L258.888,51.018 L260.377,49.394 L260.918,49.935 L254.423,56.906 Z M236.557,51.019 L236.557,50.884 C236.557,51.019 237.911,49.53 237.911,49.53 L237.911,30.31 L234.053,26.791 L233.105,27.806 L236.489,30.919 L236.489,48.784 L234.391,50.95 L234.391,51.085 L239.602,55.822 L240.684,54.672 L236.557,51.019 Z M250.7,50.478 L250.7,30.65 L246.505,26.86 L245.422,28.01 L249.279,31.461 L249.279,51.154 L254.354,55.891 L255.437,54.74 L250.7,50.478 Z M273.506,69.087 C271.274,66.651 269.717,65.636 267.619,65.636 C265.386,65.636 262.814,66.516 260.175,67.937 L259.972,67.735 L269.311,56.907 L262.679,51.629 L261.393,52.983 L260.852,52.509 L262.34,50.885 L262.34,31.733 L275.198,22.529 L282.371,28.214 L283.59,26.86 L284.131,27.402 L282.71,28.958 L282.71,52.103 C282.71,55.622 284.672,55.487 284.672,58.125 C284.672,61.17 280.273,64.012 273.506,69.087 Z M264.506,50.342 L264.506,31.191 L263.085,32.207 L263.085,50.952 L269.784,56.366 L270.8,55.147 L264.506,50.342 Z M269.243,63.877 C267.01,63.877 264.979,64.554 263.085,65.839 L263.085,65.975 C264.303,65.501 265.656,64.892 267.957,64.892 C270.055,64.892 271.814,66.042 273.574,68.073 L274.928,66.99 C273.235,65.028 271.205,63.877 269.243,63.877 Z M277.499,57.38 C275.808,56.297 275.401,55.147 275.401,52.237 L275.401,51.018 L264.167,64.011 L264.235,64.078 C266.4,62.793 268.363,61.846 271.544,61.846 C274.251,61.846 276.078,62.928 278.176,64.688 C279.462,63.605 280.341,62.523 280.341,60.831 C280.341,59.478 279.19,58.463 277.499,57.38 Z M275.401,31.597 L269.784,27.199 L269.648,27.334 L269.648,48.109 L273.98,51.493 L275.401,49.869 L275.401,31.597 L275.401,31.597 Z M279.529,56.433 C277.769,55.079 277.566,53.929 277.566,51.019 L277.566,30.447 L271.881,25.845 L270.596,26.725 L276.145,31.123 L276.145,51.966 C276.145,54.876 276.281,55.689 278.108,56.906 C279.732,57.989 281.017,59.139 281.017,60.696 C281.017,61.101 280.95,61.778 280.95,61.778 L281.017,61.846 C281.356,61.507 281.762,60.966 281.762,60.086 C281.763,58.598 281.018,57.583 279.529,56.433 Z M295.771,56.906 L289.545,52.034 L288.259,53.455 L287.718,52.913 L289.206,51.289 L289.206,27.604 L285.281,27.604 L285.145,27.469 L287.514,23.949 L289.205,23.949 L289.205,19.416 L296.379,11.769 L296.514,11.905 L296.514,23.95 L301.928,23.95 L302.064,24.086 L299.695,27.605 L296.514,27.605 L296.514,48.11 L300.237,50.953 L301.658,49.396 L302.199,49.937 L295.771,56.906 Z M291.372,18.265 L289.951,19.822 L289.951,23.95 L291.372,23.95 L291.372,18.265 Z M291.372,50.613 L291.372,27.604 L289.951,27.604 L289.951,51.425 L295.703,55.892 L296.718,54.809 L291.372,50.613 Z M324.328,29.567 L324.328,48.515 L312.891,56.974 L304.296,50.478 L303.281,51.628 L302.74,51.086 L303.958,49.733 L303.958,31.191 L315.937,22.596 L323.922,28.823 L325.207,27.469 L325.749,28.01 L324.328,29.567 Z M306.125,49.057 L306.125,30.582 L304.703,31.597 L304.703,49.801 L312.824,56.027 L314.11,55.08 L306.125,49.057 Z M317.02,31.8 L311.335,27.333 L311.268,27.401 L311.268,47.567 L317.02,51.898 L317.02,31.8 Z M319.186,30.582 L312.892,25.709 L311.607,26.656 L317.765,31.393 L317.765,52.44 L319.186,51.358 L319.186,30.582 Z M350.18,56.906 L344.292,51.56 L344.292,31.8 L340.705,28.552 L338.81,30.582 L338.81,48.853 L340.908,50.815 L340.908,51.086 L335.359,56.906 L329.065,51.154 L329.065,50.951 L331.502,48.38 L331.502,31.326 L328.321,28.416 L327.035,29.837 L326.494,29.296 L332.652,22.596 L338.81,28.078 L338.81,29.431 L345.239,22.596 L351.262,28.01 L352.615,26.589 L353.224,27.13 L351.6,28.822 L351.6,48.176 L354.645,51.018 L356.134,49.394 L356.675,49.935 L350.18,56.906 Z M332.313,51.019 L332.313,50.884 C332.313,51.019 333.667,49.53 333.667,49.53 L333.667,30.31 L329.81,26.791 L328.863,27.806 L332.247,30.919 L332.247,48.784 L330.149,50.95 L330.149,51.085 L335.36,55.822 L336.443,54.672 L332.313,51.019 Z M346.457,50.478 L346.457,30.65 L342.262,26.86 L341.179,28.01 L345.036,31.461 L345.036,51.154 L350.111,55.891 L351.194,54.74 L346.457,50.478 Z" id="Shape" stroke="none" fill="#231F20" fill-rule="nonzero"></path>
    <path d="M391.986,56.906 C390.091,54.876 389.415,54.199 387.181,53.59 L387.181,55.079 L387.181,66.854 L387.045,66.921 L384.338,64.484 L376.488,71.725 L376.352,71.658 L376.352,53.455 C373.984,53.996 371.48,55.215 369.043,57.65 L368.908,57.583 C369.382,52.372 371.953,48.515 376.351,47.026 L376.351,33.83 L374.93,33.83 C372.968,33.83 371.885,34.845 370.938,36.672 L370.735,36.672 C370.532,36.064 370.396,35.115 370.396,33.56 C370.396,30.717 372.494,27.74 375.946,27.74 L376.351,27.74 L376.351,20.431 L373.577,17.927 L372.223,19.281 L371.749,18.807 L378.584,11.566 L384.945,17.386 L384.945,23.544 L386.434,21.92 L386.434,14.137 L387.178,14.137 L387.178,21.243 L396.178,11.565 L403.825,18.536 L403.825,47.974 L391.986,56.906 Z M376.354,50.951 C373.58,51.492 371.618,53.184 370.332,55.417 L370.399,55.553 C372.295,53.929 374.053,53.185 376.354,52.643 L376.354,50.951 Z M378.52,31.53 L374.798,31.53 C372.226,31.53 371.211,33.154 371.144,35.049 L371.211,35.116 C372.023,33.762 372.835,33.289 374.459,33.087 L377.099,33.087 L377.099,69.968 L378.52,68.614 L378.52,31.53 Z M378.52,19.348 L375.136,16.236 L374.053,17.386 L377.099,20.092 L377.099,27.739 L378.52,27.739 L378.52,19.348 L378.52,19.348 Z M386.438,23.205 L384.949,24.762 L384.949,63.945 L386.438,65.299 L386.438,23.205 Z M395.303,21.649 L391.31,17.995 L387.182,22.462 L387.182,46.282 C390.701,46.621 393.137,47.636 395.235,49.936 L395.303,49.869 L395.303,21.649 Z M387.182,50.951 L387.182,52.711 C389.483,53.252 390.43,53.929 392.054,55.823 L393.611,54.605 C391.986,52.575 390.362,51.358 387.182,50.951 Z M397.468,20.567 L392.866,16.303 L391.783,17.453 L396.047,21.378 L396.047,52.846 L397.468,51.763 L397.468,20.567 Z M427.447,29.567 L427.447,48.515 L416.009,56.974 L407.415,50.478 L406.399,51.628 L405.858,51.086 L407.076,49.733 L407.076,31.191 L419.055,22.596 L427.04,28.823 L428.325,27.469 L428.867,28.01 L427.447,29.567 Z M409.243,49.057 L409.243,30.582 L407.821,31.597 L407.821,49.801 L415.942,56.027 L417.228,55.08 L409.243,49.057 Z M420.138,31.8 L414.454,27.333 L414.386,27.401 L414.386,47.567 L420.138,51.898 L420.138,31.8 Z M422.304,30.582 L416.01,25.709 L414.725,26.656 L420.883,31.393 L420.883,52.44 L422.304,51.358 L422.304,30.582 Z M443.146,34.845 L450.117,34.845 L450.117,49.327 L439.357,56.906 C437.936,55.282 435.906,54.132 433.402,54.132 C431.372,54.132 429.748,54.809 427.582,56.636 L427.244,56.5 L436.447,43.101 L430.762,43.101 L430.762,30.514 L442.064,22.664 C443.418,23.747 444.432,24.355 446.192,24.355 C447.546,24.355 449.507,24.084 450.997,22.867 L451.268,23.002 L443.146,34.845 Z M435.567,52.169 C433.605,52.169 432.048,52.846 430.695,53.793 L430.695,53.929 C431.778,53.455 432.86,53.32 433.876,53.32 C435.433,53.32 437.868,54.065 439.492,55.96 L441.049,54.81 C439.764,53.32 438.207,52.169 435.567,52.169 Z M442.809,40.8 L439.019,40.8 L431.102,52.238 L431.169,52.373 C433.131,50.952 435.026,50.005 437.327,50.005 C439.357,50.005 441.455,50.952 442.741,52.576 L442.808,52.509 L442.808,40.8 L442.809,40.8 Z M432.929,40.8 L432.929,29.906 L431.507,30.921 L431.507,42.29 L436.988,42.29 L438.071,40.801 L432.929,40.801 L432.929,40.8 Z M447.072,27.536 C445.65,28.552 444.839,29.093 442.469,29.093 C441.115,29.093 439.491,28.484 438.206,27.13 L438.07,27.198 L438.07,37.078 L440.641,37.078 L447.138,27.603 L447.072,27.536 Z M443.823,26.927 C442.605,26.927 441.049,26.319 440.034,24.965 L438.342,26.115 C439.628,27.672 440.846,28.348 442.741,28.348 C443.959,28.348 445.719,28.009 447.546,26.452 L447.613,26.25 C446.463,26.725 445.042,26.927 443.823,26.927 Z M444.974,38.568 L440.576,38.568 L439.561,39.989 L443.553,39.989 L443.553,53.117 L444.974,52.102 L444.974,38.568 Z M461.351,56.906 L455.125,52.034 L453.839,53.455 L453.298,52.913 L454.786,51.289 L454.786,27.604 L450.861,27.604 L450.726,27.469 L453.094,23.949 L454.785,23.949 L454.785,19.416 L461.959,11.769 L462.095,11.905 L462.095,23.95 L467.508,23.95 L467.644,24.086 L465.275,27.605 L462.095,27.605 L462.095,48.11 L465.817,50.953 L467.238,49.396 L467.779,49.937 L461.351,56.906 Z M456.952,18.265 L455.531,19.822 L455.531,23.95 L456.952,23.95 L456.952,18.265 Z M456.952,50.613 L456.952,27.604 L455.531,27.604 L455.531,51.425 L461.283,55.892 L462.298,54.809 L456.952,50.613 Z" id="Shape" stroke="none" fill="#231F20" fill-rule="nonzero"></path>
</svg>
