
<svg width="252px" height="78px" viewBox="0 0 252 78" version="1.1" xmlns="http://www.w3.org/2000/svg" xmlns:xlink="http://www.w3.org/1999/xlink">
    <!-- Generator: Sketch 42 (36781) - http://www.bohemiancoding.com/sketch -->
    <desc>Created with Sketch.</desc>
    <defs>
        <polygon id="path-1" points="0 77.8643 252 77.8643 252 0.0003 0 0.0003"></polygon>
    </defs>
    <g id="engineering_logo-copy" stroke="none" stroke-width="1" fill="none" fill-rule="evenodd">
        <mask id="mask-2" fill="white">
            <use xlink:href="#path-1"></use>
        </mask>
        <g id="Clip-2"></g>
        <path d="M13.4844,24.6031 C12.5084,25.0271 11.3884,25.3121 10.1584,25.3121 C8.6414,25.3121 7.5544,24.9561 6.5794,24.2491 L11.2054,21.7741 L11.2054,11.3481 C11.6784,11.4551 12.1454,11.4901 12.6534,11.4901 C12.9444,11.4901 13.2294,11.4901 13.4844,11.4551 L13.4844,24.6031 Z M3.6524,17.9931 C3.6524,13.9981 5.4594,12.0181 7.3044,10.1451 C8.5674,10.4981 9.6884,11.0311 11.0624,11.3101 L5.6384,14.2811 L6.0014,14.8481 L7.1604,14.2451 L7.1604,23.1901 L6.0354,23.7911 C4.3374,22.3751 3.6524,20.1851 3.6524,17.9931 L3.6524,17.9931 Z M17.3164,19.9711 C16.7034,21.8451 15.8694,23.2601 14.1704,24.2491 L14.1704,11.3101 C17.0994,10.5691 17.7864,8.3431 17.8224,6.0441 L17.3864,6.0441 C16.7754,7.3541 15.9054,7.9171 14.3544,7.9171 C11.2814,7.9171 9.2534,5.5491 6.6134,5.5491 C2.4934,5.5491 0.5064,9.2271 0.5064,12.5151 C0.5064,12.7621 0.5064,13.0071 0.5424,13.2561 L1.0464,13.2561 C1.0464,11.4901 2.5674,9.7571 5.1704,9.7571 C5.7474,9.7571 6.2194,9.8271 6.7614,9.9681 C2.7824,12.4061 0.0004,15.2011 0.0004,19.7251 C0.0004,25.6641 3.8694,29.3751 8.9664,29.3751 C14.0264,29.3751 17.3524,24.8511 17.7524,20.1851 L17.3164,19.9711 Z" id="Fill-1" fill="#2F2F2F" mask="url(#mask-2)"></path>
        <path d="M35.3916,13.9624 L35.4646,13.9264 L38.5366,18.8064 L35.3916,21.0684 L35.3916,13.9624 Z M42.1866,17.0764 L38.3916,11.3104 L31.5596,16.1884 L31.5596,25.0634 L30.4386,26.1934 L30.8726,26.6544 L31.8826,25.6644 L36.5106,29.2704 L41.6436,23.8964 L41.1776,23.4364 L38.6486,26.0184 L35.3916,23.5074 L35.3916,21.9184 L42.1866,17.0764 Z" id="Fill-3" fill="#2F2F2F" mask="url(#mask-2)"></path>
        <path d="M30.0405,13.1856 L29.0655,14.1046 L25.9195,11.3106 L22.7725,14.5656 L22.7725,5.1606 L22.7015,5.1266 L18.8715,9.1206 L18.8715,24.7456 L17.5655,26.0886 L17.5655,26.2276 L20.9335,29.2356 L23.8595,26.1936 L23.8595,26.0536 L22.7725,25.0636 L22.7725,15.4816 L23.7145,14.5656 L25.4855,16.1546 L25.4855,28.8106 C25.4855,30.5776 24.3655,32.0276 22.6665,32.8396 L22.8835,33.1936 C26.3185,32.5196 29.3885,30.2246 29.3885,26.8306 L29.3885,14.7066 L30.5115,13.6436 L30.0405,13.1856 Z" id="Fill-4" fill="#2F2F2F" mask="url(#mask-2)"></path>
        <path d="M67.9595,25.9117 L67.9245,25.9477 L64.3805,22.9067 L64.3805,10.6757 L65.9345,9.1557 L67.9595,11.1347 L67.9595,25.9117 Z M59.7915,24.2867 L58.6705,25.5237 L55.5995,22.9417 L55.5995,10.8177 L57.2595,9.1557 L59.7915,11.5957 L59.7915,24.2867 Z M64.2725,9.8277 L59.8285,5.5497 L55.5995,9.8947 L55.5995,8.4847 C55.5995,4.8077 53.2835,5.4097 53.2835,3.0737 C53.2835,1.5567 54.2605,0.8497 55.4515,0.2817 L55.1285,-0.0003 C51.5495,1.2387 49.5955,3.1117 49.5955,5.1267 C49.5955,6.9277 51.0055,7.0347 51.0055,9.1197 L51.0055,14.4927 C48.3675,14.4927 47.9695,16.8967 47.9695,17.8167 C47.9695,18.3827 48.0785,18.8777 48.1515,19.1597 L48.5155,19.1597 C48.6545,18.4517 49.0915,17.9237 49.9955,17.9237 L51.0055,17.9237 L51.0055,24.8507 L56.2135,29.2357 L60.0425,24.9937 L65.0685,29.2357 L72.5155,22.5167 L72.5155,9.4397 L68.4655,5.5497 L64.2725,9.8277 Z" id="Fill-5" fill="#2F2F2F" mask="url(#mask-2)"></path>
        <polygon id="Fill-6" fill="#2F2F2F" mask="url(#mask-2)" points="120.9219 25.9478 119.4009 24.5688 119.4009 14.4588 120.6299 13.2568 120.1209 12.7618 119.1509 13.7518 116.4009 11.3098 112.7489 15.0948 113.2209 15.5538 114.1979 14.6348 115.4989 15.8008 115.4989 25.8758 114.3059 27.0788 114.7739 27.5358 115.7859 26.5498 118.7859 29.2358 122.4759 25.3458 122.0079 24.8508"></polygon>
        <path d="M93.7754,18.878 L92.4004,18.878 L92.4004,13.715 L92.4684,13.68 C93.1594,14.386 94.0264,14.706 94.7454,14.706 C96.0114,14.706 96.4824,14.423 97.2424,13.893 L97.2774,13.927 L93.7754,18.878 Z M94.9294,26.937 L94.8944,26.971 C94.2064,26.123 93.0874,25.628 91.9984,25.628 C90.7674,25.628 90.0844,25.982 89.2524,26.514 L89.2164,26.442 L93.2304,20.822 L94.9294,20.822 L94.9294,26.937 Z M99.3024,11.455 C98.5084,12.088 97.4604,12.23 96.7364,12.23 C95.7944,12.23 95.2164,11.878 94.4934,11.31 L88.4954,15.446 L88.4954,22.024 L91.5674,22.024 L86.5754,29.024 L87.0824,29.199 C87.9504,28.282 88.8204,27.787 89.9044,27.787 C91.2414,27.787 92.3234,28.387 93.0874,29.236 L98.8324,25.276 L98.8324,17.711 L95.4374,17.711 L99.6634,11.701 L99.3024,11.455 Z" id="Fill-7" fill="#2F2F2F" mask="url(#mask-2)"></path>
        <polygon id="Fill-8" fill="#2F2F2F" mask="url(#mask-2)" points="120.4507 8.1665 117.4877 5.5145 114.7737 8.3435 117.7377 10.9935"></polygon>
        <path d="M112.353,13.1856 L111.377,14.1046 L108.23,11.3106 L105.086,14.5656 L105.086,5.1606 L105.012,5.1266 L101.181,9.1206 L101.181,24.7456 L99.881,26.0886 L99.881,26.2276 L103.244,29.2356 L106.173,26.1936 L106.173,26.0536 L105.086,25.0636 L105.086,15.4816 L106.026,14.5656 L107.8,16.1546 L107.8,28.8106 C107.8,30.5776 106.677,32.0276 104.976,32.8396 L105.194,33.1936 C108.627,32.5196 111.701,30.2246 111.701,26.8306 L111.701,14.7066 L112.823,13.6436 L112.353,13.1856 Z" id="Fill-9" fill="#2F2F2F" mask="url(#mask-2)"></path>
        <path d="M80.7588,25.2051 L79.8878,26.0181 L77.6858,24.1091 L77.6858,13.7881 L77.7578,13.7151 L80.7588,16.0151 L80.7588,25.2051 Z M87.3728,24.8511 L86.3258,25.9121 L84.6608,24.4251 L84.6608,14.8481 L85.9638,13.6441 L85.4218,13.1851 L84.4068,14.1771 L80.6478,11.2761 L73.7828,16.0851 L73.7828,25.3811 L72.7318,26.4421 L73.2018,26.9011 L74.0338,26.0891 L77.6858,29.2361 L80.6838,26.1941 L80.7588,26.1941 L84.1558,29.2361 L87.9148,25.3461 L87.3728,24.8511 Z" id="Fill-10" fill="#2F2F2F" mask="url(#mask-2)"></path>
        <polygon id="Fill-11" fill="#2F2F2F" mask="url(#mask-2)" points="189.7139 25.9478 188.3019 24.6368 188.3019 14.7398 189.5659 13.5028 189.0949 13.0068 188.0479 14.0328 184.9029 11.2768 181.4699 14.8478 181.4699 14.1398 178.1789 11.2768 174.4899 15.1298 174.9999 15.5888 176.0859 14.5298 177.5649 15.8378 177.5649 24.7448 176.2659 26.0888 176.2659 26.1938 179.6259 29.1988 182.5899 26.1578 182.5899 26.0178 181.4699 24.9928 181.4699 15.7668 182.6989 14.5298 184.3979 16.0848 184.3979 26.4058 187.5449 29.1988 191.3389 25.2048 190.9039 24.7448"></polygon>
        <path d="M147.4165,33.2281 C146.4785,32.4161 145.4295,31.8151 143.9825,31.8151 C142.2825,31.8151 141.4165,32.2421 140.2595,32.9111 L140.2235,32.8771 L146.0445,26.2661 L146.0445,26.7971 C146.0445,28.3151 146.2595,28.9161 147.1645,29.4821 C148.0665,30.0491 148.6115,30.5051 148.6115,31.2141 C148.6115,32.0971 148.1045,32.6641 147.4165,33.2281 L147.4165,33.2281 Z M142.9695,13.7881 L143.0415,13.7151 L146.0445,16.0151 L146.0445,25.2051 L145.1035,26.2661 L142.9695,24.6371 L142.9695,13.7881 Z M151.1735,13.5411 L150.7045,13.0781 L149.6215,14.1041 L145.9365,11.2761 L139.0655,16.0851 L139.0655,25.9121 L137.8385,27.1501 L138.3065,27.6071 L139.3555,26.5841 L142.6085,29.0931 L137.6555,34.7851 L138.0185,35.0681 C139.2095,34.2541 140.6895,33.7951 141.8865,33.7951 C143.0045,33.7951 143.8375,34.3251 145.0315,35.5961 C148.6465,32.9461 150.9955,31.4611 150.9955,29.8701 C150.9955,28.4901 149.9475,28.5621 149.9475,26.7241 L149.9475,14.7401 L151.1735,13.5411 Z" id="Fill-12" fill="#2F2F2F" mask="url(#mask-2)"></path>
        <path d="M169.3262,26.6172 L166.2462,24.3552 L166.2462,13.8222 L166.2852,13.7882 L169.3262,16.1202 L169.3262,26.6172 Z M172.8682,14.4592 L168.7452,11.3102 L162.3452,15.8012 L162.3452,25.3462 L161.1892,26.5132 L161.6622,26.9712 L162.6722,25.9812 L167.1192,29.2702 L173.2242,24.8512 L173.2242,15.0572 L174.3832,13.9272 L173.9152,13.4302 L172.8682,14.4592 Z" id="Fill-13" fill="#2F2F2F" mask="url(#mask-2)"></path>
        <polygon id="Fill-14" fill="#2F2F2F" mask="url(#mask-2)" points="160.7603 24.7452 159.5643 25.9482 157.8283 24.6372 157.8283 13.9272 159.5283 13.9272 160.7933 12.0882 160.7203 12.0172 157.8283 12.0172 157.8283 5.7252 157.7563 5.6562 153.9233 9.6512 153.9233 12.0172 153.0193 12.0172 151.7563 13.8562 151.8253 13.9272 153.9233 13.9272 153.9233 26.1582 152.8013 27.2892 153.2753 27.7512 154.2473 26.7972 157.4313 29.2362 161.2263 25.2392"></polygon>
        <polygon id="Fill-15" fill="#2F2F2F" mask="url(#mask-2)" points="137.7646 24.7818 136.5736 25.9818 135.1636 24.6748 135.1636 14.7758 136.4296 13.5408 135.9576 13.0448 134.9076 14.0688 131.7636 11.3098 128.3306 14.8828 128.3306 14.1768 125.0386 11.3098 121.3516 15.1648 121.8606 15.6248 122.9436 14.5658 124.4236 15.8708 124.4236 24.7818 123.1206 26.1228 123.1206 26.2278 126.4856 29.2358 129.4516 26.1938 129.4516 26.0538 128.3306 25.0278 128.3306 15.8008 129.5586 14.5658 131.2566 16.1198 131.2566 26.4418 134.4026 29.2358 138.1986 25.2398"></polygon>
        <polygon id="Fill-16" fill="#2F2F2F" mask="url(#mask-2)" points="251.4907 24.7452 250.2957 25.9482 248.5637 24.6372 248.5637 13.9272 250.2627 13.9272 251.5247 12.0882 251.4527 12.0172 248.5637 12.0172 248.5637 5.7252 248.4897 5.6562 244.6577 9.6512 244.6577 12.0172 243.7567 12.0172 242.4877 13.8562 242.5597 13.9272 244.6577 13.9272 244.6577 26.1582 243.5387 27.2892 244.0067 27.7512 244.9827 26.7972 248.1637 29.2362 251.9617 25.2392"></polygon>
        <path d="M211.5083,25.5586 L211.4733,25.5936 C210.4243,24.4956 209.1603,23.9326 207.4613,23.7196 L207.4613,10.8876 L209.3763,8.9066 L211.5083,10.8176 L211.5083,25.5586 Z M206.7743,33.5466 L205.7253,32.5926 L205.7253,12.6906 L206.7743,11.6316 L206.7743,33.5466 Z M207.4613,10.2506 L207.4613,6.8936 L206.7743,6.8936 L206.7743,10.9576 L205.7253,12.0546 L205.7253,8.5896 L202.3253,5.5496 L198.3113,9.5796 L198.8223,10.0386 L199.8313,9.0516 L201.1343,10.1826 L201.1343,13.9976 L200.9163,13.9976 C198.9653,13.9976 197.7693,15.3056 197.7693,17.0366 C197.7693,17.9236 197.9163,18.3826 198.0223,18.6656 L198.4573,18.6656 C198.6063,17.8866 199.3303,17.1806 200.3733,17.1806 L201.1343,17.1806 L201.1343,24.0746 C198.7823,24.8506 197.4103,26.8666 197.1553,29.5886 L197.4473,29.7656 C198.4963,28.4906 199.8703,27.7146 201.1343,27.4316 L201.1343,36.9396 L201.2043,36.9756 L205.3993,33.1936 L207.3883,34.9956 L207.4613,34.9616 L207.4613,27.6066 C208.3663,27.8566 209.1213,28.4906 209.7363,29.2356 L216.0613,24.5686 L216.0613,9.1876 L211.9783,5.5496 L207.4613,10.2506 Z" id="Fill-17" fill="#2F2F2F" mask="url(#mask-2)"></path>
        <path d="M225.2124,26.6172 L222.1364,24.3552 L222.1364,13.8222 L222.1704,13.7882 L225.2124,16.1202 L225.2124,26.6172 Z M229.8004,13.4302 L228.7534,14.4592 L224.6314,11.3102 L218.2334,15.8012 L218.2334,25.3462 L217.0744,26.5132 L217.5454,26.9712 L218.5554,25.9812 L223.0064,29.2702 L229.1124,24.8512 L229.1124,15.0572 L230.2714,13.9272 L229.8004,13.4302 Z" id="Fill-18" fill="#2F2F2F" mask="url(#mask-2)"></path>
        <path d="M236.4185,18.878 L235.0415,18.878 L235.0415,13.715 L235.1145,13.68 C235.8035,14.386 236.6715,14.706 237.3945,14.706 C238.6545,14.706 239.1255,14.423 239.8895,13.893 L239.9235,13.927 L236.4185,18.878 Z M237.5735,26.937 L237.5365,26.971 C236.8475,26.123 235.7295,25.628 234.6405,25.628 C233.4155,25.628 232.7265,25.982 231.8985,26.514 L231.8595,26.442 L235.8745,20.822 L237.5735,20.822 L237.5735,26.937 Z M241.9465,11.455 C241.1515,12.088 240.1035,12.23 239.3765,12.23 C238.4435,12.23 237.8645,11.878 237.1395,11.31 L231.1385,15.446 L231.1385,22.024 L234.2125,22.024 L229.2235,29.024 L229.7275,29.199 C230.5965,28.282 231.4625,27.787 232.5485,27.787 C233.8865,27.787 234.9695,28.387 235.7295,29.236 L241.4765,25.276 L241.4765,17.711 L238.0805,17.711 L242.3075,11.701 L241.9465,11.455 Z" id="Fill-19" fill="#2F2F2F" mask="url(#mask-2)"></path>
        <path d="M3.1929,58.7564 L10.7869,58.7564 C11.5619,58.7564 11.9959,59.4344 11.9959,60.2084 C11.9959,60.8374 11.6579,61.5134 10.7869,61.5134 L3.1929,61.5134 L3.1929,74.9124 L18.6719,74.9124 C19.4459,74.9124 19.8819,75.6394 19.8819,76.4134 C19.8819,77.0904 19.5429,77.8644 18.6719,77.8644 L1.4509,77.8644 C0.7259,77.8644 -0.0001,77.4284 -0.0001,76.6074 L-0.0001,43.7124 C-0.0001,42.8904 0.7259,42.5034 1.4509,42.5034 L18.6719,42.5034 C19.5429,42.5034 19.8819,43.2284 19.8819,43.9054 C19.8819,44.7284 19.4459,45.4544 18.6719,45.4544 L3.1929,45.4544 L3.1929,58.7564 Z" id="Fill-20" fill="#2F2F2F" mask="url(#mask-2)"></path>
        <path d="M42.4609,76.0259 L29.0129,49.8569 L29.0129,76.6069 C29.0129,77.4279 28.1909,77.8639 27.4169,77.8639 C26.5949,77.8639 25.8199,77.4279 25.8199,76.6069 L25.8199,43.7129 C25.8199,42.8419 26.5949,42.5029 27.4169,42.5029 C28.5769,42.5029 29.3029,43.5189 29.9309,44.7279 L42.9929,70.4639 L42.9929,43.6649 C42.9929,42.8419 43.7669,42.5029 44.5889,42.5029 C45.3639,42.5029 46.1859,42.8419 46.1859,43.6649 L46.1859,76.6069 C46.1859,77.4279 45.3639,77.8639 44.5889,77.8639 C43.6689,77.8639 42.9439,76.9929 42.4609,76.0259" id="Fill-21" fill="#2F2F2F" mask="url(#mask-2)"></path>
        <path d="M63.2148,45.4541 C58.9088,45.4541 56.3458,47.7751 56.3458,52.8071 L56.3458,67.8031 C56.3458,72.8331 58.9088,75.2031 63.2148,75.2031 C67.5198,75.2031 70.0838,72.8331 70.0838,67.8031 L70.0838,62.0451 L63.6018,62.0451 C62.8768,62.0451 62.4408,61.3691 62.4408,60.6431 C62.4408,59.9661 62.8768,59.2881 63.6018,59.2881 L72.1148,59.2881 C72.8888,59.2881 73.2758,59.8701 73.2758,60.5471 L73.2758,67.8031 C73.2758,75.3491 68.8738,78.1541 63.2148,78.1541 C57.5548,78.1541 53.1518,75.3491 53.1518,67.8031 L53.1518,52.8071 C53.1518,45.3081 57.5548,42.5031 63.1658,42.5031 C69.3578,42.5031 73.2758,46.0341 73.2758,50.8721 C73.2758,52.1301 72.6468,52.5161 71.6798,52.5161 C70.8578,52.5161 70.1318,52.1771 70.0838,51.3081 C69.6478,47.5821 67.4228,45.4541 63.2148,45.4541" id="Fill-22" fill="#2F2F2F" mask="url(#mask-2)"></path>
        <path d="M79.71,43.6646 C79.71,42.8416 80.485,42.5026 81.307,42.5026 C82.081,42.5026 82.903,42.8416 82.903,43.6646 L82.903,76.6066 C82.903,77.4286 82.081,77.8646 81.307,77.8646 C80.485,77.8646 79.71,77.4286 79.71,76.6066 L79.71,43.6646 Z" id="Fill-23" fill="#2F2F2F" mask="url(#mask-2)"></path>
        <path d="M106.8965,76.0259 L93.4495,49.8569 L93.4495,76.6069 C93.4495,77.4279 92.6255,77.8639 91.8525,77.8639 C91.0305,77.8639 90.2565,77.4279 90.2565,76.6069 L90.2565,43.7129 C90.2565,42.8419 91.0305,42.5029 91.8525,42.5029 C93.0135,42.5029 93.7385,43.5189 94.3685,44.7279 L107.4285,70.4639 L107.4285,43.6649 C107.4285,42.8419 108.2035,42.5029 109.0255,42.5029 C109.7985,42.5029 110.6215,42.8419 110.6215,43.6649 L110.6215,76.6069 C110.6215,77.4279 109.7985,77.8639 109.0255,77.8639 C108.1055,77.8639 107.3805,76.9929 106.8965,76.0259" id="Fill-24" fill="#2F2F2F" mask="url(#mask-2)"></path>
        <path d="M121.168,58.7564 L128.764,58.7564 C129.537,58.7564 129.972,59.4344 129.972,60.2084 C129.972,60.8374 129.633,61.5134 128.764,61.5134 L121.168,61.5134 L121.168,74.9124 L136.647,74.9124 C137.422,74.9124 137.856,75.6394 137.856,76.4134 C137.856,77.0904 137.518,77.8644 136.647,77.8644 L119.426,77.8644 C118.701,77.8644 117.975,77.4284 117.975,76.6074 L117.975,43.7124 C117.975,42.8904 118.701,42.5034 119.426,42.5034 L136.647,42.5034 C137.518,42.5034 137.856,43.2284 137.856,43.9054 C137.856,44.7284 137.422,45.4544 136.647,45.4544 L121.168,45.4544 L121.168,58.7564 Z" id="Fill-25" fill="#2F2F2F" mask="url(#mask-2)"></path>
        <path d="M145.7432,58.7564 L153.3372,58.7564 C154.1122,58.7564 154.5472,59.4344 154.5472,60.2084 C154.5472,60.8374 154.2082,61.5134 153.3372,61.5134 L145.7432,61.5134 L145.7432,74.9124 L161.2222,74.9124 C161.9962,74.9124 162.4312,75.6394 162.4312,76.4134 C162.4312,77.0904 162.0942,77.8644 161.2222,77.8644 L144.0012,77.8644 C143.2762,77.8644 142.5502,77.4284 142.5502,76.6074 L142.5502,43.7124 C142.5502,42.8904 143.2762,42.5034 144.0012,42.5034 L161.2222,42.5034 C162.0942,42.5034 162.4312,43.2284 162.4312,43.9054 C162.4312,44.7284 161.9962,45.4544 161.2222,45.4544 L145.7432,45.4544 L145.7432,58.7564 Z" id="Fill-26" fill="#2F2F2F" mask="url(#mask-2)"></path>
        <path d="M170.3179,45.4541 L170.3179,58.9981 L176.8959,58.9981 C181.2019,58.9981 184.1519,57.0631 184.1519,52.1771 C184.1519,47.3401 181.2019,45.4541 176.8959,45.4541 L170.3179,45.4541 Z M167.1249,43.6641 C167.1249,43.0351 167.6079,42.5511 168.3349,42.5031 L176.8959,42.5031 C182.5559,42.5031 187.3449,44.7771 187.3449,52.0321 C187.3449,58.0311 184.0079,60.6431 179.7989,61.3691 L187.2489,75.6871 C187.3939,75.8801 187.4429,76.1231 187.4429,76.3151 C187.4429,77.1391 186.5229,77.9611 185.6039,77.9611 C184.8289,77.9611 184.2969,77.0421 183.9109,76.2681 L176.4619,61.7561 L170.3179,61.7561 L170.3179,76.6071 C170.3179,77.4281 169.4959,77.8641 168.7209,77.8641 C167.8999,77.8641 167.1249,77.4281 167.1249,76.6071 L167.1249,43.6641 Z" id="Fill-27" fill="#2F2F2F" mask="url(#mask-2)"></path>
        <path d="M192.7153,43.6646 C192.7153,42.8416 193.4903,42.5026 194.3123,42.5026 C195.0863,42.5026 195.9083,42.8416 195.9083,43.6646 L195.9083,76.6066 C195.9083,77.4286 195.0863,77.8646 194.3123,77.8646 C193.4903,77.8646 192.7153,77.4286 192.7153,76.6066 L192.7153,43.6646 Z" id="Fill-28" fill="#2F2F2F" mask="url(#mask-2)"></path>
        <path d="M219.9019,76.0259 L206.4549,49.8569 L206.4549,76.6069 C206.4549,77.4279 205.6319,77.8639 204.8579,77.8639 C204.0359,77.8639 203.2619,77.4279 203.2619,76.6069 L203.2619,43.7129 C203.2619,42.8419 204.0359,42.5029 204.8579,42.5029 C206.0189,42.5029 206.7449,43.5189 207.3739,44.7279 L220.4339,70.4639 L220.4339,43.6649 C220.4339,42.8419 221.2089,42.5029 222.0299,42.5029 C222.8049,42.5029 223.6279,42.8419 223.6279,43.6649 L223.6279,76.6069 C223.6279,77.4279 222.8049,77.8639 222.0299,77.8639 C221.1119,77.8639 220.3859,76.9929 219.9019,76.0259" id="Fill-29" fill="#2F2F2F" mask="url(#mask-2)"></path>
        <path d="M241.939,45.4541 C237.633,45.4541 235.07,47.7751 235.07,52.8071 L235.07,67.8031 C235.07,72.8331 237.633,75.2031 241.939,75.2031 C246.244,75.2031 248.808,72.8331 248.808,67.8031 L248.808,62.0451 L242.326,62.0451 C241.6,62.0451 241.165,61.3691 241.165,60.6431 C241.165,59.9661 241.6,59.2881 242.326,59.2881 L250.839,59.2881 C251.614,59.2881 252,59.8701 252,60.5471 L252,67.8031 C252,75.3491 247.598,78.1541 241.939,78.1541 C236.279,78.1541 231.876,75.3491 231.876,67.8031 L231.876,52.8071 C231.876,45.3081 236.279,42.5031 241.891,42.5031 C248.082,42.5031 252,46.0341 252,50.8721 C252,52.1301 251.371,52.5161 250.404,52.5161 C249.582,52.5161 248.856,52.1771 248.808,51.3081 C248.373,47.5821 246.147,45.4541 241.939,45.4541" id="Fill-30" fill="#2F2F2F" mask="url(#mask-2)"></path>
    </g>
</svg>
