<svg xmlns="http://www.w3.org/2000/svg" width="252" height="78" xmlns:xlink="http://www.w3.org/1999/xlink"><desc>Created with Sketch.</desc><defs><path id="a" d="M0 77.86h252V0H0z"/></defs><g fill="none"><mask id="b"><use xlink:href="#a"/></mask><path fill="#2F2F2F" d="M13.48 24.6c-.97.43-2.1.7-3.32.7-1.52 0-2.6-.34-3.58-1.05l4.63-2.48V11.35c.48.1.95.14 1.45.14.3 0 .58 0 .83-.04V24.6zM3.65 18c0-4 1.8-5.98 3.65-7.85 1.27.35 2.4.88 3.76 1.16L5.64 14.3l.36.57 1.16-.6v8.94l-1.12.6c-1.7-1.42-2.4-3.6-2.4-5.8zm13.67 1.97c-.62 1.88-1.45 3.3-3.15 4.28V11.3c2.93-.73 3.62-2.96 3.65-5.26h-.43c-.62 1.3-1.5 1.88-3.05 1.88-3.07 0-5.1-2.37-7.74-2.37-4.1 0-6.1 3.68-6.1 6.97 0 .24 0 .5.04.74h.5c0-1.77 1.53-3.5 4.13-3.5.58 0 1.05.07 1.6.2C2.76 12.42 0 15.2 0 19.74c0 5.93 3.87 9.65 8.97 9.65 5.06 0 8.38-4.53 8.78-9.2l-.43-.2z" mask="url(#b)"/><path fill="#2F2F2F" d="M35.4 13.96l.06-.03 3.08 4.88-3.15 2.27v-7.1zm6.8 3.12l-3.8-5.77-6.84 4.9v8.86l-1.12 1.13.43.45 1-1 4.64 3.62 5.14-5.37-.46-.46-2.53 2.58-3.26-2.5v-1.6l6.8-4.84z" mask="url(#b)"/><path fill="#2F2F2F" d="M30.04 13.2l-.97.9-3.15-2.8-3.15 3.27v-9.4l-.07-.04-3.83 4v15.62l-1.3 1.34v.13l3.36 3 2.93-3.04v-.15l-1.1-1V15.5l.95-.9 1.8 1.57V28.8c0 1.78-1.13 3.23-2.83 4.04l.2.35c3.45-.68 6.52-2.98 6.52-6.37V14.7l1.1-1.06-.46-.45z" mask="url(#b)"/><path fill="#2F2F2F" d="M67.96 25.9l-.04.05-3.54-3.04V10.7l1.55-1.52 2.03 1.97V25.9zm-8.17-1.6l-1.13 1.22-3.07-2.58V10.82l1.66-1.66 2.53 2.44v12.7zm4.47-14.47l-4.44-4.28L55.6 9.9V8.47c0-3.67-2.32-3.07-2.32-5.4 0-1.52.98-2.23 2.17-2.8L55.13 0c-3.58 1.24-5.53 3.1-5.53 5.13 0 1.8 1.4 1.9 1.4 4v5.36c-2.63 0-3.03 2.4-3.03 3.32 0 .56.1 1.06.18 1.34h.37c.13-.7.57-1.24 1.48-1.24h1v6.93l5.2 4.4 3.84-4.26 5.03 4.24 7.45-6.72V9.44l-4.05-3.9-4.2 4.3z" mask="url(#b)"/><path fill="#2F2F2F" d="M120.92 25.95l-1.52-1.38v-10.1l1.23-1.2-.5-.5-.98.98-2.75-2.44-3.65 3.8.47.45.98-.92 1.3 1.17v10.08l-1.2 1.2.47.46 1.02-1 3 2.7 3.68-3.9-.47-.5z" mask="url(#b)"/><path fill="#2F2F2F" d="M93.78 18.88H92.4v-5.16l.07-.04c.7.7 1.56 1.03 2.28 1.03 1.26 0 1.73-.28 2.5-.8l.03.03-3.5 4.95zm1.15 8.06l-.04.03c-.7-.85-1.8-1.34-2.9-1.34-1.23 0-1.92.35-2.75.88l-.03-.06 4-5.62h1.7v6.12zm4.37-15.5c-.8.65-1.84.8-2.56.8-.95 0-1.52-.36-2.25-.93l-6 4.15v6.57h3.07l-5 7 .5.18c.88-.92 1.75-1.4 2.83-1.4 1.34 0 2.42.6 3.2 1.44l5.73-3.96V17.7h-3.4l4.23-6-.36-.24z" mask="url(#b)"/><path fill="#2F2F2F" d="M120.45 8.17L117.5 5.5l-2.73 2.84 2.97 2.65z" mask="url(#b)"/><path fill="#2F2F2F" d="M112.35 13.2l-.97.9-3.15-2.8-3.14 3.27v-9.4l-.1-.04-3.82 4v15.62l-1.3 1.34v.13l3.36 3 2.93-3.04v-.15l-1.08-1V15.5l.93-.9 1.77 1.57V28.8c0 1.78-1.12 3.23-2.82 4.04l.2.35c3.45-.68 6.52-2.98 6.52-6.37V14.7l1.12-1.06-.47-.45z" mask="url(#b)"/><path fill="#2F2F2F" d="M80.76 25.2l-.87.82-2.2-1.9V13.78l.06-.08 3 2.3v9.2zm6.6-.35l-1.03 1.06-1.67-1.47v-9.58l1.3-1.2-.54-.46-1 .98-3.77-2.9-6.87 4.8v9.3l-1.05 1.06.47.46.83-.8 3.66 3.14 2.98-3.05h.08l3.4 3.04 3.75-3.9-.53-.5z" mask="url(#b)"/><path fill="#2F2F2F" d="M189.7 25.95l-1.4-1.3v-9.9l1.27-1.25-.48-.5-1.05 1.03-3.15-2.75-3.43 3.57v-.7l-3.3-2.87-3.68 3.85.5.46 1.1-1.07 1.46 1.3v8.9l-1.3 1.36v.1l3.37 3 2.96-3.04v-.14L181.46 25v-9.23l1.23-1.24 1.7 1.55V26.4l3.14 2.8 3.8-4-.44-.46z" mask="url(#b)"/><path fill="#2F2F2F" d="M147.42 33.23c-.94-.8-2-1.4-3.44-1.4-1.7 0-2.56.4-3.72 1.08l-.04-.02 5.82-6.6v.52c0 1.52.22 2.12 1.12 2.68.9.57 1.45 1.03 1.45 1.73 0 .9-.5 1.46-1.18 2.03zm-4.45-19.44l.07-.08 3 2.3v9.2l-.94 1.05-2.13-1.63V13.8zm8.2-.26l-.47-.46-1.08 1.02-3.68-2.82-6.87 4.8v9.83l-1.23 1.25.47.46 1.06-1.02 3.25 2.5-4.94 5.7.36.3c1.2-.83 2.67-1.28 3.87-1.28 1.1 0 1.94.53 3.13 1.8 3.62-2.65 5.97-4.14 5.97-5.73 0-1.38-1.05-1.3-1.05-3.15V14.74l1.22-1.2z" mask="url(#b)"/><path fill="#2F2F2F" d="M169.33 26.62l-3.08-2.26V13.82l.04-.03 3.03 2.32v10.5zm3.54-12.16l-4.12-3.15-6.4 4.5v9.55l-1.16 1.16.46.47 1-1 4.46 3.3 6.1-4.42v-9.8l1.16-1.12-.46-.5-1.05 1.03z" mask="url(#b)"/><path fill="#2F2F2F" d="M160.76 24.75l-1.2 1.2-1.73-1.3V13.92h1.7l1.26-1.84-.08-.08h-2.9v-6.3l-.06-.06-3.84 4V12h-.9l-1.26 1.84.07.07h2.1v12.23l-1.13 1.13.48.45.97-.95 3.18 2.44 3.8-4z" mask="url(#b)"/><path fill="#2F2F2F" d="M137.76 24.78l-1.2 1.2-1.4-1.3v-9.9l1.27-1.24-.47-.5-1.05 1.03-3.14-2.76-3.43 3.58v-.7l-3.3-2.87-3.68 3.86.5.46 1.1-1.05 1.47 1.3v8.9l-1.3 1.35v.1l3.37 3.02 2.95-3.05v-.15l-1.12-1.02V15.8l1.23-1.23 1.7 1.55v10.32l3.14 2.8 3.8-4z" mask="url(#b)"/><path fill="#2F2F2F" d="M251.5 24.75l-1.2 1.2-1.74-1.3V13.92h1.7l1.26-1.84-.07-.08h-2.9v-6.3l-.06-.06-3.84 4V12h-.9l-1.27 1.84.06.07h2.1v12.23l-1.12 1.13.47.45.98-.95 3.18 2.44 3.8-4z" mask="url(#b)"/><path fill="#2F2F2F" d="M211.5 25.56l-.03.03c-1.05-1.1-2.3-1.67-4-1.88V10.9l1.9-2 2.14 1.92v14.74zm-4.73 8l-1.04-.97V12.7l1.04-1.07v21.92zm.7-23.3V6.88h-.7v4.06l-1.04 1.1V8.58l-3.4-3.05-4.02 4.03.52.46 1-1 1.3 1.14V14h-.2c-1.95 0-3.15 1.3-3.15 3.04 0 .88.15 1.34.25 1.63h.44c.15-.78.87-1.5 1.9-1.5h.77v6.9c-2.35.78-3.72 2.8-3.97 5.52l.3.17c1.04-1.28 2.4-2.06 3.67-2.34v9.5l.07.05 4.2-3.8 2 1.82.06-.04V27.6c.9.26 1.66.9 2.28 1.64l6.32-4.67V9.2l-4.08-3.65-4.52 4.7z" mask="url(#b)"/><path fill="#2F2F2F" d="M225.2 26.62l-3.06-2.26V13.82l.03-.03 3.04 2.32v10.5zm4.6-13.2l-1.05 1.04-4.12-3.15-6.4 4.5v9.55l-1.16 1.16.48.47 1-1 4.46 3.3 6.1-4.42v-9.8l1.17-1.12-.47-.5z" mask="url(#b)"/><path fill="#2F2F2F" d="M236.42 18.88h-1.38v-5.16l.07-.04c.7.7 1.57 1.03 2.3 1.03 1.25 0 1.73-.28 2.5-.8l.02.03-3.5 4.95zm1.15 8.06l-.03.03c-.7-.85-1.8-1.34-2.9-1.34-1.22 0-1.9.35-2.74.88l-.04-.06 4-5.62h1.7v6.12zm4.38-15.5c-.8.65-1.85.8-2.57.8-.94 0-1.52-.36-2.24-.93l-6 4.15v6.57h3.07l-4.98 7 .5.18c.88-.92 1.74-1.4 2.83-1.4 1.34 0 2.42.6 3.18 1.44l5.75-3.96V17.7h-3.4l4.23-6-.35-.24z" mask="url(#b)"/><path fill="#2F2F2F" d="M3.2 58.76h7.6c.76 0 1.2.67 1.2 1.45 0 .64-.34 1.3-1.2 1.3H3.2v13.4h15.47c.78 0 1.2.74 1.2 1.5 0 .7-.33 1.46-1.2 1.46H1.45C.73 77.86 0 77.43 0 76.6V43.7c0-.8.73-1.2 1.45-1.2h17.22c.87 0 1.2.73 1.2 1.4 0 .83-.42 1.55-1.2 1.55H3.2v13.3z" mask="url(#b)"/><path fill="#2F2F2F" d="M42.46 76.03L29 49.86V76.6c0 .83-.8 1.26-1.58 1.26-.83 0-1.6-.43-1.6-1.25V43.7c0-.86.77-1.2 1.6-1.2 1.16 0 1.88 1.02 2.5 2.23L43 70.46v-26.8c0-.82.77-1.16 1.6-1.16.76 0 1.6.34 1.6 1.16V76.6c0 .83-.84 1.26-1.6 1.26-.93 0-1.66-.87-2.14-1.83" mask="url(#b)"/><path fill="#2F2F2F" d="M63.2 45.45c-4.3 0-6.85 2.33-6.85 7.36v15c0 5.03 2.56 7.4 6.86 7.4 4.32 0 6.88-2.37 6.88-7.4v-5.75H63.6c-.72 0-1.16-.68-1.16-1.4 0-.68.44-1.36 1.16-1.36h8.5c.8 0 1.18.57 1.18 1.25v7.25c0 7.55-4.4 10.35-10.07 10.35-5.65 0-10.05-2.8-10.05-10.35v-15c0-7.5 4.4-10.3 10.02-10.3 6.2 0 10.1 3.53 10.1 8.37 0 1.26-.62 1.65-1.6 1.65-.8 0-1.54-.34-1.6-1.2-.42-3.74-2.65-5.87-6.86-5.87" mask="url(#b)"/><path fill="#2F2F2F" d="M79.7 43.66c0-.82.78-1.16 1.6-1.16.78 0 1.6.34 1.6 1.16V76.6c0 .83-.82 1.26-1.6 1.26-.8 0-1.6-.43-1.6-1.25V43.67z" mask="url(#b)"/><path fill="#2F2F2F" d="M106.9 76.03L93.45 49.86V76.6c0 .83-.82 1.26-1.6 1.26-.82 0-1.6-.43-1.6-1.25V43.7c0-.86.78-1.2 1.6-1.2 1.16 0 1.9 1.02 2.52 2.23l13.06 25.73v-26.8c0-.82.77-1.16 1.6-1.16.77 0 1.6.34 1.6 1.16V76.6c0 .83-.83 1.26-1.6 1.26-.92 0-1.65-.87-2.13-1.83" mask="url(#b)"/><path fill="#2F2F2F" d="M121.17 58.76h7.6c.77 0 1.2.67 1.2 1.45 0 .64-.34 1.3-1.2 1.3h-7.6v13.4h15.48c.77 0 1.2.74 1.2 1.5 0 .7-.33 1.46-1.2 1.46h-17.22c-.73 0-1.46-.43-1.46-1.25V43.7c0-.8.73-1.2 1.46-1.2h17.22c.87 0 1.2.73 1.2 1.4 0 .83-.43 1.55-1.2 1.55h-15.48v13.3z" mask="url(#b)"/><path fill="#2F2F2F" d="M145.74 58.76h7.6c.77 0 1.2.67 1.2 1.45 0 .64-.33 1.3-1.2 1.3h-7.6v13.4h15.48c.78 0 1.2.74 1.2 1.5 0 .7-.33 1.46-1.2 1.46H144c-.72 0-1.45-.43-1.45-1.25V43.7c0-.8.73-1.2 1.45-1.2h17.22c.87 0 1.2.73 1.2 1.4 0 .83-.42 1.55-1.2 1.55h-15.48v13.3z" mask="url(#b)"/><path fill="#2F2F2F" d="M170.32 45.45V59h6.58c4.3 0 7.25-1.94 7.25-6.82 0-4.84-2.95-6.73-7.25-6.73h-6.58zm-3.2-1.8c0-.6.5-1.1 1.2-1.15h8.58c5.66 0 10.44 2.28 10.44 9.53 0 6-3.33 8.6-7.54 9.34l7.45 14.32c.14.18.2.42.2.62 0 .82-.93 1.64-1.85 1.64-.77 0-1.3-.92-1.7-1.7l-7.44-14.5h-6.14V76.6c0 .83-.82 1.26-1.6 1.26-.82 0-1.6-.43-1.6-1.25V43.67z" mask="url(#b)"/><path fill="#2F2F2F" d="M192.72 43.66c0-.82.77-1.16 1.6-1.16.77 0 1.6.34 1.6 1.16V76.6c0 .83-.83 1.26-1.6 1.26-.83 0-1.6-.43-1.6-1.25V43.67z" mask="url(#b)"/><path fill="#2F2F2F" d="M219.9 76.03l-13.45-26.17V76.6c0 .83-.82 1.26-1.6 1.26-.8 0-1.6-.43-1.6-1.25V43.7c0-.86.8-1.2 1.6-1.2 1.17 0 1.9 1.02 2.52 2.23l13.06 25.73v-26.8c0-.82.78-1.16 1.6-1.16.77 0 1.6.34 1.6 1.16V76.6c0 .83-.83 1.26-1.6 1.26-.92 0-1.64-.87-2.13-1.83" mask="url(#b)"/><path fill="#2F2F2F" d="M241.94 45.45c-4.3 0-6.87 2.33-6.87 7.36v15c0 5.03 2.56 7.4 6.87 7.4 4.3 0 6.87-2.37 6.87-7.4v-5.75h-6.47c-.73 0-1.17-.68-1.17-1.4 0-.68.44-1.36 1.17-1.36h8.5c.78 0 1.17.57 1.17 1.25v7.25c0 7.55-4.4 10.35-10.06 10.35s-10.06-2.8-10.06-10.35v-15c0-7.5 4.4-10.3 10-10.3 6.2 0 10.12 3.53 10.12 8.37 0 1.26-.63 1.65-1.6 1.65-.82 0-1.54-.34-1.6-1.2-.43-3.74-2.65-5.87-6.86-5.87" mask="url(#b)"/></g></svg>