<?xml version="1.0" encoding="utf-8"?>
<!-- Generator: Adobe Illustrator 23.0.4, SVG Export Plug-In . SVG Version: 6.00 Build 0)  -->
<svg version="1.1" id="Layer_1" xmlns="http://www.w3.org/2000/svg" xmlns:xlink="http://www.w3.org/1999/xlink" x="0px" y="0px"
	 viewBox="0 0 216 127.8" style="enable-background:new 0 0 216 127.8;" xml:space="preserve">
<style type="text/css">
	.st0{fill:#3C5586;}
</style>
<g>
	<path class="st0" d="M174.9,89.3h-4.8v8.6h4.9c3.1,0,4.9-1.8,4.9-4.3v-0.1C180,90.8,178,89.3,174.9,89.3 M170.2,110.6l7.4-7.4
		c-0.9,0.2-1.8,0.2-2.7,0.2h-4.7V110.6z M118.1,33.1l-5.4,5.4L124,54.8l0.4,0.1L118.1,33.1z M163,49.2c5.3,0,8.5,1.8,11.1,4.3
		l-3.9,4.5c-2.2-2-4.4-3.2-7.2-3.2c-4.7,0-8.2,3.9-8.2,8.8v0.1c0,4.8,3.3,8.8,8.2,8.8c3.2,0,5.2-1.3,7.4-3.3l3.9,4
		c-2.9,3.1-6.1,5-11.5,5c-8.3,0-14.4-6.4-14.4-14.5v-0.1C148.3,55.8,154.4,49.2,163,49.2 M178.8,49.2H200v5.5h-15.1v5.7h13.2v5.5
		h-13.2v5.9H200v5.5h-21.2V49.2z M167,15.8L151.2,0l-28,28l4.1,16.4l5.3-16h4.4l5.3,16l4-16h6.6l-8.1,28.3h-4.1l-5.8-17.3l-5.9,17.5
		l11.4,4.7l13,39.2l-0.1,26.8l10.8-10.8V83.8h11.5c6.7,0,10.8,4,10.8,9.7v0.1c0,0.4,0,0.7-0.1,1.1L216,64.8l-33.2-33.2
		c-0.8,7.1-6.6,12.3-14.8,12.3h-11V15.8H167z M176.4,29.9c0-5-3.4-8.5-8.5-8.5h-4.8v16.9h4.8C173,38.3,176.4,34.9,176.4,29.9
		L176.4,29.9z"/>
	<g>
		<g>
			<path class="st0" d="M8.6,85.2l-1.5-6.2l-1.5,6.2H2.9L0,75.2h2.9l1.5,6.6l1.7-6.6h2l1.7,6.6l1.5-6.6h2.9l-2.9,10H8.6z"/>
			<path class="st0" d="M21.8,85.2l-0.5-1.4h-3.9l-0.5,1.4H14l3.7-10H21l3.7,10H21.8z M19.4,77.7l-1.3,3.7h2.5L19.4,77.7z"/>
			<path class="st0" d="M25.4,83.8l1.4-2c0.7,0.7,1.8,1.3,3.2,1.3c0.9,0,1.4-0.3,1.4-0.8c0-1.3-5.6-0.2-5.6-4.1c0-1.7,1.4-3.2,4-3.2
				c1.6,0,3,0.5,4,1.4l-1.4,1.9c-0.8-0.7-1.9-1-2.9-1c-0.7,0-1.1,0.3-1.1,0.7c0,1.2,5.6,0.3,5.6,4c0,2-1.5,3.3-4.1,3.3
				C27.8,85.3,26.4,84.7,25.4,83.8z"/>
			<path class="st0" d="M42.6,85.2v-4h-4.1v4h-2.6v-10h2.6v3.7h4.1v-3.7h2.6v10H42.6z"/>
			<path class="st0" d="M47.7,85.2v-10h2.6v10H47.7z"/>
			<path class="st0" d="M59.6,85.2l-4.2-5.8v5.8h-2.6v-10h2.6l4,5.5v-5.5h2.6v10H59.6z"/>
			<path class="st0" d="M64.1,80.2c0-3.2,2.4-5.1,5.4-5.1c2.2,0,3.6,1.2,4.3,2.4l-2.1,1.1c-0.4-0.7-1.1-1.3-2.1-1.3
				c-1.6,0-2.8,1.2-2.8,2.9c0,1.6,1.1,2.9,2.8,2.9c0.7,0,1.5-0.3,1.8-0.6v-0.8h-2.2v-2.3h4.8v4c-1.1,1.2-2.5,1.9-4.4,1.9
				C66.5,85.3,64.1,83.3,64.1,80.2z"/>
			<path class="st0" d="M78.3,85.2v-7.7h-2.8v-2.2h8.1v2.2h-2.8v7.7H78.3z"/>
			<path class="st0" d="M84.7,80.2c0-3,2.3-5.1,5.3-5.1c3,0,5.3,2.1,5.3,5.1c0,3-2.3,5.1-5.3,5.1C87,85.3,84.7,83.2,84.7,80.2z
				 M92.8,80.2c0-1.6-1.1-2.9-2.7-2.9c-1.6,0-2.7,1.3-2.7,2.9c0,1.6,1.1,2.9,2.7,2.9C91.7,83.1,92.8,81.8,92.8,80.2z"/>
			<path class="st0" d="M104.2,85.2l-4.2-5.8v5.8h-2.6v-10h2.6l4,5.5v-5.5h2.6v10H104.2z"/>
			<path class="st0" d="M113.6,85.2v-10h4.2c3.1,0,5.4,1.9,5.4,5c0,3.1-2.3,5-5.4,5H113.6z M120.5,80.2c0-1.5-0.9-2.7-2.7-2.7h-1.6
				v5.5h1.6C119.5,82.9,120.5,81.6,120.5,80.2z"/>
			<path class="st0" d="M124.7,80.2c0-3.1,2.3-5.1,5.4-5.1c2.4,0,3.7,1.4,4.3,2.7l-2.2,1.1c-0.3-0.8-1.2-1.4-2.1-1.4
				c-1.6,0-2.8,1.2-2.8,2.9c0,1.6,1.1,2.9,2.8,2.9c1,0,1.8-0.7,2.1-1.4l2.2,1c-0.6,1.3-1.9,2.7-4.3,2.7
				C127,85.3,124.7,83.2,124.7,80.2z"/>
		</g>
		<g>
			<path class="st0" d="M1.5,107.9V91.4H12v1.3H2.9v6.1h8.9v1.3H2.9v6.5H12v1.3H1.5z"/>
			<path class="st0" d="M16.1,99.6c0-5.1,3.7-8.5,8.4-8.5c2.6,0,4.6,1.2,6,2.9l-1.2,0.8c-1-1.4-2.8-2.4-4.8-2.4
				c-3.9,0-6.9,2.9-6.9,7.3c0,4.3,3,7.3,6.9,7.3c2,0,3.8-1,4.8-2.4l1.2,0.7c-1.5,1.8-3.4,2.9-6,2.9C19.8,108.2,16.1,104.7,16.1,99.6
				z"/>
			<path class="st0" d="M33.9,99.6c0-4.8,3.2-8.5,8-8.5c4.8,0,8,3.7,8,8.5c0,4.8-3.2,8.5-8,8.5C37.1,108.2,33.9,104.5,33.9,99.6z
				 M48.5,99.6c0-4.2-2.6-7.3-6.5-7.3c-4,0-6.5,3.1-6.5,7.3c0,4.2,2.5,7.3,6.5,7.3C45.9,106.9,48.5,103.8,48.5,99.6z"/>
			<path class="st0" d="M66.5,107.9L56.1,93.7v14.2h-1.4V91.4h1.4l10.3,14v-14h1.4v16.5H66.5z"/>
			<path class="st0" d="M72.6,99.6c0-4.8,3.2-8.5,8-8.5c4.8,0,8,3.7,8,8.5c0,4.8-3.2,8.5-8,8.5C75.8,108.2,72.6,104.5,72.6,99.6z
				 M87.1,99.6c0-4.2-2.6-7.3-6.5-7.3c-4,0-6.5,3.1-6.5,7.3c0,4.2,2.5,7.3,6.5,7.3C84.6,106.9,87.1,103.8,87.1,99.6z"/>
			<path class="st0" d="M107.4,107.9V93.1l-6,14.7h-0.5l-6-14.7v14.7h-1.4V91.4h2.1l5.6,13.7l5.6-13.7h2.1v16.5H107.4z"/>
			<path class="st0" d="M114.1,107.9V91.4h1.4v16.5H114.1z"/>
			<path class="st0" d="M119.9,99.5c0-5.1,3.7-8.5,8.4-8.5c2.6,0,4.6,1.2,6,2.9l-1.2,0.8c-1-1.4-2.8-2.4-4.8-2.4
				c-3.9,0-6.9,2.9-6.9,7.3c0,4.3,3,7.3,6.9,7.3c2,0,3.8-1,4.8-2.4l1.2,0.7c-1.5,1.8-3.4,2.9-6,2.9
				C123.6,108.1,119.9,104.6,119.9,99.5z"/>
		</g>
		<g>
			<path class="st0" d="M1.5,127.6v-13.5h5.1c2.6,0,4.1,1.8,4.1,3.9S9.1,122,6.6,122H2.7v5.6H1.5z M9.4,118c0-1.7-1.2-2.9-3-2.9H2.7
				v5.8h3.8C8.2,120.9,9.4,119.7,9.4,118z"/>
			<path class="st0" d="M22.2,127.6l-1.3-3.3h-7.1l-1.3,3.3h-1.3l5.5-13.5H18l5.5,13.5H22.2z M17.3,115.3l-3.2,7.9h6.4L17.3,115.3z"
				/>
			<path class="st0" d="M34.4,127.6l-3.8-5.6h-3v5.6h-1.2v-13.5h5c2.3,0,4.1,1.5,4.1,3.9c0,2.4-1.7,3.8-3.7,3.9l3.9,5.7H34.4z
				 M34.4,118c0-1.7-1.2-2.9-3-2.9h-3.8v5.8h3.8C33.3,120.9,34.4,119.7,34.4,118z"/>
			<path class="st0" d="M42.7,127.6v-12.4h-4.4v-1.1h10v1.1h-4.4v12.4H42.7z"/>
			<path class="st0" d="M61.3,127.6L52.8,116v11.6h-1.2v-13.5h1.2l8.5,11.4v-11.4h1.2v13.5H61.3z"/>
			<path class="st0" d="M66.8,127.6v-13.5h8.6v1.1h-7.4v5h7.3v1.1h-7.3v5.3h7.4v1.1H66.8z"/>
			<path class="st0" d="M87.1,127.6l-3.8-5.6h-3v5.6h-1.2v-13.5h5c2.3,0,4.1,1.5,4.1,3.9c0,2.4-1.7,3.8-3.7,3.9l3.9,5.7H87.1z
				 M87.1,118c0-1.7-1.2-2.9-3-2.9h-3.8v5.8h3.8C85.9,120.9,87.1,119.7,87.1,118z"/>
			<path class="st0" d="M91.4,125.7l0.7-0.9c0.9,1,2.3,2,4.2,2c2.8,0,3.5-1.5,3.5-2.7c0-4-8.1-1.9-8.1-6.6c0-2.2,2-3.6,4.4-3.6
				c2,0,3.5,0.7,4.6,1.9l-0.8,0.8c-1-1.2-2.3-1.7-3.9-1.7c-1.8,0-3.2,1-3.2,2.5c0,3.5,8.1,1.6,8.1,6.6c0,1.7-1.2,3.8-4.8,3.8
				C94.1,127.8,92.4,126.9,91.4,125.7z"/>
			<path class="st0" d="M114.6,127.6v-6.4H106v6.4h-1.2v-13.5h1.2v6h8.6v-6h1.2v13.5H114.6z"/>
			<path class="st0" d="M120.1,127.6v-13.5h1.2v13.5H120.1z"/>
			<path class="st0" d="M125.6,127.6v-13.5h5.1c2.6,0,4.1,1.8,4.1,3.9s-1.5,3.9-4.1,3.9h-3.9v5.6H125.6z M133.5,118
				c0-1.7-1.2-2.9-3-2.9h-3.8v5.8h3.8C132.3,120.9,133.5,119.7,133.5,118z"/>
		</g>
	</g>
</g>
</svg>
