<svg xmlns="http://www.w3.org/2000/svg" viewBox="0 0 284.5 82.7" enable-background="new 0 0 284.5 82.7"><path d="M93.6 10.7c-4.3-2.1-8.7-4-13.2-5.5l-2.9-1-14 46.5-5.6-3.9 5.5-18.2H32.5L38 46.9l-5.6 3.9-14-46.5-2.9 1c-4.5 1.5-9 3.3-13.2 5.5l-2.3 1 21.3 70.9L48 64.1l26.7 18.6L96 11.8l-2.4-1.1zM71.2 73.1L47.9 56.8 24.6 73.1 7.2 15c2.4-1.1 4.8-2.1 7.3-3L29 60.4l15.9-11.1-4.4-14.7h14.8l-4.4 14.7 15.9 11.1 14.5-48.5c2.5.9 4.9 1.9 7.3 3L71.2 73.1zM65.9 22.3l5.3-19.7-3.1-.6C54.9-.6 41.1-.6 27.9 2l-3.1.6 5.4 19.8h35.7zm-2.1-15l-2.5 9.1H34.7l-2.5-9.1c10.4-1.8 21.2-1.8 31.6 0"/><path d="M130.5 36c.1.4.2.8.3 1.2.1.4.1.7.1.9 0 .3.1.5.1.6 0 .2 0 .2 0 .2h.1c0-.3 0-.6.1-.9 0-.3.1-.6.1-.9.1-.4.1-.7.2-1.1l4.6-19.5h5.3l-7.3 28.2h-5.9L124 28.1c-.1-.5-.2-.9-.3-1.3-.1-.4-.2-.8-.2-1.2-.1-.4-.1-.8-.2-1.2h-.1c-.1.4-.1.7-.2 1.2-.1.3-.1.7-.2 1.2-.1.4-.2.9-.3 1.3l-4.3 16.7h-5.9l-7.1-28.2h5.3l4.4 19.5c.1.4.2.8.2 1.1.1.4.1.7.1.9.1.3.1.6.1.9h.1s0-.1 0-.2c0-.2 0-.4.1-.6 0-.3.1-.6.1-.9.1-.4.1-.7.3-1.2l5.1-19.5h4.5l5 19.4zM146 16.6h5.1v28.2H146V16.6zM158.6 16.6h5.1l10.7 16.3c.3.4.5.9.8 1.4.3.5.5 1 .7 1.4.3.5.5 1 .8 1.6h.1c-.1-.5-.1-1-.1-1.5 0-.4-.1-.9-.1-1.4 0-.5 0-1 0-1.4V16.6h5.1v28.2h-5.1l-10.7-16.2c-.3-.4-.5-.9-.8-1.4-.3-.5-.5-1-.7-1.4-.3-.5-.5-1-.8-1.6h-.1c0 .5.1 1 .1 1.6 0 .5.1.9.1 1.4 0 .5 0 1 0 1.4v16.2h-5.1V16.6zM186.6 30.6c0-1.4.2-2.7.5-3.9.3-1.3.8-2.4 1.4-3.5.6-1.1 1.3-2 2.2-2.9.9-.9 1.8-1.6 2.9-2.3 1.1-.6 2.2-1.1 3.5-1.4 1.3-.3 2.6-.5 4-.5.9 0 1.7.1 2.4.2.8.1 1.5.2 2.1.4.6.2 1.2.4 1.8.6.5.2 1 .4 1.5.7 1 .5 1.9 1.1 2.7 1.8l-2.5 3.8c-.6-.5-1.3-.9-2.1-1.3-.7-.3-1.4-.6-2.4-.9-.9-.3-1.9-.4-3.1-.4-1.6 0-3 .3-4.2.8-1.2.5-2.2 1.2-3 2.1-.8.9-1.4 1.9-1.8 3.1-.4 1.2-.6 2.4-.6 3.8 0 1.5.2 2.9.7 4.1.5 1.2 1.2 2.3 2 3.2.9.9 1.9 1.6 3 2 1.1.5 2.4.7 3.7.7 1.1 0 2-.2 2.9-.5.9-.3 1.6-.6 2.2-1 .7-.4 1.4-.9 1.9-1.5v-3.3H204v-4.4h8.9v14.8h-4.4v-1.4c0-.1 0-.3 0-.4 0-.1 0-.3 0-.4 0-.1 0-.3 0-.4h-.1c-.6.6-1.3 1.1-2.1 1.5-.7.4-1.6.7-2.6 1-1 .3-2.2.5-3.5.5-1.9 0-3.6-.3-5.3-1-1.7-.7-3.1-1.7-4.4-2.9-1.3-1.3-2.3-2.8-3-4.6-.6-2-.9-4-.9-6.2zM233.4 37.5h-9.9l-2.4 7.2h-5.3l9.9-28.2h5.4l9.9 28.2h-5.3l-2.3-7.2zm-5-16.1c-.1.5-.2 1.1-.4 1.6-.1.5-.2.9-.4 1.4-.1.5-.3.9-.4 1.3l-2.5 7.5h7.4l-2.5-7.5c-.1-.4-.3-.8-.4-1.3-.1-.5-.2-1-.3-1.4-.2-.5-.3-1-.5-1.6zM248.9 20.9h-9.2v-4.4h23.6v4.4h-9.2v23.8H249V20.9zM267 16.6h16.9V21h-11.7v7.4h9.5v4.4h-9.5v7.6h12.4v4.4H267V16.6zM112.3 49.9h5.1v11.9h11.7V49.9h5.1V78h-5.1V66.2h-11.7V78h-5.1V49.9zM202 49.9h5.1v11.9h11.7V49.9h5.1V78h-5.1V66.2h-11.7V78H202V49.9zM141 49.9h5.1V68c0 .9.1 1.8.4 2.5.3.7.7 1.3 1.3 1.9.5.5 1.2.9 2 1.2.8.3 1.6.4 2.6.4.9 0 1.8-.1 2.6-.4.8-.3 1.4-.6 2-1.2.5-.5 1-1.1 1.3-1.9.3-.7.4-1.6.4-2.5V50h5.1v18.1c0 1.6-.3 3-.8 4.3-.5 1.3-1.3 2.4-2.3 3.3-1 .9-2.2 1.7-3.6 2.2-1.4.5-2.9.8-4.6.8-1.7 0-3.3-.3-4.7-.8-1.4-.5-2.6-1.2-3.6-2.2-1-.9-1.8-2-2.3-3.3-.5-1.3-.8-2.7-.8-4.3V49.9zM168.6 63.9c0-1.4.2-2.7.5-3.9.3-1.3.8-2.4 1.4-3.5.6-1.1 1.3-2 2.2-2.9.9-.9 1.8-1.6 2.9-2.3 1.1-.6 2.2-1.1 3.5-1.4 1.3-.3 2.6-.5 4-.5.9 0 1.7.1 2.4.2.8.1 1.5.2 2.1.4.6.2 1.2.4 1.8.6.5.2 1 .4 1.5.7 1 .5 1.9 1.1 2.7 1.8l-2.5 3.8c-.6-.5-1.3-.9-2.1-1.3-.7-.3-1.4-.6-2.4-.9-.9-.3-1.9-.4-3.1-.4-1.6 0-3 .3-4.2.8-1.2.5-2.2 1.2-3 2.1-.8.9-1.4 1.9-1.9 3.1-.4 1.2-.6 2.4-.6 3.8 0 1.5.2 2.9.7 4.1.5 1.2 1.2 2.3 2 3.2.9.9 1.9 1.6 3 2 1.1.5 2.4.7 3.7.7 1.1 0 2-.2 2.9-.5.9-.3 1.6-.6 2.2-1 .7-.4 1.4-.9 1.9-1.5v-3.3H186v-4.4h8.9V78h-4.4v-1.4c0-.1 0-.3 0-.4 0-.1 0-.3 0-.4 0-.1 0-.3 0-.4h-.1c-.6.6-1.3 1.1-2.1 1.5-.7.4-1.6.7-2.6 1-1 .3-2.2.5-3.5.5-1.9 0-3.6-.3-5.3-1-1.7-.7-3.1-1.7-4.4-2.9-1.3-1.3-2.3-2.8-3-4.6-.6-1.8-.9-3.8-.9-6zM230.5 49.9h16.9v4.4h-11.7v7.4h9.5v4.4h-9.5v7.6H248V78h-17.5V49.9zM254 70.8c.6.6 1.3 1.1 2 1.5.6.4 1.4.7 2.2 1 .8.3 1.8.5 2.8.5.5 0 1-.1 1.5-.2s.9-.4 1.3-.6c.4-.3.7-.6.9-1.1.2-.4.3-.9.3-1.5s-.2-1.2-.6-1.6c-.4-.5-.9-.9-1.5-1.3s-1.3-.7-2.1-1.1c-.8-.3-1.6-.7-2.4-1.1-.8-.4-1.6-.8-2.4-1.2-.8-.5-1.5-1-2.1-1.6-.6-.6-1.1-1.3-1.5-2.1-.4-.8-.6-1.7-.6-2.8 0-1.2.2-2.2.7-3.2.5-1 1.1-1.9 2-2.6.8-.7 1.8-1.3 3-1.7 1.1-.4 2.4-.6 3.8-.6s2.6.2 3.7.5c1 .3 1.9.7 2.6 1 .8.4 1.5.9 2.1 1.5l-2.2 4.2c-.5-.5-1.1-.9-1.8-1.2-.6-.3-1.2-.6-2-.9-.7-.3-1.6-.4-2.5-.4-.6 0-1.1.1-1.7.3-.5.2-1 .4-1.3.7-.4.3-.7.7-.9 1.1-.2.4-.3.9-.3 1.4 0 .6.2 1.2.6 1.6.4.5.9.9 1.5 1.2.6.4 1.3.7 2.1 1 .8.3 1.6.7 2.4 1 .8.4 1.6.8 2.4 1.2.8.4 1.5 1 2.1 1.6.6.6 1.1 1.3 1.5 2.2.4.8.6 1.8.6 2.9 0 1.1-.2 2.2-.6 3.2-.4 1-1 1.9-1.8 2.6-.8.8-1.8 1.4-2.9 1.8-1.1.4-2.5.7-3.9.7-.8 0-1.5-.1-2.2-.2-.7-.1-1.3-.3-1.9-.4-.6-.2-1.2-.4-1.7-.6-.5-.2-1-.5-1.4-.7-1-.6-1.8-1.2-2.5-1.9l2.7-4.1z"/></svg>