<?xml version="1.0" encoding="utf-8"?>
<!-- Generator: Adobe Illustrator 18.1.1, SVG Export Plug-In . SVG Version: 6.00 Build 0)  -->
<svg version="1.1" id="Layer_1" xmlns="http://www.w3.org/2000/svg" xmlns:xlink="http://www.w3.org/1999/xlink" x="0px" y="0px"
	 viewBox="0 0 284.5 82.7" enable-background="new 0 0 284.5 82.7" xml:space="preserve">
<g>
	<g>
		<path d="M93.6,10.7c-4.3-2.1-8.7-4-13.2-5.5l-2.9-1l-14,46.5l-5.6-3.9l5.5-18.2H32.5L38,46.9l-5.6,3.9l-14-46.5l-2.9,1
			c-4.5,1.5-9,3.3-13.2,5.5L0,11.8l21.3,70.9l26.7-18.6l26.7,18.6l21.3-70.9L93.6,10.7z M71.2,73.1L47.9,56.8L24.6,73.1L7.2,15
			c2.4-1.1,4.8-2.1,7.3-3L29,60.4l15.9-11.1l-4.4-14.7h14.8l-4.4,14.7l15.9,11.1l14.5-48.5c2.5,0.9,4.9,1.9,7.3,3L71.2,73.1z"/>
		<path d="M65.9,22.3l5.3-19.7L68.1,2c-13.2-2.6-27-2.6-40.2,0l-3.1,0.6l5.4,19.8H65.9z M63.8,7.3l-2.5,9.1H34.7l-2.5-9.1
			C42.6,5.5,53.4,5.5,63.8,7.3"/>
		<path d="M130.5,36c0.1,0.4,0.2,0.8,0.3,1.2c0.1,0.4,0.1,0.7,0.1,0.9c0,0.3,0.1,0.5,0.1,0.6c0,0.2,0,0.2,0,0.2h0.1
			c0-0.3,0-0.6,0.1-0.9c0-0.3,0.1-0.6,0.1-0.9c0.1-0.4,0.1-0.7,0.2-1.1l4.6-19.5h5.3l-7.3,28.2h-5.9L124,28.1
			c-0.1-0.5-0.2-0.9-0.3-1.3c-0.1-0.4-0.2-0.8-0.2-1.2c-0.1-0.4-0.1-0.8-0.2-1.2h-0.1c-0.1,0.4-0.1,0.7-0.2,1.2
			c-0.1,0.3-0.1,0.7-0.2,1.2c-0.1,0.4-0.2,0.9-0.3,1.3l-4.3,16.7h-5.9l-7.1-28.2h5.3l4.4,19.5c0.1,0.4,0.2,0.8,0.2,1.1
			c0.1,0.4,0.1,0.7,0.1,0.9c0.1,0.3,0.1,0.6,0.1,0.9h0.1c0,0,0-0.1,0-0.2c0-0.2,0-0.4,0.1-0.6c0-0.3,0.1-0.6,0.1-0.9
			c0.1-0.4,0.1-0.7,0.3-1.2l5.1-19.5h4.5L130.5,36z"/>
		<path d="M146,16.6h5.1v28.2H146V16.6z"/>
		<path d="M158.6,16.6h5.1l10.7,16.3c0.3,0.4,0.5,0.9,0.8,1.4c0.3,0.5,0.5,1,0.7,1.4c0.3,0.5,0.5,1,0.8,1.6h0.1
			c-0.1-0.5-0.1-1-0.1-1.5c0-0.4-0.1-0.9-0.1-1.4c0-0.5,0-1,0-1.4V16.6h5.1v28.2h-5.1l-10.7-16.2c-0.3-0.4-0.5-0.9-0.8-1.4
			c-0.3-0.5-0.5-1-0.7-1.4c-0.3-0.5-0.5-1-0.8-1.6h-0.1c0,0.5,0.1,1,0.1,1.6c0,0.5,0.1,0.9,0.1,1.4c0,0.5,0,1,0,1.4v16.2h-5.1V16.6z
			"/>
		<path d="M186.6,30.6c0-1.4,0.2-2.7,0.5-3.9c0.3-1.3,0.8-2.4,1.4-3.5c0.6-1.1,1.3-2,2.2-2.9c0.9-0.9,1.8-1.6,2.9-2.3
			c1.1-0.6,2.2-1.1,3.5-1.4c1.3-0.3,2.6-0.5,4-0.5c0.9,0,1.7,0.1,2.4,0.2c0.8,0.1,1.5,0.2,2.1,0.4c0.6,0.2,1.2,0.4,1.8,0.6
			c0.5,0.2,1,0.4,1.5,0.7c1,0.5,1.9,1.1,2.7,1.8l-2.5,3.8c-0.6-0.5-1.3-0.9-2.1-1.3c-0.7-0.3-1.4-0.6-2.4-0.9
			c-0.9-0.3-1.9-0.4-3.1-0.4c-1.6,0-3,0.3-4.2,0.8c-1.2,0.5-2.2,1.2-3,2.1c-0.8,0.9-1.4,1.9-1.8,3.1c-0.4,1.2-0.6,2.4-0.6,3.8
			c0,1.5,0.2,2.9,0.7,4.1c0.5,1.2,1.2,2.3,2,3.2c0.9,0.9,1.9,1.6,3,2c1.1,0.5,2.4,0.7,3.7,0.7c1.1,0,2-0.2,2.9-0.5
			c0.9-0.3,1.6-0.6,2.2-1c0.7-0.4,1.4-0.9,1.9-1.5v-3.3H204v-4.4h8.9v14.8h-4.4v-1.4c0-0.1,0-0.3,0-0.4c0-0.1,0-0.3,0-0.4
			c0-0.1,0-0.3,0-0.4h-0.1c-0.6,0.6-1.3,1.1-2.1,1.5c-0.7,0.4-1.6,0.7-2.6,1c-1,0.3-2.2,0.5-3.5,0.5c-1.9,0-3.6-0.3-5.3-1
			c-1.7-0.7-3.1-1.7-4.4-2.9c-1.3-1.3-2.3-2.8-3-4.6C186.9,34.8,186.6,32.8,186.6,30.6z"/>
		<path d="M233.4,37.5h-9.9l-2.4,7.2h-5.3l9.9-28.2h5.4l9.9,28.2h-5.3L233.4,37.5z M228.4,21.4c-0.1,0.5-0.2,1.1-0.4,1.6
			c-0.1,0.5-0.2,0.9-0.4,1.4c-0.1,0.5-0.3,0.9-0.4,1.3l-2.5,7.5h7.4l-2.5-7.5c-0.1-0.4-0.3-0.8-0.4-1.3c-0.1-0.5-0.2-1-0.3-1.4
			C228.7,22.5,228.6,22,228.4,21.4L228.4,21.4z"/>
		<path d="M248.9,20.9h-9.2v-4.4h23.6v4.4h-9.2v23.8h-5.1V20.9z"/>
		<path d="M267,16.6h16.9v4.4h-11.7v7.4h9.5v4.4h-9.5v7.6h12.4v4.4H267V16.6z"/>
		<path d="M112.3,49.9h5.1v11.9h11.7V49.9h5.1V78h-5.1V66.2h-11.7V78h-5.1V49.9z"/>
		<path d="M202,49.9h5.1v11.9h11.7V49.9h5.1V78h-5.1V66.2h-11.7V78H202V49.9z"/>
		<path d="M141,49.9h5.1v18.1c0,0.9,0.1,1.8,0.4,2.5c0.3,0.7,0.7,1.3,1.3,1.9c0.5,0.5,1.2,0.9,2,1.2c0.8,0.3,1.6,0.4,2.6,0.4
			c0.9,0,1.8-0.1,2.6-0.4c0.8-0.3,1.4-0.6,2-1.2c0.5-0.5,1-1.1,1.3-1.9c0.3-0.7,0.4-1.6,0.4-2.5v-18h5.1v18.1c0,1.6-0.3,3-0.8,4.3
			c-0.5,1.3-1.3,2.4-2.3,3.3c-1,0.9-2.2,1.7-3.6,2.2c-1.4,0.5-2.9,0.8-4.6,0.8c-1.7,0-3.3-0.3-4.7-0.8c-1.4-0.5-2.6-1.2-3.6-2.2
			c-1-0.9-1.8-2-2.3-3.3c-0.5-1.3-0.8-2.7-0.8-4.3V49.9z"/>
		<path d="M168.6,63.9c0-1.4,0.2-2.7,0.5-3.9c0.3-1.3,0.8-2.4,1.4-3.5c0.6-1.1,1.3-2,2.2-2.9c0.9-0.9,1.8-1.6,2.9-2.3
			c1.1-0.6,2.2-1.1,3.5-1.4c1.3-0.3,2.6-0.5,4-0.5c0.9,0,1.7,0.1,2.4,0.2c0.8,0.1,1.5,0.2,2.1,0.4c0.6,0.2,1.2,0.4,1.8,0.6
			c0.5,0.2,1,0.4,1.5,0.7c1,0.5,1.9,1.1,2.7,1.8l-2.5,3.8c-0.6-0.5-1.3-0.9-2.1-1.3c-0.7-0.3-1.4-0.6-2.4-0.9
			c-0.9-0.3-1.9-0.4-3.1-0.4c-1.6,0-3,0.3-4.2,0.8c-1.2,0.5-2.2,1.2-3,2.1c-0.8,0.9-1.4,1.9-1.9,3.1c-0.4,1.2-0.6,2.4-0.6,3.8
			c0,1.5,0.2,2.9,0.7,4.1c0.5,1.2,1.2,2.3,2,3.2c0.9,0.9,1.9,1.6,3,2c1.1,0.5,2.4,0.7,3.7,0.7c1.1,0,2-0.2,2.9-0.5
			c0.9-0.3,1.6-0.6,2.2-1c0.7-0.4,1.4-0.9,1.9-1.5v-3.3H186v-4.4h8.9V78h-4.4v-1.4c0-0.1,0-0.3,0-0.4c0-0.1,0-0.3,0-0.4
			c0-0.1,0-0.3,0-0.4h-0.1c-0.6,0.6-1.3,1.1-2.1,1.5c-0.7,0.4-1.6,0.7-2.6,1c-1,0.3-2.2,0.5-3.5,0.5c-1.9,0-3.6-0.3-5.3-1
			c-1.7-0.7-3.1-1.7-4.4-2.9c-1.3-1.3-2.3-2.8-3-4.6C168.9,68.1,168.6,66.1,168.6,63.9z"/>
		<path d="M230.5,49.9h16.9v4.4h-11.7v7.4h9.5v4.4h-9.5v7.6H248V78h-17.5V49.9z"/>
		<path d="M254,70.8c0.6,0.6,1.3,1.1,2,1.5c0.6,0.4,1.4,0.7,2.2,1c0.8,0.3,1.8,0.5,2.8,0.5c0.5,0,1-0.1,1.5-0.2
			c0.5-0.1,0.9-0.4,1.3-0.6c0.4-0.3,0.7-0.6,0.9-1.1c0.2-0.4,0.3-0.9,0.3-1.5c0-0.6-0.2-1.2-0.6-1.6c-0.4-0.5-0.9-0.9-1.5-1.3
			c-0.6-0.4-1.3-0.7-2.1-1.1c-0.8-0.3-1.6-0.7-2.4-1.1c-0.8-0.4-1.6-0.8-2.4-1.2c-0.8-0.5-1.5-1-2.1-1.6c-0.6-0.6-1.1-1.3-1.5-2.1
			c-0.4-0.8-0.6-1.7-0.6-2.8c0-1.2,0.2-2.2,0.7-3.2c0.5-1,1.1-1.9,2-2.6c0.8-0.7,1.8-1.3,3-1.7c1.1-0.4,2.4-0.6,3.8-0.6
			c1.4,0,2.6,0.2,3.7,0.5c1,0.3,1.9,0.7,2.6,1c0.8,0.4,1.5,0.9,2.1,1.5l-2.2,4.2c-0.5-0.5-1.1-0.9-1.8-1.2c-0.6-0.3-1.2-0.6-2-0.9
			c-0.7-0.3-1.6-0.4-2.5-0.4c-0.6,0-1.1,0.1-1.7,0.3c-0.5,0.2-1,0.4-1.3,0.7c-0.4,0.3-0.7,0.7-0.9,1.1c-0.2,0.4-0.3,0.9-0.3,1.4
			c0,0.6,0.2,1.2,0.6,1.6c0.4,0.5,0.9,0.9,1.5,1.2c0.6,0.4,1.3,0.7,2.1,1c0.8,0.3,1.6,0.7,2.4,1c0.8,0.4,1.6,0.8,2.4,1.2
			c0.8,0.4,1.5,1,2.1,1.6c0.6,0.6,1.1,1.3,1.5,2.2c0.4,0.8,0.6,1.8,0.6,2.9c0,1.1-0.2,2.2-0.6,3.2c-0.4,1-1,1.9-1.8,2.6
			c-0.8,0.8-1.8,1.4-2.9,1.8c-1.1,0.4-2.5,0.7-3.9,0.7c-0.8,0-1.5-0.1-2.2-0.2c-0.7-0.1-1.3-0.3-1.9-0.4c-0.6-0.2-1.2-0.4-1.7-0.6
			c-0.5-0.2-1-0.5-1.4-0.7c-1-0.6-1.8-1.2-2.5-1.9L254,70.8z"/>
	</g>
</g>
</svg>
