<?xml version="1.0" encoding="utf-8"?>
<!-- Generator: Adobe Illustrator 18.1.1, SVG Export Plug-In . SVG Version: 6.00 Build 0)  -->
<svg version="1.1" id="Layer_1" xmlns="http://www.w3.org/2000/svg" xmlns:xlink="http://www.w3.org/1999/xlink" x="0px" y="0px"
	 viewBox="104 100.4 288 191.2" enable-background="new 104 100.4 288 191.2" xml:space="preserve">
<path d="M301.5,100.4L104,100.4V247l47.1,44.7H392V188.2L301.5,100.4z M173.3,258.5l-34.9-34.9v-89.4h34.9V258.5z M278.1,224.5
	c0,22.4-10.2,34-32.5,34c-17.2,0-68.2,0-68.2,0v-34.9h100.8C278.1,223.5,278.1,224.1,278.1,224.5z M278.1,219.5h-33.2v-6.9
	c0,0-29.4,0-33.1,0c-22.5,0-34.5-10.7-34.5-33.3c0-2.1,0-4,0-6.2h33.2v5.2c0,0,30.1,0,35,0c22.5,0,32.5,12.4,32.5,34.9
	C278.1,214.2,278.1,216,278.1,219.5z M278.1,169.1h-9.3h-58.3h-33.2c0-0.6,0-0.7,0-1c0-22.6,11.8-34,34.3-34c6.1,0,66.5,0,66.5,0
	V169.1z M357.6,258.4h-76.2V134.2l34.9,34.4v54.9h41.2V258.4z"/>
</svg>
