<svg version="1.1" id="Layer_1" xmlns="http://www.w3.org/2000/svg" xmlns:xlink="http://www.w3.org/1999/xlink" x="0px" y="0px" viewBox="0 0 322 86" enable-background="new 0 0 322 86" xml:space="preserve">
<g id="XMLID_40_">
  <path id="XMLID_42_" d="M0,0v68h10V12l20,34l20-34v56h10V0h-8c-4,0-7.1,1-8.9,4L30,26.3L16.9,4C15.1,1,12,0,8,0H0z"></path>
  <path id="XMLID_45_" d="M175,0v69h19c14,0,25-11,25-26s-11-26-25-26c-3.2,0-5.7-0.1-9-0.1V0L175,0L175,0z M185,27h9
    c8.4,0,15,7.6,15,16c0,8.4-5.9,16-15,16h-9V27z"></path>
  <path id="XMLID_48_" d="M92,17c-14,0-24,11-24,26s10,26,24,26h24V43C116,28,106,17,92,17z M92,27c8,0,14,6.9,14,16v16H92
    c-8,0-14-7-14-16C78,34,84,27,92,27z"></path>
  <path id="XMLID_51_" d="M124,17v69h10V69.1c3.3,0,5.8-0.1,9-0.1c14,0,25-11,25-26s-11-26-25-26H124z M134,27h9c9.1,0,15,7.6,15,16
    c0,8.4-6.6,16-15,16h-9V27z"></path>
  <path id="XMLID_54_" d="M250,17c-13.8,0-25,11.6-25,26s11.2,26,25,26c13.8,0,25-11.6,25-26S263.8,17,250,17z M250,27
    c8.3,0,15,7.2,15,16s-6.7,16-15,16s-15-7.2-15-16S241.7,27,250,27z"></path>
  <polygon id="XMLID_55_" points="273.9,18 291.3,42.2 273,68 285.2,68 297.5,50.8 309.8,68 322,68 303.6,42.2 321,18 308.7,18
    297.5,33.6 286.2,18   "></polygon>
</g>
</svg>