<?xml version="1.0" encoding="utf-8"?>
<!-- Generator: Adobe Illustrator 19.1.0, SVG Export Plug-In . SVG Version: 6.00 Build 0)  -->
<svg version="1.1" id="Layer_1" xmlns="http://www.w3.org/2000/svg" xmlns:xlink="http://www.w3.org/1999/xlink" x="0px" y="0px"
	 viewBox="0 0 250 37.4" style="enable-background:new 0 0 250 37.4;" xml:space="preserve">
<style type="text/css">
	.st0{fill:#17B4BC;}
</style>
<g>
	<circle class="st0" cx="18.7" cy="14.6" r="2.2"/>
	<circle class="st0" cx="18.7" cy="8.9" r="2.7"/>
	<path class="st0" d="M25.6,9.2c-1.5,0-2.7,1.2-2.7,2.7c0,0.9,0.5,1.7,1.2,2.2c-2.1,2.5-3.8,5.6-4.8,9v-5.2h-1.2v5.2
		c-1-3.4-2.6-6.5-4.8-9c0.7-0.5,1.2-1.3,1.2-2.2c0-1.5-1.2-2.7-2.7-2.7c-1.5,0-2.7,1.2-2.7,2.7c0,1.5,1.2,2.7,2.7,2.7
		c0.1,0,0.2,0,0.4,0c3.7,4.2,6,10.4,5.9,16.7l0,0h1.2c-0.1-6.3,2.2-12.5,5.9-16.7c0.1,0,0.2,0,0.4,0c1.5,0,2.7-1.2,2.7-2.7
		C28.2,10.4,27,9.2,25.6,9.2z"/>
	<path class="st0" d="M18.7,1.2c9.7,0,17.5,7.9,17.5,17.5s-7.9,17.5-17.5,17.5S1.2,28.3,1.2,18.7S9,1.2,18.7,1.2 M18.7,0
		C8.4,0,0,8.4,0,18.7C0,29,8.4,37.4,18.7,37.4c10.3,0,18.7-8.4,18.7-18.7C37.4,8.4,29,0,18.7,0L18.7,0z"/>
</g>
<g>
	<path class="st0" d="M44.1,9.2h3.5L52.1,23l4.6-13.9h2.8L64,23l4.5-13.8h3.4L65.4,28h-2.9L58,14.6L53.4,28h-2.8L44.1,9.2z"/>
	<path class="st0" d="M74.6,9.2h13.8v2.9H77.9V17h9.4v2.9h-9.4v5h10.7v2.9h-14V9.2z"/>
	<path class="st0" d="M92.2,9.2h7c5.9,0,9.9,4,9.9,9.3v0.1c0,5.2-4.1,9.3-9.9,9.3h-7V9.2z M95.5,12.2v12.7h3.7
		c3.9,0,6.5-2.6,6.5-6.3v-0.1c0-3.7-2.6-6.3-6.5-6.3H95.5z"/>
	<path class="st0" d="M112.6,9.2h7c5.9,0,9.9,4,9.9,9.3v0.1c0,5.2-4.1,9.3-9.9,9.3h-7V9.2z M115.9,12.2v12.7h3.7
		c3.9,0,6.5-2.6,6.5-6.3v-0.1c0-3.7-2.6-6.3-6.5-6.3H115.9z"/>
	<path class="st0" d="M133.1,9.2h3.3v18.7h-3.3V9.2z"/>
	<path class="st0" d="M141,9.2h3l10,12.9V9.2h3.2v18.7h-2.7l-10.3-13.3v13.3H141V9.2z"/>
	<path class="st0" d="M160.8,18.6L160.8,18.6c0-5.3,4-9.7,9.6-9.7c3.3,0,5.2,0.9,7.2,2.5l-2.1,2.5c-1.4-1.2-2.9-2-5.2-2
		c-3.4,0-6,3-6,6.6v0.1c0,3.8,2.5,6.7,6.3,6.7c1.8,0,3.4-0.6,4.5-1.4v-3.5h-4.8v-2.9h7.9v7.8c-1.8,1.6-4.5,2.9-7.8,2.9
		C164.7,28.1,160.8,24,160.8,18.6z"/>
	<path class="st0" d="M180.1,9.2h2.3l5.3,15.5l5.1-15.6h1.7l5.1,15.6L205,9.2h2.2L200.6,28h-1.8l-5.1-15.1L188.5,28h-1.8L180.1,9.2z
		"/>
	<path class="st0" d="M210.4,9.2h2.1v18.7h-2.1V9.2z"/>
	<path class="st0" d="M217.5,9.2h8c2.3,0,4.1,0.7,5.3,1.9c0.9,0.9,1.4,2.2,1.4,3.7v0.1c0,3.1-2.1,4.9-5.1,5.4l5.7,7.6h-2.6l-5.4-7.2
		h-5.3v7.2h-2.1V9.2z M225.4,18.7c2.8,0,4.8-1.4,4.8-3.8v-0.1c0-2.3-1.8-3.7-4.8-3.7h-5.8v7.6H225.4z"/>
	<path class="st0" d="M236.4,9.2h13.5v1.9h-11.4v6.4h10.2v1.9h-10.2v6.5H250v1.9h-13.6V9.2z"/>
</g>
</svg>
